<svg width="32" height="32" viewBox="0 0 32 32" fill="none" xmlns="http://www.w3.org/2000/svg">
<rect width="32" height="32" fill="#222222"/>
<circle cx="16" cy="16" r="6" fill="#BDBDBD"/>
<mask id="path-2-outside-1_347_3" maskUnits="userSpaceOnUse" x="15" y="12" width="15" height="16" fill="black">
<rect fill="white" x="15" y="12" width="15" height="16"/>
<path fill-rule="evenodd" clip-rule="evenodd" d="M27.2779 17.6L24.1602 14L21.0425 17.6H22.612C22.3427 19.0842 21.5808 20.4387 20.444 21.4409C19.2165 22.5231 17.6364 23.1201 16 23.1201L16 26.0001C18.3377 26.0001 20.5951 25.1472 22.3486 23.6012C24.1021 22.0553 25.2313 19.9226 25.5243 17.6033L25.4978 17.6H27.2779Z"/>
</mask>
<path fill-rule="evenodd" clip-rule="evenodd" d="M27.2779 17.6L24.1602 14L21.0425 17.6H22.612C22.3427 19.0842 21.5808 20.4387 20.444 21.4409C19.2165 22.5231 17.6364 23.1201 16 23.1201L16 26.0001C18.3377 26.0001 20.5951 25.1472 22.3486 23.6012C24.1021 22.0553 25.2313 19.9226 25.5243 17.6033L25.4978 17.6H27.2779Z" fill="#F2C94C"/>
<path fill-rule="evenodd" clip-rule="evenodd" d="M27.2779 17.6L24.1602 14L21.0425 17.6H22.612C22.3427 19.0842 21.5808 20.4387 20.444 21.4409C19.2165 22.5231 17.6364 23.1201 16 23.1201L16 26.0001C18.3377 26.0001 20.5951 25.1472 22.3486 23.6012C24.1021 22.0553 25.2313 19.9226 25.5243 17.6033L25.4978 17.6H27.2779Z" fill="url(#paint0_radial_347_3)" fill-opacity="0.45"/>
<path d="M24.1602 14L24.9161 13.3453L24.1602 12.4725L23.4043 13.3453L24.1602 14ZM27.2779 17.6V18.6H29.4668L28.0338 16.9453L27.2779 17.6ZM21.0425 17.6L20.2866 16.9453L18.8536 18.6H21.0425V17.6ZM22.612 17.6L23.596 17.7785L23.8098 16.6H22.612V17.6ZM20.444 21.4409L19.7827 20.6908L19.7827 20.6908L20.444 21.4409ZM16 23.1201V22.1201H15L15 23.1201L16 23.1201ZM16 26.0001L15 26.0001L15 27.0001H16V26.0001ZM25.5243 17.6033L26.5164 17.7287L26.6417 16.7366L25.6496 16.6112L25.5243 17.6033ZM25.4978 17.6V16.6L25.3725 18.5921L25.4978 17.6ZM23.4043 14.6547L26.522 18.2547L28.0338 16.9453L24.9161 13.3453L23.4043 14.6547ZM21.7984 18.2547L24.9161 14.6547L23.4043 13.3453L20.2866 16.9453L21.7984 18.2547ZM22.612 16.6H21.0425V18.6H22.612V16.6ZM21.6281 17.4215C21.3989 18.6848 20.7503 19.8377 19.7827 20.6908L21.1053 22.191C22.4113 21.0397 23.2866 19.4837 23.596 17.7785L21.6281 17.4215ZM19.7827 20.6908C18.7379 21.6119 17.3929 22.1201 16 22.1201V24.1201C17.8799 24.1201 19.6952 23.4342 21.1053 22.191L19.7827 20.6908ZM15 23.1201L15 26.0001L17 26.0001L17 23.1201L15 23.1201ZM16 27.0001C18.5812 27.0001 21.0737 26.0583 23.0099 24.3513L21.6873 22.8511C20.1164 24.236 18.0942 25.0001 16 25.0001V27.0001ZM23.0099 24.3513C24.9461 22.6443 26.1929 20.2895 26.5164 17.7287L24.5322 17.478C24.2697 19.5557 23.2582 21.4662 21.6873 22.8511L23.0099 24.3513ZM25.6496 16.6112L25.6232 16.6079L25.3725 18.5921L25.399 18.5955L25.6496 16.6112ZM27.2779 16.6H25.4978V18.6H27.2779V16.6Z" fill="#0E0E10" mask="url(#path-2-outside-1_347_3)"/>
<defs>
<radialGradient id="paint0_radial_347_3" cx="0" cy="0" r="1" gradientUnits="userSpaceOnUse" gradientTransform="translate(16 26) rotate(-56.3099) scale(14.4222 13.5542)">
<stop stop-color="#DE0000"/>
<stop offset="1" stop-color="#DE0000" stop-opacity="0"/>
</radialGradient>
</defs>
</svg>
