<svg width="52" height="64" viewBox="0 0 52 64" fill="none" xmlns="http://www.w3.org/2000/svg">
<rect x="2.5" y="8.5" width="47" height="47" rx="23.5" fill="#FC93ED"/>
<rect x="2.5" y="8.5" width="47" height="47" rx="23.5" fill="url(#paint0_radial_347_12)" fill-opacity="0.65" style="mix-blend-mode:overlay"/>
<path d="M19.9292 40.728V42.228H21.4292H25.1195H26.6195V40.728V36.5689H28.2218C29.7431 36.5689 31.1364 36.2886 32.3426 35.6569C33.5344 35.0356 34.4778 34.1455 35.1277 32.9934C35.7714 31.8524 36.0712 30.5691 36.0712 29.1882C36.0712 27.8122 35.7763 26.533 35.1426 25.3944C34.5092 24.2405 33.5854 23.3426 32.4115 22.7119C31.2126 22.0621 29.8269 21.7734 28.3156 21.7734H21.4292H19.9292V23.2734V40.728ZM26.6195 30.6115V27.7905H27.6082C28.1648 27.7905 28.4967 27.887 28.6843 27.9854L28.6907 27.9887L28.6971 27.992C28.9038 28.0979 29.0151 28.2193 29.0896 28.3626L29.095 28.373L29.1005 28.3833C29.1957 28.5599 29.2701 28.8122 29.2701 29.1882C29.2701 29.5547 29.1972 29.8175 29.0929 30.0159L29.0929 30.0159L29.0896 30.0223C29.0121 30.1715 28.893 30.3039 28.6748 30.4216C28.4949 30.5163 28.1722 30.6115 27.6252 30.6115H26.6195Z" fill="#F2F2F2" stroke="#0E0E10" stroke-width="3"/>
<rect x="2.5" y="8.5" width="47" height="47" rx="23.5" stroke="#0E0E10"/>
<defs>
<radialGradient id="paint0_radial_347_12" cx="0" cy="0" r="1" gradientUnits="userSpaceOnUse" gradientTransform="translate(26 32) rotate(90) scale(24)">
<stop offset="0.679935" stop-opacity="0"/>
<stop offset="1"/>
</radialGradient>
</defs>
</svg>
