<svg width="64" height="64" viewBox="0 0 64 64" fill="none" xmlns="http://www.w3.org/2000/svg">
<rect width="64" height="64" fill="#222222"/>
<rect x="8.5" y="8.5" width="47" height="47" rx="23.5" fill="#0BA826"/>
<rect x="8.5" y="8.5" width="47" height="47" rx="23.5" fill="url(#paint0_radial_347_30)" fill-opacity="0.65" style="mix-blend-mode:overlay"/>
<path d="M33.6353 28.4368L33.6982 29.0713L32.4512 28.7731L32.4407 28.7706L32.4301 28.7682C32.1075 28.696 31.8121 28.6113 31.5423 28.5158C31.3018 28.4255 31.1126 28.3302 30.9654 28.2365C30.9059 28.196 30.8665 28.1597 30.8398 28.1295C30.8398 28.1271 30.8399 28.1245 30.84 28.1217L30.841 28.0945V28.0672C30.841 28.0078 30.8507 27.9829 30.87 27.9549C30.8986 27.9192 30.9747 27.8441 31.1732 27.7652L31.1814 27.762L31.1896 27.7586C31.3729 27.6832 31.6751 27.6155 32.145 27.6155C32.8305 27.6155 33.1832 27.7637 33.3607 27.8944C33.5075 28.0025 33.6054 28.136 33.6353 28.4368ZM36.3786 29.9191C36.2783 29.8743 36.177 29.8309 36.0746 29.7888H38.6649H40.1897L40.1647 28.2642C40.1432 26.9575 39.7879 25.7514 39.068 24.6981C38.3569 23.6576 37.3765 22.8741 36.1866 22.331C34.9867 21.7808 33.635 21.5303 32.1705 21.5303C30.7224 21.5303 29.3739 21.7829 28.1537 22.3237C26.9419 22.8607 25.9344 23.6344 25.1872 24.6627L25.1872 24.6627L25.183 24.6685C24.4149 25.7362 24.051 26.9728 24.0569 28.3151C24.0513 29.9699 24.6136 31.4253 25.8275 32.5097C26.376 32.9998 27.0068 33.408 27.7076 33.7433H25.0967H23.5624L23.5971 35.2773C23.6306 36.7585 23.9936 38.1095 24.7682 39.2487L24.7682 39.2488L24.7747 39.2582C25.5391 40.364 26.5909 41.1766 27.8708 41.7082L27.8735 41.7093C29.1392 42.2321 30.569 42.4706 32.1279 42.4706C33.6918 42.4706 35.115 42.2369 36.3524 41.7125L36.3561 41.7109C37.5851 41.1862 38.6012 40.415 39.3215 39.3656C40.052 38.3041 40.3964 37.0763 40.4035 35.7456L40.4035 35.7358L40.4035 35.7259C40.3964 34.8231 40.23 33.9627 39.8659 33.1766C39.5229 32.4242 39.0369 31.7678 38.4179 31.2167C37.8243 30.6883 37.1394 30.2587 36.3786 29.9191ZM30.1643 35.1416L30.1254 34.5696L31.8478 35.0021L31.8547 35.0039L31.8616 35.0055C32.4442 35.146 32.8956 35.2928 33.2331 35.4374L33.2331 35.4374L33.2395 35.4401C33.5184 35.5582 33.6373 35.6594 33.6782 35.7026C33.6787 35.7095 33.6791 35.7183 33.6791 35.7291C33.6791 35.8192 33.6606 35.8624 33.6182 35.9161C33.5597 35.9903 33.4379 36.1014 33.1678 36.2068L33.1678 36.2068L33.162 36.2091C32.9167 36.306 32.5693 36.3769 32.0853 36.3769C31.6055 36.3769 31.2233 36.3049 30.9173 36.1896C30.6514 36.0823 30.4813 35.9472 30.3617 35.7973C30.2752 35.6788 30.1876 35.4849 30.1643 35.1416Z" fill="#F2F2F2" stroke="#0E0E10" stroke-width="3"/>
<rect x="8.5" y="8.5" width="47" height="47" rx="23.5" stroke="#0E0E10"/>
<defs>
<radialGradient id="paint0_radial_347_30" cx="0" cy="0" r="1" gradientUnits="userSpaceOnUse" gradientTransform="translate(32 32) rotate(90) scale(24)">
<stop offset="0.679935" stop-opacity="0"/>
<stop offset="1"/>
</radialGradient>
</defs>
</svg>
