<svg width="52" height="64" viewBox="0 0 52 64" fill="none" xmlns="http://www.w3.org/2000/svg">
<g clip-path="url(#clip0_355_64)">
<rect x="2" y="8" width="48" height="48" rx="24" fill="url(#paint0_radial_355_64)"/>
<g filter="url(#filter0_d_355_64)">
<path d="M8.93945 47.9395L41.9395 14.9395" stroke="#AC0909" stroke-width="3"/>
</g>
<path d="M13.4639 40.0004V39.0004V25.9094V24.9094H14.4639H19.6286C20.7327 24.9094 21.7382 25.1066 22.6082 25.5461C23.4752 25.9777 24.1611 26.6069 24.6313 27.4311C25.0824 28.2102 25.3008 29.0944 25.3191 30.0527C25.4702 29.4421 25.6858 28.8696 25.9703 28.3389C26.5892 27.1847 27.4461 26.279 28.5415 25.6549C29.6256 25.0329 30.8348 24.7305 32.1443 24.7305C32.9968 24.7305 33.8062 24.8503 34.5652 25.0998M13.4639 40.0004L34.2536 26.0501M13.4639 40.0004H14.4639H17.2316H18.2316V39.0004V35.3597H18.6525L20.8496 39.4716L21.1322 40.0004H21.7316H24.787H26.4726L25.6647 38.521L23.3586 34.2985C23.8659 33.9368 24.2885 33.4862 24.6144 32.9456L24.6159 32.943C24.8 32.6355 24.9459 32.3101 25.0561 31.9691L13.4639 40.0004ZM34.5652 25.0998C34.5655 25.0999 34.5658 25.1 34.5661 25.1001L34.2536 26.0501M34.5652 25.0998C34.5649 25.0997 34.5646 25.0996 34.5643 25.0995L34.2536 26.0501M34.5652 25.0998C35.3257 25.3485 36.0122 25.716 36.615 26.206M34.2536 26.0501C34.9056 26.2631 35.483 26.5742 35.9859 26.9833M36.615 26.206C36.6143 26.2054 36.6137 26.2049 36.613 26.2044L35.9859 26.9833M36.615 26.206C36.6156 26.2065 36.6163 26.2071 36.617 26.2076L35.9859 26.9833M36.615 26.206L35.9859 26.9833M37.8268 34.5387C37.7858 34.8785 37.7101 35.2115 37.5996 35.5377L37.8222 35.5387L37.8268 34.5387ZM37.8268 34.5387L36.834 34.419C36.8293 34.4575 36.8242 34.4958 36.8184 34.5341L37.8268 34.5387ZM37.8268 30.4925H36.8187C36.824 30.5312 36.829 30.5703 36.8337 30.6097L37.8268 30.4925ZM37.8268 30.4925V29.4925H37.6281C37.7191 29.8076 37.7853 30.1409 37.8268 30.4925ZM38.0931 27.9976C38.0927 27.9968 38.0922 27.996 38.0918 27.9951L37.2132 28.4727L38.0944 28.0001C38.094 27.9993 38.0936 27.9984 38.0931 27.9976ZM30.1833 34.4047C30.1829 34.4039 30.1825 34.403 30.1822 34.4022L29.2678 34.8072L30.1844 34.4073C30.184 34.4065 30.1837 34.4056 30.1833 34.4047ZM33.4595 35.3625C33.4581 35.3636 33.4567 35.3647 33.4553 35.3658L34.0683 36.1559L33.4639 35.3592C33.4624 35.3603 33.461 35.3614 33.4595 35.3625ZM38.1717 36.7368C38.1719 36.7363 38.1721 36.7359 38.1724 36.7355L37.2835 36.2773L38.171 36.7381C38.1712 36.7376 38.1715 36.7372 38.1717 36.7368ZM22.5511 34.7672C22.5515 34.767 22.5519 34.7668 22.5523 34.7666C22.5526 34.7665 22.5529 34.7664 22.5532 34.7662L22.1279 33.8612L22.5511 34.7672ZM19.1109 31.1353H18.2316V29.1722H19.0981C19.5406 29.1722 19.8298 29.239 20.01 29.3202L20.0166 29.3232L20.0233 29.3262C20.2043 29.4046 20.2889 29.4944 20.3392 29.5824L20.3392 29.5825L20.3446 29.5917C20.4092 29.7019 20.4695 29.8836 20.4695 30.1857C20.4695 30.483 20.4095 30.6528 20.3511 30.7496L20.351 30.7496L20.3455 30.759C20.2989 30.8383 20.2198 30.9216 20.0446 30.9942C19.8546 31.073 19.5564 31.1353 19.1109 31.1353ZM34.7139 29.5273L34.7138 29.5274L34.7139 29.5273Z" fill="#F2F2F2" stroke="#AC0909" stroke-width="2"/>
</g>
<rect x="2.5" y="8.5" width="47" height="47" rx="23.5" stroke="#AC0909"/>
<defs>
<filter id="filter0_d_355_64" x="1.87891" y="7.87891" width="47.1211" height="47.1211" filterUnits="userSpaceOnUse" color-interpolation-filters="sRGB">
<feFlood flood-opacity="0" result="BackgroundImageFix"/>
<feColorMatrix in="SourceAlpha" type="matrix" values="0 0 0 0 0 0 0 0 0 0 0 0 0 0 0 0 0 0 127 0" result="hardAlpha"/>
<feOffset/>
<feGaussianBlur stdDeviation="3"/>
<feComposite in2="hardAlpha" operator="out"/>
<feColorMatrix type="matrix" values="0 0 0 0 0.67451 0 0 0 0 0.0352941 0 0 0 0 0.0352941 0 0 0 1 0"/>
<feBlend mode="normal" in2="BackgroundImageFix" result="effect1_dropShadow_355_64"/>
<feBlend mode="normal" in="SourceGraphic" in2="effect1_dropShadow_355_64" result="shape"/>
</filter>
<radialGradient id="paint0_radial_355_64" cx="0" cy="0" r="1" gradientUnits="userSpaceOnUse" gradientTransform="translate(26 32) rotate(90) scale(24)">
<stop offset="0.679935" stop-color="#AC0000" stop-opacity="0"/>
<stop offset="1" stop-color="#BB0000"/>
</radialGradient>
<clipPath id="clip0_355_64">
<rect x="2" y="8" width="48" height="48" rx="24" fill="white"/>
</clipPath>
</defs>
</svg>
