<svg width="32" height="32" viewBox="0 0 32 32" fill="none" xmlns="http://www.w3.org/2000/svg">
<g clip-path="url(#clip0_372_165)">
<g clip-path="url(#clip1_372_165)">
<path fill-rule="evenodd" clip-rule="evenodd" d="M32 0H0V32H32V0ZM12.551 15.5944L12.5591 15.6016C13.012 14.9014 13.7082 14.3732 14.528 14.1367C14.4627 14.0708 14.4059 13.9998 14.3578 13.9239C14.2631 13.7686 14.2195 13.5868 14.2271 13.3785C14.2271 13.1285 14.2991 12.905 14.443 12.708C14.5907 12.511 14.8029 12.3576 15.0794 12.2478C15.3559 12.1341 15.6949 12.0773 16.0964 12.0773C16.6873 12.0773 17.1551 12.2042 17.4998 12.458C17.7692 12.6563 17.9472 12.9171 18.0338 13.2403C18.058 13.3307 18.0751 13.426 18.0851 13.5262H20.443C20.4317 12.833 20.2461 12.2232 19.8862 11.6966C19.8464 11.6384 19.8048 11.5816 19.7615 11.5262C19.4132 11.0806 18.9509 10.7265 18.3748 10.4637C17.7309 10.1682 16.9771 10.0205 16.1135 10.0205C15.265 10.0205 14.5074 10.1682 13.8407 10.4637C13.1741 10.7591 12.6495 11.1701 12.2669 11.6966C11.8881 12.2232 11.7006 12.8387 11.7044 13.5432C11.7006 14.4031 11.9828 15.0868 12.551 15.5944ZM11.3976 18.1626H12.0626C12.1313 18.521 12.2547 18.86 12.4237 19.1706L11.9353 20.1626C11.5946 19.6141 11.4153 18.9474 11.3976 18.1626ZM11.9353 20.1626L12.7114 19.6154C13.3506 20.4567 14.3619 21 15.5 21C17.433 21 19 19.433 19 17.5C19 16.7927 18.7902 16.1343 18.4294 15.5839C18.4069 15.5496 18.3838 15.5157 18.3601 15.4822L18.5112 15.5262C18.5112 15.5262 19.3029 15.9485 19.6135 16.2251C19.9241 16.5016 20.1646 16.8273 20.3351 17.2023C20.5093 17.5773 20.5983 18.0073 20.6021 18.4921C20.5983 19.2042 20.4165 19.8216 20.0567 20.3444C19.7006 20.8633 19.1854 21.2667 18.5112 21.5546C17.8407 21.8387 17.032 21.9807 16.0851 21.9807C15.1457 21.9807 14.3275 21.8368 13.6305 21.5489C12.9373 21.261 12.3957 20.8349 12.0055 20.2705C11.9814 20.235 11.958 20.1991 11.9353 20.1626ZM9.70437 13.5442C9.70182 14.4874 9.93036 15.3863 10.4282 16.1626H9.35181L9.39808 18.2078C9.42382 19.3456 9.70516 20.4444 10.3517 21.3951L10.356 21.4015L10.3603 21.4078C10.9893 22.3177 11.8501 22.9751 12.8634 23.396L12.867 23.3974C13.8577 23.8066 14.9459 23.9807 16.0851 23.9807C17.2232 23.9807 18.3121 23.8111 19.2915 23.3961L19.2965 23.394C20.2609 22.9822 21.1005 22.3574 21.7049 21.4773C22.319 20.5846 22.5964 19.5649 22.6021 18.5027L22.6022 18.4896L22.6021 18.4765C22.5964 17.7574 22.4636 17.0402 22.1524 16.3673C22.0161 16.0687 21.8525 15.7879 21.6631 15.5262H22.4761L22.4428 13.4934C22.4256 12.4443 22.1374 11.4461 21.5374 10.5681C20.9491 9.70732 20.1457 9.0736 19.2069 8.64498C18.251 8.2068 17.2025 8.02051 16.1135 8.02051C15.0311 8.02051 13.9906 8.20966 13.0304 8.63521C12.0814 9.0558 11.2626 9.67642 10.6489 10.521L10.6461 10.5248L10.6434 10.5287C9.99801 11.4257 9.70034 12.4589 9.70437 13.5442Z" fill="#0BA826"/>
<path d="M18.0852 13.5262C18.0398 13.0679 17.8447 12.7118 17.5 12.458C17.1553 12.2042 16.6875 12.0773 16.0966 12.0773C15.6951 12.0773 15.356 12.1341 15.0795 12.2478C14.803 12.3576 14.5909 12.511 14.4432 12.708C14.2992 12.905 14.2273 13.1285 14.2273 13.3785C14.2197 13.5868 14.2632 13.7686 14.3579 13.9239C14.4564 14.0792 14.5909 14.2137 14.7613 14.3273C14.9318 14.4372 15.1288 14.5338 15.3523 14.6171C15.5757 14.6966 15.8144 14.7648 16.0682 14.8216L17.1136 15.0716C17.6212 15.1853 18.0871 15.3368 18.5113 15.5262C18.9356 15.7156 19.303 15.9485 19.6136 16.2251C19.9242 16.5016 20.1648 16.8273 20.3352 17.2023C20.5094 17.5773 20.5985 18.0073 20.6023 18.4921C20.5985 19.2042 20.4166 19.8216 20.0568 20.3444C19.7007 20.8633 19.1856 21.2667 18.5113 21.5546C17.8409 21.8387 17.0322 21.9807 16.0852 21.9807C15.1458 21.9807 14.3276 21.8368 13.6307 21.5489C12.9375 21.261 12.3958 20.8349 12.0057 20.2705C11.6193 19.7023 11.4166 18.9997 11.3977 18.1626H13.7784C13.8049 18.5527 13.9166 18.8785 14.1136 19.1398C14.3144 19.3974 14.5814 19.5925 14.9148 19.7251C15.2519 19.8538 15.6326 19.9182 16.0568 19.9182C16.4735 19.9182 16.8352 19.8576 17.142 19.7364C17.4526 19.6152 17.6932 19.4466 17.8636 19.2307C18.0341 19.0148 18.1193 18.7667 18.1193 18.4864C18.1193 18.2251 18.0416 18.0054 17.8863 17.8273C17.7348 17.6493 17.5113 17.4978 17.2159 17.3728C16.9242 17.2478 16.5663 17.1341 16.142 17.0319L14.875 16.7137C13.8939 16.4751 13.1193 16.1019 12.5511 15.5944C11.9829 15.0868 11.7007 14.4031 11.7045 13.5432C11.7007 12.8387 11.8882 12.2232 12.267 11.6966C12.6496 11.1701 13.1742 10.7591 13.8409 10.4637C14.5076 10.1682 15.2651 10.0205 16.1136 10.0205C16.9773 10.0205 17.731 10.1682 18.375 10.4637C19.0227 10.7591 19.5265 11.1701 19.8863 11.6966C20.2462 12.2232 20.4318 12.833 20.4432 13.5262H18.0852Z" fill="#F2F2F2"/>
</g>
</g>
<defs>
<clipPath id="clip0_372_165">
<rect width="32" height="32" fill="white"/>
</clipPath>
<clipPath id="clip1_372_165">
<rect width="32" height="32" rx="16" fill="white"/>
</clipPath>
</defs>
</svg>
