<svg width="52" height="64" viewBox="0 0 52 64" fill="none" xmlns="http://www.w3.org/2000/svg">
<g clip-path="url(#clip0_355_70)">
<rect x="2" y="8" width="48" height="48" rx="24" fill="url(#paint0_radial_355_70)"/>
<g filter="url(#filter0_d_355_70)">
<line x1="8.93934" y1="47.9393" x2="41.9393" y2="14.9393" stroke="#1B85D2" stroke-width="3"/>
</g>
<path d="M8.19922 40.0004V39.0004V25.9094V24.9094H9.19922H17.8668H18.7285H18.8668H19.7285H24.8933C25.9973 24.9094 27.0029 25.1066 27.8728 25.5461C28.7399 25.9777 29.4256 26.6069 29.8959 27.431C30.347 28.2101 30.5654 29.0944 30.5838 30.0527C30.7348 29.4421 30.9504 28.8696 31.235 28.3389C31.8539 27.1847 32.7108 26.279 33.8061 25.6549C34.8903 25.0329 36.0994 24.7305 37.4089 24.7305C38.2614 24.7305 39.0709 24.8503 39.8298 25.0998M8.19922 40.0004L39.5183 26.0501M8.19922 40.0004H9.19922H11.967H12.967V39.0004V34.5927H17.2915H18.2915V33.5927V31.3107V30.3107H17.2915H12.967V29.1914H17.8668H18.7285V39.0004V40.0004H19.7285H22.4963H23.4963V39.0004V35.3597H23.9172L26.1143 39.4716L26.3968 40.0004H26.9963H30.0517H31.7372L30.9293 38.521L28.6232 34.2985C29.1306 33.9368 29.5532 33.4862 29.879 32.9456L29.8806 32.943C30.0646 32.6355 30.2105 32.3101 30.3207 31.9691L8.19922 40.0004ZM39.8298 25.0998C39.8301 25.0999 39.8304 25.1 39.8308 25.1001L39.5183 26.0501M39.8298 25.0998C39.8295 25.0997 39.8292 25.0996 39.8289 25.0995L39.5183 26.0501M39.8298 25.0998C40.5904 25.3485 41.2769 25.716 41.8796 26.206M39.5183 26.0501C40.1703 26.2631 40.7477 26.5742 41.2505 26.9833M41.8796 26.206C41.879 26.2054 41.8783 26.2049 41.8776 26.2044L41.2505 26.9833M41.8796 26.206C41.8803 26.2065 41.881 26.2071 41.8816 26.2076L41.2505 26.9833M41.8796 26.206L41.2505 26.9833M43.0914 34.5387C43.0505 34.8785 42.9748 35.2115 42.8643 35.5377L43.0869 35.5387L43.0914 34.5387ZM43.0914 34.5387L42.0986 34.419C42.094 34.4575 42.0888 34.4958 42.083 34.5341L43.0914 34.5387ZM43.0914 30.4925H42.0833C42.0887 30.5312 42.0937 30.5703 42.0983 30.6097L43.0914 30.4925ZM43.0914 30.4925V29.4925H42.8928C42.9837 29.8076 43.05 30.1409 43.0914 30.4925ZM43.3578 27.9976C43.3573 27.9968 43.3569 27.996 43.3564 27.9951L42.4778 28.4727L43.3591 28.0001C43.3587 27.9993 43.3582 27.9984 43.3578 27.9976ZM35.448 34.4048C35.4476 34.404 35.4472 34.4031 35.4468 34.4022L34.5325 34.8072L35.4491 34.4073C35.4487 34.4065 35.4484 34.4057 35.448 34.4048ZM38.7242 35.3625C38.7228 35.3636 38.7213 35.3647 38.7199 35.3658L39.3329 36.1559L38.7285 35.3592C38.7271 35.3603 38.7256 35.3614 38.7242 35.3625ZM43.4363 36.7368C43.4366 36.7363 43.4368 36.7359 43.437 36.7355L42.5481 36.2773L43.4357 36.7381C43.4359 36.7376 43.4361 36.7372 43.4363 36.7368ZM24.3755 31.1353H23.4963V29.1722H24.3627C24.8053 29.1722 25.0945 29.239 25.2746 29.3202L25.2813 29.3232L25.288 29.3262C25.4689 29.4046 25.5536 29.4944 25.6039 29.5824L25.6038 29.5825L25.6092 29.5917C25.6738 29.7019 25.7342 29.8836 25.7342 30.1857C25.7342 30.483 25.6741 30.6528 25.6157 30.7496L25.6157 30.7496L25.6102 30.759C25.5635 30.8383 25.4844 30.9216 25.3093 30.9942C25.1192 31.073 24.821 31.1353 24.3755 31.1353ZM39.9785 29.5273L39.9785 29.5274L39.9785 29.5273Z" fill="#F2F2F2" stroke="#1B85D2" stroke-width="2"/>
</g>
<rect x="2.5" y="8.5" width="47" height="47" rx="23.5" stroke="#1B85D2"/>
<defs>
<filter id="filter0_d_355_70" x="1.87866" y="7.87891" width="47.1213" height="47.1211" filterUnits="userSpaceOnUse" color-interpolation-filters="sRGB">
<feFlood flood-opacity="0" result="BackgroundImageFix"/>
<feColorMatrix in="SourceAlpha" type="matrix" values="0 0 0 0 0 0 0 0 0 0 0 0 0 0 0 0 0 0 127 0" result="hardAlpha"/>
<feOffset/>
<feGaussianBlur stdDeviation="3"/>
<feComposite in2="hardAlpha" operator="out"/>
<feColorMatrix type="matrix" values="0 0 0 0 0.105882 0 0 0 0 0.521569 0 0 0 0 0.823529 0 0 0 1 0"/>
<feBlend mode="normal" in2="BackgroundImageFix" result="effect1_dropShadow_355_70"/>
<feBlend mode="normal" in="SourceGraphic" in2="effect1_dropShadow_355_70" result="shape"/>
</filter>
<radialGradient id="paint0_radial_355_70" cx="0" cy="0" r="1" gradientUnits="userSpaceOnUse" gradientTransform="translate(26 32) rotate(90) scale(24)">
<stop offset="0.679935" stop-color="#1B85D2" stop-opacity="0"/>
<stop offset="1" stop-color="#1B85D2"/>
</radialGradient>
<clipPath id="clip0_355_70">
<rect x="2" y="8" width="48" height="48" rx="24" fill="white"/>
</clipPath>
</defs>
</svg>
