<svg width="52" height="64" viewBox="0 0 52 64" fill="none" xmlns="http://www.w3.org/2000/svg">
<rect x="2.5" y="8.5" width="47" height="47" rx="23.5" fill="#0BA826"/>
<rect x="2.5" y="8.5" width="47" height="47" rx="23.5" fill="url(#paint0_radial_347_30)" fill-opacity="0.65" style="mix-blend-mode:overlay"/>
<path d="M27.6353 28.4368L27.6982 29.0713L26.4512 28.7731L26.4407 28.7706L26.4301 28.7682C26.1075 28.696 25.8121 28.6113 25.5423 28.5158C25.3018 28.4255 25.1126 28.3302 24.9654 28.2365C24.9059 28.196 24.8665 28.1597 24.8398 28.1295C24.8398 28.1271 24.8399 28.1245 24.84 28.1217L24.841 28.0945V28.0672C24.841 28.0078 24.8507 27.9829 24.87 27.9549C24.8986 27.9192 24.9747 27.8441 25.1732 27.7652L25.1814 27.762L25.1896 27.7586C25.3729 27.6832 25.6751 27.6155 26.145 27.6155C26.8305 27.6155 27.1832 27.7637 27.3607 27.8944C27.5075 28.0025 27.6054 28.136 27.6353 28.4368ZM30.3786 29.9191C30.2783 29.8743 30.177 29.8309 30.0746 29.7888H32.6649H34.1897L34.1647 28.2642C34.1432 26.9575 33.7879 25.7514 33.068 24.6981C32.3569 23.6576 31.3765 22.8741 30.1866 22.331C28.9867 21.7808 27.635 21.5303 26.1705 21.5303C24.7224 21.5303 23.3739 21.7829 22.1537 22.3237C20.9419 22.8607 19.9344 23.6344 19.1872 24.6627L19.1872 24.6627L19.183 24.6685C18.4149 25.7362 18.051 26.9728 18.0569 28.3151C18.0513 29.9699 18.6136 31.4253 19.8275 32.5097C20.376 32.9998 21.0068 33.408 21.7076 33.7433H19.0967H17.5624L17.5971 35.2773C17.6306 36.7585 17.9936 38.1095 18.7682 39.2487L18.7682 39.2488L18.7747 39.2582C19.5391 40.364 20.5909 41.1766 21.8708 41.7082L21.8735 41.7093C23.1392 42.2321 24.569 42.4706 26.1279 42.4706C27.6918 42.4706 29.115 42.2369 30.3524 41.7125L30.3561 41.7109C31.5851 41.1862 32.6012 40.415 33.3215 39.3656C34.052 38.3041 34.3964 37.0763 34.4035 35.7456L34.4035 35.7358L34.4035 35.7259C34.3964 34.8231 34.23 33.9627 33.8659 33.1766C33.5229 32.4242 33.0369 31.7678 32.4179 31.2167C31.8243 30.6883 31.1394 30.2587 30.3786 29.9191ZM24.1643 35.1416L24.1254 34.5696L25.8478 35.0021L25.8547 35.0039L25.8616 35.0055C26.4442 35.146 26.8956 35.2928 27.2331 35.4374L27.2331 35.4374L27.2395 35.4401C27.5184 35.5582 27.6373 35.6594 27.6782 35.7026C27.6787 35.7095 27.6791 35.7183 27.6791 35.7291C27.6791 35.8192 27.6606 35.8624 27.6182 35.9161C27.5597 35.9903 27.4379 36.1014 27.1678 36.2068L27.1678 36.2068L27.162 36.2091C26.9167 36.306 26.5693 36.3769 26.0853 36.3769C25.6055 36.3769 25.2233 36.3049 24.9173 36.1896C24.6514 36.0823 24.4813 35.9472 24.3617 35.7973C24.2752 35.6788 24.1876 35.4849 24.1643 35.1416Z" fill="#F2F2F2" stroke="#0E0E10" stroke-width="3"/>
<rect x="2.5" y="8.5" width="47" height="47" rx="23.5" stroke="#0E0E10"/>
<defs>
<radialGradient id="paint0_radial_347_30" cx="0" cy="0" r="1" gradientUnits="userSpaceOnUse" gradientTransform="translate(26 32) rotate(90) scale(24)">
<stop offset="0.679935" stop-opacity="0"/>
<stop offset="1"/>
</radialGradient>
</defs>
</svg>
