<svg width="64" height="64" viewBox="0 0 64 64" fill="none" xmlns="http://www.w3.org/2000/svg">
<rect width="64" height="64" fill="#222222"/>
<rect x="8.5" y="8.5" width="47" height="47" rx="23.5" fill="#CD1818"/>
<rect x="8.5" y="8.5" width="47" height="47" rx="23.5" fill="url(#paint0_radial_347_33)" fill-opacity="0.65" style="mix-blend-mode:overlay"/>
<path d="M16.5 40.7225V42.2225H18H21.6903H23.1903V40.7225V35.0123H27.6818V40.7225V42.2225H29.1818H32.8636H34.3636V40.7225V38.0129C34.5352 38.4469 34.7514 38.8596 35.0153 39.2478L35.0153 39.2478L35.0218 39.2573C35.7862 40.363 36.838 41.1757 38.1179 41.7072L38.1205 41.7083C39.3863 42.2311 40.8161 42.4696 42.375 42.4696C43.9389 42.4696 45.362 42.2359 46.5994 41.7116L46.6032 41.71C47.8322 41.1852 48.8483 40.414 49.5686 39.3646C50.299 38.3031 50.6435 37.0753 50.6505 35.7447L50.6506 35.7348L50.6505 35.725C50.6435 34.8223 50.4771 33.962 50.1131 33.176C49.7702 32.4234 49.2841 31.7669 48.665 31.2158C48.0714 30.6873 47.3864 30.2577 46.6257 29.9181C46.5254 29.8733 46.4241 29.8299 46.3217 29.7878H48.9119H50.4367L50.4117 28.2632C50.3903 26.9565 50.035 25.7505 49.3151 24.6971C48.604 23.6566 47.6236 22.8731 46.4337 22.33C45.2338 21.7798 43.8821 21.5293 42.4176 21.5293C40.9695 21.5293 39.6209 21.782 38.4008 22.3227C37.189 22.8597 36.1814 23.6334 35.4342 24.6618L35.4301 24.6675C34.8456 25.4799 34.4952 26.3902 34.3636 27.3703V23.2679V21.7679H32.8636H29.1818H27.6818V23.2679V28.9696H23.1903V23.2679V21.7679H21.6903H18H16.5V23.2679V40.7225ZM35.3438 33.7424H34.3636V29.2404C34.5372 30.512 35.0928 31.6317 36.0745 32.5087C36.6231 32.9988 37.2539 33.407 37.9546 33.7424H35.3438ZM40.4113 35.1407L40.3724 34.5686L42.0949 35.0012L42.1018 35.0029L42.1087 35.0046C42.6912 35.145 43.1427 35.2918 43.4801 35.4364L43.4801 35.4364L43.4866 35.4392C43.7655 35.5572 43.8844 35.6584 43.9253 35.7016C43.9258 35.7085 43.9261 35.7173 43.9261 35.7282C43.9261 35.8183 43.9077 35.8614 43.8653 35.9152C43.8067 35.9893 43.685 36.1004 43.4149 36.2058L43.4091 36.2081C43.1638 36.305 42.8164 36.3759 42.3324 36.3759C41.8526 36.3759 41.4704 36.3039 41.1644 36.1886C40.8985 36.0813 40.7284 35.9463 40.6088 35.7964C40.5223 35.6779 40.4347 35.484 40.4113 35.1407ZM43.8823 28.4359L43.9452 29.0703L42.6983 28.7721L42.6877 28.7696L42.6771 28.7672C42.3546 28.695 42.0592 28.6104 41.7894 28.5149C41.5489 28.4245 41.3597 28.3292 41.2125 28.2355C41.153 28.195 41.1136 28.1588 41.0869 28.1286C41.0869 28.1261 41.087 28.1235 41.0871 28.1207L41.0881 28.0935V28.0662C41.0881 28.0069 41.0977 27.982 41.117 27.954C41.1456 27.9184 41.2216 27.8432 41.4203 27.7642L41.4285 27.761L41.4366 27.7576C41.62 27.6823 41.9221 27.6145 42.392 27.6145C43.0776 27.6145 43.4302 27.7627 43.6078 27.8935C43.7545 28.0015 43.8525 28.135 43.8823 28.4359Z" fill="#F2F2F2" stroke="#0E0E10" stroke-width="3"/>
<rect x="8.5" y="8.5" width="47" height="47" rx="23.5" stroke="#0E0E10"/>
<defs>
<radialGradient id="paint0_radial_347_33" cx="0" cy="0" r="1" gradientUnits="userSpaceOnUse" gradientTransform="translate(32 32) rotate(90) scale(24)">
<stop offset="0.679935" stop-opacity="0"/>
<stop offset="1"/>
</radialGradient>
</defs>
</svg>
