<svg width="48" height="48" viewBox="0 0 48 48" fill="none" xmlns="http://www.w3.org/2000/svg">
<g clip-path="url(#clip0_444_36)">
<g clip-path="url(#clip1_444_36)">
<g clip-path="url(#clip2_444_36)">
<path d="M14.2398 9.45695C13.1937 10.5031 13.2028 12.2027 14.2604 13.2603L20.9522 19.9521L24.735 16.1693L18.0432 9.4775C16.9856 8.41996 15.286 8.41077 14.2398 9.45695ZM25.6293 5.71528C24.5717 4.65774 22.8721 4.64855 21.8259 5.69473C20.7798 6.7409 20.789 8.44052 21.8465 9.49806L26.6264 14.2779L30.4092 10.4952L25.6293 5.71528ZM14.2809 17.0636C13.2234 16.0061 11.5238 15.9969 10.4776 17.0431C9.43144 18.0892 9.44062 19.7889 10.4982 20.8464L16.234 26.5822C17.2916 27.6398 18.9912 27.649 20.0374 26.6028C21.0835 25.5566 21.0743 23.857 20.0168 22.7995L14.2809 17.0636ZM12.4307 26.5617C11.3731 25.5041 9.67351 25.4949 8.62734 26.5411C7.58116 27.5873 7.59035 29.2869 8.6479 30.3445L12.4718 34.1684C13.5293 35.2259 15.229 35.2351 16.2751 34.1889C17.3213 33.1427 17.3121 31.4431 16.2546 30.3856L12.4307 26.5617ZM23.3627 26.1454L23.3269 26.1095C23.0939 26.9878 22.6408 27.8232 21.9493 28.5147C21.1691 29.2949 20.209 29.777 19.1998 29.9736C20.1734 31.9756 19.8361 34.4518 18.1871 36.1009C17.4955 36.7924 16.6661 37.2514 15.7819 37.4784L16.2957 37.9923C19.4205 41.1171 23.6824 42.4118 27.7263 41.8573L33.4621 47.5931C34.5196 48.6507 36.2193 48.6598 37.2654 47.6137L46.7224 38.1567C47.7686 37.1105 47.7594 35.4109 46.7018 34.3534L42.0176 29.6691C42.5681 28.1746 42.8566 26.5835 42.8478 24.9552L42.8403 23.5765C42.8249 20.724 41.6751 17.9783 39.6496 15.9528L38.0364 14.3396C35.9273 12.2305 32.5162 12.2121 30.4297 14.2985L25.2284 19.4998C23.9222 20.8061 23.9337 22.9335 25.2541 24.254C26.5745 25.5744 28.702 25.5859 30.0083 24.2797L33.3182 20.9697C33.8383 20.4496 34.6941 20.4542 35.2199 20.98C35.7456 21.5058 35.7503 22.3616 35.2301 22.8817L31.9202 26.1916C29.5678 28.544 25.7407 28.5234 23.3627 26.1454Z" fill="#F2F2F2"/>
</g>
</g>
<rect x="0.5" y="0.5" width="47" height="47" rx="23.5" stroke="#F2F2F2"/>
</g>
<defs>
<clipPath id="clip0_444_36">
<rect width="48" height="48" fill="white"/>
</clipPath>
<clipPath id="clip1_444_36">
<rect width="48" height="48" rx="24" fill="white"/>
</clipPath>
<clipPath id="clip2_444_36">
<rect width="32.0979" height="43.2624" fill="white" transform="matrix(-0.707107 0.707107 0.707107 0.707107 23.6968 0)"/>
</clipPath>
</defs>
</svg>
