<svg width="48" height="64" viewBox="0 0 48 64" fill="none" xmlns="http://www.w3.org/2000/svg">
<rect x="0.5" y="8.5" width="47" height="47" rx="23.5" fill="#CD1818"/>
<rect x="0.5" y="8.5" width="47" height="47" rx="23.5" fill="url(#paint0_radial_347_33)" fill-opacity="0.65" style="mix-blend-mode:overlay"/>
<path d="M8.5 42.2225V40.7225V23.2679V21.7679H10H13.6903H15.1903V23.2679V28.9696H19.6818V23.2679V21.7679H21.1818H24.8636H26.3636V23.2679V27.3703C26.4952 26.3902 26.8456 25.4799 27.4301 24.6675L27.4342 24.6618C28.1814 23.6334 29.189 22.8597 30.4008 22.3227C31.6209 21.782 32.9695 21.5293 34.4176 21.5293C35.8821 21.5293 37.2338 21.7798 38.4337 22.3301C39.6236 22.8731 40.604 23.6566 41.3151 24.6971C42.035 25.7505 42.3903 26.9565 42.4117 28.2632L42.4367 29.7878H40.9119H38.3217C38.4241 29.8299 38.5254 29.8733 38.6257 29.9181C39.3864 30.2577 40.0714 30.6873 40.665 31.2158C41.2841 31.7669 41.7702 32.4234 42.1131 33.176C42.4771 33.962 42.6435 34.8223 42.6505 35.725L42.6506 35.7348L42.6505 35.7447C42.6435 37.0749 42.2992 38.3024 41.5692 39.3637L8.5 42.2225ZM8.5 42.2225H10H13.6903H15.1903V40.7225V35.0123H19.6818V40.7225V42.2225H21.1818H24.8636H26.3636V40.7225V38.0129M8.5 42.2225L26.3636 38.0129M26.3636 38.0129C26.5352 38.4469 26.7514 38.8596 27.0153 39.2478L27.0153 39.2478L27.0218 39.2573C27.7862 40.363 28.838 41.1757 30.1179 41.7072L30.1205 41.7083C31.3863 42.2311 32.8161 42.4696 34.375 42.4696C35.9389 42.4696 37.362 42.2359 38.5994 41.7116L38.6032 41.71C39.8318 41.1854 40.8477 40.4145 41.5679 39.3656L26.3636 38.0129ZM35.8823 28.4359L35.9452 29.0703L34.6983 28.7721L34.6877 28.7696L34.6771 28.7672C34.3546 28.695 34.0592 28.6104 33.7894 28.5149C33.5489 28.4245 33.3597 28.3292 33.2125 28.2355C33.153 28.195 33.1136 28.1588 33.0869 28.1286C33.0869 28.1261 33.087 28.1235 33.0871 28.1207L33.0881 28.0935V28.0662C33.0881 28.0069 33.0977 27.982 33.117 27.954C33.1456 27.9184 33.2216 27.8432 33.4203 27.7642L33.4285 27.761L33.4366 27.7576C33.62 27.6823 33.9221 27.6145 34.392 27.6145C35.0776 27.6145 35.4302 27.7627 35.6078 27.8935C35.7545 28.0015 35.8525 28.135 35.8823 28.4359ZM26.3636 33.7424V29.2404C26.5372 30.512 27.0928 31.6317 28.0745 32.5087C28.6231 32.9988 29.2539 33.407 29.9546 33.7424H27.3438H26.3636ZM32.4113 35.1407L32.3724 34.5686L34.0949 35.0012L34.1018 35.0029L34.1087 35.0046C34.6912 35.145 35.1427 35.2918 35.4801 35.4364L35.4801 35.4364L35.4866 35.4392C35.7655 35.5572 35.8844 35.6584 35.9253 35.7016C35.9258 35.7085 35.9261 35.7173 35.9261 35.7282C35.9261 35.8183 35.9077 35.8614 35.8653 35.9152C35.8067 35.9893 35.685 36.1004 35.4149 36.2058L35.4091 36.2081C35.1638 36.305 34.8164 36.3759 34.3324 36.3759C33.8526 36.3759 33.4703 36.3039 33.1643 36.1886C32.8984 36.0813 32.7284 35.9462 32.6088 35.7964C32.5223 35.6778 32.4346 35.4839 32.4113 35.1407Z" fill="#F2F2F2" stroke="#0E0E10" stroke-width="3"/>
<rect x="0.5" y="8.5" width="47" height="47" rx="23.5" stroke="#0E0E10"/>
<defs>
<radialGradient id="paint0_radial_347_33" cx="0" cy="0" r="1" gradientUnits="userSpaceOnUse" gradientTransform="translate(24 32) rotate(90) scale(24)">
<stop offset="0.679935" stop-opacity="0"/>
<stop offset="1"/>
</radialGradient>
</defs>
</svg>
