<svg width="64" height="64" viewBox="0 0 64 64" fill="none" xmlns="http://www.w3.org/2000/svg">
<rect width="64" height="64" fill="#222222"/>
<rect x="8.5" y="8.5" width="47" height="47" rx="23.5" fill="#FC93ED"/>
<rect x="8.5" y="8.5" width="47" height="47" rx="23.5" fill="url(#paint0_radial_347_12)" fill-opacity="0.65" style="mix-blend-mode:overlay"/>
<path d="M25.9292 40.728V42.228H27.4292H31.1195H32.6195V40.728V36.5689H34.2218C35.7431 36.5689 37.1364 36.2886 38.3426 35.6569C39.5344 35.0356 40.4778 34.1455 41.1277 32.9934C41.7714 31.8524 42.0712 30.5691 42.0712 29.1882C42.0712 27.8122 41.7763 26.533 41.1426 25.3944C40.5092 24.2405 39.5854 23.3426 38.4115 22.7119C37.2126 22.0621 35.8269 21.7734 34.3156 21.7734H27.4292H25.9292V23.2734V40.728ZM32.6195 30.6115V27.7905H33.6082C34.1648 27.7905 34.4967 27.887 34.6843 27.9854L34.6907 27.9887L34.6971 27.992C34.9038 28.0979 35.0151 28.2193 35.0896 28.3626L35.095 28.373L35.1005 28.3833C35.1957 28.5599 35.2701 28.8122 35.2701 29.1882C35.2701 29.5547 35.1972 29.8175 35.0929 30.0159L35.0929 30.0159L35.0896 30.0223C35.0121 30.1715 34.893 30.3039 34.6748 30.4216C34.4949 30.5163 34.1722 30.6115 33.6252 30.6115H32.6195Z" fill="#F2F2F2" stroke="#0E0E10" stroke-width="3"/>
<rect x="8.5" y="8.5" width="47" height="47" rx="23.5" stroke="#0E0E10"/>
<defs>
<radialGradient id="paint0_radial_347_12" cx="0" cy="0" r="1" gradientUnits="userSpaceOnUse" gradientTransform="translate(32 32) rotate(90) scale(24)">
<stop offset="0.679935" stop-opacity="0"/>
<stop offset="1"/>
</radialGradient>
</defs>
</svg>
