<svg width="32" height="32" viewBox="0 0 32 32" fill="none" xmlns="http://www.w3.org/2000/svg">
<g clip-path="url(#clip0_372_154)">
<g clip-path="url(#clip1_372_154)">
<path fill-rule="evenodd" clip-rule="evenodd" d="M32 0H0V32H32V0ZM10.9529 8.18262V23.819H17.4131V20.0463H17.4813C18.6158 20.0463 19.7122 19.8373 20.6916 19.3245C21.6481 18.8257 22.423 18.0992 22.9562 17.1539C23.4811 16.2235 23.7142 15.1943 23.7142 14.1258C23.7142 13.0637 23.4858 12.0399 22.9704 11.1129C22.4516 10.1689 21.6934 9.43578 20.7492 8.92819C19.7721 8.39901 18.6764 8.18262 17.5438 8.18262H10.9529ZM17.4813 18.0463H15.4131V21.819H12.9529V10.1826H17.5438C18.4264 10.1826 19.1783 10.3512 19.7995 10.6883C20.4207 11.0216 20.8942 11.4856 21.2199 12.0803C21.5495 12.6713 21.7142 13.3531 21.7142 14.1258C21.7142 14.8985 21.5476 15.5803 21.2142 16.1713C20.8809 16.7622 20.398 17.2224 19.7654 17.5519C19.1838 17.8567 18.4889 18.0206 17.6805 18.0435C17.6149 18.0453 17.5485 18.0463 17.4813 18.0463ZM17.0836 16.0747H15.4131V12.194H17.0722C17.191 12.194 17.3046 12.199 17.4131 12.2091C17.7404 12.2396 18.0207 12.316 18.254 12.4383C18.5646 12.5974 18.7957 12.8228 18.9472 13.1144C19.1025 13.4023 19.1802 13.7394 19.1802 14.1258C19.1802 14.5084 19.1025 14.8474 18.9472 15.1428C18.7957 15.4345 18.5646 15.6637 18.254 15.8303C18.0525 15.9373 17.8149 16.0092 17.5414 16.0459C17.5312 16.0473 17.5209 16.0486 17.5106 16.0499C17.5009 16.0511 17.4911 16.0522 17.4813 16.0534C17.4588 16.0559 17.4361 16.0582 17.4131 16.0603C17.3082 16.0699 17.1983 16.0747 17.0836 16.0747Z" fill="#FC93ED"/>
<path d="M12.9529 21.819V10.1826H17.5438C18.4264 10.1826 19.1783 10.3512 19.7995 10.6883C20.4207 11.0216 20.8942 11.4856 21.2199 12.0803C21.5495 12.6713 21.7142 13.3531 21.7142 14.1258C21.7142 14.8985 21.5476 15.5803 21.2142 16.1713C20.8809 16.7622 20.398 17.2224 19.7654 17.5519C19.1366 17.8815 18.3752 18.0463 17.4813 18.0463H14.5552V16.0747H17.0836C17.557 16.0747 17.9472 15.9932 18.254 15.8303C18.5646 15.6637 18.7957 15.4345 18.9472 15.1428C19.1025 14.8474 19.1802 14.5084 19.1802 14.1258C19.1802 13.7394 19.1025 13.4023 18.9472 13.1144C18.7957 12.8228 18.5646 12.5974 18.254 12.4383C17.9434 12.2754 17.5495 12.194 17.0722 12.194H15.4131V21.819H12.9529Z" fill="#F2F2F2"/>
</g>
</g>
<defs>
<clipPath id="clip0_372_154">
<rect width="32" height="32" fill="white"/>
</clipPath>
<clipPath id="clip1_372_154">
<rect width="32" height="32" rx="16" fill="white"/>
</clipPath>
</defs>
</svg>
