<svg  viewBox="0 0 32 32" fill="none" xmlns="http://www.w3.org/2000/svg">
<g clip-path="url(#clip0_372_171)">
<g clip-path="url(#clip1_372_171)">
<path fill-rule="evenodd" clip-rule="evenodd" d="M32 0H0V32H32V0ZM20.5688 9.12854C19.3721 8.46925 18.0186 8.18262 16.5832 8.18262H10.4241V23.819H16.5491C17.993 23.819 19.3538 23.5335 20.5553 22.8742C21.7577 22.2166 22.6912 21.2585 23.3264 20.0425C23.9657 18.8259 24.2423 17.4508 24.2423 15.9894C24.2423 14.531 23.9653 13.1583 23.3247 11.9445C22.6909 10.7364 21.7634 9.78283 20.5688 9.12854Z" fill="#F0B13D"/>
<path d="M16.5491 21.819H12.4241V10.1826H16.5832C17.7536 10.1826 18.7612 10.4156 19.6059 10.8815C20.4506 11.3436 21.1002 12.0084 21.5548 12.8758C22.0131 13.7432 22.2423 14.7811 22.2423 15.9894C22.2423 17.2016 22.0131 18.2432 21.5548 19.1144C21.1002 19.9856 20.4468 20.6542 19.5945 21.1201C18.746 21.586 17.7309 21.819 16.5491 21.819ZM14.8843 19.711H16.4468C17.1741 19.711 17.7858 19.5822 18.282 19.3247C18.782 19.0633 19.157 18.6599 19.407 18.1144C19.6608 17.5652 19.7877 16.8569 19.7877 15.9894C19.7877 15.1296 19.6608 14.4269 19.407 13.8815C19.157 13.336 18.7839 12.9345 18.2877 12.6769C17.7915 12.4194 17.1798 12.2906 16.4525 12.2906H14.8843V19.711Z" fill="#F2F2F2"/>
</g>
</g>
<defs>
<clipPath id="clip0_372_171">
<rect width="32" height="32" fill="white"/>
</clipPath>
<clipPath id="clip1_372_171">
<rect width="32" height="32" rx="16" fill="white"/>
</clipPath>
</defs>
</svg>
