<svg width="52" height="64" viewBox="0 0 52 64" fill="none" xmlns="http://www.w3.org/2000/svg">
<rect x="2.5" y="8.5" width="47" height="47" rx="23.5" fill="#CD1818"/>
<rect x="2.5" y="8.5" width="47" height="47" rx="23.5" fill="url(#paint0_radial_347_33)" fill-opacity="0.65" style="mix-blend-mode:overlay"/>
<path d="M10.5 40.7225V42.2225H12H15.6903H17.1903V40.7225V35.0123H21.6818V40.7225V42.2225H23.1818H26.8636H28.3636V40.7225V38.0129C28.5352 38.4469 28.7514 38.8596 29.0153 39.2478L29.0153 39.2478L29.0218 39.2573C29.7862 40.363 30.838 41.1757 32.1179 41.7072L32.1205 41.7083C33.3863 42.2311 34.8161 42.4696 36.375 42.4696C37.9389 42.4696 39.362 42.2359 40.5994 41.7116L40.6032 41.71C41.8322 41.1852 42.8483 40.414 43.5686 39.3646C44.299 38.3031 44.6435 37.0753 44.6505 35.7447L44.6506 35.7348L44.6505 35.725C44.6435 34.8223 44.4771 33.962 44.1131 33.176C43.7702 32.4234 43.2841 31.7669 42.665 31.2158C42.0714 30.6873 41.3864 30.2577 40.6257 29.9181C40.5254 29.8733 40.4241 29.8299 40.3217 29.7878H42.9119H44.4367L44.4117 28.2632C44.3903 26.9565 44.035 25.7505 43.3151 24.6971C42.604 23.6566 41.6236 22.8731 40.4337 22.33C39.2338 21.7798 37.8821 21.5293 36.4176 21.5293C34.9695 21.5293 33.6209 21.782 32.4008 22.3227C31.189 22.8597 30.1814 23.6334 29.4342 24.6618L29.4301 24.6675C28.8456 25.4799 28.4952 26.3902 28.3636 27.3703V23.2679V21.7679H26.8636H23.1818H21.6818V23.2679V28.9696H17.1903V23.2679V21.7679H15.6903H12H10.5V23.2679V40.7225ZM29.3438 33.7424H28.3636V29.2404C28.5372 30.512 29.0928 31.6317 30.0745 32.5087C30.6231 32.9988 31.2539 33.407 31.9546 33.7424H29.3438ZM34.4113 35.1407L34.3724 34.5686L36.0949 35.0012L36.1018 35.0029L36.1087 35.0046C36.6912 35.145 37.1427 35.2918 37.4801 35.4364L37.4801 35.4364L37.4866 35.4392C37.7655 35.5572 37.8844 35.6584 37.9253 35.7016C37.9258 35.7085 37.9261 35.7173 37.9261 35.7282C37.9261 35.8183 37.9077 35.8614 37.8653 35.9152C37.8067 35.9893 37.685 36.1004 37.4149 36.2058L37.4091 36.2081C37.1638 36.305 36.8164 36.3759 36.3324 36.3759C35.8526 36.3759 35.4704 36.3039 35.1644 36.1886C34.8985 36.0813 34.7284 35.9463 34.6088 35.7964C34.5223 35.6779 34.4347 35.484 34.4113 35.1407ZM37.8823 28.4359L37.9452 29.0703L36.6983 28.7721L36.6877 28.7696L36.6771 28.7672C36.3546 28.695 36.0592 28.6104 35.7894 28.5149C35.5489 28.4245 35.3597 28.3292 35.2125 28.2355C35.153 28.195 35.1136 28.1588 35.0869 28.1286C35.0869 28.1261 35.087 28.1235 35.0871 28.1207L35.0881 28.0935V28.0662C35.0881 28.0069 35.0977 27.982 35.117 27.954C35.1456 27.9184 35.2216 27.8432 35.4203 27.7642L35.4285 27.761L35.4366 27.7576C35.62 27.6823 35.9221 27.6145 36.392 27.6145C37.0776 27.6145 37.4302 27.7627 37.6078 27.8935C37.7545 28.0015 37.8525 28.135 37.8823 28.4359Z" fill="#F2F2F2" stroke="#0E0E10" stroke-width="3"/>
<rect x="2.5" y="8.5" width="47" height="47" rx="23.5" stroke="#0E0E10"/>
<defs>
<radialGradient id="paint0_radial_347_33" cx="0" cy="0" r="1" gradientUnits="userSpaceOnUse" gradientTransform="translate(26 32) rotate(90) scale(24)">
<stop offset="0.679935" stop-opacity="0"/>
<stop offset="1"/>
</radialGradient>
</defs>
</svg>
