<svg viewBox="0 0 32 32" fill="none" xmlns="http://www.w3.org/2000/svg">
<g clip-path="url(#clip0_372_168)">
<g clip-path="url(#clip1_372_168)">
<path fill-rule="evenodd" clip-rule="evenodd" d="M32 0H0V32H32V0ZM4.66667 8.17862V23.815H11.1269V19.0082H12.1212V23.815H18.5758V22.7882C18.9221 23.0276 19.2968 23.2296 19.695 23.395L19.6986 23.3965C20.6893 23.8056 21.7775 23.9798 22.9167 23.9798C24.0548 23.9798 25.1437 23.8101 26.1231 23.3951L26.1281 23.393C27.0921 22.9814 27.9314 22.357 28.5356 21.4775C29.1503 20.5846 29.428 19.5644 29.4337 18.5018L29.4338 18.4886L29.4337 18.4755C29.428 17.7564 29.2952 17.0393 28.984 16.3663C28.8477 16.0677 28.6841 15.7869 28.4947 15.5252H29.3077L29.2744 13.4924C29.2572 12.4433 28.969 11.4451 28.369 10.5672C27.7807 9.70634 26.9773 9.07263 26.0385 8.644C25.0826 8.20583 24.0341 8.01953 22.9451 8.01953C21.8627 8.01953 20.8222 8.20868 19.862 8.63423C19.3994 8.83924 18.9678 9.09177 18.5758 9.3946V8.17862H12.1212V12.9798H11.1269V8.17862H4.66667ZM14.1212 17.0082H9.12689V21.815H6.66667V10.1786H9.12689V14.9798H14.1212V10.1786H16.5758V21.815H14.1212V17.0082ZM18.5758 14.0889C18.5484 13.9154 18.5351 13.7332 18.536 13.5423C18.535 13.3497 18.5482 13.1637 18.5758 12.9845C18.649 12.5079 18.8232 12.0783 19.0985 11.6957C19.4811 11.1692 20.0057 10.7582 20.6723 10.4627C21.339 10.1673 22.0966 10.0195 22.9451 10.0195C23.8087 10.0195 24.5625 10.1673 25.2064 10.4627C25.7825 10.7255 26.2448 11.0797 26.5931 11.5252C26.6364 11.5806 26.678 11.6374 26.7178 11.6957C27.0777 12.2222 27.2633 12.832 27.2746 13.5252H24.9167C24.9067 13.425 24.8896 13.3297 24.8654 13.2393C24.7788 12.9161 24.6008 12.6553 24.3314 12.457C23.9867 12.2032 23.5189 12.0763 22.928 12.0763C22.5265 12.0763 22.1875 12.1332 21.911 12.2468C21.6345 12.3567 21.4223 12.5101 21.2746 12.707C21.1307 12.904 21.0587 13.1275 21.0587 13.3775C21.0511 13.5858 21.0947 13.7676 21.1894 13.9229C21.2879 14.0782 21.4223 14.2127 21.5928 14.3264C21.7633 14.4362 21.9602 14.5328 22.1837 14.6161C22.4072 14.6957 22.6458 14.7639 22.8996 14.8207L23.9451 15.0707C24.288 15.1474 24.6118 15.2415 24.9167 15.3528C25.0631 15.4063 25.2051 15.4638 25.3428 15.5252C25.767 15.7146 26.1345 15.9476 26.4451 16.2241C26.7557 16.5006 26.9962 16.8263 27.1667 17.2013C27.3409 17.5763 27.4299 18.0063 27.4337 18.4911C27.4299 19.2032 27.2481 19.8207 26.8883 20.3434C26.5322 20.8623 26.017 21.2657 25.3428 21.5536C24.6723 21.8377 23.8636 21.9798 22.9167 21.9798C21.9773 21.9798 21.1591 21.8358 20.4621 21.5479C19.7689 21.2601 19.2273 20.8339 18.8371 20.2695C18.813 20.2341 18.7896 20.1981 18.7669 20.1616C18.6963 20.0478 18.6325 19.929 18.5758 19.8051C18.3588 19.3315 18.2432 18.7837 18.2292 18.1616H20.6098C20.6179 18.2794 20.6336 18.3914 20.6572 18.4975C20.7117 18.7427 20.8076 18.9564 20.9451 19.1389C21.1458 19.3964 21.4129 19.5915 21.7462 19.7241C22.0833 19.8529 22.464 19.9173 22.8883 19.9173C23.3049 19.9173 23.6667 19.8567 23.9735 19.7354C24.2841 19.6142 24.5246 19.4457 24.6951 19.2298C24.8655 19.0139 24.9508 18.7657 24.9508 18.4854C24.9508 18.2241 24.8731 18.0044 24.7178 17.8263C24.5663 17.6483 24.3428 17.4968 24.0473 17.3718C23.7557 17.2468 23.3977 17.1332 22.9735 17.0309L21.7064 16.7127C21.3066 16.6155 20.9411 16.4959 20.6098 16.354C20.4695 16.2938 20.3354 16.2297 20.2074 16.1616C19.896 15.9959 19.6211 15.8065 19.3826 15.5934C18.9405 15.1985 18.6716 14.697 18.5758 14.0889Z" fill="#BF2D2D"/>
<path d="M6.66675 21.815V10.1786H9.12698V14.9798H14.1213V10.1786H16.5758V21.815H14.1213V17.0082H9.12698V21.815H6.66675Z" fill="#F2F2F2"/>
<path d="M24.9167 13.5252C24.8713 13.0669 24.6762 12.7108 24.3315 12.457C23.9868 12.2032 23.519 12.0763 22.9281 12.0763C22.5266 12.0763 22.1876 12.1332 21.9111 12.2468C21.6346 12.3567 21.4224 12.5101 21.2747 12.707C21.1308 12.904 21.0588 13.1275 21.0588 13.3775C21.0512 13.5858 21.0948 13.7676 21.1895 13.9229C21.288 14.0782 21.4224 14.2127 21.5929 14.3264C21.7633 14.4362 21.9603 14.5328 22.1838 14.6161C22.4073 14.6957 22.6459 14.7639 22.8997 14.8207L23.9452 15.0707C24.4527 15.1843 24.9186 15.3358 25.3429 15.5252C25.7671 15.7146 26.1346 15.9476 26.4452 16.2241C26.7558 16.5006 26.9963 16.8264 27.1667 17.2014C27.341 17.5764 27.43 18.0063 27.4338 18.4911C27.43 19.2032 27.2482 19.8207 26.8883 20.3434C26.5323 20.8623 26.0171 21.2657 25.3429 21.5536C24.6724 21.8377 23.8637 21.9798 22.9167 21.9798C21.9774 21.9798 21.1592 21.8358 20.4622 21.5479C19.769 21.2601 19.2274 20.8339 18.8372 20.2695C18.4508 19.7014 18.2482 18.9987 18.2292 18.1616H20.6099C20.6364 18.5517 20.7482 18.8775 20.9452 19.1389C21.1459 19.3964 21.413 19.5915 21.7463 19.7241C22.0834 19.8529 22.4641 19.9173 22.8883 19.9173C23.305 19.9173 23.6667 19.8567 23.9736 19.7354C24.2842 19.6142 24.5247 19.4457 24.6952 19.2298C24.8656 19.0139 24.9508 18.7657 24.9508 18.4854C24.9508 18.2241 24.8732 18.0044 24.7179 17.8264C24.5664 17.6483 24.3429 17.4968 24.0474 17.3718C23.7558 17.2468 23.3978 17.1332 22.9736 17.0309L21.7065 16.7127C20.7255 16.4741 19.9508 16.101 19.3827 15.5934C18.8145 15.0858 18.5323 14.4021 18.5361 13.5423C18.5323 12.8377 18.7198 12.2222 19.0986 11.6957C19.4811 11.1692 20.0058 10.7582 20.6724 10.4627C21.3391 10.1673 22.0967 10.0195 22.9452 10.0195C23.8088 10.0195 24.5626 10.1673 25.2065 10.4627C25.8542 10.7582 26.358 11.1692 26.7179 11.6957C27.0777 12.2222 27.2633 12.832 27.2747 13.5252H24.9167Z" fill="#F2F2F2"/>
</g>
</g>
<defs>
<clipPath id="clip0_372_168">
<rect width="32" height="32" fill="white"/>
</clipPath>
<clipPath id="clip1_372_168">
<rect width="32" height="32" rx="16" fill="white"/>
</clipPath>
</defs>
</svg>
