<svg width="52" height="64" viewBox="0 0 52 64" fill="none" xmlns="http://www.w3.org/2000/svg">
<rect x="2.5" y="8.5" width="47" height="47" rx="23.5" fill="#F0B13D"/>
<rect x="2.5" y="8.5" width="47" height="47" rx="23.5" fill="url(#paint0_radial_347_36)" fill-opacity="0.65" style="mix-blend-mode:overlay"/>
<path d="M19.1362 40.728V42.228H20.6362H26.8237C28.7933 42.228 30.5755 41.8391 32.1131 40.9949C33.6538 40.1523 34.8438 38.9325 35.6609 37.3673C36.4842 35.8014 36.8635 33.9888 36.8635 31.9837C36.8635 29.9837 36.484 28.1757 35.6597 26.6147C34.8435 25.0581 33.6606 23.8443 32.1311 23.007C30.6001 22.1631 28.8292 21.7734 26.8749 21.7734H20.6362H19.1362V23.2734V40.728ZM29.749 34.542L29.7471 34.5462C29.5016 35.0817 29.1649 35.4285 28.7301 35.6562C28.2539 35.9029 27.5893 36.0661 26.6703 36.0661H25.8266V27.9354H26.6788C27.5992 27.9354 28.2643 28.099 28.7406 28.3462C29.1659 28.567 29.5004 28.9086 29.7471 29.4467L29.747 29.4467L29.7507 29.4545C30.0084 30.0083 30.1817 30.8254 30.1817 31.9837C30.1817 33.1548 30.0079 33.9816 29.749 34.542Z" fill="#F2F2F2" stroke="#0E0E10" stroke-width="3"/>
<rect x="2.5" y="8.5" width="47" height="47" rx="23.5" stroke="#0E0E10"/>
<defs>
<radialGradient id="paint0_radial_347_36" cx="0" cy="0" r="1" gradientUnits="userSpaceOnUse" gradientTransform="translate(26 32) rotate(90) scale(24)">
<stop offset="0.679935" stop-opacity="0"/>
<stop offset="1"/>
</radialGradient>
</defs>
</svg>
