<svg width="64" height="64" viewBox="0 0 64 64" fill="none" xmlns="http://www.w3.org/2000/svg">
<rect width="64" height="64" fill="#222222"/>
<rect x="8.5" y="8.5" width="47" height="47" rx="23.5" fill="#3B61F7"/>
<rect x="8.5" y="8.5" width="47" height="47" rx="23.5" fill="url(#paint0_radial_347_27)" fill-opacity="0.65" style="mix-blend-mode:overlay"/>
<path d="M23.1492 40.727V42.227H24.6492H28.3395H29.8395V40.727V36.3028L30.0305 36.0696L33.6878 41.5587L34.1331 42.227H34.9361H39.3509H42.1847L40.5913 39.8836L34.6713 31.1768L40.4291 24.2296L42.4656 21.7725H39.2742H34.8509H34.1389L33.6888 22.324L29.8395 27.0403V23.2725V21.7725H28.3395H24.6492H23.1492V23.2725V40.727Z" fill="#F2F2F2" stroke="#0E0E10" stroke-width="3"/>
<rect x="8.5" y="8.5" width="47" height="47" rx="23.5" stroke="#0E0E10"/>
<defs>
<radialGradient id="paint0_radial_347_27" cx="0" cy="0" r="1" gradientUnits="userSpaceOnUse" gradientTransform="translate(32 32) rotate(90) scale(24)">
<stop offset="0.679935" stop-opacity="0"/>
<stop offset="1"/>
</radialGradient>
</defs>
</svg>
