<svg width="64" height="64" viewBox="0 0 64 64" fill="none" xmlns="http://www.w3.org/2000/svg">
<rect width="64" height="64" fill="#222222"/>
<rect x="8.5" y="8.5" width="47" height="47" rx="23.5" fill="#F0B13D"/>
<rect x="8.5" y="8.5" width="47" height="47" rx="23.5" fill="url(#paint0_radial_347_36)" fill-opacity="0.65" style="mix-blend-mode:overlay"/>
<path d="M25.1362 40.728V42.228H26.6362H32.8237C34.7933 42.228 36.5755 41.8391 38.1131 40.9949C39.6538 40.1523 40.8438 38.9325 41.6609 37.3673C42.4842 35.8014 42.8635 33.9888 42.8635 31.9837C42.8635 29.9837 42.484 28.1757 41.6597 26.6147C40.8435 25.0581 39.6606 23.8443 38.1311 23.007C36.6001 22.1631 34.8292 21.7734 32.8749 21.7734H26.6362H25.1362V23.2734V40.728ZM35.749 34.542L35.7471 34.5462C35.5016 35.0817 35.1649 35.4285 34.7301 35.6562C34.2539 35.9029 33.5893 36.0661 32.6703 36.0661H31.8266V27.9354H32.6788C33.5992 27.9354 34.2643 28.099 34.7406 28.3462C35.1659 28.567 35.5004 28.9086 35.7471 29.4467L35.747 29.4467L35.7507 29.4545C36.0084 30.0083 36.1817 30.8254 36.1817 31.9837C36.1817 33.1548 36.0079 33.9816 35.749 34.542Z" fill="#F2F2F2" stroke="#0E0E10" stroke-width="3"/>
<rect x="8.5" y="8.5" width="47" height="47" rx="23.5" stroke="#0E0E10"/>
<defs>
<radialGradient id="paint0_radial_347_36" cx="0" cy="0" r="1" gradientUnits="userSpaceOnUse" gradientTransform="translate(32 32) rotate(90) scale(24)">
<stop offset="0.679935" stop-opacity="0"/>
<stop offset="1"/>
</radialGradient>
</defs>
</svg>
