<svg viewBox="0 0 30 20" fill="none" xmlns="http://www.w3.org/2000/svg">
<g clip-path="url(#clip0_372_190)">
<path fill="currentColor" fill-rule="evenodd" clip-rule="evenodd" d="M22.1859 9C22.1615 9.38678 22.1027 9.7718 22.0096 10.1501C22.4005 10.347 22.7535 10.6322 23.0361 11H30V9H22.1859ZM7.81366 11H0V9H6.96249C7.24524 9.36835 7.59857 9.65398 7.98995 9.85107C7.89691 10.229 7.83815 10.6136 7.81366 11Z"/>
<g clip-path="url(#clip1_372_190)">
<path fill="currentColor" d="M15.3653 1.88164C13.5997 0.116016 10.7403 0.116016 8.97472 1.88164C7.41222 3.44414 7.2091 5.90664 8.49347 7.70352L8.52785 7.75352C8.84972 8.20352 9.47472 8.30664 9.9216 7.98477C10.3685 7.66289 10.4747 7.03789 10.1528 6.59102L10.1185 6.54102C9.40285 5.53789 9.51535 4.16602 10.3872 3.29727C11.3716 2.31289 12.9653 2.31289 13.9497 3.29727L17.4622 6.80352C18.4466 7.78789 18.4466 9.38164 17.4622 10.366C16.5903 11.2379 15.2185 11.3504 14.2185 10.6348L14.1685 10.6004C13.7185 10.2785 13.0935 10.3848 12.7747 10.8316C12.456 11.2785 12.5591 11.9066 13.006 12.2254L13.056 12.2598C14.8497 13.5473 17.3122 13.3441 18.8747 11.7816C20.6403 10.016 20.6403 7.15664 18.8747 5.39102L15.3653 1.88164ZM14.6341 18.1191C16.3997 19.8848 19.2591 19.8848 21.0247 18.1191C22.5872 16.5566 22.7903 14.0941 21.506 12.2973L21.4716 12.2473C21.1497 11.7973 20.5247 11.6941 20.0778 12.016C19.631 12.3379 19.5247 12.9629 19.8466 13.4098L19.881 13.4598C20.5966 14.4629 20.4841 15.8348 19.6122 16.7035C18.6247 17.6879 17.031 17.6879 16.0466 16.7035L12.5372 13.1973C11.5528 12.2129 11.5528 10.6191 12.5372 9.63477C13.4091 8.76289 14.781 8.65039 15.7841 9.36602L15.8341 9.40039C16.2841 9.72226 16.9091 9.61602 17.2278 9.16914C17.5466 8.72227 17.4435 8.09414 16.9966 7.77539L16.9466 7.74102C15.1497 6.45352 12.6872 6.65664 11.1247 8.21914C9.3591 9.98477 9.3591 12.8441 11.1247 14.6098L14.6341 18.1191Z" />
</g>
</g>
<defs>
<clipPath id="clip0_372_190">
<rect width="30" height="20" fill="white"/>
</clipPath>
<clipPath id="clip1_372_190">
<rect width="20" height="16" fill="white" transform="translate(7 20) rotate(-90)"/>
</clipPath>
</defs>
</svg>
