<svg width="64" height="64" viewBox="0 0 64 64" fill="none" xmlns="http://www.w3.org/2000/svg">
<mask id="path-1-outside-1_352_11" maskUnits="userSpaceOnUse" x="17" y="19.2051" width="32" height="25" fill="black">
<rect fill="white" x="17" y="19.2051" width="32" height="25"/>
<path fill-rule="evenodd" clip-rule="evenodd" d="M35.9998 39.7935L44.9998 31.9993L35.9998 24.2051V29.2L21.9 29.2C20.2984 29.2 19 30.4984 19 32.1C19 33.7016 20.2984 35 21.9 35L35.9998 35V39.7935Z"/>
</mask>
<path d="M44.9998 31.9993L46.3091 33.5112L48.0548 31.9993L46.3091 30.4874L44.9998 31.9993ZM35.9998 39.7935H33.9998V44.1713L37.3091 41.3054L35.9998 39.7935ZM35.9998 24.2051L37.3091 22.6932L33.9998 19.8273V24.2051H35.9998ZM35.9998 29.2L35.9998 31.2L37.9998 31.2V29.2H35.9998ZM21.9 29.2L21.9 27.2L21.9 27.2L21.9 29.2ZM21.9 35L21.9 37L21.9 37L21.9 35ZM35.9998 35H37.9998V33L35.9998 33L35.9998 35ZM43.6904 30.4874L34.6904 38.2817L37.3091 41.3054L46.3091 33.5112L43.6904 30.4874ZM34.6904 25.7169L43.6904 33.5112L46.3091 30.4874L37.3091 22.6932L34.6904 25.7169ZM37.9998 29.2V24.2051H33.9998V29.2H37.9998ZM21.9 31.2L35.9998 31.2L35.9998 27.2L21.9 27.2L21.9 31.2ZM21 32.1C21 31.6029 21.4029 31.2 21.9 31.2L21.9 27.2C19.1938 27.2 17 29.3938 17 32.1H21ZM21.9 33C21.4029 33 21 32.5971 21 32.1H17C17 34.8062 19.1938 37 21.9 37V33ZM35.9998 33L21.9 33L21.9 37L35.9998 37L35.9998 33ZM37.9998 39.7935V35H33.9998V39.7935H37.9998Z" fill="#333333" mask="url(#path-1-outside-1_352_11)"/>
</svg>
