<svg width="32" height="64" viewBox="0 0 32 64" fill="none" xmlns="http://www.w3.org/2000/svg">
<g clip-path="url(#clip0_355_97)">
<g clip-path="url(#clip1_355_97)">
<path d="M24.2234 40.9986C27.9689 40.9986 31.0017 37.9658 31.0017 34.2204C31.0017 30.9058 28.6053 28.0785 25.3371 27.5349L25.2476 27.5183C24.4289 27.3824 23.6566 27.9359 23.524 28.7513C23.3915 29.5667 23.9417 30.3423 24.7571 30.4749L24.8465 30.4915C26.6696 30.7964 28.0053 32.3708 28.002 34.217C28.002 36.3052 26.3116 37.9956 24.2234 37.9956L16.7789 38.0023C14.6907 38.0023 13.0003 36.3118 13.0003 34.2237C13.0003 32.3741 14.3361 30.7997 16.1558 30.4981L16.2453 30.4815C17.064 30.3456 17.6142 29.57 17.4783 28.758C17.3424 27.9459 16.5668 27.389 15.7547 27.5249L15.6652 27.5415C12.397 28.0785 10.0006 30.9058 10.0006 34.2204C10.0006 37.9658 13.0334 40.9986 16.7789 40.9986L24.2234 40.9986ZM7.77655 23.0006C4.03109 23.0006 0.998266 26.0334 0.998266 29.7788C0.998266 33.0934 3.39469 35.9207 6.66285 36.4643L6.75235 36.4809C7.57104 36.6168 8.34334 36.0633 8.47592 35.2479C8.6085 34.4325 8.05828 33.6569 7.2429 33.5243L7.15341 33.5077C5.3304 33.2028 3.99463 31.6284 3.99794 29.7822C4.00126 27.6907 5.69169 26.0002 7.77986 26.0002L15.2211 25.9969C17.3092 25.9969 18.9997 27.6874 18.9997 29.7755C18.9997 31.6251 17.6639 33.1995 15.8409 33.5044L15.7514 33.521C14.9327 33.6569 14.3825 34.4325 14.5184 35.2446C14.6543 36.0566 15.4299 36.6135 16.2419 36.4776L16.3314 36.461C19.6029 35.9207 21.9993 33.0934 21.9993 29.7788C21.9993 26.0334 18.9665 23.0006 15.2211 23.0006L7.77655 23.0006Z" fill="#828282"/>
</g>
</g>
<defs>
<clipPath id="clip0_355_97">
<rect width="32" height="64" fill="white"/>
</clipPath>
<clipPath id="clip1_355_97">
<rect width="30" height="24" fill="white" transform="translate(13.8787 12.9082) rotate(45)"/>
</clipPath>
</defs>
</svg>
