<svg width="24" height="64" viewBox="0 0 24 64" fill="none" xmlns="http://www.w3.org/2000/svg">
<g clip-path="url(#clip0_356_68)">
<path d="M17.2125 39.334L4.66406 26.7855C3.61406 28.2527 3 30.0527 3 31.998C3 36.9668 7.03125 40.998 12 40.998C13.9453 40.998 15.7453 40.384 17.2125 39.334ZM19.3359 37.2105C20.3859 35.7434 21 33.9434 21 31.998C21 27.0293 16.9688 22.998 12 22.998C10.0547 22.998 8.25469 23.6121 6.7875 24.6621L19.3359 37.2105ZM24 31.998C24 38.6262 18.6281 43.998 12 43.998C5.37188 43.998 0 38.6262 0 31.998C0 25.3699 5.37188 19.998 12 19.998C18.6281 19.998 24 25.3699 24 31.998Z" fill="#333333"/>
</g>
<defs>
<clipPath id="clip0_356_68">
<rect width="24" height="24" fill="white" transform="translate(0 19.998)"/>
</clipPath>
</defs>
</svg>
