<svg viewBox="0 0 30 32" fill="none" xmlns="http://www.w3.org/2000/svg">
<path fill-rule="evenodd" clip-rule="evenodd" d="M22.1859 15C22.1615 15.3868 22.1027 15.7718 22.0096 16.1501C22.4005 16.347 22.7535 16.6322 23.0361 17H30V15H22.1859ZM7.81366 17H0V15H6.96249C7.24524 15.3684 7.59857 15.654 7.98995 15.8511C7.89691 16.229 7.83815 16.6136 7.81366 17Z" fill="#333333"/>
<g clip-path="url(#clip0_372_190)">
<path d="M15.3653 7.88164C13.5997 6.11602 10.7403 6.11602 8.97472 7.88164C7.41222 9.44414 7.2091 11.9066 8.49347 13.7035L8.52785 13.7535C8.84972 14.2035 9.47472 14.3066 9.9216 13.9848C10.3685 13.6629 10.4747 13.0379 10.1528 12.591L10.1185 12.541C9.40285 11.5379 9.51535 10.166 10.3872 9.29727C11.3716 8.31289 12.9653 8.31289 13.9497 9.29727L17.4622 12.8035C18.4466 13.7879 18.4466 15.3816 17.4622 16.366C16.5903 17.2379 15.2185 17.3504 14.2185 16.6348L14.1685 16.6004C13.7185 16.2785 13.0935 16.3848 12.7747 16.8316C12.456 17.2785 12.5591 17.9066 13.006 18.2254L13.056 18.2598C14.8497 19.5473 17.3122 19.3441 18.8747 17.7816C20.6403 16.016 20.6403 13.1566 18.8747 11.391L15.3653 7.88164ZM14.6341 24.1191C16.3997 25.8848 19.2591 25.8848 21.0247 24.1191C22.5872 22.5566 22.7903 20.0941 21.506 18.2973L21.4716 18.2473C21.1497 17.7973 20.5247 17.6941 20.0778 18.016C19.631 18.3379 19.5247 18.9629 19.8466 19.4098L19.881 19.4598C20.5966 20.4629 20.4841 21.8348 19.6122 22.7035C18.6247 23.6879 17.031 23.6879 16.0466 22.7035L12.5372 19.1973C11.5528 18.2129 11.5528 16.6191 12.5372 15.6348C13.4091 14.7629 14.781 14.6504 15.7841 15.366L15.8341 15.4004C16.2841 15.7223 16.9091 15.616 17.2278 15.1691C17.5466 14.7223 17.4435 14.0941 16.9966 13.7754L16.9466 13.741C15.1497 12.4535 12.6872 12.6566 11.1247 14.2191C9.3591 15.9848 9.3591 18.8441 11.1247 20.6098L14.6341 24.1191Z" fill="#333333"/>
</g>
<defs>
<clipPath id="clip0_372_190">
<rect width="20" height="16" fill="white" transform="translate(7 26) rotate(-90)"/>
</clipPath>
</defs>
</svg>
