
<svg viewBox="0 0 30 32" fill="none" xmlns="http://www.w3.org/2000/svg">
<g clip-path="url(#clip0_372_195)">
<path fill="#333333" d="M18.475 20.8906L10.1094 12.525C9.40937 13.5031 9 14.7031 9 16C9 19.3125 11.6875 22 15 22C16.2969 22 17.4969 21.5906 18.475 20.8906ZM19.8906 19.475C20.5906 18.4969 21 17.2969 21 16C21 12.6875 18.3125 10 15 10C13.7031 10 12.5031 10.4094 11.525 11.1094L19.8906 19.475ZM23 16C23 20.4187 19.4187 24 15 24C10.5813 24 7 20.4187 7 16C7 11.5813 10.5813 8 15 8C19.4187 8 23 11.5813 23 16Z" />
</g>
<path fill="#333333" fill-rule="evenodd" clip-rule="evenodd" d="M24.9506 17C24.9833 16.6711 25 16.3375 25 16C25 15.6625 24.9833 15.3289 24.9506 15H30V17H24.9506ZM5.04938 17H0V15H5.04938C5.01672 15.3289 5 15.6625 5 16C5 16.3375 5.01672 16.6711 5.04938 17Z"/>
<defs>
<clipPath id="clip0_372_195">
<rect width="16" height="16" fill="white" transform="translate(7 8)"/>
</clipPath>
</defs>
</svg>