<svg width="31" height="64" viewBox="0 0 31 64" fill="none" xmlns="http://www.w3.org/2000/svg">
<path fill-rule="evenodd" clip-rule="evenodd" d="M29.5941 33.208L30.5094 32.0001L29.5941 30.7922L24.3441 23.864L20.7501 19.1211V25.0719V27.2011H11.602C12.308 27.7318 12.8931 28.4147 13.3086 29.2011H20.7501H22.7501V28.3834V27.2011V25.0719L24.7501 27.7112L28.0001 32.0001L24.7501 36.289L22.7501 38.9283V37.0011V35.6168V35.0011H20.7501H13.1968C12.7322 35.8039 12.0868 36.4892 11.3164 37.0011H20.7501V38.9283V44.8791L24.3441 40.1362L29.5941 33.208Z" fill="#828282"/>
<g clip-path="url(#clip0_355_47)">
<path d="M11.0406 36.2793L3.7207 28.9594C3.1082 29.8152 2.75 30.8652 2.75 32C2.75 34.8984 5.10156 37.25 8 37.25C9.13477 37.25 10.1848 36.8918 11.0406 36.2793ZM12.2793 35.0406C12.8918 34.1848 13.25 33.1348 13.25 32C13.25 29.1016 10.8984 26.75 8 26.75C6.86523 26.75 5.81523 27.1082 4.95938 27.7207L12.2793 35.0406ZM15 32C15 35.8664 11.8664 39 8 39C4.13359 39 1 35.8664 1 32C1 28.1336 4.13359 25 8 25C11.8664 25 15 28.1336 15 32Z" fill="#828282"/>
</g>
<defs>
<clipPath id="clip0_355_47">
<rect width="14" height="14" fill="white" transform="translate(1 25)"/>
</clipPath>
</defs>
</svg>
