<svg width="30" height="64" viewBox="0 0 30 64" fill="none" xmlns="http://www.w3.org/2000/svg">
<g clip-path="url(#clip0_355_128)">
<g clip-path="url(#clip1_355_128)">
<path d="M23.2234 40.9986C26.9689 40.9986 30.0017 37.9658 30.0017 34.2204C30.0017 30.9058 27.6053 28.0785 24.3371 27.5349L24.2476 27.5183C23.4289 27.3824 22.6566 27.9359 22.524 28.7513C22.3915 29.5667 22.9417 30.3423 23.7571 30.4749L23.8465 30.4915C25.6696 30.7964 27.0053 32.3708 27.002 34.217C27.002 36.3052 25.3116 37.9956 23.2234 37.9956L15.7789 38.0023C13.6907 38.0023 12.0003 36.3118 12.0003 34.2237C12.0003 32.3741 13.3361 30.7997 15.1558 30.4981L15.2453 30.4815C16.064 30.3456 16.6142 29.57 16.4783 28.758C16.3424 27.9459 15.5668 27.389 14.7547 27.5249L14.6652 27.5415C11.397 28.0785 9.00062 30.9058 9.00062 34.2204C9.00062 37.9658 12.0334 40.9986 15.7789 40.9986L23.2234 40.9986ZM6.77655 23.0006C3.03109 23.0006 -0.00173412 26.0334 -0.00173412 29.7788C-0.00173412 33.0934 2.39469 35.9207 5.66285 36.4643L5.75235 36.4809C6.57104 36.6168 7.34334 36.0633 7.47592 35.2479C7.6085 34.4325 7.05829 33.6569 6.2429 33.5243L6.15341 33.5077C4.3304 33.2028 2.99463 31.6284 2.99795 29.7822C3.00126 27.6907 4.69169 26.0002 6.77986 26.0002L14.2211 25.9969C16.3092 25.9969 17.9997 27.6874 17.9997 29.7755C17.9997 31.6251 16.6639 33.1995 14.8409 33.5044L14.7514 33.521C13.9327 33.6569 13.3825 34.4325 13.5184 35.2446C13.6543 36.0566 14.4299 36.6135 15.2419 36.4776L15.3314 36.461C18.6029 35.9207 20.9993 33.0934 20.9993 29.7788C20.9993 26.0334 17.9665 23.0006 14.2211 23.0006L6.77655 23.0006Z" fill="#333333"/>
</g>
</g>
<defs>
<clipPath id="clip0_355_128">
<rect width="30" height="64" fill="white"/>
</clipPath>
<clipPath id="clip1_355_128">
<rect width="30" height="24" fill="white" transform="translate(12.8787 12.9082) rotate(45)"/>
</clipPath>
</defs>
</svg>
