<svg width="64" height="64" viewBox="0 0 64 64" fill="none" xmlns="http://www.w3.org/2000/svg">
<rect width="64" height="64" fill="#222222"/>
<mask id="path-1-outside-1_352_11" maskUnits="userSpaceOnUse" x="12" y="19.2051" width="42" height="25" fill="black">
<rect fill="white" x="12" y="19.2051" width="42" height="25"/>
<path fill-rule="evenodd" clip-rule="evenodd" d="M40.9998 39.7935L49.9998 31.9993L40.9998 24.2051V29.2L16.9 29.2C15.2984 29.2 14 30.4984 14 32.1C14 33.7016 15.2984 35 16.9 35L40.9998 35V39.7935Z"/>
</mask>
<path fill-rule="evenodd" clip-rule="evenodd" d="M40.9998 39.7935L49.9998 31.9993L40.9998 24.2051V29.2L16.9 29.2C15.2984 29.2 14 30.4984 14 32.1C14 33.7016 15.2984 35 16.9 35L40.9998 35V39.7935Z" fill="#828282"/>
<path d="M49.9998 31.9993L51.3091 33.5112L53.0548 31.9993L51.3091 30.4874L49.9998 31.9993ZM40.9998 39.7935H38.9998V44.1713L42.3091 41.3054L40.9998 39.7935ZM40.9998 24.2051L42.3091 22.6932L38.9998 19.8273V24.2051H40.9998ZM40.9998 29.2L40.9998 31.2L42.9998 31.2V29.2H40.9998ZM16.9 29.2L16.9 27.2L16.9 27.2L16.9 29.2ZM16.9 35L16.9 37L16.9 37L16.9 35ZM40.9998 35H42.9998V33L40.9998 33L40.9998 35ZM48.6904 30.4874L39.6904 38.2817L42.3091 41.3054L51.3091 33.5112L48.6904 30.4874ZM39.6904 25.7169L48.6904 33.5112L51.3091 30.4874L42.3091 22.6932L39.6904 25.7169ZM42.9998 29.2V24.2051H38.9998V29.2H42.9998ZM16.9 31.2L40.9998 31.2L40.9998 27.2L16.9 27.2L16.9 31.2ZM16 32.1C16 31.6029 16.4029 31.2 16.9 31.2L16.9 27.2C14.1938 27.2 12 29.3938 12 32.1H16ZM16.9 33C16.4029 33 16 32.5971 16 32.1H12C12 34.8062 14.1938 37 16.9 37V33ZM40.9998 33L16.9 33L16.9 37L40.9998 37L40.9998 33ZM42.9998 39.7935V35H38.9998V39.7935H42.9998Z" fill="#0E0E10" mask="url(#path-1-outside-1_352_11)"/>
</svg>
