<svg viewBox="0 0 32 32" fill="none" xmlns="http://www.w3.org/2000/svg">
<g clip-path="url(#clip0_444_369)">
<g clip-path="url(#clip1_444_369)">
<path fill-rule="evenodd" clip-rule="evenodd" d="M32 0H0V32H32V0ZM10.5115 8.36328V23.9996H17.4831C18.5576 23.9996 19.6013 23.8282 20.5346 23.3883C21.4186 22.9717 22.1832 22.3557 22.7197 21.5049C23.2437 20.676 23.4887 19.7491 23.4887 18.7837C23.4887 17.9266 23.3053 17.0711 22.8518 16.2972C22.7234 16.077 22.5798 15.8683 22.421 15.6727C22.4574 15.6116 22.4925 15.5495 22.5262 15.4863L22.5305 15.4782C22.8874 14.8015 23.0342 14.0717 23.0342 13.3462C23.0342 12.4188 22.8003 11.5211 22.2858 10.7209C21.7527 9.88783 20.9912 9.30071 20.1238 8.91584C19.2207 8.51516 18.2094 8.36328 17.1706 8.36328H10.5115ZM21.4887 18.7837C21.4887 19.4012 21.3353 19.9523 21.0285 20.4371C20.7255 20.9182 20.2766 21.2989 19.6819 21.5792C19.0872 21.8595 18.3543 21.9996 17.4831 21.9996H12.5115V10.3633H17.1706L17.1842 10.3633C18.0342 10.3646 18.7437 10.4915 19.3126 10.744C19.8846 10.9978 20.3145 11.35 20.6024 11.8008C20.8903 12.2478 21.0342 12.7629 21.0342 13.3462C21.0342 13.7446 20.9644 14.1007 20.8248 14.4147C20.8051 14.459 20.784 14.5025 20.7615 14.5451C20.6248 14.8013 20.4497 15.0233 20.2361 15.211C20.1654 15.2731 20.0905 15.3314 20.0115 15.386C19.9308 15.4414 19.8472 15.4926 19.7606 15.5398L19.7407 15.5506C19.6663 15.5903 19.5897 15.6271 19.5109 15.6608C19.331 15.7379 19.1396 15.7994 18.9368 15.8451L18.9319 15.8462V15.9599L18.9577 15.9611C19.1917 15.9733 19.4178 16.0152 19.6359 16.0869C19.8218 16.148 20.0019 16.2306 20.1762 16.3349C20.1959 16.3465 20.2153 16.3583 20.2345 16.3704C20.54 16.5623 20.7984 16.8133 21.0098 17.1234C21.0499 17.1823 21.0884 17.2433 21.1251 17.3065C21.3675 17.7193 21.4887 18.2118 21.4887 18.7837ZM18.8469 17.9498L18.85 17.9582C18.916 18.1359 18.949 18.3296 18.949 18.5394C18.949 18.9788 18.7918 19.3311 18.4774 19.5962C18.163 19.8576 17.663 19.9883 16.9774 19.9883H14.9717V16.8974H17.0342C17.3956 16.8974 17.7109 16.9564 17.9798 17.0744C18.004 17.085 18.0278 17.096 18.0512 17.1076C18.3391 17.2478 18.5607 17.4409 18.716 17.6871C18.7685 17.7704 18.8121 17.8579 18.8469 17.9498ZM16.7956 15.2326H14.9717V12.3519H16.841C16.8854 12.3519 16.929 12.3528 16.9717 12.3545C17.019 12.3564 17.0653 12.3593 17.1106 12.3633C17.527 12.3999 17.8576 12.5249 18.1024 12.7383C18.4016 12.9959 18.5512 13.3349 18.5512 13.7553C18.5512 13.7984 18.5497 13.8407 18.5467 13.882C18.5426 13.9361 18.536 13.9888 18.5268 14.0399C18.4928 14.2282 18.4233 14.3966 18.3183 14.5451C18.2008 14.7155 18.0491 14.8562 17.8633 14.9674C17.8095 14.9995 17.7528 15.0292 17.6933 15.0565C17.4953 15.1454 17.2756 15.2007 17.0342 15.2222C17.0135 15.2241 16.9927 15.2257 16.9717 15.227C16.9585 15.2279 16.9452 15.2286 16.9319 15.2293C16.8872 15.2315 16.8417 15.2326 16.7956 15.2326Z" fill="#2D9CDB"/>
<path d="M12.5115 21.9996V10.3633H17.1706C18.0266 10.3633 18.7406 10.4902 19.3126 10.744C19.8846 10.9978 20.3145 11.35 20.6024 11.8008C20.8903 12.2478 21.0342 12.7629 21.0342 13.3462C21.0342 13.8008 20.9433 14.2004 20.7615 14.5451C20.5797 14.886 20.3297 15.1663 20.0115 15.386C19.6971 15.6019 19.3372 15.7553 18.9319 15.8462V15.9599C19.3751 15.9788 19.7899 16.1038 20.1762 16.3349C20.5664 16.5659 20.8827 16.8898 21.1251 17.3065C21.3675 17.7193 21.4887 18.2118 21.4887 18.7837C21.4887 19.4012 21.3353 19.9523 21.0285 20.4371C20.7255 20.9182 20.2766 21.2989 19.6819 21.5792C19.0872 21.8595 18.3543 21.9996 17.4831 21.9996H12.5115ZM14.9717 19.9883H16.9774C17.663 19.9883 18.163 19.8576 18.4774 19.5962C18.7918 19.3311 18.949 18.9788 18.949 18.5394C18.949 18.2174 18.8713 17.9334 18.716 17.6871C18.5607 17.4409 18.3391 17.2478 18.0512 17.1076C17.7672 16.9674 17.4281 16.8974 17.0342 16.8974H14.9717V19.9883ZM14.9717 15.2326H16.7956C17.1327 15.2326 17.4319 15.1739 17.6933 15.0565C17.9584 14.9353 18.1668 14.7648 18.3183 14.5451C18.4736 14.3254 18.5512 14.0621 18.5512 13.7553C18.5512 13.3349 18.4016 12.9959 18.1024 12.7383C17.8069 12.4807 17.3865 12.3519 16.841 12.3519H14.9717V15.2326Z" fill="#F2F2F2"/>
</g>
</g>
<defs>
<clipPath id="clip0_444_369">
<rect width="32" height="32" fill="white"/>
</clipPath>
<clipPath id="clip1_444_369">
<rect width="32" height="32" rx="16" fill="white"/>
</clipPath>
</defs>
</svg>
