<svg width="32" height="32" viewBox="0 0 32 32" fill="none" xmlns="http://www.w3.org/2000/svg">
<rect width="32" height="32" fill="#222222"/>
<rect x="4.5" y="4.5" width="23" height="23" rx="11.5" fill="#F0B13D"/>
<rect x="4.5" y="4.5" width="23" height="23" rx="11.5" fill="url(#paint0_radial_347_36)" fill-opacity="0.65" style="mix-blend-mode:overlay"/>
<path d="M15.487 20.5H12.3933V11.7727H15.5126C16.3904 11.7727 17.1461 11.9474 17.7797 12.2969C18.4132 12.6435 18.9004 13.142 19.2413 13.7926C19.5851 14.4432 19.7569 15.2216 19.7569 16.1278C19.7569 17.0369 19.5851 17.8182 19.2413 18.4716C18.9004 19.125 18.4103 19.6264 17.7711 19.9759C17.1348 20.3253 16.3734 20.5 15.487 20.5ZM14.2385 18.919H15.4103C15.9558 18.919 16.4146 18.8224 16.7868 18.6293C17.1618 18.4332 17.443 18.1307 17.6305 17.7216C17.8208 17.3097 17.916 16.7784 17.916 16.1278C17.916 15.483 17.8208 14.956 17.6305 14.5469C17.443 14.1378 17.1632 13.8366 16.791 13.6435C16.4189 13.4503 15.96 13.3537 15.4146 13.3537H14.2385V18.919Z" fill="#F2F2F2"/>
<path d="M12.3933 20.5H10.8933V22H12.3933V20.5ZM12.3933 11.7727V10.2727H10.8933V11.7727H12.3933ZM17.7797 12.2969L17.0552 13.6103L17.0597 13.6128L17.7797 12.2969ZM19.2413 13.7926L17.9127 14.4888L17.9151 14.4934L19.2413 13.7926ZM19.2413 18.4716L17.9138 17.7732L17.9114 17.7777L19.2413 18.4716ZM17.7711 19.9759L17.0516 18.6597L17.0492 18.661L17.7711 19.9759ZM14.2385 18.919H12.7385V20.419H14.2385V18.919ZM16.7868 18.6293L17.4778 19.9606L17.4816 19.9586L16.7868 18.6293ZM17.6305 17.7216L16.2688 17.0924L16.2669 17.0966L17.6305 17.7216ZM17.6305 14.5469L16.2669 15.1719L16.2705 15.1797L17.6305 14.5469ZM16.791 13.6435L17.4821 12.3121L17.4821 12.3121L16.791 13.6435ZM14.2385 13.3537V11.8537H12.7385V13.3537H14.2385ZM15.487 19H12.3933V22H15.487V19ZM13.8933 20.5V11.7727H10.8933V20.5H13.8933ZM12.3933 13.2727H15.5126V10.2727H12.3933V13.2727ZM15.5126 13.2727C16.1908 13.2727 16.6862 13.4068 17.0552 13.6103L18.5041 10.9834C17.606 10.4881 16.5901 10.2727 15.5126 10.2727V13.2727ZM17.0597 13.6128C17.429 13.8148 17.7066 14.0956 17.9127 14.4888L20.5699 13.0964C20.0942 12.1885 19.3974 11.4721 18.4996 10.9809L17.0597 13.6128ZM17.9151 14.4934C18.1212 14.8835 18.2569 15.4101 18.2569 16.1278H21.2569C21.2569 15.0331 21.0489 14.0028 20.5675 13.0918L17.9151 14.4934ZM18.2569 16.1278C18.2569 16.8491 18.121 17.3794 17.9138 17.7732L20.5688 19.17C21.0491 18.257 21.2569 17.2248 21.2569 16.1278H18.2569ZM17.9114 17.7777C17.7062 18.1711 17.427 18.4545 17.0516 18.6597L18.4906 21.292C19.3936 20.7984 20.0946 20.0789 20.5712 19.1654L17.9114 17.7777ZM17.0492 18.661C16.6779 18.8649 16.1763 19 15.487 19V22C16.5705 22 17.5916 21.7857 18.4931 21.2907L17.0492 18.661ZM14.2385 20.419H15.4103V17.419H14.2385V20.419ZM15.4103 20.419C16.1264 20.419 16.8377 20.2929 17.4778 19.9606L16.0957 17.2979C15.9915 17.352 15.7852 17.419 15.4103 17.419V20.419ZM17.4816 19.9586C18.1709 19.5983 18.6774 19.0376 18.9941 18.3466L16.2669 17.0966C16.2086 17.2238 16.1526 17.2682 16.0919 17.2999L17.4816 19.9586ZM18.9922 18.3508C19.3043 17.6753 19.416 16.9084 19.416 16.1278H16.416C16.416 16.6484 16.3374 16.944 16.2688 17.0924L18.9922 18.3508ZM19.416 16.1278C19.416 15.3514 19.3038 14.5875 18.9905 13.9141L16.2705 15.1797C16.3379 15.3244 16.416 15.6145 16.416 16.1278H19.416ZM18.9941 13.9219C18.6783 13.2328 18.1732 12.6709 17.4821 12.3121L16.0999 14.9748C16.1531 15.0024 16.2078 15.0428 16.2669 15.1719L18.9941 13.9219ZM17.4821 12.3121C16.842 11.9799 16.1306 11.8537 15.4146 11.8537V14.8537C15.7895 14.8537 15.9958 14.9207 16.0999 14.9748L17.4821 12.3121ZM15.4146 11.8537H14.2385V14.8537H15.4146V11.8537ZM12.7385 13.3537V18.919H15.7385V13.3537H12.7385Z" fill="#0E0E10"/>
<rect x="4.5" y="4.5" width="23" height="23" rx="11.5" stroke="#0E0E10"/>
<defs>
<radialGradient id="paint0_radial_347_36" cx="0" cy="0" r="1" gradientUnits="userSpaceOnUse" gradientTransform="translate(16 16) rotate(90) scale(12)">
<stop offset="0.679935" stop-opacity="0"/>
<stop offset="1"/>
</radialGradient>
</defs>
</svg>
