<svg width="32" height="32" viewBox="0 0 32 32" fill="none" xmlns="http://www.w3.org/2000/svg">
<rect width="32" height="32" fill="#222222"/>
<circle cx="16" cy="16" r="6.5" fill="#BDBDBD"/>
<circle cx="16" cy="16" r="6.5" fill="url(#paint0_radial_347_60)" fill-opacity="0.25"/>
<circle cx="16" cy="16" r="6.5" stroke="#0E0E10"/>
<mask id="path-2-outside-1_347_60" maskUnits="userSpaceOnUse" x="4.4939" y="11" width="26" height="16" fill="black">
<rect fill="white" x="4.4939" y="11" width="26" height="16"/>
<path fill-rule="evenodd" clip-rule="evenodd" d="M27.8971 17.5L24 13L20.1028 17.5H22.6294C22.6088 17.6241 22.5847 17.7478 22.5571 17.8708C22.3517 18.7862 21.957 19.6484 21.3983 20.402C20.8396 21.1556 20.1293 21.7838 19.3132 22.2463C18.497 22.7088 17.5931 22.9953 16.6595 23.0874C15.726 23.1794 14.7835 23.075 13.8927 22.7808C13.0019 22.4866 12.1826 22.0092 11.4875 21.3793C10.7924 20.7493 10.2368 19.9808 9.85666 19.1232C9.67173 18.706 9.53028 18.2723 9.43377 17.8288C9.26465 17.0517 8.63536 16.3998 7.84007 16.3998C7.04479 16.3998 6.38903 17.0481 6.50787 17.8344C6.63556 18.6792 6.87577 19.5054 7.22377 20.2904C7.76689 21.5155 8.56049 22.6134 9.55352 23.5133C10.5465 24.4132 11.717 25.0953 12.9895 25.5155C14.262 25.9358 15.6085 26.085 16.9421 25.9535C18.2758 25.822 19.5672 25.4127 20.7331 24.752C21.899 24.0912 22.9137 23.1937 23.7119 22.1172C24.51 21.0406 25.0739 19.8089 25.3672 18.5013C25.4415 18.1701 25.4981 17.8358 25.5368 17.5H27.8971Z"/>
</mask>
<path fill-rule="evenodd" clip-rule="evenodd" d="M27.8971 17.5L24 13L20.1028 17.5H22.6294C22.6088 17.6241 22.5847 17.7478 22.5571 17.8708C22.3517 18.7862 21.957 19.6484 21.3983 20.402C20.8396 21.1556 20.1293 21.7838 19.3132 22.2463C18.497 22.7088 17.5931 22.9953 16.6595 23.0874C15.726 23.1794 14.7835 23.075 13.8927 22.7808C13.0019 22.4866 12.1826 22.0092 11.4875 21.3793C10.7924 20.7493 10.2368 19.9808 9.85666 19.1232C9.67173 18.706 9.53028 18.2723 9.43377 17.8288C9.26465 17.0517 8.63536 16.3998 7.84007 16.3998C7.04479 16.3998 6.38903 17.0481 6.50787 17.8344C6.63556 18.6792 6.87577 19.5054 7.22377 20.2904C7.76689 21.5155 8.56049 22.6134 9.55352 23.5133C10.5465 24.4132 11.717 25.0953 12.9895 25.5155C14.262 25.9358 15.6085 26.085 16.9421 25.9535C18.2758 25.822 19.5672 25.4127 20.7331 24.752C21.899 24.0912 22.9137 23.1937 23.7119 22.1172C24.51 21.0406 25.0739 19.8089 25.3672 18.5013C25.4415 18.1701 25.4981 17.8358 25.5368 17.5H27.8971Z" fill="#F2C94C"/>
<path fill-rule="evenodd" clip-rule="evenodd" d="M27.8971 17.5L24 13L20.1028 17.5H22.6294C22.6088 17.6241 22.5847 17.7478 22.5571 17.8708C22.3517 18.7862 21.957 19.6484 21.3983 20.402C20.8396 21.1556 20.1293 21.7838 19.3132 22.2463C18.497 22.7088 17.5931 22.9953 16.6595 23.0874C15.726 23.1794 14.7835 23.075 13.8927 22.7808C13.0019 22.4866 12.1826 22.0092 11.4875 21.3793C10.7924 20.7493 10.2368 19.9808 9.85666 19.1232C9.67173 18.706 9.53028 18.2723 9.43377 17.8288C9.26465 17.0517 8.63536 16.3998 7.84007 16.3998C7.04479 16.3998 6.38903 17.0481 6.50787 17.8344C6.63556 18.6792 6.87577 19.5054 7.22377 20.2904C7.76689 21.5155 8.56049 22.6134 9.55352 23.5133C10.5465 24.4132 11.717 25.0953 12.9895 25.5155C14.262 25.9358 15.6085 26.085 16.9421 25.9535C18.2758 25.822 19.5672 25.4127 20.7331 24.752C21.899 24.0912 22.9137 23.1937 23.7119 22.1172C24.51 21.0406 25.0739 19.8089 25.3672 18.5013C25.4415 18.1701 25.4981 17.8358 25.5368 17.5H27.8971Z" fill="url(#paint1_radial_347_60)" fill-opacity="0.45"/>
<path d="M24 13L24.7559 12.3453L24 11.4725L23.244 12.3453L24 13ZM27.8971 17.5V18.5H30.086L28.653 16.8453L27.8971 17.5ZM20.1028 17.5L19.3469 16.8453L17.9139 18.5H20.1028V17.5ZM22.6294 17.5L23.6159 17.6637L23.809 16.5H22.6294V17.5ZM22.5571 17.8708L23.5328 18.0897L23.5328 18.0897L22.5571 17.8708ZM21.3983 20.402L22.2016 20.9975L22.2016 20.9975L21.3983 20.402ZM19.3132 22.2463L19.8062 23.1163L19.8062 23.1163L19.3132 22.2463ZM16.6595 23.0874L16.5614 22.0922L16.5614 22.0922L16.6595 23.0874ZM13.8927 22.7808L13.5791 23.7304L13.5791 23.7304L13.8927 22.7808ZM11.4875 21.3793L12.159 20.6383L12.159 20.6383L11.4875 21.3793ZM9.85666 19.1232L8.94247 19.5285L8.94247 19.5285L9.85666 19.1232ZM9.43377 17.8288L8.45664 18.0415L8.45664 18.0415L9.43377 17.8288ZM7.84007 16.3998L7.84008 15.3998H7.84007V16.3998ZM6.50787 17.8344L7.49664 17.685L6.50787 17.8344ZM7.22377 20.2904L6.30957 20.6956L7.22377 20.2904ZM9.55352 23.5133L10.225 22.7723L10.225 22.7723L9.55352 23.5133ZM12.9895 25.5155L13.3031 24.566L13.3031 24.566L12.9895 25.5155ZM16.9421 25.9535L16.844 24.9583L16.844 24.9583L16.9421 25.9535ZM20.7331 24.752L20.2401 23.8819L20.2401 23.8819L20.7331 24.752ZM23.7119 22.1172L24.5152 22.7127L24.5152 22.7127L23.7119 22.1172ZM25.3672 18.5013L26.343 18.7202L26.343 18.7202L25.3672 18.5013ZM25.5368 17.5V16.5H24.6456L24.5434 17.3854L25.5368 17.5ZM23.244 13.6547L27.1411 18.1547L28.653 16.8453L24.7559 12.3453L23.244 13.6547ZM20.8588 18.1547L24.7559 13.6547L23.244 12.3453L19.3469 16.8453L20.8588 18.1547ZM22.6294 16.5H20.1028V18.5H22.6294V16.5ZM21.6429 17.3363C21.6254 17.4419 21.6048 17.5472 21.5813 17.6519L23.5328 18.0897C23.5646 17.9484 23.5922 17.8063 23.6159 17.6637L21.6429 17.3363ZM21.5813 17.6519C21.4065 18.4311 21.0706 19.165 20.595 19.8064L22.2016 20.9975C22.8435 20.1318 23.2969 19.1413 23.5328 18.0897L21.5813 17.6519ZM20.595 19.8064C20.1195 20.4479 19.5149 20.9826 18.8202 21.3763L19.8062 23.1163C20.7438 22.585 21.5598 21.8633 22.2016 20.9975L20.595 19.8064ZM18.8202 21.3763C18.1255 21.77 17.356 22.0138 16.5614 22.0922L16.7577 24.0825C17.8301 23.9768 18.8686 23.6477 19.8062 23.1163L18.8202 21.3763ZM16.5614 22.0922C15.7667 22.1706 14.9645 22.0817 14.2063 21.8313L13.5791 23.7304C14.6024 24.0683 15.6852 24.1883 16.7577 24.0825L16.5614 22.0922ZM14.2063 21.8313C13.4481 21.5809 12.7507 21.1745 12.159 20.6383L10.816 22.1202C11.6145 22.8439 12.5558 23.3924 13.5791 23.7304L14.2063 21.8313ZM12.159 20.6383C11.5673 20.1021 11.0945 19.4479 10.7709 18.7179L8.94247 19.5285C9.37922 20.5137 10.0174 21.3966 10.816 22.1202L12.159 20.6383ZM10.7709 18.7179C10.6134 18.3628 10.4931 17.9936 10.4109 17.6162L8.45664 18.0415C8.56752 18.5509 8.73002 19.0492 8.94247 19.5285L10.7709 18.7179ZM10.4109 17.6162C10.17 16.5091 9.22672 15.3998 7.84008 15.3998L7.84007 17.3998C8.04401 17.3998 8.35933 17.5943 8.45664 18.0415L10.4109 17.6162ZM7.84007 15.3998C6.54095 15.3998 5.29339 16.4904 5.5191 17.9839L7.49664 17.685C7.48697 17.621 7.50294 17.5668 7.55457 17.5127C7.61283 17.4516 7.7135 17.3998 7.84007 17.3998V15.3998ZM5.5191 17.9839C5.66008 18.9167 5.92532 19.8289 6.30957 20.6956L8.13797 19.8851C7.82622 19.1819 7.61103 18.4418 7.49664 17.685L5.5191 17.9839ZM6.30957 20.6956C6.90926 22.0484 7.78554 23.2606 8.882 24.2543L10.225 22.7723C9.33545 21.9661 8.62451 20.9826 8.13797 19.8851L6.30957 20.6956ZM8.882 24.2543C9.97847 25.248 11.2708 26.001 12.6759 26.4651L13.3031 24.566C12.1631 24.1895 11.1146 23.5785 10.225 22.7723L8.882 24.2543ZM12.6759 26.4651C14.081 26.9291 15.5677 27.0939 17.0403 26.9486L16.844 24.9583C15.6493 25.0761 14.4431 24.9425 13.3031 24.566L12.6759 26.4651ZM17.0403 26.9486C18.5129 26.8034 19.9387 26.3515 21.2261 25.622L20.2401 23.8819C19.1956 24.4738 18.0387 24.8405 16.844 24.9583L17.0403 26.9486ZM21.2261 25.622C22.5135 24.8924 23.6339 23.9014 24.5152 22.7127L22.9085 21.5216C22.1936 22.486 21.2846 23.2901 20.2401 23.8819L21.2261 25.622ZM24.5152 22.7127C25.3964 21.5241 26.0191 20.164 26.343 18.7202L24.3915 18.2824C24.1287 19.4538 23.6235 20.5572 22.9085 21.5216L24.5152 22.7127ZM26.343 18.7202C26.425 18.3545 26.4875 17.9854 26.5302 17.6146L24.5434 17.3854C24.5087 17.6862 24.4581 17.9857 24.3915 18.2824L26.343 18.7202ZM27.8971 16.5H25.5368V18.5H27.8971V16.5Z" fill="#0E0E10" mask="url(#path-2-outside-1_347_60)"/>
<defs>
<radialGradient id="paint0_radial_347_60" cx="0" cy="0" r="1" gradientUnits="userSpaceOnUse" gradientTransform="translate(16 16) rotate(90) scale(6)">
<stop stop-opacity="0"/>
<stop offset="1"/>
</radialGradient>
<radialGradient id="paint1_radial_347_60" cx="0" cy="0" r="1" gradientUnits="userSpaceOnUse" gradientTransform="translate(6.5 20) rotate(-21.8014) scale(18.8481 17.7971)">
<stop stop-color="#DE0000"/>
<stop offset="1" stop-color="#DE0000" stop-opacity="0"/>
</radialGradient>
</defs>
</svg>
