<svg width="48" height="48" viewBox="0 0 48 48" fill="none" xmlns="http://www.w3.org/2000/svg">
<g clip-path="url(#clip0_444_126)">
<g clip-path="url(#clip1_444_126)">
<path fill-rule="evenodd" clip-rule="evenodd" d="M2.66469 32.6073C1.59107 29.9486 1 27.0433 1 24C1 11.2975 11.2975 1 24 1C36.7025 1 47 11.2975 47 24C47 36.7025 36.7025 47 24 47C20.9565 47 18.0511 46.4089 15.3924 45.3352C15.1319 45.598 14.8553 45.8448 14.5643 46.074C17.4606 47.3137 20.6502 48 24 48C37.2548 48 48 37.2548 48 24C48 10.7452 37.2548 0 24 0C10.7452 0 0 10.7452 0 24C0 27.3497 0.68624 30.5391 1.9258 33.4353C2.15505 33.1443 2.40188 32.8677 2.66469 32.6073Z" fill="#56CCF2"/>
<path fill-rule="evenodd" clip-rule="evenodd" d="M14.2604 13.2602C13.2028 12.2027 13.1936 10.5031 14.2398 9.45689C15.286 8.41072 16.9856 8.4199 18.0431 9.47745L24.735 16.1693L20.9522 19.952L14.2604 13.2602ZM21.8259 5.69467C22.8721 4.6485 24.5717 4.65768 25.6293 5.71523L30.4091 10.4951L26.6264 14.2779L21.8465 9.49801C20.7889 8.44046 20.7798 6.74085 21.8259 5.69467ZM10.4776 17.043C11.5238 15.9968 13.2234 16.006 14.2809 17.0636L20.0168 22.7994C21.0743 23.857 21.0835 25.5566 20.0373 26.6027C18.9912 27.6489 17.2915 27.6397 16.234 26.5822L10.4981 20.8463C9.4406 19.7888 9.43142 18.0892 10.4776 17.043ZM8.62732 26.5411C9.67349 25.4949 11.3731 25.5041 12.4307 26.5616L16.2546 30.3855C16.5266 30.6575 16.7292 30.972 16.8624 31.3069C14.8655 29.2663 12.0806 27.9999 8.99998 27.9999C8.61977 27.9999 8.24406 28.0192 7.87378 28.0569C7.95023 27.5016 8.20125 26.9671 8.62732 26.5411ZM19.8879 40.5759C22.341 41.7912 25.0803 42.2201 27.7262 41.8572L33.4621 47.5931C34.5196 48.6506 36.2192 48.6598 37.2654 47.6136L46.7224 38.1567C47.7685 37.1105 47.7593 35.4109 46.7018 34.3533L42.0175 29.6691C42.5681 28.1745 42.8566 26.5835 42.8478 24.9552L42.8403 23.5765C42.8249 20.724 41.675 17.9782 39.6496 15.9528L38.0364 14.3396C35.9272 12.2304 32.5161 12.212 30.4297 14.2984L25.2284 19.4998C23.9221 20.806 23.9336 22.9335 25.2541 24.2539C26.5745 25.5744 28.702 25.5859 30.0082 24.2796L33.3182 20.9697C33.8383 20.4496 34.6941 20.4542 35.2198 20.98C35.7456 21.5058 35.7502 22.3615 35.2301 22.8816L31.9202 26.1916C29.5678 28.544 25.7407 28.5233 23.3627 26.1453L23.3268 26.1095C23.0939 26.9877 22.6408 27.8232 21.9493 28.5147C21.1691 29.2949 20.209 29.777 19.1998 29.9736C19.9366 31.4888 19.9226 33.2757 19.1573 34.77C19.7002 36.0722 20 37.501 20 38.9999C20 39.5351 19.9618 40.0613 19.8879 40.5759ZM17.6652 36.5595C17.8833 37.3356 18 38.1542 18 38.9999C18 39.1452 17.9965 39.2896 17.9897 39.4332C17.3964 39.0063 16.8294 38.526 16.2957 37.9922L15.7818 37.4784C16.4533 37.306 17.0933 36.9998 17.6652 36.5595ZM16.4675 33.9747C16.4079 34.0487 16.3438 34.1202 16.2751 34.1889C15.2289 35.235 13.5293 35.2258 12.4718 34.1683L8.64788 30.3444C8.54585 30.2424 8.45359 30.1344 8.37109 30.0216C8.57885 30.0072 8.78857 29.9999 8.99998 29.9999C12.1095 29.9999 14.8507 31.5769 16.4675 33.9747Z" fill="#56CCF2"/>
</g>
<g clip-path="url(#clip2_444_126)">
<path fill-rule="evenodd" clip-rule="evenodd" d="M9 30C4.02944 30 0 34.0294 0 39C0 43.9706 4.02944 48 9 48C13.9706 48 18 43.9706 18 39C18 34.0294 13.9706 30 9 30ZM5.88494 33.8182V44H12.4027V42.2251H8.03764V33.8182H5.88494Z" fill="#56CCF2"/>
</g>
</g>
<defs>
<clipPath id="clip0_444_126">
<rect width="48" height="48" fill="white"/>
</clipPath>
<clipPath id="clip1_444_126">
<rect width="48" height="48" rx="24" fill="white"/>
</clipPath>
<clipPath id="clip2_444_126">
<rect y="30" width="18" height="18" rx="9" fill="white"/>
</clipPath>
</defs>
</svg>
