<svg width="32" height="32" viewBox="0 0 32 32" fill="none" xmlns="http://www.w3.org/2000/svg">
<rect width="32" height="32" fill="#222222"/>
<rect x="4.5" y="4.5" width="23" height="23" rx="11.5" fill="#3B61F7"/>
<rect x="4.5" y="4.5" width="23" height="23" rx="11.5" fill="url(#paint0_radial_347_27)" fill-opacity="0.65" style="mix-blend-mode:overlay"/>
<path d="M12.6218 20.5V11.7727H14.467V15.6207H14.582L17.7227 11.7727H19.9343L16.6957 15.6804L19.9727 20.5H17.7653L15.3746 16.9119L14.467 18.0199V20.5H12.6218Z" fill="#F2F2F2"/>
<path d="M12.6218 20.5H11.1218V22H12.6218V20.5ZM12.6218 11.7727V10.2727H11.1218V11.7727H12.6218ZM14.467 11.7727H15.967V10.2727H14.467V11.7727ZM14.467 15.6207H12.967V17.1207H14.467V15.6207ZM14.582 15.6207V17.1207H15.294L15.7441 16.5692L14.582 15.6207ZM17.7227 11.7727V10.2727H17.0107L16.5606 10.8243L17.7227 11.7727ZM19.9343 11.7727L21.0892 12.7299L23.1257 10.2727H19.9343V11.7727ZM16.6957 15.6804L15.5408 14.7232L14.8212 15.5914L15.4552 16.5238L16.6957 15.6804ZM19.9727 20.5V22H22.8064L21.2131 19.6566L19.9727 20.5ZM17.7653 20.5L16.517 21.3317L16.9622 22H17.7653V20.5ZM15.3746 16.9119L16.6229 16.0802L15.499 14.3932L14.2143 15.9613L15.3746 16.9119ZM14.467 18.0199L13.3066 17.0693L12.967 17.4839V18.0199H14.467ZM14.467 20.5V22H15.967V20.5H14.467ZM14.1218 20.5V11.7727H11.1218V20.5H14.1218ZM12.6218 13.2727H14.467V10.2727H12.6218V13.2727ZM12.967 11.7727V15.6207H15.967V11.7727H12.967ZM14.467 17.1207H14.582V14.1207H14.467V17.1207ZM15.7441 16.5692L18.8847 12.7212L16.5606 10.8243L13.4199 14.6723L15.7441 16.5692ZM17.7227 13.2727H19.9343V10.2727H17.7227V13.2727ZM18.7794 10.8156L15.5408 14.7232L17.8506 16.6376L21.0892 12.7299L18.7794 10.8156ZM15.4552 16.5238L18.7322 21.3434L21.2131 19.6566L17.9361 14.837L15.4552 16.5238ZM19.9727 19H17.7653V22H19.9727V19ZM19.0136 19.6683L16.6229 16.0802L14.1263 17.7436L16.517 21.3317L19.0136 19.6683ZM14.2143 15.9613L13.3066 17.0693L15.6273 18.9705L16.535 17.8625L14.2143 15.9613ZM12.967 18.0199V20.5H15.967V18.0199H12.967ZM14.467 19H12.6218V22H14.467V19Z" fill="#0E0E10"/>
<rect x="4.5" y="4.5" width="23" height="23" rx="11.5" stroke="#0E0E10"/>
<defs>
<radialGradient id="paint0_radial_347_27" cx="0" cy="0" r="1" gradientUnits="userSpaceOnUse" gradientTransform="translate(16 16) rotate(90) scale(12)">
<stop offset="0.679935" stop-opacity="0"/>
<stop offset="1"/>
</radialGradient>
</defs>
</svg>
