<svg width="45" height="64" viewBox="0 0 45 64" fill="none" xmlns="http://www.w3.org/2000/svg">
<path fill-rule="evenodd" clip-rule="evenodd" d="M35.9998 36.3773L41.0548 31.9995L35.9998 27.6217V24.2051L44.9998 31.9993L35.9998 39.7935V36.3773ZM34.7659 34.8001L37.9998 31.9995L34.5364 29.0001H28.9998V29.0002H21.8694C20.2817 29.0165 18.9998 30.3086 18.9998 31.9001C18.9998 33.5017 20.2981 34.8001 21.8998 34.8001H34.7659Z" fill="#EB5757"/>
<path fill-rule="evenodd" clip-rule="evenodd" d="M22.9119 27C21.0159 22.8689 16.843 20 12 20C5.37258 20 0 25.3726 0 32C0 38.6274 5.37258 44 12 44C16.9208 44 21.1498 41.0382 23.0015 36.8H14.8998C12.1936 36.8 9.99976 34.6062 9.99976 31.9C9.99976 29.1938 12.1936 27 14.8998 27H22.9119ZM23.6219 29H14.8998C13.2981 29 11.9998 30.2983 11.9998 31.9C11.9998 33.5016 13.2981 34.8 14.8998 34.8H23.6716C23.8863 33.9016 24 32.9641 24 32C24 30.9641 23.8687 29.9588 23.6219 29Z" fill="#828282"/>
<path fill-rule="evenodd" clip-rule="evenodd" d="M28.9998 39.7935L37.9998 31.9993L28.9998 24.2051V29.0001H14.8998C13.2981 29.0001 11.9998 30.2985 11.9998 31.9001C11.9998 33.5017 13.2981 34.8001 14.8998 34.8001H28.9998V39.7935Z" fill="#EB5757"/>
<path d="M15.9719 49.2727L14.5231 58H12.6779L14.1268 49.2727H15.9719ZM17.5455 58H15.5682L20.0298 49.2727H22.4077L23.9673 58H21.9901L20.929 51.267H20.8608L17.5455 58ZM17.9972 54.5696H22.6676L22.4205 56.0099H17.75L17.9972 54.5696ZM28.1541 58H25.0178L26.4666 49.2727H29.5433C30.4212 49.2727 31.1499 49.4517 31.7294 49.8097C32.3118 50.1676 32.7223 50.6804 32.9609 51.348C33.1996 52.0128 33.2422 52.8068 33.0888 53.7301C32.9411 54.6222 32.647 55.3878 32.2067 56.027C31.7663 56.6634 31.2024 57.152 30.5149 57.4929C29.8274 57.831 29.0405 58 28.1541 58ZM27.1271 56.419H28.2607C28.8089 56.419 29.2891 56.3168 29.701 56.1122C30.1158 55.9077 30.4553 55.5923 30.7195 55.1662C30.9865 54.7401 31.1754 54.1946 31.2862 53.5298C31.3913 52.8991 31.3842 52.3878 31.2649 51.9957C31.1484 51.6009 30.9226 51.3125 30.5874 51.1307C30.2521 50.946 29.8118 50.8537 29.2663 50.8537H28.0518L27.1271 56.419Z" fill="#EB5757"/>
</svg>
