<svg viewBox="0 0 48 48" fill="none" xmlns="http://www.w3.org/2000/svg">
<g clip-path="url(#clip0_385_30)">
<path d="M24 0C30.3652 0 36.4697 2.52856 40.9706 7.02944C45.4714 11.5303 48 17.6348 48 24V24C48 30.3652 45.4714 36.4697 40.9706 40.9706C36.4697 45.4714 30.3652 48 24 48V48C17.6348 48 11.5303 45.4714 7.02944 40.9706C2.52856 36.4697 0 30.3652 0 24V24C0 17.6348 2.52856 11.5303 7.02944 7.02944C11.5303 2.52856 17.6348 0 24 0V0Z" fill="url(#paint0_radial_385_30)"/>
<path d="M12.9702 32.8643L6.06641 39.7681L8.23151 41.9332L17.3004 32.8643H12.9702Z" fill="#AC0909"/>
<path d="M31.0263 14.9413C31.9898 14.938 32.9479 15.0862 33.8654 15.3804C34.0901 15.4519 34.2944 15.5643 34.5088 15.6562L41.9335 8.23151L39.7684 6.06641L30.8833 14.9515L31.0263 14.9413Z" fill="#AC0909"/>
<path d="M12.6333 30.8213V17.177H18.0154C18.9281 17.152 19.8339 17.3408 20.6605 17.7285C21.3618 18.0625 21.9431 18.6046 22.3252 19.2808C22.7266 19.9974 22.9276 20.8087 22.9073 21.6298C22.9316 22.4493 22.7264 23.2593 22.315 23.9685C21.9176 24.6288 21.3253 25.1497 20.6197 25.4596C19.777 25.8279 18.8633 26.0058 17.9439 25.9804H14.298V23.6621H17.4333C17.91 23.7008 18.3896 23.6417 18.8427 23.4885C19.1851 23.3602 19.4733 23.1188 19.6597 22.8042C19.8548 22.4629 19.9503 22.0737 19.9354 21.6808C19.9488 21.2816 19.8535 20.8863 19.6597 20.537C19.4719 20.2166 19.1852 19.9657 18.8427 19.8221C18.4029 19.6543 17.9345 19.5745 17.4639 19.5872H15.5133V30.8213H12.6333ZM19.9967 24.6119L23.3873 30.8213H20.2112L16.892 24.6119H19.9967Z" fill="#F2F2F2"/>
<path d="M36.9805 21.9465H34.0698C34.0207 21.5897 33.9102 21.2442 33.743 20.9252C33.5837 20.6341 33.3685 20.3773 33.1098 20.1695C32.8468 19.9545 32.5453 19.7916 32.2213 19.6895C31.8688 19.5732 31.4998 19.5146 31.1285 19.5158C30.4725 19.4989 29.8271 19.6843 29.28 20.0469C28.7347 20.4199 28.3119 20.9457 28.0647 21.5584C27.7506 22.3256 27.601 23.1502 27.6256 23.9788C27.6044 24.8172 27.7538 25.651 28.0647 26.4299C28.296 27.0491 28.7165 27.5797 29.2665 27.9463C29.8165 28.313 30.468 28.4971 31.1285 28.4724C31.4917 28.476 31.8533 28.4243 32.2009 28.3192C32.5224 28.2259 32.8237 28.0735 33.0894 27.8699C33.3477 27.6709 33.566 27.4249 33.7328 27.1448C33.906 26.844 34.0269 26.5159 34.0902 26.1746H37.0009C36.9279 26.8069 36.7374 27.4199 36.4392 27.9822C36.1315 28.5662 35.7236 29.0917 35.2341 29.5346C34.7044 29.9848 34.0946 30.3313 33.4366 30.5558C32.6813 30.8319 31.8816 30.967 31.0775 30.9541C29.9373 30.9729 28.8127 30.6874 27.8196 30.1269C26.8492 29.582 26.0553 28.7704 25.5319 27.7882C24.9503 26.6119 24.6662 25.3109 24.7047 23.9992C24.6603 22.6838 24.9446 21.378 25.5319 20.2001C26.0488 19.2034 26.8388 18.3745 27.8094 17.8103C28.7961 17.2524 29.9134 16.9669 31.0468 16.9831C31.7955 16.9756 32.5405 17.0894 33.2528 17.3201C33.9068 17.5296 34.5162 17.8586 35.0502 18.2903C35.5827 18.7123 36.0211 19.2411 36.337 19.8426C36.6817 20.4973 36.9 21.211 36.9805 21.9465V21.9465Z" fill="#F2F2F2"/>
</g>
<defs>
<radialGradient id="paint0_radial_385_30" cx="0" cy="0" r="1" gradientUnits="userSpaceOnUse" gradientTransform="translate(24 24) scale(24)">
<stop offset="0.570554" stop-color="#AC0000" stop-opacity="0"/>
<stop offset="1" stop-color="#BB0000"/>
</radialGradient>
<clipPath id="clip0_385_30">
<rect width="48" height="48" fill="white"/>
</clipPath>
</defs>
</svg>
