<svg width="45" height="64" viewBox="0 0 45 64" fill="none" xmlns="http://www.w3.org/2000/svg">
<path fill-rule="evenodd" clip-rule="evenodd" d="M35.9998 36.3773L41.0548 31.9995L35.9998 27.6217V24.2051L44.9998 31.9993L35.9998 39.7935V36.3773ZM34.7659 34.8001L37.9998 31.9995L34.5364 29.0001H28.9998V29.0002H21.8694C20.2817 29.0165 18.9998 30.3086 18.9998 31.9001C18.9998 33.5017 20.2981 34.8001 21.8998 34.8001H34.7659Z" fill="#F2C94C"/>
<path fill-rule="evenodd" clip-rule="evenodd" d="M22.9119 27C21.0159 22.8689 16.843 20 12 20C5.37258 20 0 25.3726 0 32C0 38.6274 5.37258 44 12 44C16.9208 44 21.1498 41.0382 23.0015 36.8H14.8998C12.1936 36.8 9.99976 34.6062 9.99976 31.9C9.99976 29.1938 12.1936 27 14.8998 27H22.9119ZM23.6219 29H14.8998C13.2981 29 11.9998 30.2983 11.9998 31.9C11.9998 33.5016 13.2981 34.8 14.8998 34.8H23.6716C23.8863 33.9016 24 32.9641 24 32C24 30.9641 23.8687 29.9588 23.6219 29Z" fill="#828282"/>
<path fill-rule="evenodd" clip-rule="evenodd" d="M28.9998 39.7935L37.9998 31.9993L28.9998 24.2051V29.0001H14.8998C13.2981 29.0001 11.9998 30.2985 11.9998 31.9001C11.9998 33.5017 13.2981 34.8001 14.8998 34.8001H28.9998V39.7935Z" fill="#F2C94C"/>
<path d="M14.0748 58H12.0975L16.5591 49.2727H18.937L20.4966 58H18.5194L17.4583 51.267H17.3901L14.0748 58ZM14.5265 54.5696H19.1969L18.9498 56.0099H14.2793L14.5265 54.5696ZM24.8411 49.2727L23.3922 58H21.5471L22.9959 49.2727H24.8411ZM24.9103 58L26.3592 49.2727H29.8024C30.4615 49.2727 31.0041 49.3892 31.4302 49.6222C31.8592 49.8551 32.1603 50.1861 32.3336 50.6151C32.5098 51.0412 32.551 51.544 32.4572 52.1236C32.3606 52.7031 32.1518 53.2003 31.8308 53.6151C31.5126 54.0298 31.0978 54.3494 30.5865 54.5739C30.0779 54.7955 29.4885 54.9062 28.818 54.9062H26.5126L26.7683 53.4233H28.7711C29.1234 53.4233 29.4245 53.375 29.6745 53.2784C29.9245 53.1818 30.122 53.0369 30.2669 52.8438C30.4146 52.6506 30.5112 52.4105 30.5566 52.1236C30.6049 51.831 30.5879 51.5866 30.5055 51.3906C30.4231 51.1918 30.274 51.0412 30.0581 50.9389C29.8422 50.8338 29.5581 50.7812 29.2058 50.7812H27.9615L26.7555 58H24.9103ZM30.2797 54.0284L31.7924 58H29.7555L28.2896 54.0284H30.2797Z" fill="#F2C94C"/>
</svg>
