<svg viewBox="0 0 45 39" fill="none" xmlns="http://www.w3.org/2000/svg">
<g clip-path="url(#clip0_372_289)">
<path d="M14.0748 38H12.0975L16.5591 29.2727H18.937L20.4966 38H18.5194L17.4583 31.267H17.3901L14.0748 38ZM14.5265 34.5696H19.1969L18.9498 36.0099H14.2793L14.5265 34.5696ZM24.8411 29.2727L23.3922 38H21.5471L22.9959 29.2727H24.8411ZM24.9103 38L26.3592 29.2727H29.8024C30.4615 29.2727 31.0041 29.3892 31.4302 29.6222C31.8592 29.8551 32.1603 30.1861 32.3336 30.6151C32.5098 31.0412 32.551 31.544 32.4572 32.1236C32.3606 32.7031 32.1518 33.2003 31.8308 33.6151C31.5126 34.0298 31.0978 34.3494 30.5865 34.5739C30.0779 34.7955 29.4885 34.9062 28.818 34.9062H26.5126L26.7683 33.4233H28.7711C29.1234 33.4233 29.4245 33.375 29.6745 33.2784C29.9245 33.1818 30.122 33.0369 30.2669 32.8438C30.4146 32.6506 30.5112 32.4105 30.5566 32.1236C30.6049 31.831 30.5879 31.5866 30.5055 31.3906C30.4231 31.1918 30.274 31.0412 30.0581 30.9389C29.8422 30.8338 29.5581 30.7812 29.2058 30.7812H27.9615L26.7555 38H24.9103ZM30.2797 34.0284L31.7924 38H29.7555L28.2896 34.0284H30.2797Z" fill="#F2C94C"/>
<path fill-rule="evenodd" clip-rule="evenodd" d="M35.9998 15.511L40.0548 11.9992L35.9998 8.4874V4.20508L44.9998 11.9993L35.9998 19.7935V15.511ZM33.7655 14.8001L36.9998 11.9992L33.5367 9.00009H21.8998C20.2981 9.00009 18.9998 10.2985 18.9998 11.9001C18.9998 13.4926 20.2833 14.7852 21.8723 14.8H27.9998V14.8001H33.7655Z" fill="#F2C94C"/>
<path fill-rule="evenodd" clip-rule="evenodd" d="M22.9119 6.99996C21.0159 2.86892 16.843 0 12 0C5.37258 0 0 5.37258 0 12C0 18.6274 5.37258 24 12 24C16.9208 24 21.1498 21.0382 23.0015 16.8H14.8998C12.1936 16.8 9.99976 14.6062 9.99976 11.9C9.99976 9.19377 12.1936 6.99996 14.8998 6.99996H22.9119ZM23.6219 8.99996H14.8998C13.2981 8.99996 11.9998 10.2983 11.9998 11.9C11.9998 13.5016 13.2981 14.8 14.8998 14.8H23.6716C23.8863 13.9016 24 12.9641 24 12C24 10.9641 23.8687 9.95883 23.6219 8.99996Z" fill="#828282"/>
<path fill-rule="evenodd" clip-rule="evenodd" d="M27.9998 19.7877L36.9998 11.9934L27.9998 4.19922L27.9998 19.7877ZM14.9 8.99952C13.2984 8.99952 12 10.2979 12 11.8995C12 13.5011 13.2984 14.7995 14.9 14.7995H24.1C25.7016 14.7995 27 13.5011 27 11.8995C27 10.2979 25.7016 8.99952 24.1 8.99952H14.9Z" fill="#F2C94C"/>
</g>
<defs>
<clipPath id="clip0_372_289">
<rect width="45" height="39" fill="white"/>
</clipPath>
</defs>
</svg>
