<svg width="42" height="29" viewBox="0 0 42 29" fill="none" xmlns="http://www.w3.org/2000/svg">
<path fill-rule="evenodd" clip-rule="evenodd" d="M31.0236 16.7491C31.6519 15.2926 32 13.687 32 12C32 11.8944 31.9986 11.7892 31.9959 11.6843L24.3577 14.8707L24.3579 14.8708L12.7727 19.7038L12.7725 19.7038L11.4671 20.2483C12.5563 21.1164 13.7809 21.8139 15.1 22.3089C15.5888 22.4923 16.0862 22.6463 16.5894 22.7706L31.0236 16.7491ZM8.01305 11.4354C8.00438 11.6225 8 11.8108 8 12C8 13.4898 8.2715 14.9163 8.76773 16.2325L12.6998 17.567L18.7018 15.0632L8.01305 11.4354ZM31.7629 9.61444C30.6566 4.12987 25.8106 0 20 0C14.2605 0 9.46208 4.02945 8.27939 9.41379L21.4934 13.8986L31.7629 9.61444ZM21.7948 22.7661L20.9747 23.1083C21.4091 23.0697 21.8425 23.0098 22.2731 22.9285L21.7948 22.7661ZM25.4617 21.8986L24.5867 21.6017L28.4198 20.0026C27.521 20.7625 26.5262 21.3999 25.4617 21.8986Z" fill="#BDBDBD"/>
<path fill-rule="evenodd" clip-rule="evenodd" d="M31.0236 16.7491C31.6519 15.2926 32 13.687 32 12C32 11.8944 31.9986 11.7892 31.9959 11.6843L24.3577 14.8707L24.3579 14.8708L12.7727 19.7038L12.7725 19.7038L11.4671 20.2483C12.5563 21.1164 13.7809 21.8139 15.1 22.3089C15.5888 22.4923 16.0862 22.6463 16.5894 22.7706L31.0236 16.7491ZM8.01305 11.4354C8.00438 11.6225 8 11.8108 8 12C8 13.4898 8.2715 14.9163 8.76773 16.2325L12.6998 17.567L18.7018 15.0632L8.01305 11.4354ZM31.7629 9.61444C30.6566 4.12987 25.8106 0 20 0C14.2605 0 9.46208 4.02945 8.27939 9.41379L21.4934 13.8986L31.7629 9.61444ZM21.7948 22.7661L20.9747 23.1083C21.4091 23.0697 21.8425 23.0098 22.2731 22.9285L21.7948 22.7661ZM25.4617 21.8986L24.5867 21.6017L28.4198 20.0026C27.521 20.7625 26.5262 21.3999 25.4617 21.8986Z" fill="url(#paint0_radial_444_224)" fill-opacity="0.25"/>
<path d="M24.5867 21.601L35.2189 25.2095L34.0195 28.4593L41.5069 25.6396L37.6465 18.6318L36.7082 21.1741L30.5886 19.0971L24.5867 21.601Z" fill="#F2C94C"/>
<path fill-rule="evenodd" clip-rule="evenodd" d="M32.8339 21.1385C33.6341 21.8343 33.7248 23.0551 32.9527 23.7819C32.7792 23.9452 32.6028 24.1051 32.4237 24.2616L28.025 22.7687C28.7353 22.3178 29.4087 21.8085 30.038 21.2453C30.8281 20.5381 32.0336 20.4427 32.8339 21.1385ZM30.5174 25.7266C28.694 26.9544 26.6628 27.867 24.5076 28.4128C20.7122 29.3741 16.7137 29.1521 13.048 27.7766C9.38235 26.401 6.22484 23.9377 3.9988 20.7168C2.1379 18.0243 1.00232 14.91 0.685108 11.6734C0.58168 10.6181 1.45322 9.75831 2.51361 9.76075C2.73842 9.76127 2.95356 9.80055 3.15426 9.87216C3.34799 9.88208 3.54361 9.9186 3.73639 9.98402L18.7018 15.0632L12.6998 17.5671L5.36903 15.0791C5.81397 16.295 6.41332 17.4565 7.15775 18.5336C8.93859 21.1103 11.4646 23.0809 14.3971 24.1814C17.3296 25.2818 20.5285 25.4594 23.5648 24.6904C24.2435 24.5185 24.9067 24.3012 25.5505 24.0409L30.5174 25.7266Z" fill="#F2C94C"/>
<path fill-rule="evenodd" clip-rule="evenodd" d="M33.2053 17.8738L35.5063 18.6548L37.2859 13.833L38.3653 15.7924C38.7116 14.7313 38.962 13.6422 39.1137 12.5381C39.2023 12.2528 39.2321 11.948 39.195 11.6432C39.1768 11.3205 39.0668 11.0232 38.8903 10.7728C38.3454 9.88696 37.2223 9.50427 36.2323 9.91728L11.4673 20.2485C12.5564 21.1165 13.7809 21.8139 15.0999 22.3089C15.5889 22.4924 16.0864 22.6464 16.5898 22.7707L18.9308 21.7941L18.9307 21.7941L30.5159 16.9611L30.516 16.9611L34.4705 15.3114C34.3507 15.6262 34.2202 15.9374 34.0791 16.2446C33.8211 16.8059 33.5291 17.35 33.2053 17.8738ZM35.8037 20.8678L34.9324 20.5721C35.1057 20.8631 35.2408 21.1752 35.3343 21.4987C35.4951 21.2916 35.6516 21.0813 35.8037 20.8678ZM9.40078 21.1106C10.6868 22.2923 12.1701 23.2508 13.7901 23.9387L9.23718 25.838C7.89254 24.9529 6.6625 23.9009 5.57746 22.7056L9.40078 21.1106ZM31.5033 22.8194C31.9606 23.3329 32.6379 23.5437 33.2516 23.4099C33.6794 22.6873 33.5094 21.7258 32.834 21.1385C32.366 20.7317 31.7595 20.5953 31.1785 20.6936C30.8923 21.4027 30.9761 22.2273 31.5033 22.8194ZM3.62983 23.5181C4.65118 24.7216 5.80116 25.8042 7.05658 26.7477L4.86872 27.6604C3.77284 28.1176 2.51385 27.5998 2.05668 26.5039C1.59951 25.4081 2.11729 24.1491 3.21317 23.6919L3.62983 23.5181Z" fill="#F2C94C"/>
<defs>
<radialGradient id="paint0_radial_444_224" cx="0" cy="0" r="1" gradientUnits="userSpaceOnUse" gradientTransform="translate(20 12) rotate(90) scale(12)">
<stop stop-opacity="0"/>
<stop offset="1"/>
</radialGradient>
</defs>
</svg>
