<svg width="45" height="64" viewBox="0 0 45 64" fill="none" xmlns="http://www.w3.org/2000/svg">
<path fill-rule="evenodd" clip-rule="evenodd" d="M35.9998 36.377L41.0548 31.9992L35.9998 27.6214V24.2051L44.9998 31.9993L35.9998 39.7935V36.377ZM34.7655 34.8001L37.9998 31.9992L34.5367 29.0001H21.8998C20.2981 29.0001 18.9998 30.2985 18.9998 31.9001C18.9998 33.4926 20.2833 34.7852 21.8723 34.8H28.9998V34.8001H34.7655Z" fill="#F2C94C"/>
<path fill-rule="evenodd" clip-rule="evenodd" d="M22.9119 27C21.0159 22.8689 16.843 20 12 20C5.37258 20 0 25.3726 0 32C0 38.6274 5.37258 44 12 44C16.9208 44 21.1498 41.0382 23.0015 36.8H14.8998C12.1936 36.8 9.99976 34.6062 9.99976 31.9C9.99976 29.1938 12.1936 27 14.8998 27H22.9119ZM23.6219 29H14.8998C13.2981 29 11.9998 30.2983 11.9998 31.9C11.9998 33.5016 13.2981 34.8 14.8998 34.8H23.6716C23.8863 33.9016 24 32.9641 24 32C24 30.9641 23.8687 29.9588 23.6219 29Z" fill="#828282"/>
<path fill-rule="evenodd" clip-rule="evenodd" d="M28.9998 39.7935L37.9998 31.9993L28.9998 24.2051V29.0001H14.8998C13.2981 29.0001 11.9998 30.2985 11.9998 31.9001C11.9998 33.5017 13.2981 34.8001 14.8998 34.8001H28.9998V39.7935Z" fill="#F2C94C"/>
</svg>
