<svg width="64" height="64" viewBox="0 0 64 64" fill="none" xmlns="http://www.w3.org/2000/svg">
<rect width="64" height="64" fill="#222222"/>
<circle cx="32" cy="32" r="12.5" fill="#BDBDBD"/>
<circle cx="32" cy="32" r="12.5" fill="url(#paint0_radial_347_3)" fill-opacity="0.25"/>
<circle cx="32" cy="32" r="12.5" stroke="#0E0E10"/>
<mask id="path-2-outside-1_347_3" maskUnits="userSpaceOnUse" x="28.9998" y="21" width="31" height="32" fill="black">
<rect fill="white" x="28.9998" y="21" width="31" height="32"/>
<path fill-rule="evenodd" clip-rule="evenodd" d="M54.794 34L46.9998 25L39.2055 34H44.2585C44.2049 34.3234 44.1393 34.6453 44.0619 34.965C43.5912 36.9078 42.693 38.7211 41.4329 40.2728C40.1727 41.8246 38.5823 43.0757 36.7774 43.935C35.8429 44.38 34.863 44.7141 33.8578 44.9329C32.3036 45.2711 30.9998 46.5297 30.9998 48.1203C30.9998 49.7109 32.2963 51.0224 33.869 50.7847C35.73 50.5034 37.5448 49.9492 39.2536 49.1357C41.8319 47.908 44.104 46.1207 45.9042 43.9039C47.7044 41.6871 48.9875 39.0967 49.6599 36.3213C49.8456 35.5548 49.9834 34.7796 50.0733 34H54.794Z"/>
</mask>
<path fill-rule="evenodd" clip-rule="evenodd" d="M54.794 34L46.9998 25L39.2055 34H44.2585C44.2049 34.3234 44.1393 34.6453 44.0619 34.965C43.5912 36.9078 42.693 38.7211 41.4329 40.2728C40.1727 41.8246 38.5823 43.0757 36.7774 43.935C35.8429 44.38 34.863 44.7141 33.8578 44.9329C32.3036 45.2711 30.9998 46.5297 30.9998 48.1203C30.9998 49.7109 32.2963 51.0224 33.869 50.7847C35.73 50.5034 37.5448 49.9492 39.2536 49.1357C41.8319 47.908 44.104 46.1207 45.9042 43.9039C47.7044 41.6871 48.9875 39.0967 49.6599 36.3213C49.8456 35.5548 49.9834 34.7796 50.0733 34H54.794Z" fill="#F2C94C"/>
<path fill-rule="evenodd" clip-rule="evenodd" d="M54.794 34L46.9998 25L39.2055 34H44.2585C44.2049 34.3234 44.1393 34.6453 44.0619 34.965C43.5912 36.9078 42.693 38.7211 41.4329 40.2728C40.1727 41.8246 38.5823 43.0757 36.7774 43.935C35.8429 44.38 34.863 44.7141 33.8578 44.9329C32.3036 45.2711 30.9998 46.5297 30.9998 48.1203C30.9998 49.7109 32.2963 51.0224 33.869 50.7847C35.73 50.5034 37.5448 49.9492 39.2536 49.1357C41.8319 47.908 44.104 46.1207 45.9042 43.9039C47.7044 41.6871 48.9875 39.0967 49.6599 36.3213C49.8456 35.5548 49.9834 34.7796 50.0733 34H54.794Z" fill="url(#paint1_radial_347_3)" fill-opacity="0.45"/>
<path d="M46.9998 25L48.5116 23.6907L46.9998 21.9449L45.4879 23.6907L46.9998 25ZM54.794 34V36H59.1718L56.3058 32.6907L54.794 34ZM39.2055 34L37.6937 32.6907L34.8277 36H39.2055V34ZM44.2585 34L46.2316 34.3273L46.6177 32H44.2585V34ZM44.0619 34.965L42.1181 34.494L42.1181 34.494L44.0619 34.965ZM41.4329 40.2728L39.8803 39.012L39.8803 39.012L41.4329 40.2728ZM36.7774 43.935L35.9176 42.1293L35.9176 42.1293L36.7774 43.935ZM33.8578 44.9329L33.4325 42.9786L33.4325 42.9786L33.8578 44.9329ZM33.869 50.7847L34.1679 52.7622L34.1679 52.7622L33.869 50.7847ZM39.2536 49.1357L38.3938 47.3299L38.3938 47.3299L39.2536 49.1357ZM45.9042 43.9039L47.4567 45.1647L47.4567 45.1647L45.9042 43.9039ZM49.6599 36.3213L51.6037 36.7922L51.6037 36.7922L49.6599 36.3213ZM50.0733 34V32H48.2907L48.0865 33.7709L50.0733 34ZM45.4879 26.3093L53.2821 35.3093L56.3058 32.6907L48.5116 23.6907L45.4879 26.3093ZM40.7174 35.3093L48.5116 26.3093L45.4879 23.6907L37.6937 32.6907L40.7174 35.3093ZM44.2585 32H39.2055V36H44.2585V32ZM42.2855 33.6727C42.2398 33.9479 42.184 34.2219 42.1181 34.494L46.0056 35.4359C46.0946 35.0686 46.1699 34.6989 46.2316 34.3273L42.2855 33.6727ZM42.1181 34.494C41.7174 36.1477 40.9529 37.6912 39.8803 39.012L42.9854 41.5336C44.4331 39.751 45.4649 37.6678 46.0056 35.4359L42.1181 34.494ZM39.8803 39.012C38.8077 40.3329 37.4539 41.3978 35.9176 42.1293L37.6372 45.7408C39.7106 44.7536 41.5377 43.3163 42.9854 41.5336L39.8803 39.012ZM35.9176 42.1293C35.1222 42.508 34.2881 42.7924 33.4325 42.9786L34.2831 46.8871C35.4379 46.6358 36.5636 46.252 37.6372 45.7408L35.9176 42.1293ZM33.4325 42.9786C31.2184 43.4605 28.9998 45.347 28.9998 48.1203H32.9998C32.9998 47.7124 33.3887 47.0818 34.2831 46.8871L33.4325 42.9786ZM28.9998 48.1203C28.9998 50.7185 31.181 53.2137 34.1679 52.7622L33.5701 48.8072C33.4421 48.8265 33.3337 48.7946 33.2255 48.6913C33.1034 48.5748 32.9998 48.3734 32.9998 48.1203H28.9998ZM34.1679 52.7622C36.2227 52.4517 38.2266 51.8398 40.1133 50.9414L38.3938 47.3299C36.863 48.0587 35.2373 48.5552 33.5701 48.8072L34.1679 52.7622ZM40.1133 50.9414C42.9603 49.5859 45.469 47.6124 47.4567 45.1647L44.3516 42.6431C42.7389 44.629 40.7036 46.2301 38.3938 47.3299L40.1133 50.9414ZM47.4567 45.1647C49.4445 42.717 50.8612 39.8567 51.6037 36.7922L47.7161 35.8503C47.1138 38.3366 45.9643 40.6572 44.3516 42.6431L47.4567 45.1647ZM51.6037 36.7922C51.8087 35.9459 51.9609 35.0899 52.0602 34.2291L48.0865 33.7709C48.006 34.4692 47.8825 35.1637 47.7161 35.8503L51.6037 36.7922ZM54.794 32H50.0733V36H54.794V32Z" fill="#0E0E10" mask="url(#path-2-outside-1_347_3)"/>
<defs>
<radialGradient id="paint0_radial_347_3" cx="0" cy="0" r="1" gradientUnits="userSpaceOnUse" gradientTransform="translate(32 32) rotate(90) scale(12)">
<stop stop-opacity="0"/>
<stop offset="1"/>
</radialGradient>
<radialGradient id="paint1_radial_347_3" cx="0" cy="0" r="1" gradientUnits="userSpaceOnUse" gradientTransform="translate(30.9998 50.6801) rotate(-55.9818) scale(28.5992 27.0044)">
<stop stop-color="#DE0000"/>
<stop offset="1" stop-color="#DE0000" stop-opacity="0"/>
</radialGradient>
</defs>
</svg>
