<svg width="64" height="64" viewBox="0 0 64 64" fill="none" xmlns="http://www.w3.org/2000/svg">
<rect width="64" height="64" fill="#222222"/>
<circle cx="32" cy="32" r="12.5" fill="#BDBDBD"/>
<circle cx="32" cy="32" r="12.5" fill="url(#paint0_radial_347_60)" fill-opacity="0.25"/>
<circle cx="32" cy="32" r="12.5" stroke="#0E0E10"/>
<mask id="path-2-outside-1_347_60" maskUnits="userSpaceOnUse" x="9.98779" y="21" width="51" height="32" fill="black">
<rect fill="white" x="9.98779" y="21" width="51" height="32"/>
<path fill-rule="evenodd" clip-rule="evenodd" d="M55.7941 34L47.9999 25L40.2057 34H45.2588C45.2176 34.2482 45.1694 34.4955 45.1142 34.7417C44.7035 36.5724 43.914 38.2968 42.7966 39.8039C41.6793 41.3111 40.2587 42.5676 38.6264 43.4926C36.9941 44.4176 35.1862 44.9906 33.319 45.1747C31.4519 45.3589 29.5669 45.15 27.7854 44.5616C26.0038 43.9733 24.3652 43.0184 22.975 41.7585C21.5847 40.4986 20.4737 38.9616 19.7133 37.2464C19.3435 36.4121 19.0606 35.5446 18.8675 34.6576C18.5293 33.1034 17.2707 31.7996 15.6801 31.7996C14.0896 31.7996 12.7781 33.0961 13.0157 34.6688C13.2711 36.3585 13.7515 38.0107 14.4475 39.5807C15.5338 42.031 17.121 44.2268 19.107 46.0266C21.0931 47.8265 23.434 49.1905 25.979 50.0311C28.5241 50.8716 31.2169 51.17 33.8843 50.9069C36.5516 50.6439 39.1343 49.8254 41.4662 48.5039C43.7981 47.1825 45.8274 45.3875 47.4237 43.2344C49.02 41.0813 50.1478 38.6178 50.7345 36.0026C50.8831 35.3401 50.9962 34.6717 51.0737 34H55.7941Z"/>
</mask>
<path fill-rule="evenodd" clip-rule="evenodd" d="M55.7941 34L47.9999 25L40.2057 34H45.2588C45.2176 34.2482 45.1694 34.4955 45.1142 34.7417C44.7035 36.5724 43.914 38.2968 42.7966 39.8039C41.6793 41.3111 40.2587 42.5676 38.6264 43.4926C36.9941 44.4176 35.1862 44.9906 33.319 45.1747C31.4519 45.3589 29.5669 45.15 27.7854 44.5616C26.0038 43.9733 24.3652 43.0184 22.975 41.7585C21.5847 40.4986 20.4737 38.9616 19.7133 37.2464C19.3435 36.4121 19.0606 35.5446 18.8675 34.6576C18.5293 33.1034 17.2707 31.7996 15.6801 31.7996C14.0896 31.7996 12.7781 33.0961 13.0157 34.6688C13.2711 36.3585 13.7515 38.0107 14.4475 39.5807C15.5338 42.031 17.121 44.2268 19.107 46.0266C21.0931 47.8265 23.434 49.1905 25.979 50.0311C28.5241 50.8716 31.2169 51.17 33.8843 50.9069C36.5516 50.6439 39.1343 49.8254 41.4662 48.5039C43.7981 47.1825 45.8274 45.3875 47.4237 43.2344C49.02 41.0813 50.1478 38.6178 50.7345 36.0026C50.8831 35.3401 50.9962 34.6717 51.0737 34H55.7941Z" fill="#F2C94C"/>
<path fill-rule="evenodd" clip-rule="evenodd" d="M55.7941 34L47.9999 25L40.2057 34H45.2588C45.2176 34.2482 45.1694 34.4955 45.1142 34.7417C44.7035 36.5724 43.914 38.2968 42.7966 39.8039C41.6793 41.3111 40.2587 42.5676 38.6264 43.4926C36.9941 44.4176 35.1862 44.9906 33.319 45.1747C31.4519 45.3589 29.5669 45.15 27.7854 44.5616C26.0038 43.9733 24.3652 43.0184 22.975 41.7585C21.5847 40.4986 20.4737 38.9616 19.7133 37.2464C19.3435 36.4121 19.0606 35.5446 18.8675 34.6576C18.5293 33.1034 17.2707 31.7996 15.6801 31.7996C14.0896 31.7996 12.7781 33.0961 13.0157 34.6688C13.2711 36.3585 13.7515 38.0107 14.4475 39.5807C15.5338 42.031 17.121 44.2268 19.107 46.0266C21.0931 47.8265 23.434 49.1905 25.979 50.0311C28.5241 50.8716 31.2169 51.17 33.8843 50.9069C36.5516 50.6439 39.1343 49.8254 41.4662 48.5039C43.7981 47.1825 45.8274 45.3875 47.4237 43.2344C49.02 41.0813 50.1478 38.6178 50.7345 36.0026C50.8831 35.3401 50.9962 34.6717 51.0737 34H55.7941Z" fill="url(#paint1_radial_347_60)" fill-opacity="0.45"/>
<path d="M47.9999 25L49.5118 23.6907L47.9999 21.9449L46.4881 23.6907L47.9999 25ZM55.7941 34V36H60.1719L57.306 32.6907L55.7941 34ZM40.2057 34L38.6938 32.6907L35.8279 36H40.2057V34ZM45.2588 34L47.2318 34.3274L47.6181 32H45.2588V34ZM45.1142 34.7417L43.1627 34.3039L43.1627 34.3039L45.1142 34.7417ZM42.7966 39.8039L44.4033 40.9951L44.4033 40.9951L42.7966 39.8039ZM38.6264 43.4926L39.6124 45.2327L39.6124 45.2327L38.6264 43.4926ZM33.319 45.1747L33.1228 43.1844L33.1228 43.1844L33.319 45.1747ZM27.7854 44.5616L27.1582 46.4607L27.1582 46.4607L27.7854 44.5616ZM22.975 41.7585L24.318 40.2765L24.318 40.2765L22.975 41.7585ZM19.7133 37.2464L17.8849 38.0569L17.8849 38.0569L19.7133 37.2464ZM18.8675 34.6576L16.9133 35.0829L16.9133 35.0829L18.8675 34.6576ZM15.6801 31.7996L15.6802 29.7996H15.6801V31.7996ZM13.0157 34.6688L14.9933 34.37L14.9933 34.37L13.0157 34.6688ZM14.4475 39.5807L12.6191 40.3913L14.4475 39.5807ZM19.107 46.0266L20.4501 44.5446L20.4501 44.5446L19.107 46.0266ZM25.979 50.0311L26.6062 48.132L26.6062 48.132L25.979 50.0311ZM33.8843 50.9069L33.688 48.9166L33.688 48.9166L33.8843 50.9069ZM41.4662 48.5039L40.4802 46.7639L40.4802 46.7639L41.4662 48.5039ZM47.4237 43.2344L49.0303 44.4255L49.0303 44.4255L47.4237 43.2344ZM50.7345 36.0026L52.686 36.4404L52.686 36.4404L50.7345 36.0026ZM51.0737 34V32H49.2911L49.0868 33.7708L51.0737 34ZM46.4881 26.3093L54.2823 35.3093L57.306 32.6907L49.5118 23.6907L46.4881 26.3093ZM41.7175 35.3093L49.5118 26.3093L46.4881 23.6907L38.6938 32.6907L41.7175 35.3093ZM45.2588 32H40.2057V36H45.2588V32ZM43.2858 33.6726C43.2507 33.8839 43.2097 34.0944 43.1627 34.3039L47.0657 35.1795C47.1291 34.8967 47.1845 34.6126 47.2318 34.3274L43.2858 33.6726ZM43.1627 34.3039C42.8131 35.8621 42.1411 37.3299 41.19 38.6128L44.4033 40.9951C45.6869 39.2636 46.5938 37.2826 47.0657 35.1795L43.1627 34.3039ZM41.19 38.6128C40.2389 39.8957 39.0297 40.9652 37.6403 41.7526L39.6124 45.2327C41.4876 44.17 43.1196 42.7265 44.4033 40.9951L41.19 38.6128ZM37.6403 41.7526C36.2509 42.5399 34.7121 43.0277 33.1228 43.1844L33.5153 47.1651C35.6603 46.9536 37.7372 46.2953 39.6124 45.2327L37.6403 41.7526ZM33.1228 43.1844C31.5335 43.3411 29.929 43.1633 28.4126 42.6625L27.1582 46.4607C29.2048 47.1367 31.3703 47.3766 33.5153 47.1651L33.1228 43.1844ZM28.4126 42.6625C26.8961 42.1617 25.5014 41.3489 24.318 40.2765L21.6319 43.2405C23.2291 44.6879 25.1115 45.7848 27.1582 46.4607L28.4126 42.6625ZM24.318 40.2765C23.1346 39.2041 22.1889 37.8958 21.5417 36.4359L17.8849 38.0569C18.7584 40.0274 20.0348 41.7931 21.6319 43.2405L24.318 40.2765ZM21.5417 36.4359C21.2269 35.7257 20.9861 34.9873 20.8218 34.2323L16.9133 35.0829C17.135 36.1019 17.46 37.0985 17.8849 38.0569L21.5417 36.4359ZM20.8218 34.2323C20.34 32.0183 18.4534 29.7996 15.6802 29.7996L15.6801 33.7996C16.088 33.7996 16.7187 34.1886 16.9133 35.0829L20.8218 34.2323ZM15.6801 29.7996C13.0819 29.7996 10.5868 31.9809 11.0382 34.9677L14.9933 34.37C14.9739 34.2419 15.0059 34.1335 15.1091 34.0253C15.2257 33.9032 15.427 33.7996 15.6801 33.7996V29.7996ZM11.0382 34.9677C11.3202 36.8333 11.8506 38.6577 12.6191 40.3913L16.2759 38.7702C15.6524 37.3637 15.2221 35.8836 14.9933 34.37L11.0382 34.9677ZM12.6191 40.3913C13.8185 43.0968 15.5711 45.5213 17.764 47.5086L20.4501 44.5446C18.6709 42.9323 17.249 40.9653 16.2759 38.7702L12.6191 40.3913ZM17.764 47.5086C19.9569 49.4959 22.5417 51.0021 25.3518 51.9302L26.6062 48.132C24.3263 47.379 22.2292 46.157 20.4501 44.5446L17.764 47.5086ZM25.3518 51.9302C28.162 52.8583 31.1354 53.1877 34.0805 52.8973L33.688 48.9166C31.2985 49.1522 28.8862 48.8849 26.6062 48.132L25.3518 51.9302ZM34.0805 52.8973C37.0257 52.6069 39.8775 51.703 42.4522 50.2439L40.4802 46.7639C38.3912 47.9477 36.0775 48.681 33.688 48.9166L34.0805 52.8973ZM42.4522 50.244C45.027 48.7849 47.2678 46.8029 49.0303 44.4255L45.8171 42.0433C44.3871 43.9721 42.5691 45.5801 40.4802 46.7639L42.4522 50.244ZM49.0303 44.4255C50.7929 42.0481 52.0381 39.3281 52.686 36.4404L48.783 35.5648C48.2574 37.9076 47.2471 40.1144 45.8171 42.0433L49.0303 44.4255ZM52.686 36.4404C52.8501 35.7089 52.9749 34.9708 53.0605 34.2292L49.0868 33.7708C49.0174 34.3725 48.9161 34.9713 48.783 35.5648L52.686 36.4404ZM55.7941 32H51.0737V36H55.7941V32Z" fill="#0E0E10" mask="url(#path-2-outside-1_347_60)"/>
<defs>
<radialGradient id="paint0_radial_347_60" cx="0" cy="0" r="1" gradientUnits="userSpaceOnUse" gradientTransform="translate(32 32) rotate(90) scale(12)">
<stop stop-opacity="0"/>
<stop offset="1"/>
</radialGradient>
<radialGradient id="paint1_radial_347_60" cx="0" cy="0" r="1" gradientUnits="userSpaceOnUse" gradientTransform="translate(13 39) rotate(-21.8014) scale(37.6962 35.5941)">
<stop stop-color="#DE0000"/>
<stop offset="1" stop-color="#DE0000" stop-opacity="0"/>
</radialGradient>
</defs>
</svg>
