<svg width="51" height="64" viewBox="0 0 51 64" fill="none" xmlns="http://www.w3.org/2000/svg">
<circle cx="22" cy="32" r="12.5" fill="#BDBDBD"/>
<circle cx="22" cy="32" r="12.5" fill="url(#paint0_radial_347_60)" fill-opacity="0.25"/>
<circle cx="22" cy="32" r="12.5" stroke="#0E0E10"/>
<mask id="path-2-outside-1_347_60" maskUnits="userSpaceOnUse" x="-0.012207" y="21" width="51" height="32" fill="black">
<rect fill="white" x="-0.012207" y="21" width="51" height="32"/>
<path fill-rule="evenodd" clip-rule="evenodd" d="M45.7941 34L37.9999 25L30.2056 34H35.2589C35.2177 34.2484 35.1694 34.4958 35.1142 34.7421C34.7035 36.5728 33.914 38.2972 32.7966 39.8043C31.6793 41.3115 30.2587 42.568 28.6264 43.493C26.9941 44.418 25.1862 44.991 23.319 45.1751C21.4519 45.3592 19.5669 45.1504 17.7854 44.562C16.0038 43.9736 14.3652 43.0188 12.975 41.7589C11.5847 40.499 10.4737 38.962 9.71333 37.2468C9.34346 36.4125 9.06057 35.545 8.86755 34.658C8.52931 33.1038 7.27073 31.8 5.68015 31.8C4.08957 31.8 2.77805 33.0965 3.01575 34.6692C3.27111 36.3588 3.75155 38.0111 4.44754 39.5811C5.53377 42.0314 7.12098 44.2272 9.10704 46.027C11.0931 47.8268 13.434 49.1909 15.979 50.0315C18.5241 50.872 21.2169 51.1703 23.8843 50.9073C26.5516 50.6443 29.1343 49.8257 31.4662 48.5043C33.7981 47.1829 35.8274 45.3878 37.4237 43.2348C39.02 41.0817 40.1478 38.6182 40.7345 36.003C40.8831 35.3404 40.9962 34.6718 41.0737 34H45.7941Z"/>
</mask>
<path fill-rule="evenodd" clip-rule="evenodd" d="M45.7941 34L37.9999 25L30.2056 34H35.2589C35.2177 34.2484 35.1694 34.4958 35.1142 34.7421C34.7035 36.5728 33.914 38.2972 32.7966 39.8043C31.6793 41.3115 30.2587 42.568 28.6264 43.493C26.9941 44.418 25.1862 44.991 23.319 45.1751C21.4519 45.3592 19.5669 45.1504 17.7854 44.562C16.0038 43.9736 14.3652 43.0188 12.975 41.7589C11.5847 40.499 10.4737 38.962 9.71333 37.2468C9.34346 36.4125 9.06057 35.545 8.86755 34.658C8.52931 33.1038 7.27073 31.8 5.68015 31.8C4.08957 31.8 2.77805 33.0965 3.01575 34.6692C3.27111 36.3588 3.75155 38.0111 4.44754 39.5811C5.53377 42.0314 7.12098 44.2272 9.10704 46.027C11.0931 47.8268 13.434 49.1909 15.979 50.0315C18.5241 50.872 21.2169 51.1703 23.8843 50.9073C26.5516 50.6443 29.1343 49.8257 31.4662 48.5043C33.7981 47.1829 35.8274 45.3878 37.4237 43.2348C39.02 41.0817 40.1478 38.6182 40.7345 36.003C40.8831 35.3404 40.9962 34.6718 41.0737 34H45.7941Z" fill="#F2C94C"/>
<path fill-rule="evenodd" clip-rule="evenodd" d="M45.7941 34L37.9999 25L30.2056 34H35.2589C35.2177 34.2484 35.1694 34.4958 35.1142 34.7421C34.7035 36.5728 33.914 38.2972 32.7966 39.8043C31.6793 41.3115 30.2587 42.568 28.6264 43.493C26.9941 44.418 25.1862 44.991 23.319 45.1751C21.4519 45.3592 19.5669 45.1504 17.7854 44.562C16.0038 43.9736 14.3652 43.0188 12.975 41.7589C11.5847 40.499 10.4737 38.962 9.71333 37.2468C9.34346 36.4125 9.06057 35.545 8.86755 34.658C8.52931 33.1038 7.27073 31.8 5.68015 31.8C4.08957 31.8 2.77805 33.0965 3.01575 34.6692C3.27111 36.3588 3.75155 38.0111 4.44754 39.5811C5.53377 42.0314 7.12098 44.2272 9.10704 46.027C11.0931 47.8268 13.434 49.1909 15.979 50.0315C18.5241 50.872 21.2169 51.1703 23.8843 50.9073C26.5516 50.6443 29.1343 49.8257 31.4662 48.5043C33.7981 47.1829 35.8274 45.3878 37.4237 43.2348C39.02 41.0817 40.1478 38.6182 40.7345 36.003C40.8831 35.3404 40.9962 34.6718 41.0737 34H45.7941Z" fill="url(#paint1_radial_347_60)" fill-opacity="0.45"/>
<path d="M37.9999 25L39.5117 23.6907L37.9999 21.9449L36.488 23.6907L37.9999 25ZM45.7941 34V36H50.1719L47.306 32.6907L45.7941 34ZM30.2056 34L28.6938 32.6907L25.8278 36H30.2056V34ZM35.2589 34L37.2319 34.3274L37.6181 32H35.2589V34ZM35.1142 34.7421L37.0657 35.1799L37.0657 35.1799L35.1142 34.7421ZM32.7966 39.8043L34.4033 40.9955L34.4033 40.9955L32.7966 39.8043ZM28.6264 43.493L27.6403 41.753L27.6403 41.753L28.6264 43.493ZM23.319 45.1751L23.1228 43.1848L23.1228 43.1848L23.319 45.1751ZM17.7854 44.562L18.4126 42.6629L18.4126 42.6629L17.7854 44.562ZM12.975 41.7589L14.318 40.2769L14.318 40.2769L12.975 41.7589ZM9.71333 37.2468L7.88493 38.0573L7.88493 38.0573L9.71333 37.2468ZM8.86755 34.658L10.8218 34.2327L10.8218 34.2327L8.86755 34.658ZM5.68015 31.8L5.68015 29.8H5.68015V31.8ZM3.01575 34.6692L4.99329 34.3704L4.99329 34.3704L3.01575 34.6692ZM4.44754 39.5811L2.61915 40.3917L2.61915 40.3917L4.44754 39.5811ZM9.10704 46.027L10.4501 44.545L10.4501 44.545L9.10704 46.027ZM15.979 50.0315L16.6062 48.1323L16.6062 48.1323L15.979 50.0315ZM23.8843 50.9073L23.688 48.917L23.688 48.917L23.8843 50.9073ZM31.4662 48.5043L30.4802 46.7643L30.4802 46.7643L31.4662 48.5043ZM37.4237 43.2348L39.0303 44.4259L39.0303 44.4259L37.4237 43.2348ZM40.7345 36.003L38.783 35.5652L38.783 35.5652L40.7345 36.003ZM41.0737 34V32H39.2911L39.0869 33.7708L41.0737 34ZM36.488 26.3093L44.2822 35.3093L47.306 32.6907L39.5117 23.6907L36.488 26.3093ZM31.7175 35.3093L39.5117 26.3093L36.488 23.6907L28.6938 32.6907L31.7175 35.3093ZM35.2589 32H30.2056V36H35.2589V32ZM33.2858 33.6726C33.2508 33.884 33.2097 34.0947 33.1627 34.3043L37.0657 35.1799C37.1291 34.897 37.1845 34.6127 37.2319 34.3274L33.2858 33.6726ZM33.1627 34.3043C32.8131 35.8625 32.1411 37.3303 31.19 38.6132L34.4033 40.9955C35.6869 39.264 36.5938 37.283 37.0657 35.1799L33.1627 34.3043ZM31.19 38.6132C30.2389 39.8961 29.0297 40.9656 27.6403 41.753L29.6124 45.233C31.4876 44.1704 33.1196 42.7269 34.4033 40.9955L31.19 38.6132ZM27.6403 41.753C26.2509 42.5403 24.7121 43.0281 23.1228 43.1848L23.5153 47.1655C25.6603 46.954 27.7372 46.2957 29.6124 45.233L27.6403 41.753ZM23.1228 43.1848C21.5335 43.3415 19.929 43.1637 18.4126 42.6629L17.1582 46.4611C19.2048 47.1371 21.3703 47.377 23.5153 47.1655L23.1228 43.1848ZM18.4126 42.6629C16.8961 42.1621 15.5014 41.3493 14.318 40.2769L11.6319 43.2409C13.2291 44.6883 15.1115 45.7852 17.1582 46.4611L18.4126 42.6629ZM14.318 40.2769C13.1346 39.2045 12.1889 37.8962 11.5417 36.4363L7.88493 38.0573C8.75844 40.0278 10.0348 41.7935 11.6319 43.2409L14.318 40.2769ZM11.5417 36.4363C11.2269 35.7261 10.9861 34.9877 10.8218 34.2327L6.91329 35.0833C7.13503 36.1022 7.46003 37.0988 7.88493 38.0573L11.5417 36.4363ZM10.8218 34.2327C10.34 32.0187 8.45343 29.8 5.68015 29.8L5.68015 33.8C6.08803 33.8 6.71866 34.189 6.91329 35.0833L10.8218 34.2327ZM5.68015 29.8C3.0819 29.8 0.586778 31.9812 1.03821 34.9681L4.99329 34.3704C4.97394 34.2423 5.00587 34.1339 5.10914 34.0257C5.22566 33.9036 5.427 33.8 5.68015 33.8V29.8ZM1.03821 34.9681C1.32017 36.8337 1.85065 38.6581 2.61915 40.3917L6.27594 38.7706C5.65244 37.3641 5.22205 35.884 4.99329 34.3704L1.03821 34.9681ZM2.61915 40.3917C3.81852 43.0972 5.57107 45.5217 7.76401 47.509L10.4501 44.545C8.6709 42.9327 7.24902 40.9657 6.27594 38.7706L2.61915 40.3917ZM7.764 47.509C9.95693 49.4963 12.5417 51.0025 15.3518 51.9306L16.6062 48.1323C14.3263 47.3794 12.2292 46.1574 10.4501 44.545L7.764 47.509ZM15.3518 51.9306C18.162 52.8587 21.1354 53.1881 24.0805 52.8977L23.688 48.917C21.2985 49.1526 18.8862 48.8853 16.6062 48.1323L15.3518 51.9306ZM24.0805 52.8977C27.0257 52.6073 29.8775 51.7034 32.4522 50.2443L30.4802 46.7643C28.3912 47.9481 26.0775 48.6814 23.688 48.917L24.0805 52.8977ZM32.4522 50.2443C35.027 48.7853 37.2678 46.8033 39.0303 44.4259L35.8171 42.0436C34.3871 43.9724 32.5691 45.5805 30.4802 46.7643L32.4522 50.2443ZM39.0303 44.4259C40.7929 42.0485 42.0381 39.3285 42.686 36.4408L38.783 35.5652C38.2574 37.908 37.2471 40.1148 35.8171 42.0436L39.0303 44.4259ZM42.686 36.4408C42.8501 35.7092 42.975 34.9709 43.0605 34.2292L39.0869 33.7708C39.0175 34.3726 38.9161 34.9716 38.783 35.5652L42.686 36.4408ZM45.7941 32H41.0737V36H45.7941V32Z" fill="#0E0E10" mask="url(#path-2-outside-1_347_60)"/>
<defs>
<radialGradient id="paint0_radial_347_60" cx="0" cy="0" r="1" gradientUnits="userSpaceOnUse" gradientTransform="translate(22 32) rotate(90) scale(12)">
<stop stop-opacity="0"/>
<stop offset="1"/>
</radialGradient>
<radialGradient id="paint1_radial_347_60" cx="0" cy="0" r="1" gradientUnits="userSpaceOnUse" gradientTransform="translate(3 39.0002) rotate(-21.8017) scale(37.6962 35.5946)">
<stop stop-color="#DE0000"/>
<stop offset="1" stop-color="#DE0000" stop-opacity="0"/>
</radialGradient>
</defs>
</svg>
