<svg width="46" height="64" viewBox="0 0 46 64" fill="none" xmlns="http://www.w3.org/2000/svg">
<circle cx="14" cy="32" r="12.5" fill="#BDBDBD"/>
<circle cx="14" cy="32" r="12.5" fill="url(#paint0_radial_347_47)" fill-opacity="0.25"/>
<circle cx="14" cy="32" r="12.5" stroke="#0E0E10"/>
<mask id="path-2-outside-1_347_47" maskUnits="userSpaceOnUse" x="11.9998" y="19.2051" width="32" height="25" fill="black">
<rect fill="white" x="11.9998" y="19.2051" width="32" height="25"/>
<path fill-rule="evenodd" clip-rule="evenodd" d="M30.9998 39.7935L39.9998 31.9993L30.9998 24.2051V29.0001H16.8998C15.2981 29.0001 13.9998 30.2985 13.9998 31.9001C13.9998 33.5017 15.2981 34.8001 16.8998 34.8001H30.9998V39.7935Z"/>
</mask>
<path fill-rule="evenodd" clip-rule="evenodd" d="M30.9998 39.7935L39.9998 31.9993L30.9998 24.2051V29.0001H16.8998C15.2981 29.0001 13.9998 30.2985 13.9998 31.9001C13.9998 33.5017 15.2981 34.8001 16.8998 34.8001H30.9998V39.7935Z" fill="#F2C94C"/>
<path fill-rule="evenodd" clip-rule="evenodd" d="M30.9998 39.7935L39.9998 31.9993L30.9998 24.2051V29.0001H16.8998C15.2981 29.0001 13.9998 30.2985 13.9998 31.9001C13.9998 33.5017 15.2981 34.8001 16.8998 34.8001H30.9998V39.7935Z" fill="url(#paint1_radial_347_47)" fill-opacity="0.45"/>
<path d="M39.9998 31.9993L41.3091 33.5112L43.0548 31.9993L41.3091 30.4874L39.9998 31.9993ZM30.9998 39.7935H28.9998V44.1713L32.3091 41.3054L30.9998 39.7935ZM30.9998 24.2051L32.3091 22.6932L28.9998 19.8273V24.2051H30.9998ZM30.9998 29.0001V31.0001H32.9998V29.0001H30.9998ZM30.9998 34.8001H32.9998V32.8001H30.9998V34.8001ZM38.6904 30.4874L29.6904 38.2817L32.3091 41.3054L41.3091 33.5112L38.6904 30.4874ZM29.6904 25.7169L38.6904 33.5112L41.3091 30.4874L32.3091 22.6932L29.6904 25.7169ZM32.9998 29.0001V24.2051H28.9998V29.0001H32.9998ZM16.8998 31.0001H30.9998V27.0001H16.8998V31.0001ZM15.9998 31.9001C15.9998 31.403 16.4027 31.0001 16.8998 31.0001V27.0001C14.1936 27.0001 11.9998 29.1939 11.9998 31.9001H15.9998ZM16.8998 32.8001C16.4027 32.8001 15.9998 32.3971 15.9998 31.9001H11.9998C11.9998 34.6063 14.1936 36.8001 16.8998 36.8001V32.8001ZM30.9998 32.8001H16.8998V36.8001H30.9998V32.8001ZM32.9998 39.7935V34.8001H28.9998V39.7935H32.9998Z" fill="#0E0E10" mask="url(#path-2-outside-1_347_47)"/>
<defs>
<radialGradient id="paint0_radial_347_47" cx="0" cy="0" r="1" gradientUnits="userSpaceOnUse" gradientTransform="translate(14 32) rotate(90) scale(12)">
<stop stop-opacity="0"/>
<stop offset="1"/>
</radialGradient>
<radialGradient id="paint1_radial_347_47" cx="0" cy="0" r="1" gradientUnits="userSpaceOnUse" gradientTransform="translate(13.9998 36) rotate(-17.1027) scale(27.2029 27.2874)">
<stop stop-color="#DE0000"/>
<stop offset="1" stop-color="#DE0000" stop-opacity="0"/>
</radialGradient>
</defs>
</svg>
