<svg width="64" height="64" viewBox="0 0 64 64" fill="none" xmlns="http://www.w3.org/2000/svg">
<rect width="64" height="64" fill="#222222"/>
<circle cx="32" cy="32" r="12.5" fill="#BDBDBD"/>
<circle cx="32" cy="32" r="12.5" fill="url(#paint0_radial_347_70)" fill-opacity="0.25"/>
<circle cx="32" cy="32" r="12.5" stroke="#0E0E10"/>
<mask id="path-2-outside-1_347_70" maskUnits="userSpaceOnUse" x="28.1711" y="26.749" width="35" height="32" fill="black">
<rect fill="white" x="28.1711" y="26.749" width="35" height="32"/>
<path fill-rule="evenodd" clip-rule="evenodd" d="M34.9998 28.999C33.8952 28.999 32.9998 29.8945 32.9998 30.999C32.9998 32.1036 33.8952 32.999 34.9998 32.999H46.7589L31.3452 44.0088C29.6036 45.2528 30.4837 47.999 32.6239 47.999H50.9998V53.7952L59.9998 46.001L50.9998 38.2067V43.999H38.2407L53.6544 32.9892C55.396 31.7453 54.516 28.999 52.3757 28.999H34.9998Z"/>
</mask>
<path fill-rule="evenodd" clip-rule="evenodd" d="M34.9998 28.999C33.8952 28.999 32.9998 29.8945 32.9998 30.999C32.9998 32.1036 33.8952 32.999 34.9998 32.999H46.7589L31.3452 44.0088C29.6036 45.2528 30.4837 47.999 32.6239 47.999H50.9998V53.7952L59.9998 46.001L50.9998 38.2067V43.999H38.2407L53.6544 32.9892C55.396 31.7453 54.516 28.999 52.3757 28.999H34.9998Z" fill="#F2C94C"/>
<path fill-rule="evenodd" clip-rule="evenodd" d="M34.9998 28.999C33.8952 28.999 32.9998 29.8945 32.9998 30.999C32.9998 32.1036 33.8952 32.999 34.9998 32.999H46.7589L31.3452 44.0088C29.6036 45.2528 30.4837 47.999 32.6239 47.999H50.9998V53.7952L59.9998 46.001L50.9998 38.2067V43.999H38.2407L53.6544 32.9892C55.396 31.7453 54.516 28.999 52.3757 28.999H34.9998Z" fill="url(#paint1_radial_347_70)" fill-opacity="0.45"/>
<path d="M46.7589 32.999L47.9214 34.6265L52.9998 30.999H46.7589V32.999ZM31.3452 44.0088L30.1827 42.3813L30.1827 42.3813L31.3452 44.0088ZM50.9998 47.999H52.9998V45.999H50.9998V47.999ZM50.9998 53.7952H48.9998V58.173L52.3091 55.3071L50.9998 53.7952ZM59.9998 46.001L61.3091 47.5128L63.0549 46.001L61.3091 44.4891L59.9998 46.001ZM50.9998 38.2067L52.3091 36.6949L48.9998 33.8289V38.2067H50.9998ZM50.9998 43.999V45.999H52.9998V43.999H50.9998ZM38.2407 43.999L37.0783 42.3716L31.9998 45.999H38.2407V43.999ZM53.6544 32.9892L52.492 31.3618L52.492 31.3618L53.6544 32.9892ZM34.9998 30.999V26.999C32.7907 26.999 30.9998 28.7899 30.9998 30.999H34.9998ZM34.9998 30.999H30.9998C30.9998 33.2082 32.7907 34.999 34.9998 34.999V30.999ZM46.7589 30.999H34.9998V34.999H46.7589V30.999ZM32.5077 45.6363L47.9214 34.6265L45.5964 31.3716L30.1827 42.3813L32.5077 45.6363ZM32.6239 45.999C32.5726 45.999 32.5449 45.9912 32.5333 45.9872C32.521 45.983 32.5121 45.978 32.5036 45.9714C32.4842 45.9563 32.4528 45.9204 32.4334 45.8601C32.4141 45.7997 32.4188 45.7523 32.4258 45.7287C32.4289 45.7184 32.4332 45.7091 32.4407 45.6985C32.4479 45.6886 32.4659 45.6661 32.5077 45.6363L30.1827 42.3813C26.8578 44.7563 28.538 49.999 32.6239 49.999V45.999ZM50.9998 45.999H32.6239V49.999H50.9998V45.999ZM52.9998 53.7952V47.999H48.9998V53.7952H52.9998ZM58.6905 44.4891L49.6905 52.2833L52.3091 55.3071L61.3091 47.5128L58.6905 44.4891ZM49.6905 39.7186L58.6905 47.5128L61.3091 44.4891L52.3091 36.6949L49.6905 39.7186ZM52.9998 43.999V38.2067H48.9998V43.999H52.9998ZM38.2407 45.999H50.9998V41.999H38.2407V45.999ZM52.492 31.3618L37.0783 42.3716L39.4032 45.6265L54.8169 34.6167L52.492 31.3618ZM52.3757 30.999C52.427 30.999 52.4548 31.0068 52.4664 31.0108C52.4786 31.015 52.4875 31.0201 52.496 31.0267C52.5154 31.0418 52.5468 31.0776 52.5662 31.138C52.5855 31.1984 52.5808 31.2458 52.5738 31.2693C52.5707 31.2797 52.5664 31.289 52.5589 31.2995C52.5518 31.3095 52.5337 31.332 52.492 31.3618L54.8169 34.6167C58.1417 32.2419 56.4617 26.999 52.3757 26.999V30.999ZM34.9998 30.999H52.3757V26.999H34.9998V30.999Z" fill="#0E0E10" mask="url(#path-2-outside-1_347_70)"/>
<defs>
<radialGradient id="paint0_radial_347_70" cx="0" cy="0" r="1" gradientUnits="userSpaceOnUse" gradientTransform="translate(32 32) rotate(90) scale(12)">
<stop stop-opacity="0"/>
<stop offset="1"/>
</radialGradient>
<radialGradient id="paint1_radial_347_70" cx="0" cy="0" r="1" gradientUnits="userSpaceOnUse" gradientTransform="translate(32.7821 29.2737) rotate(32.1558) scale(32.1492 40.07)">
<stop stop-color="#DE0000"/>
<stop offset="1" stop-color="#DE0000" stop-opacity="0"/>
</radialGradient>
</defs>
</svg>
