<svg width="52" height="64" viewBox="0 0 52 64" fill="none" xmlns="http://www.w3.org/2000/svg">
<circle cx="29" cy="32" r="12.5" fill="#BDBDBD"/>
<circle cx="29" cy="32" r="12.5" fill="url(#paint0_radial_347_65)" fill-opacity="0.25"/>
<circle cx="29" cy="32" r="12.5" stroke="#0E0E10"/>
<mask id="path-2-outside-1_347_65" maskUnits="userSpaceOnUse" x="0.406006" y="10.5986" width="50" height="43" fill="black">
<rect fill="white" x="0.406006" y="10.5986" width="50" height="43"/>
<path fill-rule="evenodd" clip-rule="evenodd" d="M12.7475 42.0204C11.9007 40.674 12.5843 38.961 14.0422 38.325C15.5 37.6889 17.175 38.3807 18.1065 39.67C19.5075 41.6089 21.4118 43.1537 23.6371 44.1222C26.7499 45.4769 30.26 45.6035 33.4623 44.4764C36.6646 43.3494 39.3218 41.0522 40.8999 38.0465C42.4781 35.0408 42.8603 31.5492 41.9698 28.2732C41.0793 24.9973 38.9821 22.1797 36.0994 20.3865C33.2168 18.5934 29.7624 17.9575 26.4302 18.6067C23.098 19.256 20.135 21.1421 18.1364 23.8863C17.2219 25.142 16.5403 26.5347 16.1087 27.999L20.9945 27.999L13.2002 36.999L5.40601 27.999L10.1802 27.999C10.7226 25.3122 11.8388 22.7492 13.4803 20.4953C16.3355 16.575 20.5684 13.8805 25.3287 12.953C30.0889 12.0256 35.0238 12.9339 39.1419 15.4956C43.2599 18.0572 46.256 22.0824 47.5281 26.7623C48.8003 31.4423 48.2542 36.4303 45.9997 40.7242C43.7452 45.0181 39.9493 48.2997 35.3746 49.9097C30.7999 51.5198 25.7853 51.339 21.3385 49.4036C17.7774 47.8538 14.7916 45.2707 12.7475 42.0204Z"/>
</mask>
<path fill-rule="evenodd" clip-rule="evenodd" d="M12.7475 42.0204C11.9007 40.674 12.5843 38.961 14.0422 38.325C15.5 37.6889 17.175 38.3807 18.1065 39.67C19.5075 41.6089 21.4118 43.1537 23.6371 44.1222C26.7499 45.4769 30.26 45.6035 33.4623 44.4764C36.6646 43.3494 39.3218 41.0522 40.8999 38.0465C42.4781 35.0408 42.8603 31.5492 41.9698 28.2732C41.0793 24.9973 38.9821 22.1797 36.0994 20.3865C33.2168 18.5934 29.7624 17.9575 26.4302 18.6067C23.098 19.256 20.135 21.1421 18.1364 23.8863C17.2219 25.142 16.5403 26.5347 16.1087 27.999L20.9945 27.999L13.2002 36.999L5.40601 27.999L10.1802 27.999C10.7226 25.3122 11.8388 22.7492 13.4803 20.4953C16.3355 16.575 20.5684 13.8805 25.3287 12.953C30.0889 12.0256 35.0238 12.9339 39.1419 15.4956C43.2599 18.0572 46.256 22.0824 47.5281 26.7623C48.8003 31.4423 48.2542 36.4303 45.9997 40.7242C43.7452 45.0181 39.9493 48.2997 35.3746 49.9097C30.7999 51.5198 25.7853 51.339 21.3385 49.4036C17.7774 47.8538 14.7916 45.2707 12.7475 42.0204Z" fill="#F2C94C"/>
<path fill-rule="evenodd" clip-rule="evenodd" d="M12.7475 42.0204C11.9007 40.674 12.5843 38.961 14.0422 38.325C15.5 37.6889 17.175 38.3807 18.1065 39.67C19.5075 41.6089 21.4118 43.1537 23.6371 44.1222C26.7499 45.4769 30.26 45.6035 33.4623 44.4764C36.6646 43.3494 39.3218 41.0522 40.8999 38.0465C42.4781 35.0408 42.8603 31.5492 41.9698 28.2732C41.0793 24.9973 38.9821 22.1797 36.0994 20.3865C33.2168 18.5934 29.7624 17.9575 26.4302 18.6067C23.098 19.256 20.135 21.1421 18.1364 23.8863C17.2219 25.142 16.5403 26.5347 16.1087 27.999L20.9945 27.999L13.2002 36.999L5.40601 27.999L10.1802 27.999C10.7226 25.3122 11.8388 22.7492 13.4803 20.4953C16.3355 16.575 20.5684 13.8805 25.3287 12.953C30.0889 12.0256 35.0238 12.9339 39.1419 15.4956C43.2599 18.0572 46.256 22.0824 47.5281 26.7623C48.8003 31.4423 48.2542 36.4303 45.9997 40.7242C43.7452 45.0181 39.9493 48.2997 35.3746 49.9097C30.7999 51.5198 25.7853 51.339 21.3385 49.4036C17.7774 47.8538 14.7916 45.2707 12.7475 42.0204Z" fill="url(#paint1_radial_347_65)" fill-opacity="0.45"/>
<path d="M14.0422 38.325L13.2424 36.4919L13.2424 36.4919L14.0422 38.325ZM12.7475 42.0204L14.4405 40.9557L14.4405 40.9557L12.7475 42.0204ZM18.1065 39.67L19.7276 38.4986L19.7276 38.4986L18.1065 39.67ZM23.6371 44.1222L24.4352 42.2883L24.4352 42.2883L23.6371 44.1222ZM33.4623 44.4764L32.7984 42.5899L32.7984 42.5899L33.4623 44.4764ZM40.8999 38.0465L39.1292 37.1168L39.1292 37.1168L40.8999 38.0465ZM41.9698 28.2732L43.8998 27.7486L43.8998 27.7486L41.9698 28.2732ZM26.4302 18.6067L26.0477 16.6437L26.0477 16.6437L26.4302 18.6067ZM18.1364 23.8863L19.753 25.0637L19.753 25.0637L18.1364 23.8863ZM16.1087 27.999L14.1903 27.4336L13.4342 29.999L16.1087 29.999L16.1087 27.999ZM20.9945 27.999L22.5063 29.3083L25.3723 25.999L20.9945 25.999L20.9945 27.999ZM13.2002 36.999L11.6884 38.3083L13.2002 40.0541L14.7121 38.3083L13.2002 36.999ZM5.40601 27.999L5.40601 25.999L1.0282 25.999L3.89415 29.3083L5.40601 27.999ZM10.1802 27.999L10.1802 29.999L11.8167 29.999L12.1406 28.3948L10.1802 27.999ZM13.4803 20.4953L11.8637 19.3179L11.8637 19.3179L13.4803 20.4953ZM25.3287 12.953L25.7112 14.9161L25.7112 14.9161L25.3287 12.953ZM39.1419 15.4956L40.1983 13.7973L40.1983 13.7973L39.1419 15.4956ZM21.3385 49.4036L20.5403 51.2375L20.5403 51.2375L21.3385 49.4036ZM13.2424 36.4919C10.8609 37.5309 9.44629 40.5281 11.0545 43.0852L14.4405 40.9557C14.3716 40.8461 14.3575 40.7339 14.4089 40.5934C14.4668 40.4348 14.61 40.2593 14.8419 40.1581L13.2424 36.4919ZM19.7276 38.4986C18.4006 36.6621 15.7843 35.3828 13.2424 36.4919L14.8419 40.1581C15.2157 39.995 15.9493 40.0993 16.4854 40.8413L19.7276 38.4986ZM24.4352 42.2883C22.5411 41.464 20.9202 40.1491 19.7276 38.4986L16.4854 40.8413C18.0948 43.0687 20.2825 44.8434 22.8389 45.956L24.4352 42.2883ZM32.7984 42.5899C30.0726 43.5492 27.0848 43.4415 24.4352 42.2883L22.8389 45.956C26.415 47.5124 30.4475 47.6578 34.1263 46.363L32.7984 42.5899ZM39.1292 37.1168C37.7859 39.6752 35.5241 41.6305 32.7984 42.5899L34.1263 46.363C37.8051 45.0682 40.8577 42.4293 42.6707 38.9763L39.1292 37.1168ZM40.0398 28.7979C40.7978 31.5863 40.4725 34.5583 39.1292 37.1168L42.6707 38.9763C44.4837 35.5233 44.9228 31.5121 43.8998 27.7486L40.0398 28.7979ZM35.043 22.0848C37.4967 23.6111 39.2819 26.0094 40.0398 28.7979L43.8998 27.7486C42.8768 23.9852 40.4674 20.7483 37.1558 18.6883L35.043 22.0848ZM26.8127 20.5698C29.649 20.0172 32.5894 20.5584 35.043 22.0848L37.1558 18.6883C33.8443 16.6283 29.8758 15.8978 26.0477 16.6437L26.8127 20.5698ZM19.753 25.0637C21.4542 22.7279 23.9764 21.1224 26.8127 20.5698L26.0477 16.6437C22.2197 17.3895 18.8157 19.5563 16.5197 22.7089L19.753 25.0637ZM18.0271 28.5644C18.3945 27.3179 18.9746 26.1326 19.753 25.0637L16.5197 22.7089C15.4691 24.1513 14.6861 25.7514 14.1903 27.4336L18.0271 28.5644ZM16.1087 29.999L20.9945 29.999L20.9945 25.999L16.1087 25.999L16.1087 29.999ZM19.4826 26.6897L11.6884 35.6897L14.7121 38.3083L22.5063 29.3083L19.4826 26.6897ZM14.7121 35.6897L6.91786 26.6897L3.89415 29.3083L11.6884 38.3083L14.7121 35.6897ZM5.40601 29.999L10.1802 29.999L10.1802 25.999L5.40601 25.999L5.40601 29.999ZM11.8637 19.3179C10.0511 21.8065 8.81869 24.6366 8.21972 27.6032L12.1406 28.3948C12.6266 25.9878 13.6265 23.6918 15.097 21.6727L11.8637 19.3179ZM24.9462 10.99C19.6901 12.014 15.0162 14.9892 11.8637 19.3179L15.097 21.6727C17.6548 18.1608 21.4468 15.747 25.7112 14.9161L24.9462 10.99ZM40.1983 13.7973C35.6513 10.9689 30.2023 9.96589 24.9462 10.99L25.7112 14.9161C29.9756 14.0853 34.3964 14.899 38.0855 17.1938L40.1983 13.7973ZM49.4581 26.2377C48.0534 21.0703 44.7453 16.6258 40.1983 13.7973L38.0855 17.1938C41.7745 19.4886 44.4585 23.0945 45.5982 27.287L49.4581 26.2377ZM47.7705 41.6539C50.2598 36.9127 50.8627 31.4052 49.4581 26.2377L45.5982 27.287C46.7378 31.4794 46.2486 35.9478 44.229 39.7944L47.7705 41.6539ZM36.0385 51.7963C41.0898 50.0185 45.2811 46.3951 47.7705 41.6539L44.229 39.7944C42.2093 43.641 38.8088 46.5808 34.7106 48.0232L36.0385 51.7963ZM20.5403 51.2375C25.4504 53.3744 30.9873 53.5741 36.0385 51.7963L34.7106 48.0232C30.6124 49.4655 26.1202 49.3035 22.1366 47.5698L20.5403 51.2375ZM11.0545 43.0852C13.3115 46.674 16.6083 49.5262 20.5403 51.2375L22.1366 47.5698C18.9465 46.1814 16.2717 43.8674 14.4405 40.9557L11.0545 43.0852Z" fill="#0E0E10" mask="url(#path-2-outside-1_347_65)"/>
<defs>
<radialGradient id="paint0_radial_347_65" cx="0" cy="0" r="1" gradientUnits="userSpaceOnUse" gradientTransform="translate(29 32) rotate(90) scale(12)">
<stop stop-opacity="0"/>
<stop offset="1"/>
</radialGradient>
<radialGradient id="paint1_radial_347_65" cx="0" cy="0" r="1" gradientUnits="userSpaceOnUse" gradientTransform="translate(10.0002 38.999) rotate(-21.8014) scale(37.6962 35.5941)">
<stop stop-color="#DE0000"/>
<stop offset="1" stop-color="#DE0000" stop-opacity="0"/>
</radialGradient>
</defs>
</svg>
