<svg viewBox="0 0 45 24" fill="none" xmlns="http://www.w3.org/2000/svg">
<g clip-path="url(#clip0_372_116)">
<path fill-rule="evenodd" clip-rule="evenodd" d="M35.9998 15.511L40.0548 11.9992L35.9998 8.4874V4.20508L44.9998 11.9993L35.9998 19.7935V15.511ZM33.7655 14.8001L36.9998 11.9992L33.5367 9.00009H21.8998C20.2981 9.00009 18.9998 10.2985 18.9998 11.9001C18.9998 13.4926 20.2833 14.7852 21.8723 14.8H27.9998V14.8001H33.7655Z" fill="#F2C94C"/>
<path fill-rule="evenodd" clip-rule="evenodd" d="M22.9119 6.99996C21.0159 2.86892 16.843 0 12 0C5.37258 0 0 5.37258 0 12C0 18.6274 5.37258 24 12 24C16.9208 24 21.1498 21.0382 23.0015 16.8H14.8998C12.1936 16.8 9.99976 14.6062 9.99976 11.9C9.99976 9.19377 12.1936 6.99996 14.8998 6.99996H22.9119ZM23.6219 8.99996H14.8998C13.2981 8.99996 11.9998 10.2983 11.9998 11.9C11.9998 13.5016 13.2981 14.8 14.8998 14.8H23.6716C23.8863 13.9016 24 12.9641 24 12C24 10.9641 23.8687 9.95883 23.6219 8.99996Z" fill="#828282"/>
<path fill-rule="evenodd" clip-rule="evenodd" d="M27.9998 19.7877L36.9998 11.9934L27.9998 4.19922L27.9998 19.7877ZM14.9 8.99952C13.2984 8.99952 12 10.2979 12 11.8995C12 13.5011 13.2984 14.7995 14.9 14.7995H24.1C25.7016 14.7995 27 13.5011 27 11.8995C27 10.2979 25.7016 8.99952 24.1 8.99952H14.9Z" fill="#F2C94C"/>
</g>
<defs>
<clipPath id="clip0_372_116">
<rect width="45" height="24" fill="white"/>
</clipPath>
</defs>
</svg>
