<svg width="64" height="64" viewBox="0 0 64 64" fill="none" xmlns="http://www.w3.org/2000/svg">
<rect width="64" height="64" fill="#222222"/>
<circle cx="32" cy="32" r="12.5" fill="#BDBDBD"/>
<circle cx="32" cy="32" r="12.5" fill="url(#paint0_radial_347_47)" fill-opacity="0.25"/>
<circle cx="32" cy="32" r="12.5" stroke="#0E0E10"/>
<mask id="path-2-outside-1_347_47" maskUnits="userSpaceOnUse" x="29.9998" y="19.2051" width="32" height="25" fill="black">
<rect fill="white" x="29.9998" y="19.2051" width="32" height="25"/>
<path fill-rule="evenodd" clip-rule="evenodd" d="M48.9998 39.7935L57.9998 31.9993L48.9998 24.2051V29H34.8998C33.2981 29 31.9998 30.2984 31.9998 31.9C31.9998 33.5016 33.2981 34.8 34.8998 34.8H48.9998V39.7935Z"/>
</mask>
<path fill-rule="evenodd" clip-rule="evenodd" d="M48.9998 39.7935L57.9998 31.9993L48.9998 24.2051V29H34.8998C33.2981 29 31.9998 30.2984 31.9998 31.9C31.9998 33.5016 33.2981 34.8 34.8998 34.8H48.9998V39.7935Z" fill="#F2C94C"/>
<path fill-rule="evenodd" clip-rule="evenodd" d="M48.9998 39.7935L57.9998 31.9993L48.9998 24.2051V29H34.8998C33.2981 29 31.9998 30.2984 31.9998 31.9C31.9998 33.5016 33.2981 34.8 34.8998 34.8H48.9998V39.7935Z" fill="url(#paint1_radial_347_47)" fill-opacity="0.45"/>
<path d="M57.9998 31.9993L59.3091 33.5112L61.0548 31.9993L59.3091 30.4874L57.9998 31.9993ZM48.9998 39.7935H46.9998V44.1713L50.3091 41.3054L48.9998 39.7935ZM48.9998 24.2051L50.3091 22.6932L46.9998 19.8273V24.2051H48.9998ZM48.9998 29V31H50.9998V29H48.9998ZM48.9998 34.8H50.9998V32.8H48.9998V34.8ZM56.6904 30.4874L47.6904 38.2817L50.3091 41.3054L59.3091 33.5112L56.6904 30.4874ZM47.6904 25.7169L56.6904 33.5112L59.3091 30.4874L50.3091 22.6932L47.6904 25.7169ZM50.9998 29V24.2051H46.9998V29H50.9998ZM34.8998 31H48.9998V27H34.8998V31ZM33.9998 31.9C33.9998 31.4029 34.4027 31 34.8998 31V27C32.1936 27 29.9998 29.1938 29.9998 31.9H33.9998ZM34.8998 32.8C34.4027 32.8 33.9998 32.3971 33.9998 31.9H29.9998C29.9998 34.6062 32.1936 36.8 34.8998 36.8V32.8ZM48.9998 32.8H34.8998V36.8H48.9998V32.8ZM50.9998 39.7935V34.8H46.9998V39.7935H50.9998Z" fill="#0E0E10" mask="url(#path-2-outside-1_347_47)"/>
<defs>
<radialGradient id="paint0_radial_347_47" cx="0" cy="0" r="1" gradientUnits="userSpaceOnUse" gradientTransform="translate(32 32) rotate(90) scale(12)">
<stop stop-opacity="0"/>
<stop offset="1"/>
</radialGradient>
<radialGradient id="paint1_radial_347_47" cx="0" cy="0" r="1" gradientUnits="userSpaceOnUse" gradientTransform="translate(31.9998 36) rotate(-17.1027) scale(27.2029 27.2874)">
<stop stop-color="#DE0000"/>
<stop offset="1" stop-color="#DE0000" stop-opacity="0"/>
</radialGradient>
</defs>
</svg>
