<svg width="46" height="64" viewBox="0 0 46 64" fill="none" xmlns="http://www.w3.org/2000/svg">
<circle cx="14" cy="32" r="12.5" fill="#BDBDBD"/>
<circle cx="14" cy="32" r="12.5" fill="url(#paint0_radial_347_70)" fill-opacity="0.25"/>
<circle cx="14" cy="32" r="12.5" stroke="#0E0E10"/>
<mask id="path-2-outside-1_347_70" maskUnits="userSpaceOnUse" x="9.41992" y="26.999" width="36" height="32" fill="black">
<rect fill="white" x="9.41992" y="26.999" width="36" height="32"/>
<path fill-rule="evenodd" clip-rule="evenodd" d="M17 28.999C15.8954 28.999 15 29.8945 15 30.999C15 32.1036 15.8954 32.999 17 32.999H28.7591L13.3454 44.0088C11.6038 45.2528 12.4839 47.999 14.6241 47.999H33V53.7952L42 46.001L33 38.2067V43.999H20.2409L35.6546 32.9892C37.3962 31.7453 36.5162 28.999 34.3759 28.999H17Z"/>
</mask>
<path fill-rule="evenodd" clip-rule="evenodd" d="M17 28.999C15.8954 28.999 15 29.8945 15 30.999C15 32.1036 15.8954 32.999 17 32.999H28.7591L13.3454 44.0088C11.6038 45.2528 12.4839 47.999 14.6241 47.999H33V53.7952L42 46.001L33 38.2067V43.999H20.2409L35.6546 32.9892C37.3962 31.7453 36.5162 28.999 34.3759 28.999H17Z" fill="#F2C94C"/>
<path fill-rule="evenodd" clip-rule="evenodd" d="M17 28.999C15.8954 28.999 15 29.8945 15 30.999C15 32.1036 15.8954 32.999 17 32.999H28.7591L13.3454 44.0088C11.6038 45.2528 12.4839 47.999 14.6241 47.999H33V53.7952L42 46.001L33 38.2067V43.999H20.2409L35.6546 32.9892C37.3962 31.7453 36.5162 28.999 34.3759 28.999H17Z" fill="url(#paint1_radial_347_70)" fill-opacity="0.45"/>
<path d="M28.7591 32.999L29.9216 34.6265L35 30.999H28.7591V32.999ZM13.3454 44.0088L12.1829 42.3813L12.1829 42.3813L13.3454 44.0088ZM33 47.999H35V45.999H33V47.999ZM33 53.7952H31V58.173L34.3093 55.3071L33 53.7952ZM42 46.001L43.3093 47.5128L45.0551 46.001L43.3093 44.4891L42 46.001ZM33 38.2067L34.3093 36.6949L31 33.8289V38.2067H33ZM33 43.999V45.999H35V43.999H33ZM20.2409 43.999L19.0785 42.3716L14 45.999H20.2409V43.999ZM35.6546 32.9892L34.4922 31.3618L34.4922 31.3618L35.6546 32.9892ZM17 30.999V26.999C14.7909 26.999 13 28.7899 13 30.999H17ZM17 30.999H13C13 33.2082 14.7909 34.999 17 34.999V30.999ZM28.7591 30.999H17V34.999H28.7591V30.999ZM14.5079 45.6363L29.9216 34.6265L27.5966 31.3716L12.1829 42.3813L14.5079 45.6363ZM14.6241 45.999C14.5728 45.999 14.5451 45.9912 14.5335 45.9872C14.5213 45.983 14.5123 45.978 14.5038 45.9714C14.4844 45.9563 14.453 45.9204 14.4337 45.8601C14.4143 45.7997 14.419 45.7523 14.4261 45.7287C14.4291 45.7184 14.4335 45.7091 14.441 45.6985C14.4481 45.6886 14.4661 45.6661 14.5079 45.6363L12.1829 42.3813C8.85803 44.7563 10.5382 49.999 14.6241 49.999V45.999ZM33 45.999H14.6241V49.999H33V45.999ZM35 53.7952V47.999H31V53.7952H35ZM40.6907 44.4891L31.6907 52.2833L34.3093 55.3071L43.3093 47.5128L40.6907 44.4891ZM31.6907 39.7186L40.6907 47.5128L43.3093 44.4891L34.3093 36.6949L31.6907 39.7186ZM35 43.999V38.2067H31V43.999H35ZM20.2409 45.999H33V41.999H20.2409V45.999ZM34.4922 31.3618L19.0785 42.3716L21.4034 45.6265L36.8171 34.6167L34.4922 31.3618ZM34.3759 30.999C34.4272 30.999 34.455 31.0068 34.4666 31.0108C34.4788 31.015 34.4877 31.0201 34.4962 31.0267C34.5156 31.0418 34.547 31.0776 34.5664 31.138C34.5857 31.1984 34.581 31.2458 34.574 31.2693C34.5709 31.2797 34.5666 31.289 34.5591 31.2995C34.552 31.3095 34.5339 31.332 34.4922 31.3618L36.8171 34.6167C40.1419 32.2419 38.4619 26.999 34.3759 26.999V30.999ZM17 30.999H34.3759V26.999H17V30.999Z" fill="#0E0E10" mask="url(#path-2-outside-1_347_70)"/>
<defs>
<radialGradient id="paint0_radial_347_70" cx="0" cy="0" r="1" gradientUnits="userSpaceOnUse" gradientTransform="translate(14 32) rotate(90) scale(12)">
<stop stop-opacity="0"/>
<stop offset="1"/>
</radialGradient>
<radialGradient id="paint1_radial_347_70" cx="0" cy="0" r="1" gradientUnits="userSpaceOnUse" gradientTransform="translate(14.0728 28.5089) rotate(32.2845) scale(33.0339 41.2613)">
<stop stop-color="#DE0000"/>
<stop offset="1" stop-color="#DE0000" stop-opacity="0"/>
</radialGradient>
</defs>
</svg>
