<svg viewBox="0 0 38 24" fill="none" xmlns="http://www.w3.org/2000/svg">
<g clip-path="url(#clip0_372_77)">
<path fill-rule="evenodd" clip-rule="evenodd" d="M22.9119 6.99996C21.0159 2.86892 16.843 0 12 0C5.37258 0 0 5.37258 0 12C0 18.6274 5.37258 24 12 24C16.9208 24 21.1498 21.0382 23.0015 16.8H14.8998C12.1936 16.8 9.99976 14.6062 9.99976 11.9C9.99976 9.19377 12.1936 6.99996 14.8998 6.99996H22.9119ZM23.6219 8.99996H14.8998C13.2981 8.99996 11.9998 10.2983 11.9998 11.9C11.9998 13.5016 13.2981 14.8 14.8998 14.8H23.6716C23.8863 13.9016 24 12.9641 24 12C24 10.9641 23.8687 9.95883 23.6219 8.99996Z" fill="#828282"/>
<path fill-rule="evenodd" clip-rule="evenodd" d="M28.9998 19.7935L37.9998 11.9993L28.9998 4.20508V9.00009H14.8998C13.2981 9.00009 11.9998 10.2985 11.9998 11.9001C11.9998 13.5017 13.2981 14.8001 14.8998 14.8001H28.9998V19.7935Z" fill="#F2C94C"/>
</g>
<defs>
<clipPath id="clip0_372_77">
<rect width="38" height="24" fill="white"/>
</clipPath>
</defs>
</svg>
