<svg viewBox="0 0 44 31" fill="none" xmlns="http://www.w3.org/2000/svg">
<g clip-path="url(#clip0_372_67)">
<path fill-rule="evenodd" clip-rule="evenodd" d="M31.834 14.0004C31.9432 13.3498 32 12.6816 32 12C32 11.2634 31.9336 10.5422 31.8065 9.84227L28.2055 14.0004H31.834ZM8.00294 12.2682C8.39683 12.8815 8.67466 13.5575 8.82168 14.2331C8.98598 14.988 9.22678 15.7264 9.54161 16.4366C10.1888 17.8966 11.1345 19.2049 12.3179 20.2773C13.5012 21.3497 14.896 22.1625 16.4124 22.6633C17.9289 23.1641 19.5334 23.3419 21.1227 23.1851C22.7119 23.0284 24.2508 22.5407 25.6402 21.7533C27.0296 20.966 28.2388 19.8965 29.1899 18.6136C29.7874 17.8077 30.2747 16.9288 30.6412 16.0004H23.8277L31.1472 7.54851C29.3792 3.12508 25.0546 0 20 0C13.3726 0 8 5.37258 8 12C8 12.0896 8.00098 12.179 8.00294 12.2682Z" fill="#828282"/>
<path fill-rule="evenodd" clip-rule="evenodd" d="M43.7941 14L35.9999 5L28.2056 14H33.2589C33.2177 14.2484 33.1694 14.4958 33.1142 14.7421C32.7035 16.5728 31.914 18.2972 30.7966 19.8043C29.6793 21.3115 28.2587 22.568 26.6264 23.493C24.9941 24.418 23.1862 24.991 21.319 25.1751C19.4519 25.3592 17.5669 25.1504 15.7854 24.562C14.0038 23.9736 12.3652 23.0188 10.975 21.7589C9.58473 20.499 8.47368 18.962 7.71333 17.2468C7.34346 16.4125 7.06057 15.545 6.86755 14.658C6.52931 13.1038 5.27073 11.8 3.68015 11.8C2.08957 11.8 0.778051 13.0965 1.01575 14.6692C1.27111 16.3588 1.75154 18.0111 2.44755 19.5811C3.53377 22.0314 5.12099 24.2272 7.10704 26.027C9.09309 27.8268 11.434 29.1909 13.979 30.0315C16.5241 30.872 19.2169 31.1703 21.8843 30.9073C24.5516 30.6443 27.1343 29.8257 29.4662 28.5043C31.7981 27.1829 33.8274 25.3878 35.4237 23.2348C37.02 21.0817 38.1478 18.6182 38.7345 16.003C38.8831 15.3404 38.9962 14.6718 39.0737 14H43.7941Z" fill="#F2C94C"/>
</g>
<defs>
<clipPath id="clip0_372_67">
<rect width="44" height="31" fill="white"/>
</clipPath>
</defs>
</svg>
