<svg viewBox="0 0 44 39" fill="none" xmlns="http://www.w3.org/2000/svg">
<g clip-path="url(#clip0_372_72)">
<path fill-rule="evenodd" clip-rule="evenodd" d="M13.0609 24.9401C12.8049 24.374 12.5915 23.7846 12.4248 23.1758L20.3724 13.9988L14.1396 13.9988C14.328 13.6785 14.5326 13.3663 14.7532 13.0635C16.4544 10.7277 18.9765 9.12218 21.8128 8.56957C24.6491 8.01696 27.5895 8.55819 30.0432 10.0845C32.4968 11.6108 34.282 14.0091 35.04 16.7976C35.7979 19.5861 35.4726 22.5581 34.1293 25.1165C32.786 27.675 30.5242 29.6303 27.7985 30.5896C25.0727 31.5489 22.0849 31.4412 19.4353 30.288C17.5413 29.4637 15.9203 28.1489 14.7277 26.4984C14.294 25.8981 13.7225 25.3574 13.0609 24.9401ZM12.6832 15.9988H15.9946L12.0145 20.5946C12.0049 20.3975 12 20.1992 12 19.9997C12 18.5968 12.2407 17.2502 12.6832 15.9988Z" fill="#828282"/>
<path fill-rule="evenodd" clip-rule="evenodd" d="M7.74747 30.0204C6.90068 28.674 7.58429 26.961 9.04216 26.325C10.5 25.6889 12.175 26.3807 13.1065 27.67C14.5075 29.6089 16.4118 31.1537 18.6371 32.1222C21.7499 33.4769 25.26 33.6035 28.4623 32.4764C31.6646 31.3494 34.3218 29.0522 35.8999 26.0465C37.4781 23.0408 37.8603 19.5492 36.9698 16.2732C36.0793 12.9973 33.9821 10.1797 31.0994 8.38652C28.2168 6.59336 24.7624 5.95752 21.4302 6.60674C18.098 7.25596 15.135 9.14214 13.1364 11.8863C12.2219 13.142 11.5403 14.5347 11.1087 15.999L15.9945 15.999L8.20023 24.999L0.406006 15.999L5.18016 15.999C5.72264 13.3122 6.83882 10.7492 8.48034 8.49529C11.3355 4.57504 15.5684 1.8805 20.3287 0.953047C25.0889 0.0255921 30.0238 0.933938 34.1419 3.49559C38.2599 6.05724 41.256 10.0824 42.5281 14.7623C43.8003 19.4423 43.2542 24.4303 40.9997 28.7242C38.7452 33.0181 34.9493 36.2997 30.3746 37.9097C25.7999 39.5198 20.7853 39.339 16.3385 37.4036C12.7774 35.8538 9.79163 33.2707 7.74747 30.0204Z" fill="#F2C94C"/>
</g>
<defs>
<clipPath id="clip0_372_72">
<rect width="44" height="39" fill="white"/>
</clipPath>
</defs>
</svg>
