<svg viewBox="0 0 40 34" fill="none" xmlns="http://www.w3.org/2000/svg">
<g clip-path="url(#clip0_372_146)">
<path fill-rule="evenodd" clip-rule="evenodd" d="M23.959 12.999C23.9862 12.6696 24 12.3364 24 12C24 10.9637 23.8687 9.95818 23.6217 8.99902H14.9999C13.8954 8.99902 12.9999 9.89445 12.9999 10.999C12.9999 12.1036 13.8954 12.999 14.9999 12.999H23.959ZM23.5413 15.2974L11.3797 23.9842C11.5851 23.9947 11.7919 24 12 24C17.4839 24 22.1086 20.3215 23.5413 15.2974ZM9.01053 23.6247C9.29326 23.1635 9.68104 22.7398 10.1828 22.3813L20.5181 14.999H14.9999C12.7908 14.999 10.9999 13.2082 10.9999 10.999C10.9999 8.78988 12.7908 6.99902 14.9999 6.99902H22.9115C21.0152 2.86849 16.8426 0 12 0C5.37258 0 0 5.37258 0 12C0 17.5953 3.82951 22.2962 9.01053 23.6247Z" fill="#828282"/>
<path fill-rule="evenodd" clip-rule="evenodd" d="M15 8.99902C13.8954 8.99902 13 9.89445 13 10.999C13 12.1036 13.8954 12.999 15 12.999H26.7591L11.3454 24.0088C9.60379 25.2528 10.4839 27.999 12.6241 27.999H31V33.7952L40 26.001L31 18.2067V23.999H18.2409L33.6546 12.9892C35.3962 11.7453 34.5162 8.99902 32.3759 8.99902H15Z" fill="#F2C94C"/>
</g>
<defs>
<clipPath id="clip0_372_146">
<rect width="40" height="34" fill="white"/>
</clipPath>
</defs>
</svg>
