<svg width="64" height="64" viewBox="0 0 64 64" fill="none" xmlns="http://www.w3.org/2000/svg">
<circle cx="16" cy="32" r="9.5" fill="#BDBDBD"/>
<circle cx="16" cy="32" r="9.5" fill="url(#paint0_radial_355_53)" fill-opacity="0.25"/>
<circle cx="16" cy="32" r="9.5" stroke="#0E0E10"/>
<circle cx="39" cy="32" r="9.5" fill="#BDBDBD"/>
<circle cx="39" cy="32" r="9.5" fill="url(#paint1_radial_355_53)" fill-opacity="0.25"/>
<circle cx="39" cy="32" r="9.5" stroke="#0E0E10"/>
<mask id="path-3-outside-1_355_53" maskUnits="userSpaceOnUse" x="13.8003" y="21.2148" width="25" height="21" fill="black">
<rect fill="white" x="13.8003" y="21.2148" width="25" height="21"/>
<path fill-rule="evenodd" clip-rule="evenodd" d="M28.4179 37.7847L35.0977 31.9998L28.4179 26.2148V31.0785H17.3003C16.4719 31.0785 15.8003 31.7501 15.8003 32.5785C15.8003 33.4069 16.4719 34.0785 17.3003 34.0785H28.4179V37.7847Z"/>
</mask>
<path fill-rule="evenodd" clip-rule="evenodd" d="M28.4179 37.7847L35.0977 31.9998L28.4179 26.2148V31.0785H17.3003C16.4719 31.0785 15.8003 31.7501 15.8003 32.5785C15.8003 33.4069 16.4719 34.0785 17.3003 34.0785H28.4179V37.7847Z" fill="#F2C94C"/>
<path fill-rule="evenodd" clip-rule="evenodd" d="M28.4179 37.7847L35.0977 31.9998L28.4179 26.2148V31.0785H17.3003C16.4719 31.0785 15.8003 31.7501 15.8003 32.5785C15.8003 33.4069 16.4719 34.0785 17.3003 34.0785H28.4179V37.7847Z" fill="url(#paint2_radial_355_53)" fill-opacity="0.45"/>
<path d="M35.0977 31.9998L36.407 33.5116L38.1528 31.9998L36.407 30.4879L35.0977 31.9998ZM28.4179 37.7847H26.4179V42.1625L29.7272 39.2965L28.4179 37.7847ZM28.4179 26.2148L29.7272 24.703L26.4179 21.837V26.2148H28.4179ZM28.4179 31.0785V33.0785H30.4179V31.0785H28.4179ZM28.4179 34.0785H30.4179V32.0785H28.4179V34.0785ZM33.7884 30.4879L27.1086 36.2728L29.7272 39.2965L36.407 33.5116L33.7884 30.4879ZM27.1086 27.7267L33.7884 33.5116L36.407 30.4879L29.7272 24.703L27.1086 27.7267ZM30.4179 31.0785V26.2148H26.4179V31.0785H30.4179ZM17.3003 33.0785H28.4179V29.0785H17.3003V33.0785ZM17.8003 32.5785C17.8003 32.8547 17.5764 33.0785 17.3003 33.0785V29.0785C15.3673 29.0785 13.8003 30.6455 13.8003 32.5785H17.8003ZM17.3003 32.0785C17.5764 32.0785 17.8003 32.3024 17.8003 32.5785H13.8003C13.8003 34.5115 15.3673 36.0785 17.3003 36.0785V32.0785ZM28.4179 32.0785H17.3003V36.0785H28.4179V32.0785ZM30.4179 37.7847V34.0785H26.4179V37.7847H30.4179Z" fill="#0E0E10" mask="url(#path-3-outside-1_355_53)"/>
<mask id="path-5-outside-2_355_53" maskUnits="userSpaceOnUse" x="36.7026" y="21.2148" width="25" height="21" fill="black">
<rect fill="white" x="36.7026" y="21.2148" width="25" height="21"/>
<path fill-rule="evenodd" clip-rule="evenodd" d="M51.3202 37.7847L58.0001 31.9998L51.3202 26.2148V31.0785H40.2026C39.3742 31.0785 38.7026 31.7501 38.7026 32.5785C38.7026 33.4069 39.3742 34.0785 40.2026 34.0785H51.3202V37.7847Z"/>
</mask>
<path fill-rule="evenodd" clip-rule="evenodd" d="M51.3202 37.7847L58.0001 31.9998L51.3202 26.2148V31.0785H40.2026C39.3742 31.0785 38.7026 31.7501 38.7026 32.5785C38.7026 33.4069 39.3742 34.0785 40.2026 34.0785H51.3202V37.7847Z" fill="#F2C94C"/>
<path fill-rule="evenodd" clip-rule="evenodd" d="M51.3202 37.7847L58.0001 31.9998L51.3202 26.2148V31.0785H40.2026C39.3742 31.0785 38.7026 31.7501 38.7026 32.5785C38.7026 33.4069 39.3742 34.0785 40.2026 34.0785H51.3202V37.7847Z" fill="url(#paint3_radial_355_53)" fill-opacity="0.45"/>
<path d="M58.0001 31.9998L59.3094 33.5116L61.0551 31.9998L59.3094 30.4879L58.0001 31.9998ZM51.3202 37.7847H49.3202V42.1625L52.6295 39.2965L51.3202 37.7847ZM51.3202 26.2148L52.6295 24.703L49.3202 21.837V26.2148H51.3202ZM51.3202 31.0785V33.0785H53.3202V31.0785H51.3202ZM51.3202 34.0785H53.3202V32.0785H51.3202V34.0785ZM56.6908 30.4879L50.0109 36.2728L52.6295 39.2965L59.3094 33.5116L56.6908 30.4879ZM50.0109 27.7267L56.6908 33.5116L59.3094 30.4879L52.6295 24.703L50.0109 27.7267ZM53.3202 31.0785V26.2148H49.3202V31.0785H53.3202ZM40.2026 33.0785H51.3202V29.0785H40.2026V33.0785ZM40.7026 32.5785C40.7026 32.8547 40.4788 33.0785 40.2026 33.0785V29.0785C38.2696 29.0785 36.7026 30.6455 36.7026 32.5785H40.7026ZM40.2026 32.0785C40.4788 32.0785 40.7026 32.3024 40.7026 32.5785H36.7026C36.7026 34.5115 38.2696 36.0785 40.2026 36.0785V32.0785ZM51.3202 32.0785H40.2026V36.0785H51.3202V32.0785ZM53.3202 37.7847V34.0785H49.3202V37.7847H53.3202Z" fill="#0E0E10" mask="url(#path-5-outside-2_355_53)"/>
<path d="M18.4334 55H15.2971L16.7459 46.2727H19.8226C20.7005 46.2727 21.4292 46.4517 22.0087 46.8097C22.5911 47.1676 23.0016 47.6804 23.2402 48.348C23.4789 49.0128 23.5215 49.8068 23.3681 50.7301C23.2203 51.6222 22.9263 52.3878 22.486 53.027C22.0456 53.6634 21.4817 54.152 20.7942 54.4929C20.1067 54.831 19.3198 55 18.4334 55ZM17.4064 53.419H18.54C19.0882 53.419 19.5684 53.3168 19.9803 53.1122C20.3951 52.9077 20.7346 52.5923 20.9988 52.1662C21.2658 51.7401 21.4547 51.1946 21.5655 50.5298C21.6706 49.8991 21.6635 49.3878 21.5442 48.9957C21.4277 48.6009 21.2019 48.3125 20.8667 48.1307C20.5314 47.946 20.0911 47.8537 19.5456 47.8537H18.3311L17.4064 53.419ZM25.0396 55H23.0623L27.524 46.2727H29.9018L31.4615 55H29.4842L28.4231 48.267H28.3549L25.0396 55ZM25.4913 51.5696H30.1618L29.9146 53.0099H25.2441L25.4913 51.5696ZM38.0698 48.8082C38.084 48.4531 37.9803 48.179 37.7587 47.9858C37.54 47.7926 37.209 47.696 36.7658 47.696C36.4647 47.696 36.2033 47.7386 35.9817 47.8239C35.7601 47.9062 35.5826 48.0213 35.449 48.169C35.3184 48.3139 35.2374 48.4815 35.2061 48.6719C35.1749 48.8281 35.1848 48.9645 35.236 49.081C35.29 49.1974 35.3738 49.2983 35.4874 49.3835C35.6039 49.4659 35.7417 49.5384 35.9007 49.6009C36.0598 49.6605 36.2289 49.7116 36.4078 49.7543L37.1578 49.9418C37.5243 50.027 37.8539 50.1406 38.1465 50.2827C38.4419 50.4247 38.6891 50.5994 38.888 50.8068C39.0897 51.0142 39.2317 51.2585 39.3141 51.5398C39.3965 51.821 39.4078 52.1435 39.3482 52.5071C39.2573 53.0412 39.0456 53.5043 38.7132 53.8963C38.3809 54.2855 37.9448 54.5881 37.405 54.804C36.8652 55.017 36.2402 55.1236 35.53 55.1236C34.8255 55.1236 34.2303 55.0156 33.7445 54.7997C33.2587 54.5838 32.905 54.2642 32.6834 53.8409C32.4647 53.4148 32.3993 52.8878 32.4874 52.2599H34.2729C34.2417 52.5526 34.2843 52.7969 34.4007 52.9929C34.5201 53.1861 34.6976 53.3324 34.9334 53.4318C35.1692 53.5284 35.4462 53.5767 35.7644 53.5767C36.0797 53.5767 36.3596 53.5312 36.6039 53.4403C36.851 53.3494 37.0513 53.223 37.2047 53.0611C37.3581 52.8991 37.4519 52.7131 37.486 52.5028C37.5201 52.3068 37.4902 52.142 37.3965 52.0085C37.3027 51.875 37.1522 51.7614 36.9448 51.6676C36.7402 51.571 36.486 51.4858 36.182 51.4119L35.2701 51.1733C34.5655 50.9943 34.0328 50.7145 33.6721 50.3338C33.3113 49.9531 33.182 49.4403 33.2843 48.7955C33.3752 48.267 33.5953 47.8054 33.9448 47.4105C34.2971 47.0128 34.7402 46.7045 35.2743 46.4858C35.8113 46.2642 36.3979 46.1534 37.0343 46.1534C37.682 46.1534 38.2289 46.2656 38.6749 46.4901C39.1209 46.7116 39.4462 47.0213 39.6507 47.419C39.8553 47.8168 39.9178 48.2798 39.8382 48.8082H38.0698ZM40.176 55L41.6248 46.2727H43.47L42.8734 49.8736H46.6191L47.2157 46.2727H49.0566L47.6078 55H45.7669L46.3635 51.3949H42.6177L42.0211 55H40.176Z" fill="#4F4F4F"/>
<defs>
<radialGradient id="paint0_radial_355_53" cx="0" cy="0" r="1" gradientUnits="userSpaceOnUse" gradientTransform="translate(16 32) rotate(90) scale(9)">
<stop stop-opacity="0"/>
<stop offset="1"/>
</radialGradient>
<radialGradient id="paint1_radial_355_53" cx="0" cy="0" r="1" gradientUnits="userSpaceOnUse" gradientTransform="translate(39 32) rotate(90) scale(9)">
<stop stop-opacity="0"/>
<stop offset="1"/>
</radialGradient>
<radialGradient id="paint2_radial_355_53" cx="0" cy="0" r="1" gradientUnits="userSpaceOnUse" gradientTransform="translate(15.8003 34.9691) rotate(-17.1026) scale(20.1903 20.2529)">
<stop stop-color="#DE0000"/>
<stop offset="1" stop-color="#DE0000" stop-opacity="0"/>
</radialGradient>
<radialGradient id="paint3_radial_355_53" cx="0" cy="0" r="1" gradientUnits="userSpaceOnUse" gradientTransform="translate(38.7026 34.9691) rotate(-17.1026) scale(20.1903 20.2529)">
<stop stop-color="#DE0000"/>
<stop offset="1" stop-color="#DE0000" stop-opacity="0"/>
</radialGradient>
</defs>
</svg>
