<svg width="42" height="64" viewBox="0 0 42 64" fill="none" xmlns="http://www.w3.org/2000/svg">
<circle cx="14" cy="32" r="12.5" fill="#BDBDBD"/>
<circle cx="14" cy="32" r="12.5" fill="url(#paint0_radial_347_3)" fill-opacity="0.25"/>
<circle cx="14" cy="32" r="12.5" stroke="#0E0E10"/>
<mask id="path-2-outside-1_347_3" maskUnits="userSpaceOnUse" x="10.9998" y="21" width="31" height="32" fill="black">
<rect fill="white" x="10.9998" y="21" width="31" height="32"/>
<path fill-rule="evenodd" clip-rule="evenodd" d="M36.794 34L28.9998 25L21.2056 34H26.2586C26.2049 34.3235 26.1393 34.6455 26.0619 34.9653C25.5912 36.9081 24.693 38.7214 23.4329 40.2731C22.1727 41.8249 20.5823 43.076 18.7774 43.9353C17.8429 44.3803 16.863 44.7144 15.8578 44.9332C14.3036 45.2714 12.9998 46.53 12.9998 48.1206C12.9998 49.7112 14.2963 51.0227 15.869 50.785C17.73 50.5037 19.5448 49.9495 21.2536 49.136C23.8319 47.9083 26.104 46.121 27.9042 43.9042C29.7044 41.6874 30.9875 39.097 31.6599 36.3216C31.8456 35.555 31.9835 34.7797 32.0734 34H36.794Z"/>
</mask>
<path fill-rule="evenodd" clip-rule="evenodd" d="M36.794 34L28.9998 25L21.2056 34H26.2586C26.2049 34.3235 26.1393 34.6455 26.0619 34.9653C25.5912 36.9081 24.693 38.7214 23.4329 40.2731C22.1727 41.8249 20.5823 43.076 18.7774 43.9353C17.8429 44.3803 16.863 44.7144 15.8578 44.9332C14.3036 45.2714 12.9998 46.53 12.9998 48.1206C12.9998 49.7112 14.2963 51.0227 15.869 50.785C17.73 50.5037 19.5448 49.9495 21.2536 49.136C23.8319 47.9083 26.104 46.121 27.9042 43.9042C29.7044 41.6874 30.9875 39.097 31.6599 36.3216C31.8456 35.555 31.9835 34.7797 32.0734 34H36.794Z" fill="#F2C94C"/>
<path fill-rule="evenodd" clip-rule="evenodd" d="M36.794 34L28.9998 25L21.2056 34H26.2586C26.2049 34.3235 26.1393 34.6455 26.0619 34.9653C25.5912 36.9081 24.693 38.7214 23.4329 40.2731C22.1727 41.8249 20.5823 43.076 18.7774 43.9353C17.8429 44.3803 16.863 44.7144 15.8578 44.9332C14.3036 45.2714 12.9998 46.53 12.9998 48.1206C12.9998 49.7112 14.2963 51.0227 15.869 50.785C17.73 50.5037 19.5448 49.9495 21.2536 49.136C23.8319 47.9083 26.104 46.121 27.9042 43.9042C29.7044 41.6874 30.9875 39.097 31.6599 36.3216C31.8456 35.555 31.9835 34.7797 32.0734 34H36.794Z" fill="url(#paint1_radial_347_3)" fill-opacity="0.45"/>
<path d="M28.9998 25L30.5117 23.6907L28.9998 21.9449L27.4879 23.6907L28.9998 25ZM36.794 34V36H41.1718L38.3059 32.6907L36.794 34ZM21.2056 34L19.6937 32.6907L16.8278 36H21.2056V34ZM26.2586 34L28.2316 34.3273L28.6177 32H26.2586V34ZM26.0619 34.9653L24.1181 34.4943L24.1181 34.4943L26.0619 34.9653ZM23.4329 40.2731L21.8803 39.0123L21.8803 39.0123L23.4329 40.2731ZM18.7774 43.9353L19.6372 45.7411L19.6372 45.7411L18.7774 43.9353ZM15.8578 44.9332L16.2831 46.8874L16.2831 46.8874L15.8578 44.9332ZM12.9998 48.1206L14.9998 48.1206L12.9998 48.1206ZM15.869 50.785L16.1679 52.7625L16.1679 52.7625L15.869 50.785ZM21.2536 49.136L20.3938 47.3302L20.3938 47.3302L21.2536 49.136ZM27.9042 43.9042L26.3516 42.6434L26.3516 42.6434L27.9042 43.9042ZM31.6599 36.3216L29.7161 35.8506L29.7161 35.8506L31.6599 36.3216ZM32.0734 34V32H30.2907L30.0865 33.7709L32.0734 34ZM27.4879 26.3093L35.2822 35.3093L38.3059 32.6907L30.5117 23.6907L27.4879 26.3093ZM22.7174 35.3093L30.5117 26.3093L27.4879 23.6907L19.6937 32.6907L22.7174 35.3093ZM26.2586 32H21.2056V36H26.2586V32ZM24.2855 33.6727C24.2399 33.9481 24.184 34.2221 24.1181 34.4943L28.0056 35.4362C28.0946 35.0688 28.17 34.6989 28.2316 34.3273L24.2855 33.6727ZM24.1181 34.4943C23.7174 36.148 22.9529 37.6915 21.8803 39.0123L24.9854 41.5339C26.4331 39.7512 27.4649 37.6681 28.0056 35.4362L24.1181 34.4943ZM21.8803 39.0123C20.8077 40.3332 19.4539 41.3981 17.9176 42.1296L19.6372 45.7411C21.7106 44.7539 23.5377 43.3166 24.9854 41.5339L21.8803 39.0123ZM17.9176 42.1296C17.1222 42.5083 16.2881 42.7927 15.4325 42.9789L16.2831 46.8874C17.4379 46.6361 18.5636 46.2523 19.6372 45.7411L17.9176 42.1296ZM15.4325 42.9789C13.2184 43.4608 10.9998 45.3473 10.9998 48.1206L14.9998 48.1206C14.9998 47.7127 15.3887 47.0821 16.2831 46.8874L15.4325 42.9789ZM10.9998 48.1206C10.9998 50.7188 13.181 53.214 16.1679 52.7625L15.5701 48.8074C15.4421 48.8268 15.3337 48.7949 15.2255 48.6916C15.1034 48.5751 14.9998 48.3737 14.9998 48.1206L10.9998 48.1206ZM16.1679 52.7625C18.2227 52.452 20.2266 51.8401 22.1133 50.9417L20.3938 47.3302C18.863 48.059 17.2373 48.5555 15.5701 48.8074L16.1679 52.7625ZM22.1133 50.9417C24.9603 49.5862 27.469 47.6127 29.4567 45.165L26.3516 42.6434C24.7389 44.6293 22.7036 46.2304 20.3938 47.3302L22.1133 50.9417ZM29.4567 45.165C31.4445 42.7173 32.8612 39.857 33.6037 36.7925L29.7161 35.8506C29.1138 38.3369 27.9643 40.6575 26.3516 42.6434L29.4567 45.165ZM33.6037 36.7925C33.8087 35.9461 33.9609 35.09 34.0602 34.2291L30.0865 33.7709C30.006 34.4693 29.8825 35.1639 29.7161 35.8506L33.6037 36.7925ZM36.794 32H32.0734V36H36.794V32Z" fill="#0E0E10" mask="url(#path-2-outside-1_347_3)"/>
<defs>
<radialGradient id="paint0_radial_347_3" cx="0" cy="0" r="1" gradientUnits="userSpaceOnUse" gradientTransform="translate(14 32) rotate(90) scale(12)">
<stop stop-opacity="0"/>
<stop offset="1"/>
</radialGradient>
<radialGradient id="paint1_radial_347_3" cx="0" cy="0" r="1" gradientUnits="userSpaceOnUse" gradientTransform="translate(12.9998 50.6804) rotate(-55.982) scale(28.5994 27.0046)">
<stop stop-color="#DE0000"/>
<stop offset="1" stop-color="#DE0000" stop-opacity="0"/>
</radialGradient>
</defs>
</svg>
