<svg viewBox="0 0 42 43" fill="none" xmlns="http://www.w3.org/2000/svg">
<path fill-rule="evenodd" clip-rule="evenodd" d="M31.0236 23.7491C31.6519 22.2926 32 20.687 32 19C32 18.8944 31.9986 18.7892 31.9959 18.6843L24.3577 21.8707L24.3579 21.8708L12.7727 26.7038L12.7725 26.7038L11.4671 27.2483C12.5563 28.1164 13.7809 28.8139 15.1 29.3089C15.5888 29.4923 16.0862 29.6463 16.5894 29.7706L31.0236 23.7491ZM8.01305 18.4354C8.00438 18.6225 8 18.8108 8 19C8 20.4898 8.2715 21.9163 8.76773 23.2325L12.6998 24.567L18.7018 22.0632L8.01305 18.4354ZM31.7629 16.6144C30.6566 11.1299 25.8106 7 20 7C14.2605 7 9.46208 11.0295 8.27939 16.4138L21.4934 20.8986L31.7629 16.6144ZM21.7948 29.7661L20.9747 30.1083C21.4091 30.0697 21.8425 30.0098 22.2731 29.9285L21.7948 29.7661ZM25.4617 28.8986L24.5867 28.6017L28.4198 27.0026C27.521 27.7625 26.5262 28.3999 25.4617 28.8986Z" fill="#828282"/>
<path d="M24.5867 28.601L35.2189 32.2095L34.0195 35.4593L41.5069 32.6396L37.6465 25.6318L36.7082 28.1741L30.5886 26.0971L24.5867 28.601Z" fill="#F2C94C"/>
<path fill-rule="evenodd" clip-rule="evenodd" d="M32.8339 28.1385C33.6341 28.8343 33.7248 30.0551 32.9527 30.7819C32.7792 30.9452 32.6028 31.1051 32.4237 31.2616L28.025 29.7687C28.7353 29.3178 29.4087 28.8085 30.038 28.2453C30.8281 27.5381 32.0336 27.4427 32.8339 28.1385ZM30.5174 32.7266C28.694 33.9544 26.6628 34.867 24.5076 35.4128C20.7122 36.3741 16.7137 36.1521 13.048 34.7766C9.38235 33.401 6.22484 30.9377 3.9988 27.7168C2.1379 25.0243 1.00232 21.91 0.685108 18.6734C0.58168 17.6181 1.45322 16.7583 2.51361 16.7607C2.73842 16.7613 2.95356 16.8005 3.15426 16.8722C3.34799 16.8821 3.54361 16.9186 3.73639 16.984L18.7018 22.0632L12.6998 24.5671L5.36903 22.0791C5.81397 23.295 6.41332 24.4565 7.15775 25.5336C8.93859 28.1103 11.4646 30.0809 14.3971 31.1814C17.3296 32.2818 20.5285 32.4594 23.5648 31.6904C24.2435 31.5185 24.9067 31.3012 25.5505 31.0409L30.5174 32.7266Z" fill="#F2C94C"/>
<path fill-rule="evenodd" clip-rule="evenodd" d="M33.2053 24.8738L35.5063 25.6548L37.2859 20.833L38.3653 22.7924C38.7116 21.7313 38.962 20.6422 39.1137 19.5381C39.2023 19.2528 39.2321 18.948 39.195 18.6432C39.1768 18.3205 39.0668 18.0232 38.8903 17.7728C38.3454 16.887 37.2223 16.5043 36.2323 16.9173L11.4673 27.2485C12.5564 28.1165 13.7809 28.8139 15.0999 29.3089C15.5889 29.4924 16.0864 29.6464 16.5898 29.7707L18.9308 28.7941L18.9307 28.7941L30.5159 23.9611L30.516 23.9611L34.4705 22.3114C34.3507 22.6262 34.2202 22.9374 34.0791 23.2446C33.8211 23.8059 33.5291 24.35 33.2053 24.8738ZM35.8037 27.8678L34.9324 27.5721C35.1057 27.8631 35.2408 28.1752 35.3343 28.4987C35.4951 28.2916 35.6516 28.0813 35.8037 27.8678ZM9.40078 28.1106C10.6868 29.2923 12.1701 30.2508 13.7901 30.9387L9.23718 32.838C7.89254 31.9529 6.6625 30.9009 5.57746 29.7056L9.40078 28.1106ZM31.5033 29.8194C31.9606 30.3329 32.6379 30.5437 33.2516 30.4099C33.6794 29.6873 33.5094 28.7258 32.834 28.1385C32.366 27.7317 31.7595 27.5953 31.1785 27.6936C30.8923 28.4027 30.9761 29.2273 31.5033 29.8194ZM3.62983 30.5181C4.65118 31.7216 5.80116 32.8042 7.05658 33.7477L4.86872 34.6604C3.77284 35.1176 2.51385 34.5998 2.05668 33.5039C1.59951 32.4081 2.11729 31.1491 3.21317 30.6919L3.62983 30.5181Z" fill="#F2C94C"/>
</svg>
