<svg viewBox="0 0 35 31" fill="none" xmlns="http://www.w3.org/2000/svg">
<g clip-path="url(#clip0_372_56)">
<path fill-rule="evenodd" clip-rule="evenodd" d="M22.8099 6.78343L14.8278 16.0004H21.6411C21.2128 17.0857 20.6198 18.1021 19.8803 19.0127C18.8077 20.3335 17.4539 21.3985 15.9176 22.1299C15.1222 22.5087 14.2881 22.7931 13.4325 22.9793C12.6602 23.1474 11.8873 23.4864 11.2082 23.9743C4.94992 23.5667 0 18.3614 0 12C0 5.37258 5.37258 0 12 0C16.7579 0 20.8691 2.76901 22.8099 6.78343Z" fill="#828282"/>
<path fill-rule="evenodd" clip-rule="evenodd" d="M34.794 14L26.9998 5L19.2056 14H24.2586C24.2049 14.3235 24.1393 14.6455 24.0619 14.9653C23.5912 16.9081 22.693 18.7214 21.4329 20.2731C20.1727 21.8249 18.5823 23.076 16.7774 23.9353C15.8429 24.3803 14.863 24.7144 13.8578 24.9332C12.3036 25.2714 10.9998 26.53 10.9998 28.1206C10.9998 29.7112 12.2963 31.0227 13.869 30.785C15.73 30.5037 17.5448 29.9495 19.2536 29.136C21.8319 27.9083 24.104 26.121 25.9042 23.9042C27.7044 21.6874 28.9875 19.097 29.6599 16.3216C29.8456 15.555 29.9835 14.7797 30.0734 14H34.794Z" fill="#F2C94C"/>
</g>
<defs>
<clipPath id="clip0_372_56">
<rect width="35" height="31" fill="white"/>
</clipPath>
</defs>
</svg>
