<svg width="64" height="64" viewBox="0 0 64 64" fill="none" xmlns="http://www.w3.org/2000/svg">
<rect width="64" height="64" fill="#222222"/>
<circle cx="32" cy="32" r="12.5" fill="#BDBDBD"/>
<circle cx="32" cy="32" r="12.5" fill="url(#paint0_radial_347_65)" fill-opacity="0.25"/>
<circle cx="32" cy="32" r="12.5" stroke="#0E0E10"/>
<mask id="path-2-outside-1_347_65" maskUnits="userSpaceOnUse" x="3.40601" y="10.5986" width="50" height="43" fill="black">
<rect fill="white" x="3.40601" y="10.5986" width="50" height="43"/>
<path fill-rule="evenodd" clip-rule="evenodd" d="M15.7475 42.0204C14.9007 40.674 15.5843 38.961 17.0422 38.325C18.5 37.6889 20.175 38.3807 21.1065 39.67C22.5075 41.6089 24.4118 43.1537 26.6371 44.1222C29.7499 45.4769 33.26 45.6035 36.4623 44.4764C39.6646 43.3494 42.3218 41.0522 43.8999 38.0465C45.4781 35.0408 45.8603 31.5492 44.9698 28.2732C44.0793 24.9973 41.9821 22.1797 39.0994 20.3865C36.2168 18.5934 32.7624 17.9575 29.4302 18.6067C26.098 19.256 23.135 21.1421 21.1364 23.8863C20.2219 25.142 19.5403 26.5347 19.1087 27.999L23.9945 27.999L16.2002 36.999L8.40601 27.999L13.1802 27.999C13.7226 25.3122 14.8388 22.7492 16.4803 20.4953C19.3355 16.575 23.5684 13.8805 28.3287 12.953C33.0889 12.0256 38.0238 12.9339 42.1419 15.4956C46.2599 18.0572 49.256 22.0824 50.5281 26.7623C51.8003 31.4423 51.2542 36.4303 48.9997 40.7242C46.7452 45.0181 42.9493 48.2997 38.3746 49.9097C33.7999 51.5198 28.7853 51.339 24.3385 49.4036C20.7774 47.8538 17.7916 45.2707 15.7475 42.0204Z"/>
</mask>
<path fill-rule="evenodd" clip-rule="evenodd" d="M15.7475 42.0204C14.9007 40.674 15.5843 38.961 17.0422 38.325C18.5 37.6889 20.175 38.3807 21.1065 39.67C22.5075 41.6089 24.4118 43.1537 26.6371 44.1222C29.7499 45.4769 33.26 45.6035 36.4623 44.4764C39.6646 43.3494 42.3218 41.0522 43.8999 38.0465C45.4781 35.0408 45.8603 31.5492 44.9698 28.2732C44.0793 24.9973 41.9821 22.1797 39.0994 20.3865C36.2168 18.5934 32.7624 17.9575 29.4302 18.6067C26.098 19.256 23.135 21.1421 21.1364 23.8863C20.2219 25.142 19.5403 26.5347 19.1087 27.999L23.9945 27.999L16.2002 36.999L8.40601 27.999L13.1802 27.999C13.7226 25.3122 14.8388 22.7492 16.4803 20.4953C19.3355 16.575 23.5684 13.8805 28.3287 12.953C33.0889 12.0256 38.0238 12.9339 42.1419 15.4956C46.2599 18.0572 49.256 22.0824 50.5281 26.7623C51.8003 31.4423 51.2542 36.4303 48.9997 40.7242C46.7452 45.0181 42.9493 48.2997 38.3746 49.9097C33.7999 51.5198 28.7853 51.339 24.3385 49.4036C20.7774 47.8538 17.7916 45.2707 15.7475 42.0204Z" fill="#F2C94C"/>
<path fill-rule="evenodd" clip-rule="evenodd" d="M15.7475 42.0204C14.9007 40.674 15.5843 38.961 17.0422 38.325C18.5 37.6889 20.175 38.3807 21.1065 39.67C22.5075 41.6089 24.4118 43.1537 26.6371 44.1222C29.7499 45.4769 33.26 45.6035 36.4623 44.4764C39.6646 43.3494 42.3218 41.0522 43.8999 38.0465C45.4781 35.0408 45.8603 31.5492 44.9698 28.2732C44.0793 24.9973 41.9821 22.1797 39.0994 20.3865C36.2168 18.5934 32.7624 17.9575 29.4302 18.6067C26.098 19.256 23.135 21.1421 21.1364 23.8863C20.2219 25.142 19.5403 26.5347 19.1087 27.999L23.9945 27.999L16.2002 36.999L8.40601 27.999L13.1802 27.999C13.7226 25.3122 14.8388 22.7492 16.4803 20.4953C19.3355 16.575 23.5684 13.8805 28.3287 12.953C33.0889 12.0256 38.0238 12.9339 42.1419 15.4956C46.2599 18.0572 49.256 22.0824 50.5281 26.7623C51.8003 31.4423 51.2542 36.4303 48.9997 40.7242C46.7452 45.0181 42.9493 48.2997 38.3746 49.9097C33.7999 51.5198 28.7853 51.339 24.3385 49.4036C20.7774 47.8538 17.7916 45.2707 15.7475 42.0204Z" fill="url(#paint1_radial_347_65)" fill-opacity="0.45"/>
<path d="M17.0422 38.325L16.2424 36.4919L16.2424 36.4919L17.0422 38.325ZM15.7475 42.0204L17.4405 40.9557L17.4405 40.9557L15.7475 42.0204ZM21.1065 39.67L22.7276 38.4986L22.7276 38.4986L21.1065 39.67ZM26.6371 44.1222L27.4352 42.2883L27.4352 42.2883L26.6371 44.1222ZM36.4623 44.4764L35.7984 42.5899L35.7984 42.5899L36.4623 44.4764ZM43.8999 38.0465L42.1292 37.1168L42.1292 37.1168L43.8999 38.0465ZM44.9698 28.2732L46.8998 27.7486L46.8998 27.7486L44.9698 28.2732ZM29.4302 18.6067L29.0477 16.6437L29.0477 16.6437L29.4302 18.6067ZM21.1364 23.8863L22.753 25.0638L22.753 25.0638L21.1364 23.8863ZM19.1087 27.999L17.1903 27.4336L16.4342 29.999L19.1087 29.999L19.1087 27.999ZM23.9945 27.999L25.5063 29.3083L28.3723 25.999L23.9945 25.999L23.9945 27.999ZM16.2002 36.999L14.6884 38.3083L16.2002 40.0541L17.7121 38.3083L16.2002 36.999ZM8.40601 27.999L8.40601 25.999L4.0282 25.999L6.89415 29.3083L8.40601 27.999ZM13.1802 27.999L13.1802 29.999L14.8167 29.999L15.1406 28.3949L13.1802 27.999ZM16.4803 20.4953L14.8637 19.3179L14.8637 19.3179L16.4803 20.4953ZM28.3287 12.953L28.7112 14.9161L28.7112 14.9161L28.3287 12.953ZM42.1419 15.4956L43.1983 13.7973L43.1983 13.7973L42.1419 15.4956ZM24.3385 49.4036L23.5403 51.2375L23.5403 51.2375L24.3385 49.4036ZM16.2424 36.4919C13.8609 37.5309 12.4463 40.5281 14.0545 43.0852L17.4405 40.9557C17.3716 40.8461 17.3575 40.7339 17.4089 40.5934C17.4668 40.4348 17.61 40.2593 17.8419 40.1581L16.2424 36.4919ZM22.7276 38.4986C21.4006 36.6621 18.7843 35.3828 16.2424 36.4919L17.8419 40.1581C18.2157 39.995 18.9493 40.0993 19.4854 40.8413L22.7276 38.4986ZM27.4352 42.2883C25.5411 41.464 23.9202 40.1491 22.7276 38.4986L19.4854 40.8413C21.0948 43.0687 23.2825 44.8434 25.8389 45.956L27.4352 42.2883ZM35.7984 42.5899C33.0726 43.5492 30.0848 43.4415 27.4352 42.2883L25.8389 45.956C29.415 47.5124 33.4475 47.6578 37.1263 46.363L35.7984 42.5899ZM42.1292 37.1168C40.7859 39.6752 38.5241 41.6305 35.7984 42.5899L37.1263 46.363C40.8051 45.0682 43.8577 42.4293 45.6707 38.9763L42.1292 37.1168ZM43.0398 28.7979C43.7978 31.5863 43.4725 34.5583 42.1292 37.1168L45.6707 38.9763C47.4837 35.5233 47.9228 31.5121 46.8998 27.7486L43.0398 28.7979ZM38.043 22.0848C40.4967 23.6111 42.2819 26.0094 43.0398 28.7979L46.8998 27.7486C45.8768 23.9852 43.4674 20.7483 40.1558 18.6883L38.043 22.0848ZM29.8127 20.5698C32.649 20.0172 35.5894 20.5584 38.043 22.0848L40.1558 18.6883C36.8443 16.6283 32.8758 15.8978 29.0477 16.6437L29.8127 20.5698ZM22.753 25.0638C24.4542 22.7279 26.9764 21.1224 29.8127 20.5698L29.0477 16.6437C25.2197 17.3895 21.8157 19.5563 19.5197 22.7089L22.753 25.0638ZM21.0271 28.5644C21.3945 27.3179 21.9746 26.1326 22.753 25.0638L19.5197 22.7089C18.4691 24.1513 17.6861 25.7514 17.1903 27.4336L21.0271 28.5644ZM19.1087 29.999L23.9945 29.999L23.9945 25.999L19.1087 25.999L19.1087 29.999ZM22.4826 26.6897L14.6884 35.6897L17.7121 38.3083L25.5063 29.3083L22.4826 26.6897ZM17.7121 35.6897L9.91786 26.6897L6.89415 29.3083L14.6884 38.3083L17.7121 35.6897ZM8.40601 29.999L13.1802 29.999L13.1802 25.999L8.40601 25.999L8.40601 29.999ZM14.8637 19.3179C13.0511 21.8065 11.8187 24.6366 11.2197 27.6032L15.1406 28.3949C15.6266 25.9878 16.6265 23.6918 18.097 21.6727L14.8637 19.3179ZM27.9462 10.99C22.6901 12.014 18.0162 14.9892 14.8637 19.3179L18.097 21.6727C20.6548 18.1608 24.4468 15.747 28.7112 14.9161L27.9462 10.99ZM43.1983 13.7973C38.6513 10.9689 33.2023 9.9659 27.9462 10.99L28.7112 14.9161C32.9756 14.0853 37.3964 14.899 41.0855 17.1938L43.1983 13.7973ZM52.4581 26.2377C51.0534 21.0703 47.7453 16.6258 43.1983 13.7973L41.0855 17.1938C44.7745 19.4886 47.4585 23.0945 48.5982 27.287L52.4581 26.2377ZM50.7705 41.6539C53.2598 36.9127 53.8627 31.4052 52.4581 26.2377L48.5982 27.287C49.7378 31.4794 49.2486 35.9478 47.229 39.7944L50.7705 41.6539ZM39.0385 51.7963C44.0898 50.0185 48.2811 46.3951 50.7705 41.6539L47.229 39.7944C45.2093 43.641 41.8088 46.5808 37.7106 48.0232L39.0385 51.7963ZM23.5403 51.2375C28.4504 53.3744 33.9873 53.5741 39.0385 51.7963L37.7106 48.0232C33.6124 49.4655 29.1202 49.3035 25.1366 47.5698L23.5403 51.2375ZM14.0545 43.0852C16.3115 46.674 19.6083 49.5262 23.5403 51.2375L25.1366 47.5698C21.9465 46.1814 19.2717 43.8675 17.4405 40.9557L14.0545 43.0852Z" fill="#0E0E10" mask="url(#path-2-outside-1_347_65)"/>
<defs>
<radialGradient id="paint0_radial_347_65" cx="0" cy="0" r="1" gradientUnits="userSpaceOnUse" gradientTransform="translate(32 32) rotate(90) scale(12)">
<stop stop-opacity="0"/>
<stop offset="1"/>
</radialGradient>
<radialGradient id="paint1_radial_347_65" cx="0" cy="0" r="1" gradientUnits="userSpaceOnUse" gradientTransform="translate(13.0002 38.999) rotate(-21.8014) scale(37.6962 35.5941)">
<stop stop-color="#DE0000"/>
<stop offset="1" stop-color="#DE0000" stop-opacity="0"/>
</radialGradient>
</defs>
</svg>
