<svg width="32" height="32" viewBox="0 0 32 32" fill="none" xmlns="http://www.w3.org/2000/svg">
<rect width="32" height="32" fill="#222222"/>
<rect x="4.5" y="4.5" width="23" height="23" rx="11.5" fill="#0BA826"/>
<rect x="4.5" y="4.5" width="23" height="23" rx="11.5" fill="url(#paint0_radial_347_30)" fill-opacity="0.65" style="mix-blend-mode:overlay"/>
<path d="M17.5613 14.2827C17.5272 13.9389 17.3809 13.6719 17.1223 13.4815C16.8638 13.2912 16.513 13.196 16.0698 13.196C15.7686 13.196 15.5144 13.2386 15.307 13.3239C15.0996 13.4062 14.9405 13.5213 14.8297 13.669C14.7218 13.8168 14.6678 13.9844 14.6678 14.1719C14.6621 14.3281 14.6948 14.4645 14.7658 14.581C14.8397 14.6974 14.9405 14.7983 15.0684 14.8835C15.1962 14.9659 15.3439 15.0384 15.5115 15.1009C15.6792 15.1605 15.8581 15.2116 16.0485 15.2543L16.8326 15.4418C17.2132 15.527 17.5627 15.6406 17.8809 15.7827C18.199 15.9247 18.4746 16.0994 18.7076 16.3068C18.9405 16.5142 19.1209 16.7585 19.2488 17.0398C19.3794 17.321 19.4462 17.6435 19.449 18.0071C19.4462 18.5412 19.3098 19.0043 19.04 19.3963C18.7729 19.7855 18.3865 20.0881 17.8809 20.304C17.378 20.517 16.7715 20.6236 16.0613 20.6236C15.3567 20.6236 14.7431 20.5156 14.2203 20.2997C13.7005 20.0838 13.2942 19.7642 13.0016 19.3409C12.7118 18.9148 12.5598 18.3878 12.5456 17.7599H14.3311C14.351 18.0526 14.4348 18.2969 14.5826 18.4929C14.7331 18.6861 14.9334 18.8324 15.1834 18.9318C15.4363 19.0284 15.7218 19.0767 16.04 19.0767C16.3525 19.0767 16.6238 19.0312 16.8539 18.9403C17.0868 18.8494 17.2672 18.723 17.3951 18.5611C17.5229 18.3991 17.5868 18.2131 17.5868 18.0028C17.5868 17.8068 17.5286 17.642 17.4121 17.5085C17.2985 17.375 17.1309 17.2614 16.9093 17.1676C16.6905 17.0739 16.4221 16.9886 16.1039 16.9119L15.1536 16.6733C14.4178 16.4943 13.8368 16.2145 13.4107 15.8338C12.9846 15.4531 12.7729 14.9403 12.7757 14.2955C12.7729 13.767 12.9135 13.3054 13.1976 12.9105C13.4846 12.5156 13.878 12.2074 14.378 11.9858C14.878 11.7642 15.4462 11.6534 16.0826 11.6534C16.7303 11.6534 17.2956 11.7642 17.7786 11.9858C18.2644 12.2074 18.6422 12.5156 18.9121 12.9105C19.182 13.3054 19.3212 13.7628 19.3297 14.2827H17.5613Z" fill="#F2F2F2"/>
<path d="M17.5613 14.2827L16.0686 14.4307L16.2027 15.7827H17.5613V14.2827ZM15.307 13.3239L15.8608 14.7179L15.869 14.7146L15.8772 14.7113L15.307 13.3239ZM14.8297 13.669L13.6297 12.769L13.6241 12.7765L13.6186 12.784L14.8297 13.669ZM14.6678 14.1719L16.1668 14.2264L16.1678 14.1991V14.1719H14.6678ZM14.7658 14.581L13.4851 15.3619L13.492 15.3731L13.499 15.3843L14.7658 14.581ZM15.0684 14.8835L14.2363 16.1316L14.246 16.1381L14.2558 16.1444L15.0684 14.8835ZM15.5115 15.1009L14.9875 16.5063L14.998 16.5102L15.0086 16.514L15.5115 15.1009ZM16.0485 15.2543L16.3973 13.7954L16.3868 13.7929L16.3762 13.7905L16.0485 15.2543ZM16.8326 15.4418L16.4837 16.9006L16.4943 16.9032L16.5049 16.9055L16.8326 15.4418ZM17.8809 15.7827L17.2694 17.1524L17.2694 17.1524L17.8809 15.7827ZM18.7076 16.3068L19.705 15.1865L19.705 15.1865L18.7076 16.3068ZM19.2488 17.0398L17.8832 17.6605L17.8884 17.6718L19.2488 17.0398ZM19.449 18.0071L20.949 18.0151L20.9491 18.0052L20.949 17.9954L19.449 18.0071ZM19.04 19.3963L17.8044 18.5458L17.8031 18.5477L19.04 19.3963ZM17.8809 20.304L18.4661 21.6851L18.4699 21.6835L17.8809 20.304ZM14.2203 20.2997L13.645 21.685L13.6477 21.6861L14.2203 20.2997ZM13.0016 19.3409L11.7612 20.1844L11.7677 20.1939L13.0016 19.3409ZM12.5456 17.7599V16.2599H11.0113L11.046 17.7939L12.5456 17.7599ZM14.3311 17.7599L15.8277 17.6582L15.7327 16.2599H14.3311V17.7599ZM14.5826 18.4929L13.3847 19.3957L13.392 19.4054L13.3995 19.415L14.5826 18.4929ZM15.1834 18.9318L14.6291 20.3256L14.6386 20.3294L14.6481 20.3331L15.1834 18.9318ZM16.8539 18.9403L16.3086 17.543L16.3027 17.5453L16.8539 18.9403ZM17.3951 18.5611L18.5724 19.4905L18.5724 19.4905L17.3951 18.5611ZM17.4121 17.5085L16.2698 18.4807L16.2757 18.4877L16.2818 18.4946L17.4121 17.5085ZM16.9093 17.1676L16.3184 18.5463L16.3248 18.5491L16.9093 17.1676ZM16.1039 16.9119L15.7385 18.3668L15.7454 18.3685L15.7523 18.3702L16.1039 16.9119ZM15.1536 16.6733L15.5189 15.2184L15.5081 15.2158L15.1536 16.6733ZM13.4107 15.8338L12.4114 16.9524L12.4114 16.9524L13.4107 15.8338ZM12.7757 14.2955L14.2757 14.3021L14.2758 14.2947L14.2757 14.2874L12.7757 14.2955ZM13.1976 12.9105L11.9841 12.0288L11.98 12.0345L13.1976 12.9105ZM17.7786 11.9858L17.1531 13.3491L17.1561 13.3505L17.7786 11.9858ZM18.9121 12.9105L17.6737 13.7569L17.6737 13.7569L18.9121 12.9105ZM19.3297 14.2827V15.7827H20.8545L20.8295 14.2581L19.3297 14.2827ZM19.0539 14.1346C18.9815 13.4042 18.6405 12.7366 18.0117 12.2736L16.233 14.6895C16.1962 14.6624 16.1479 14.6136 16.1105 14.5453C16.0933 14.5139 16.0825 14.4858 16.0761 14.4641C16.073 14.4536 16.0711 14.4452 16.07 14.4394C16.0689 14.4337 16.0686 14.4307 16.0686 14.4307L19.0539 14.1346ZM18.0117 12.2736C17.4137 11.8333 16.7138 11.696 16.0698 11.696V14.696C16.1866 14.696 16.2495 14.7088 16.2726 14.7151C16.2926 14.7205 16.2715 14.7178 16.233 14.6895L18.0117 12.2736ZM16.0698 11.696C15.6363 11.696 15.1756 11.7561 14.7368 11.9365L15.8772 14.7113C15.8531 14.7211 15.901 14.696 16.0698 14.696V11.696ZM14.7532 11.9298C14.3428 12.0929 13.9379 12.3582 13.6297 12.769L16.0297 14.569C15.9432 14.6845 15.8564 14.7196 15.8608 14.7179L14.7532 11.9298ZM13.6186 12.784C13.318 13.1954 13.1678 13.6746 13.1678 14.1719H16.1678C16.1678 14.2241 16.1599 14.2912 16.1361 14.3653C16.1121 14.4398 16.0776 14.5037 16.0408 14.5541L13.6186 12.784ZM13.1688 14.1174C13.154 14.5233 13.2395 14.9591 13.4851 15.3619L16.0465 13.8001C16.15 13.9699 16.1702 14.1329 16.1668 14.2264L13.1688 14.1174ZM13.499 15.3843C13.6973 15.6969 13.954 15.9434 14.2363 16.1316L15.9004 13.6354C15.927 13.6532 15.982 13.6979 16.0326 13.7777L13.499 15.3843ZM14.2558 16.1444C14.4885 16.2944 14.736 16.4125 14.9875 16.5063L16.0356 13.6954C15.9519 13.6642 15.9039 13.6375 15.8809 13.6227L14.2558 16.1444ZM15.0086 16.514C15.2387 16.5959 15.4766 16.6634 15.7208 16.718L16.3762 13.7905C16.2396 13.7599 16.1196 13.7251 16.0145 13.6877L15.0086 16.514ZM15.6996 16.7131L16.4837 16.9006L17.1814 13.9829L16.3973 13.7954L15.6996 16.7131ZM16.5049 16.9055C16.7994 16.9715 17.0525 17.0556 17.2694 17.1524L18.4923 14.413C18.0729 14.2257 17.627 14.0825 17.1603 13.978L16.5049 16.9055ZM17.2694 17.1524C17.4632 17.2389 17.6049 17.3335 17.7102 17.4272L19.705 15.1865C19.3443 14.8654 18.9349 14.6105 18.4923 14.413L17.2694 17.1524ZM17.7102 17.4272C17.7885 17.4969 17.8428 17.5715 17.8832 17.6605L20.6143 16.4191C20.3991 15.9456 20.0926 15.5315 19.705 15.1865L17.7102 17.4272ZM17.8884 17.6718C17.9145 17.728 17.9476 17.8329 17.9491 18.0188L20.949 17.9954C20.9448 17.454 20.8444 16.9141 20.6091 16.4077L17.8884 17.6718ZM17.9491 17.9991C17.9476 18.2703 17.8832 18.4313 17.8044 18.5458L20.2755 20.2469C20.7365 19.5772 20.9448 18.812 20.949 18.0151L17.9491 17.9991ZM17.8031 18.5477C17.7223 18.6654 17.5796 18.8016 17.2919 18.9245L18.4699 21.6835C19.1935 21.3745 19.8235 20.9056 20.2768 20.245L17.8031 18.5477ZM17.2956 18.9228C17.0245 19.0377 16.6281 19.1236 16.0613 19.1236V22.1236C16.9149 22.1236 17.7315 21.9964 18.4661 21.6851L17.2956 18.9228ZM16.0613 19.1236C15.5065 19.1236 15.0955 19.0383 14.793 18.9133L13.6477 21.6861C14.3907 21.993 15.2069 22.1236 16.0613 22.1236V19.1236ZM14.7957 18.9144C14.5159 18.7982 14.349 18.6521 14.2355 18.488L11.7677 20.1939C12.2395 20.8763 12.885 21.3694 13.645 21.685L14.7957 18.9144ZM14.242 18.4974C14.1473 18.3582 14.0544 18.1283 14.0452 17.726L11.046 17.7939C11.0653 18.6472 11.2763 19.4713 11.7612 20.1844L14.242 18.4974ZM12.5456 19.2599H14.3311V16.2599H12.5456V19.2599ZM12.8346 17.8617C12.8703 18.3872 13.0301 18.9252 13.3847 19.3957L15.7805 17.5901C15.8066 17.6248 15.8211 17.6565 15.8278 17.6759C15.8338 17.6936 15.8299 17.6908 15.8277 17.6582L12.8346 17.8617ZM13.3995 19.415C13.7298 19.8388 14.1564 20.1376 14.6291 20.3256L15.7378 17.538C15.7203 17.5311 15.7204 17.5289 15.7305 17.5363C15.7353 17.5398 15.7413 17.5447 15.7479 17.551C15.7544 17.5574 15.7605 17.5641 15.7657 17.5708L13.3995 19.415ZM14.6481 20.3331C15.099 20.5053 15.5703 20.5767 16.04 20.5767V17.5767C15.8732 17.5767 15.7735 17.5515 15.7187 17.5306L14.6481 20.3331ZM16.04 20.5767C16.4935 20.5767 16.96 20.5112 17.405 20.3354L16.3027 17.5453C16.2875 17.5513 16.2114 17.5767 16.04 17.5767V20.5767ZM17.3992 20.3377C17.828 20.1704 18.2474 19.9022 18.5724 19.4905L16.2177 17.6316C16.2501 17.5906 16.2819 17.5638 16.303 17.549C16.3231 17.5349 16.3282 17.5353 16.3086 17.543L17.3992 20.3377ZM18.5724 19.4905C18.9135 19.0585 19.0868 18.5434 19.0868 18.0028H16.0868C16.0868 17.9535 16.0948 17.887 16.1203 17.8128C16.1459 17.7382 16.182 17.6769 16.2177 17.6316L18.5724 19.4905ZM19.0868 18.0028C19.0868 17.4857 18.9232 16.9589 18.5425 16.5225L16.2818 18.4946C16.2173 18.4207 16.1638 18.3308 16.1289 18.2321C16.0948 18.1357 16.0868 18.0546 16.0868 18.0028H19.0868ZM18.5544 16.5363C18.2436 16.1712 17.8547 15.9389 17.4937 15.7862L16.3248 18.5491C16.3618 18.5647 16.37 18.5719 16.3594 18.5647C16.3483 18.5571 16.3129 18.5313 16.2698 18.4807L18.5544 16.5363ZM17.5001 15.7889C17.1813 15.6523 16.8274 15.5434 16.4554 15.4537L15.7523 18.3702C16.0167 18.4339 16.1997 18.4955 16.3184 18.5463L17.5001 15.7889ZM16.4692 15.4571L15.5189 15.2185L14.7882 18.1281L15.7385 18.3668L16.4692 15.4571ZM15.5081 15.2158C14.9368 15.0768 14.6023 14.8869 14.41 14.7152L12.4114 16.9524C13.0714 17.542 13.8987 17.9118 14.7991 18.1308L15.5081 15.2158ZM14.41 14.7152C14.3473 14.6591 14.2745 14.5789 14.2757 14.3021L11.2758 14.2888C11.2713 15.3018 11.6218 16.2471 12.4114 16.9524L14.41 14.7152ZM14.2757 14.2874C14.2744 14.0472 14.3325 13.9015 14.4153 13.7865L11.98 12.0345C11.4945 12.7093 11.2714 13.4869 11.2758 14.3035L14.2757 14.2874ZM14.4111 13.7922C14.5247 13.6359 14.6976 13.4849 14.9858 13.3572L13.7703 10.6144C13.0585 10.9299 12.4444 11.3953 11.9841 12.0288L14.4111 13.7922ZM14.9858 13.3572C15.2656 13.2331 15.6216 13.1534 16.0826 13.1534V10.1534C15.2708 10.1534 14.4904 10.2953 13.7703 10.6144L14.9858 13.3572ZM16.0826 13.1534C16.5607 13.1534 16.9045 13.2351 17.1531 13.3491L18.4041 10.6225C17.6868 10.2933 16.8999 10.1534 16.0826 10.1534V13.1534ZM17.1561 13.3505C17.4229 13.4722 17.5755 13.6132 17.6737 13.7569L20.1505 12.0641C19.7089 11.418 19.1059 10.9425 18.4011 10.6211L17.1561 13.3505ZM17.6737 13.7569C17.7635 13.8882 17.8258 14.0543 17.8299 14.3073L20.8295 14.2581C20.8166 13.4713 20.6005 12.7226 20.1505 12.0641L17.6737 13.7569ZM19.3297 12.7827H17.5613V15.7827H19.3297V12.7827Z" fill="#0E0E10"/>
<rect x="4.5" y="4.5" width="23" height="23" rx="11.5" stroke="#0E0E10"/>
<defs>
<radialGradient id="paint0_radial_347_30" cx="0" cy="0" r="1" gradientUnits="userSpaceOnUse" gradientTransform="translate(16 16) rotate(90) scale(12)">
<stop offset="0.679935" stop-opacity="0"/>
<stop offset="1"/>
</radialGradient>
</defs>
</svg>
