<svg viewBox="0 0 48 48" fill="none" xmlns="http://www.w3.org/2000/svg">
<g clip-path="url(#clip0_444_287)">
<g clip-path="url(#clip1_444_287)">
<path fill-rule="evenodd" clip-rule="evenodd" d="M38.739 -6.53924L56.435 3.67754C56.559 3.46274 56.6848 3.25142 56.8096 3.04167L56.8101 3.04087L56.8104 3.04035L56.8107 3.03992C57.0997 2.5543 57.3838 2.07703 57.6297 1.58436C57.8999 1.02086 57.6489 0.332955 57.1095 -0.0463696C56.9809 -0.134177 56.8465 -0.211803 56.7017 -0.295401L42.0567 -8.75066C40.9294 -9.40153 40.2364 -9.20434 39.6163 -8.08261C39.3386 -7.57775 39.0506 -7.07886 38.739 -6.53924ZM37.953 35.908C37.841 36.1629 37.7274 36.4216 37.6123 36.6856L37.6122 36.6855L37.612 36.6854C37.4156 36.572 37.2709 36.4885 37.1217 36.3888C36.7631 36.1817 36.4042 35.9737 36.0449 35.7654L36.0447 35.7652L36.0445 35.7651L36.0443 35.765L36.044 35.7649C34.963 35.1382 33.8776 34.509 32.7823 33.897C31.9594 33.4355 31.1233 33.0206 30.2696 32.6363C28.15 31.6977 25.8973 31.2523 23.6096 30.9632C19.8342 30.4804 16.2196 29.3845 12.8557 27.5917C10.6561 26.4152 8.50113 25.1612 6.34621 23.9073C5.68317 23.5215 5.02013 23.1357 4.35578 22.7521C3.4353 22.2207 3.25651 21.4794 3.77521 20.5571C4.29979 19.6246 4.83471 18.6981 5.3741 17.7878C5.45457 17.6544 5.53282 17.5188 5.61117 17.3831C5.84621 16.976 6.08208 16.5675 6.38115 16.2107C8.05116 14.2019 10.8298 13.6884 13.1494 14.9733C14.215 15.5641 15.2716 16.1791 16.3276 16.7936L16.3276 16.7936L16.3279 16.7938L16.3283 16.794L16.3286 16.7942L16.3289 16.7944C17.0322 17.2037 17.7352 17.6128 18.4402 18.0144C21.6168 19.8213 25.3151 18.8613 27.0224 15.7609C27.8594 14.2476 28.6571 12.7177 29.4556 11.1863L29.4557 11.1862L29.4557 11.1862L29.4557 11.1861L29.4558 11.186L29.4561 11.1854C29.8574 10.4158 30.2589 9.64587 30.6656 8.87743L33.6954 3.13758C30.7492 1.76606 27.464 1.00027 24 1.00027C11.2975 1.00027 1 11.2977 1 24.0003C1 27.0436 1.59107 29.9488 2.66469 32.6075C2.40188 32.868 2.15505 33.1446 1.9258 33.4356C0.68624 30.5394 0 27.35 0 24.0003C0 10.7454 10.7452 0.000266075 24 0.000266075C27.6326 0.000266075 31.0768 0.807337 34.1629 2.25195L37.2835 -3.65995C37.3227 -3.72783 37.3711 -3.7904 37.4195 -3.85297C37.4437 -3.88425 37.4679 -3.91553 37.4909 -3.94748L54.8663 6.08419C53.8388 7.74446 52.8348 9.364 51.8204 10.9776C50.5114 13.0658 49.2049 15.1555 47.8984 17.2453L47.2964 18.2081C47.7561 20.0631 48 22.0032 48 24.0003C48 37.2551 37.2548 48.0003 24 48.0003C20.6502 48.0003 17.4606 47.314 14.5643 46.0743C14.8553 45.845 15.1319 45.5982 15.3924 45.3354C18.0511 46.4091 20.9565 47.0003 24 47.0003C36.7025 47.0003 47 36.7028 47 24.0003C47 22.4296 46.8426 20.8958 46.5426 19.4136C45.6878 20.7804 44.8327 22.147 43.9764 23.5129C41.8125 26.9743 40.1893 30.6934 38.5912 34.4407C38.3853 34.9238 38.1722 35.4088 37.953 35.908ZM35.5357 40.9032C35.148 41.6703 34.5675 42.0547 33.679 41.9218C30.4521 40.0588 27.2356 38.2017 24.0132 36.3549C23.4242 35.6075 23.5066 34.8677 24.0509 34.1638C24.148 34.0434 24.3558 33.9462 24.499 33.961C26.648 34.2514 28.7093 34.8849 30.6151 35.931C31.9665 36.6705 33.2923 37.441 34.6209 38.2132L34.6227 38.2142C35.0655 38.4716 35.5087 38.7291 35.9533 38.9858L36.46 39.2784C36.3644 39.444 36.269 39.6052 36.1752 39.7637L36.1752 39.7638C35.9461 40.1509 35.7264 40.5221 35.5357 40.9032Z" fill="#F2C94C"/>
</g>
<g clip-path="url(#clip2_444_287)">
<path fill-rule="evenodd" clip-rule="evenodd" d="M9 30C4.02944 30 0 34.0294 0 39C0 43.9706 4.02944 48 9 48C13.9706 48 18 43.9706 18 39C18 34.0294 13.9706 30 9 30ZM5.48504 34.1182V44.3H9.83518C10.5975 44.3 11.2388 44.1774 11.7592 43.9321C12.2795 43.6868 12.6723 43.3537 12.9375 42.9328C13.2059 42.5086 13.3402 42.0263 13.3402 41.4861C13.3402 40.9856 13.2341 40.5547 13.022 40.1935C12.8099 39.8289 12.5331 39.5455 12.1917 39.3433C11.8536 39.1411 11.4907 39.0318 11.1029 39.0152V38.9158C11.4576 38.8362 11.7724 38.702 12.0475 38.5131C12.326 38.3208 12.5447 38.0756 12.7038 37.7773C12.8629 37.4757 12.9424 37.126 12.9424 36.7283C12.9424 36.2179 12.8165 35.7671 12.5646 35.376C12.3127 34.9816 11.9365 34.6733 11.436 34.4513C10.9356 34.2292 10.3108 34.1182 9.56175 34.1182H5.48504ZM9.39271 42.5401H7.63774V39.8355H9.44243C9.78712 39.8355 10.0838 39.8968 10.3323 40.0195C10.5842 40.1421 10.7781 40.3111 10.914 40.5266C11.0499 40.742 11.1179 40.9906 11.1179 41.2723C11.1179 41.6568 10.9803 41.965 10.7052 42.197C10.4301 42.4257 9.99262 42.5401 9.39271 42.5401ZM9.23362 38.3788H7.63774V35.8582H9.27339C9.75067 35.8582 10.1186 35.9709 10.3771 36.1963C10.6389 36.4217 10.7698 36.7183 10.7698 37.0862C10.7698 37.3547 10.7019 37.585 10.566 37.7773C10.4334 37.9695 10.2511 38.1187 10.0191 38.2247C9.79044 38.3275 9.5286 38.3788 9.23362 38.3788Z" fill="#F2C94C"/>
</g>
</g>
<defs>
<clipPath id="clip0_444_287">
<rect width="48" height="48" fill="white"/>
</clipPath>
<clipPath id="clip1_444_287">
<rect width="48" height="48" rx="24" fill="white"/>
</clipPath>
<clipPath id="clip2_444_287">
<rect y="30" width="18" height="18" rx="9" fill="white"/>
</clipPath>
</defs>
</svg>
