<?xml version="1.0" encoding="UTF-8" standalone="no"?>
<!-- Created with Inkscape (http://www.inkscape.org/) -->

<svg
   width="40.108332"
   height="40.108322"
   viewBox="0 0 20.108332 20.108322"
   version="1.1"
   id="svg5"
   xml:space="preserve"><defs
     id="defs2" /><g
     id="layer1"
     transform="translate(42.465745,-101.23924)"><g
       id="g14013"><path
         style="fill:#00bbee;stroke-width:0.264583"
         d="m -33.791224,120.98357 c 0,-0.14552 -0.381984,-0.16517 -0.594807,-0.16517 -2.754085,0 -6.838265,-3.82678 -7.425615,-6.95762 -0.101105,-0.53894 -0.163118,-1.1787 -0.292443,-1.1787 -0.129326,0 -0.361659,-0.51556 -0.361659,-1.38868 0,-0.87313 0.196184,-1.38868 0.32551,-1.38868 0.129325,0 0.227487,-0.63977 0.328592,-1.1787 0.58735,-3.13085 4.67153,-6.95762 7.425615,-6.95762 0.212823,0 0.594807,0.0255 0.594807,-0.11999 0,-0.14699 0.497699,-0.40918 1.379643,-0.40918 0.881944,0 1.406755,0.2893 1.406755,0.43629 0,0.14552 0.354872,0.0929 0.567695,0.0929 2.754085,0 6.838266,3.82677 7.425615,6.95762 0.101105,0.53893 0.154081,1.16063 0.283406,1.16063 0.129326,0 0.370696,0.53362 0.370696,1.40675 0,0.87312 -0.241371,1.39772 -0.370697,1.39772 -0.129325,0 -0.1823,0.63072 -0.283405,1.16966 -0.587349,3.13084 -4.67153,6.95762 -7.425615,6.95762 -0.212823,0 -0.603844,-0.0617 -0.603844,0.0838 0,0.14699 -0.488662,0.44532 -1.370606,0.44532 -0.881944,0 -1.379643,-0.217 -1.379643,-0.36399 z"
         id="path14017"/><path
         style="display:inline;fill:#141718;stroke-width:0.264583"
         d="m -33.734498,121.08298 c 0,-0.14552 -0.233658,-0.26458 -0.519241,-0.26458 -2.955643,0 -7.054777,-3.85143 -7.577357,-7.11947 -0.09521,-0.59544 -0.276962,-1.08262 -0.403885,-1.08262 -0.126922,0 -0.230767,-0.59531 -0.230767,-1.32291 0,-0.72761 0.103845,-1.32292 0.230767,-1.32292 0.126923,0 0.30867,-0.48718 0.403885,-1.08261 0.52258,-3.26804 4.621714,-7.11947 7.577357,-7.11947 0.285583,0 0.519241,-0.11907 0.519241,-0.26459 0,-0.14552 0.595313,-0.26458 1.322917,-0.26458 0.727604,0 1.322917,0.11906 1.322917,0.26458 0,0.14552 0.233658,0.26459 0.519241,0.26459 2.955643,0 7.054777,3.85143 7.577357,7.11947 0.09521,0.59543 0.276963,1.08261 0.403885,1.08261 0.126922,0 0.230767,0.59531 0.230767,1.32292 0,0.7276 -0.103845,1.32291 -0.230767,1.32291 -0.126922,0 -0.30867,0.48718 -0.403885,1.08262 -0.52258,3.26804 -4.621714,7.11947 -7.577357,7.11947 -0.285583,0 -0.519241,0.11906 -0.519241,0.26458 0,0.14552 -0.595313,0.26458 -1.322917,0.26458 -0.727604,0 -1.322917,-0.11906 -1.322917,-0.26458 z m 4.800421,-2.10009 c 8.23217,-3.86958 5.595568,-16.00241 -3.477504,-16.00241 -9.900864,0 -11.600062,14.05386 -2.000768,16.54811 1.317287,0.34228 4.200093,0.0551 5.478272,-0.5457 z m -5.497675,-0.81806 c -4.240132,-1.3098 -6.282515,-6.05518 -4.307333,-10.00787 2.635039,-5.27318 9.901661,-5.32021 12.60574,-0.0816 2.835199,5.49264 -2.43526,11.90063 -8.298407,10.08946 z m 3.647767,-2.64482 c 5.577427,-1.54917 3.605408,-8.49207 -2.465924,-8.68179 l -2.865839,-0.0896 v 4.52133 4.52132 l 2.182813,-10e-4 c 1.200547,-8.2e-4 2.617574,-0.12223 3.14895,-0.26982 z m -2.156763,-4.22661 c 0,-1.50712 0.03273,-1.5875 0.646456,-1.5875 1.373939,0 1.888723,1.74906 0.773071,2.62663 -1.170161,0.92045 -1.419527,0.7379 -1.419527,-1.03913 z"
         id="path14015" /></g></g></svg>
