<?xml version="1.0" encoding="UTF-8" standalone="no"?>
<!-- Created with Inkscape (http://www.inkscape.org/) -->

<svg
   width="14.239716mm"
   height="9.592308mm"
   viewBox="0 0 14.239716 9.592308"
   version="1.1"
   id="svg5"
   xml:space="preserve"><defs
     id="defs2" /><g
     id="layer1"
     transform="translate(129.88929,-107.41752)"><g
       id="g19007"><path
         style="display:inline;fill:#000000;fill-opacity:1;stroke-width:0.264583"
         d="m -129.88917,112.22639 c -0.0228,-3.27811 3.30435,-4.76893 4.85659,-4.8055 1.67956,-0.0688 3.00322,0.92879 3.98754,2.22386 l 0.0128,0.35785 -2.44109,-0.0128 c -0.51983,-0.58158 -0.83087,-0.74083 -1.55923,-0.76688 -1.91808,-0.10038 -2.96186,1.47741 -2.99065,2.82453 -0.0373,2.00253 0.6523,2.76717 2.93958,3.13128 1.18216,-0.0524 1.49142,-0.36018 2.15992,-0.86912 l 1.91709,-0.0639 0.0128,0.49845 c -0.8189,0.97976 -2.4239,2.30039 -4.10257,2.26212 -2.68252,0.11553 -4.73825,-2.60691 -4.79278,-4.77989 z"
         id="path19068"/><path
         style="display:inline;fill:#fd0048;fill-opacity:1;stroke-width:0.264583"
         d="m -121.90339,109.64889 h -1.00313 c 0,0 -0.70491,-0.70491 -2.06953,-0.74106 -1.39174,0.0361 -2.31353,0.89469 -2.31353,0.89469 l -0.6778,-0.64165 c 0,0 1.12966,-1.06639 3.00037,-1.06639 1.87975,-0.0271 3.07266,1.21099 3.07266,1.21099 z"
         id="path19128"/><path
         style="display:inline;fill:#f79c33;fill-opacity:1;stroke-width:0.264583"
         d="m -127.91315,109.12472 0.69586,0.63261 c 0,0 -1.20195,0.74106 -1.22906,2.3768 0.12652,1.80745 1.08447,2.5485 1.08447,2.5485 l -0.71395,0.54224 c 0,0 -1.35558,-1.25619 -1.32847,-2.88289 -0.0181,-1.72611 1.49115,-3.21726 1.49115,-3.21726 z"
         id="path21185"/><path
         style="display:inline;fill:#fcfb00;fill-opacity:1;stroke-width:0.264583"
         d="m -128.23786,115.05284 0.71386,-0.53762 c 0,0 0.82553,0.96127 2.52535,1.01239 1.69343,-0.0319 2.48073,-1.30588 2.48073,-1.30588 l 1.14321,0.0226 c 0,0 -0.85619,2.28084 -3.57875,2.29094 -2.29092,-0.01 -3.2844,-1.48243 -3.2844,-1.48243 z"
         id="path25726" /><path
         style="display:inline;fill:#000000;fill-opacity:1;stroke-width:0.264583"
         d="m -127.55032,113.91343 1.34196,-3.97476 2.9042,0.0175 0.39764,-0.28015 2.72924,-0.0633 -0.27111,0.3886 0.22593,0.18074 0.26208,-0.28919 2.16894,0.0271 0.17171,-0.27111 0.60549,-0.0361 1.08447,1.05736 0.0181,0.62357 -0.85854,0.65068 0.0271,0.37052 0.78624,0.79528 0.0181,0.42475 0.2892,0.33438 -1.14774,1.12966 -0.26208,-0.20786 -0.26208,0.25304 -0.29822,-0.009 -0.73202,-0.80431 -0.40668,0.0361 -0.12652,0.23497 -1.08447,0.0362 -0.17171,-0.33438 -0.18074,-0.009 -0.0452,-2.3768 h -0.39764 l 0.0904,2.43102 -4.0758,-0.0361 -0.0271,-0.42475 -0.43379,0.009 0.0181,0.39764 -2.21413,-0.009 z"
         id="path31026" /><path
         style="display:inline;fill:#ffffff;fill-opacity:1;stroke-width:0.264583"
         d="m -127.05462,113.98676 -0.009,-0.73201 1.21099,-3.14497 1.58152,-0.0181 1.30136,3.27149 0.0271,0.68683 -1.44596,0.009 -0.33438,-0.64164 h -0.56031 l -0.37956,0.63261 z"
         id="path31190"/><path
         style="fill:#ffffff;fill-opacity:1;stroke-width:0.264583"
         d="m -123.62046,110.03749 0.0271,1.41884 0.75913,0.0181 0.0542,2.4491 1.67189,0.009 v -2.44006 l 0.83143,-0.0181 -0.009,-1.3104 -0.15364,-0.18978 z"
         id="path31192"/><path
         style="fill:#ffffff;fill-opacity:1;stroke-width:0.264583"
         d="m -120.22246,110.25438 1.67189,0.009 0.0452,0.68683 0.8495,-0.91276 0.36149,0.0271 0.8495,0.86758 -1.01218,1.10254 1.17485,1.60863 0.009,0.37956 -0.78624,0.63261 h -0.35246 l -1.22906,-1.59959 0.0542,0.89469 -1.54537,-0.0181 z"
         id="path31194" /><path
         style="display:inline;fill:#000000;fill-opacity:1;stroke-width:0.264583"
         d="m -125.02124,111.93531 -0.12652,0.41571 0.30727,0.009 z"
         id="path32060" /></g></g></svg>
