<?xml version="1.0" encoding="UTF-8" standalone="no"?>
<!-- Created with Inkscape (http://www.inkscape.org/) -->

<svg
   width="40.10833"
   height="40.10833"
   viewBox="0 0 20.10833 20.10833"
   version="1.1"
   id="svg5"
   xml:space="preserve"><defs
     id="defs2" /><g
     id="layer1"
     transform="translate(102.34283,-81.876638)"><g
       id="g14439"><path
         style="fill:#f3003c;stroke-width:0.264583"
         d="m -93.207407,101.34083 c 0,-0.14552 -0.625989,-0.4634 -0.838812,-0.4634 -2.754085,0 -6.422551,-3.176102 -7.009901,-6.306944 -0.1011,-0.538935 -0.45231,-1.305222 -0.58163,-1.305222 -0.12933,0 -0.70508,-0.461332 -0.70508,-1.334457 0,-0.873125 0.59382,-1.22601 0.72315,-1.22601 0.12932,0 0.44438,-0.621691 0.54548,-1.160626 0.58735,-3.130842 3.96663,-6.433459 6.720715,-6.433459 0.212823,0 1.200302,-0.100988 1.200302,-0.246509 0,-0.14699 -0.01742,-0.987563 0.86452,-0.987563 0.881944,0 1.189861,0.677902 1.189861,0.824892 0,0.145521 0.734436,0.354957 0.947259,0.354957 2.754085,0 5.898393,3.320691 6.485742,6.451533 0.101105,0.538935 0.560756,1.232924 0.690081,1.232924 0.129326,0 0.741224,0.316736 0.741224,1.189861 0,0.873125 -0.629972,1.045265 -0.759298,1.045265 -0.129325,0 -0.552828,0.965107 -0.653933,1.504042 -0.587349,3.130842 -3.78588,6.325016 -6.539965,6.325016 -0.212823,0 -0.874961,0.20943 -0.874961,0.35495 0,0.14699 -0.344066,0.82489 -1.22601,0.82489 -0.881944,0 -0.918744,-0.49715 -0.918744,-0.64414 z"
         id="path14443"/><path
         style="fill:#181415;stroke-width:0.264583"
         d="m -93.61158,101.72039 c 0,-0.14552 -0.233658,-0.26458 -0.519241,-0.26458 -2.883072,0 -6.956059,-3.749491 -7.557909,-6.957622 -0.1011,-0.538935 -0.28964,-0.979881 -0.41896,-0.979881 -0.12933,0 -0.23514,-0.714375 -0.23514,-1.5875 0,-0.873125 0.10581,-1.5875 0.23514,-1.5875 0.12932,0 0.31786,-0.440946 0.41896,-0.979881 0.60185,-3.208131 4.674837,-6.957619 7.557909,-6.957619 0.285583,0 0.519241,-0.119063 0.519241,-0.264584 0,-0.14552 0.595313,-0.264583 1.322917,-0.264583 0.727604,0 1.322917,0.119063 1.322917,0.264583 0,0.145521 0.233658,0.264584 0.519241,0.264584 2.883072,0 6.956058,3.749488 7.557907,6.957619 0.101105,0.538935 0.289639,0.979881 0.418964,0.979881 0.129326,0 0.235138,0.714375 0.235138,1.5875 0,0.873125 -0.105812,1.5875 -0.235138,1.5875 -0.129325,0 -0.317859,0.440946 -0.418964,0.979881 -0.601849,3.208131 -4.674835,6.957622 -7.557907,6.957622 -0.285583,0 -0.519241,0.11906 -0.519241,0.26458 0,0.14552 -0.595313,0.26458 -1.322917,0.26458 -0.727604,0 -1.322917,-0.11906 -1.322917,-0.26458 z m 4.894792,-2.137722 c 5.265303,-2.498596 6.494234,-9.504628 2.387563,-13.611299 -5.066222,-5.066222 -13.781045,-1.820144 -14.363175,5.349962 -0.51494,6.342608 6.223364,10.991009 11.975612,8.261337 z m -5.592046,-0.780426 c -4.240132,-1.309805 -6.282516,-6.055179 -4.307333,-10.007869 2.635039,-5.273179 9.901661,-5.320214 12.60574,-0.08159 2.835199,5.49264 -2.43526,11.900627 -8.298407,10.089464 z m 4.220378,-2.407517 c 1.465316,-0.757057 1.553672,-1.000659 0.768893,-2.119881 -0.612226,-0.873134 -0.819263,-0.999429 -1.3816,-0.842796 -2.427034,0.676025 -3.998067,-0.912685 -2.62663,-2.656185 0.573796,-0.729463 1.487702,-0.900491 2.348928,-0.439577 0.64402,0.344669 2.091158,-1.690661 1.674643,-2.355306 -0.973039,-1.552711 -4.574796,-1.181226 -6.339485,0.653853 -3.588343,3.731476 0.985696,10.120756 5.555251,7.759892 z"
         id="path14441" /></g></g></svg>
