<?xml version="1.0" encoding="UTF-8" standalone="no"?>
<!-- Created with Inkscape (http://www.inkscape.org/) -->

<svg
   width="40.108337"
   height="40.10833"
   viewBox="0 0 20.108337 20.10833"
   version="1.1"
   id="svg5"
   xml:space="preserve"><defs
     id="defs2" /><g
     id="layer1"
     transform="translate(70.889795,-89.404409)"><g
       id="g14382"><path
         style="fill:#e8872d;stroke-width:0.264583"
         d="m -61.899122,108.99255 c 0,-0.14552 -0.715211,-0.54691 -1.042633,-0.54834 -2.651496,-0.0115 -6.880771,-4.35581 -6.892283,-7.00731 -0.0014,-0.32742 -0.172769,-0.76146 -0.31829,-0.76146 -0.14699,0 -0.737465,-0.33492 -0.737465,-1.216862 0,-0.881944 0.667159,-1.306327 0.814149,-1.306327 0.145521,0 0.214624,-0.357355 0.216045,-0.684777 0.01151,-2.651496 4.585862,-7.021357 7.237358,-7.032869 0.327422,-0.0014 0.825364,-0.275014 0.825364,-0.420535 0,-0.14699 0.07931,-0.609659 0.961251,-0.609659 0.881944,0 1.089057,0.782184 1.089057,0.929174 0,0.145521 0.716794,0.0944 1.042634,0.126581 2.574812,0.254342 6.561255,4.112981 6.866721,6.675012 0.03876,0.325123 0.03218,0.876487 0.177704,0.876487 0.146991,0 0.878051,0.564969 0.878051,1.446913 0,0.881942 -0.616035,1.140182 -0.763026,1.140182 -0.145521,0 -0.278528,0.60018 -0.279949,0.9276 -0.01151,2.6515 -4.228005,6.94468 -6.879501,6.95619 -0.327422,10e-4 -0.812583,0.14721 -0.812583,0.29273 0,0.14699 -0.437164,0.73746 -1.319108,0.73746 -0.881944,0 -1.063496,-0.3732 -1.063496,-0.52019 z"
         id="path14386"/><path
         style="display:inline;fill:#191715;stroke-width:0.264583"
         d="m -62.158543,109.24816 c 0,-0.14552 -0.26789,-0.26468 -0.595312,-0.26479 -2.818631,-9.9e-4 -7.605574,-4.78793 -7.606563,-7.60656 -1.14e-4,-0.32742 -0.119271,-0.59532 -0.264792,-0.59532 -0.14552,0 -0.264583,-0.59531 -0.264583,-1.322912 0,-0.727604 0.119063,-1.322917 0.264583,-1.322917 0.145521,0 0.264678,-0.26789 0.264792,-0.595312 9.89e-4,-2.818631 4.787932,-7.605574 7.606563,-7.606563 0.327422,-1.14e-4 0.595312,-0.119271 0.595312,-0.264792 0,-0.14552 0.595313,-0.264583 1.322917,-0.264583 0.727604,0 1.322917,0.119063 1.322917,0.264583 0,0.145521 0.26789,0.264678 0.595312,0.264792 2.818631,9.89e-4 7.605574,4.787932 7.606563,7.606563 1.14e-4,0.327422 0.119271,0.595312 0.264792,0.595312 0.14552,0 0.264583,0.595313 0.264583,1.322917 0,0.727602 -0.119063,1.322912 -0.264583,1.322912 -0.145521,0 -0.264678,0.2679 -0.264792,0.59532 -9.89e-4,2.81863 -4.787932,7.60557 -7.606563,7.60656 -0.327422,1.1e-4 -0.595312,0.11927 -0.595312,0.26479 0,0.14552 -0.595313,0.26458 -1.322917,0.26458 -0.727604,0 -1.322917,-0.11906 -1.322917,-0.26458 z m 5.305534,-2.40999 c 4.117362,-2.19453 5.653583,-7.227617 3.447753,-11.295792 -4.211088,-7.766437 -15.775573,-4.892968 -15.761033,3.9162 0.01073,6.499592 6.578864,10.436002 12.31328,7.379592 z m -7.119051,-1.05209 c -5.334215,-2.66554 -5.334215,-9.989467 0,-12.655006 4.733565,-2.36539 10.268563,1.045284 10.268563,6.327504 0,5.282222 -5.534998,8.692892 -10.268563,6.327502 z m 6.308512,-2.22495 c 1.648966,-0.85271 2.161237,-3.02662 0.989356,-4.198504 -0.490738,-0.490739 -0.583176,-0.826001 -0.503601,-1.826519 0.169317,-2.128891 -0.554578,-2.575446 -4.174973,-2.575446 h -2.922443 v 4.497917 4.497912 h 2.923556 c 2.076262,0 3.145134,-0.11458 3.688105,-0.39536 z m -3.701245,-2.51505 c 0,-0.49472 0.130364,-0.55016 1.12448,-0.47824 0.786988,0.0569 1.124479,0.20048 1.124479,0.47824 0,0.27776 -0.337491,0.42129 -1.124479,0.47823 -0.994116,0.0719 -1.12448,0.0165 -1.12448,-0.47823 z m 0,-3.45716 c 0,-0.440001 0.141608,-0.530396 0.725342,-0.46302 1.081955,0.12488 1.158904,1.009761 0.08781,1.009761 -0.645474,0 -0.813151,-0.112741 -0.813152,-0.546741 z"
         id="path14384" /></g></g></svg>
