<svg  viewBox="0 0 32 32" fill="none" xmlns="http://www.w3.org/2000/svg">
<g clip-path="url(#clip0_372_160)">
<g clip-path="url(#clip1_372_160)">
<path fill-rule="evenodd" clip-rule="evenodd" d="M32 0H0V32H32V0ZM12.1515 19.1384V21.1579C11.9128 21.6752 11.7902 22.2429 11.7934 22.843C11.7875 23.9342 12.1935 24.9212 12.9574 25.696L12.9673 25.7061L12.9774 25.716C13.7563 26.4839 14.747 26.8884 15.839 26.8884C16.554 26.8884 17.2425 26.7047 17.8642 26.3363L17.8759 26.3293L17.8875 26.3222C18.4637 25.9701 18.9375 25.4969 19.2902 24.9212C19.6755 24.296 19.8732 23.5997 19.8842 22.8732L19.8846 22.8479L19.8843 22.8225C19.8772 22.1297 19.7031 21.4852 19.3816 20.9136V19.1551C19.3863 18.7634 19.4354 18.5359 19.4734 18.424C19.5162 18.314 19.5744 18.2232 19.6558 18.1387C19.8015 17.9946 20.0273 17.8163 20.3644 17.6157L20.3654 17.6151C21.0249 17.2223 21.6229 16.7681 22.1452 16.2458L22.1503 16.2407L22.1554 16.2356C22.7228 15.6599 23.1685 14.9948 23.4835 14.2506C23.8277 13.4451 23.9753 12.5805 23.9753 11.6952C23.9753 10.3557 23.6367 9.0895 22.8711 7.99823C22.1424 6.95962 21.1521 6.19835 19.9755 5.69754C18.8137 5.19731 17.5376 4.97363 16.1884 4.97363C14.9178 4.97363 13.7048 5.20259 12.5773 5.69029C11.3907 6.19763 10.4082 6.98821 9.67284 8.0456C8.87941 9.18055 8.53148 10.5261 8.49583 11.9521L8.44458 14.002H13.691C13.1166 14.6335 12.7383 15.3922 12.499 16.1949L12.4965 16.2034L12.494 16.2119C12.2512 17.0538 12.1577 18.0528 12.1515 19.1327L12.1515 19.1384ZM17.3816 19.4339H14.1515V19.1441C14.1552 18.4855 14.1951 17.9155 14.2712 17.4339C14.3099 17.1883 14.3581 16.9658 14.4157 16.7662C14.5918 16.1753 14.8475 15.6981 15.1827 15.3344C15.5179 14.9708 15.9213 14.6412 16.3929 14.3458C16.7452 14.1185 17.0605 13.8827 17.339 13.6384C17.6174 13.3941 17.839 13.1242 18.0037 12.8287C18.1685 12.5276 18.2509 12.1924 18.2509 11.8231C18.2509 11.431 18.1571 11.0873 17.9696 10.7918C17.7821 10.4964 17.5293 10.2691 17.2111 10.11C16.8986 9.9509 16.552 9.87136 16.1713 9.87136C15.802 9.87136 15.4526 9.95375 15.123 10.1185C14.7935 10.2776 14.5236 10.5162 14.3134 10.8344C14.1032 11.1469 13.9895 11.5361 13.9725 12.002H10.4952C10.5141 11.2478 10.6406 10.5811 10.8747 10.002C10.9933 9.70873 11.1395 9.43789 11.3134 9.18954C11.8304 8.44522 12.5151 7.89125 13.3674 7.52761C14.2196 7.15829 15.16 6.97363 16.1884 6.97363C17.3191 6.97363 18.3191 7.16113 19.1884 7.53613C20.0577 7.90545 20.7395 8.44238 21.2338 9.14693C21.7282 9.85147 21.9753 10.7009 21.9753 11.6952C21.9753 12.36 21.8645 12.9509 21.6429 13.4679C21.427 13.9793 21.123 14.4339 20.731 14.8316C20.339 15.2236 19.8759 15.5787 19.3418 15.8969C18.8929 16.164 18.5236 16.4424 18.2338 16.7322C17.9498 17.0219 17.7367 17.3572 17.5946 17.7378C17.46 18.1137 17.3891 18.5754 17.3818 19.123L17.3816 19.1441V19.4339ZM13.7935 22.843C13.7879 22.2967 13.9765 21.827 14.3591 21.4339L14.3816 21.4111C14.785 21.0134 15.2708 20.8145 15.839 20.8145C16.3787 20.8145 16.8532 21.0134 17.2623 21.4111L17.2853 21.4339C17.6791 21.827 17.8788 22.2967 17.8844 22.843C17.8787 23.218 17.7793 23.5617 17.5861 23.8742C17.3986 24.181 17.1515 24.4282 16.8446 24.6157C16.5378 24.7975 16.2026 24.8884 15.839 24.8884C15.2708 24.8884 14.785 24.6895 14.3816 24.2918C13.9838 23.8884 13.7878 23.4055 13.7935 22.843Z" fill="#828282"/>
<path d="M14.1516 19.4339V19.1441C14.1573 18.1498 14.2454 17.3572 14.4158 16.7662C14.592 16.1753 14.8476 15.6981 15.1829 15.3344C15.5181 14.9708 15.9215 14.6412 16.3931 14.3458C16.7454 14.1185 17.0607 13.8827 17.3391 13.6384C17.6175 13.3941 17.8391 13.1242 18.0039 12.8287C18.1687 12.5276 18.251 12.1924 18.251 11.8231C18.251 11.431 18.1573 11.0873 17.9698 10.7918C17.7823 10.4964 17.5295 10.2691 17.2113 10.11C16.8988 9.95091 16.5522 9.87136 16.1715 9.87136C15.8022 9.87136 15.4527 9.95375 15.1232 10.1185C14.7937 10.2776 14.5238 10.5162 14.3135 10.8344C14.1033 11.1469 13.9897 11.5361 13.9726 12.002H10.4954C10.5238 10.8657 10.7965 9.92818 11.3135 9.18954C11.8306 8.44522 12.5152 7.89125 13.3675 7.52761C14.2198 7.15829 15.1601 6.97363 16.1885 6.97363C17.3192 6.97363 18.3192 7.16113 19.1885 7.53613C20.0579 7.90545 20.7397 8.44238 21.234 9.14693C21.7283 9.85147 21.9755 10.7009 21.9755 11.6952C21.9755 12.36 21.8647 12.9509 21.6431 13.468C21.4272 13.9793 21.1232 14.4339 20.7312 14.8316C20.3391 15.2236 19.876 15.5787 19.342 15.8969C18.8931 16.164 18.5238 16.4424 18.234 16.7322C17.9499 17.0219 17.7368 17.3572 17.5948 17.7378C17.4584 18.1185 17.3874 18.5873 17.3817 19.1441V19.4339H14.1516ZM15.8391 24.8884C15.2709 24.8884 14.7851 24.6895 14.3817 24.2918C13.984 23.8884 13.788 23.4055 13.7937 22.843C13.788 22.2861 13.984 21.8089 14.3817 21.4111C14.7851 21.0134 15.2709 20.8145 15.8391 20.8145C16.3789 20.8145 16.8533 21.0134 17.2624 21.4111C17.6715 21.8089 17.8789 22.2861 17.8846 22.843C17.8789 23.218 17.7795 23.5617 17.5863 23.8742C17.3988 24.181 17.1516 24.4282 16.8448 24.6157C16.538 24.7975 16.2027 24.8884 15.8391 24.8884Z" fill="#F2F2F2"/>
</g>
</g>
<defs>
<clipPath id="clip0_372_160">
<rect width="32" height="32" fill="white"/>
</clipPath>
<clipPath id="clip1_372_160">
<rect width="32" height="32" rx="16" fill="white"/>
</clipPath>
</defs>
</svg>
