<svg width="32" height="32" viewBox="0 0 32 32" fill="none" xmlns="http://www.w3.org/2000/svg">
<rect width="32" height="32" fill="#222222"/>
<rect x="4.5" y="4.5" width="23" height="23" rx="11.5" fill="#CD1818"/>
<rect x="4.5" y="4.5" width="23" height="23" rx="11.5" fill="url(#paint0_radial_347_33)" fill-opacity="0.65" style="mix-blend-mode:overlay"/>
<path d="M8.35032 20.5V11.7727H10.1955V15.3736H13.9412V11.7727H15.7821V20.5H13.9412V16.8949H10.1955V20.5H8.35032ZM22.0378 14.2827C22.0037 13.9389 21.8574 13.6719 21.5989 13.4815C21.3404 13.2912 20.9895 13.196 20.5463 13.196C20.2452 13.196 19.9909 13.2386 19.7836 13.3239C19.5762 13.4062 19.4171 13.5213 19.3063 13.669C19.1983 13.8168 19.1444 13.9844 19.1444 14.1719C19.1387 14.3281 19.1713 14.4645 19.2424 14.581C19.3162 14.6974 19.4171 14.7983 19.5449 14.8835C19.6728 14.9659 19.8205 15.0384 19.9881 15.1009C20.1557 15.1605 20.3347 15.2116 20.525 15.2543L21.3091 15.4418C21.6898 15.527 22.0392 15.6406 22.3574 15.7827C22.6756 15.9247 22.9512 16.0994 23.1841 16.3068C23.4171 16.5142 23.5975 16.7585 23.7253 17.0398C23.856 17.321 23.9228 17.6435 23.9256 18.0071C23.9228 18.5412 23.7864 19.0043 23.5165 19.3963C23.2495 19.7855 22.8631 20.0881 22.3574 20.304C21.8546 20.517 21.248 20.6236 20.5378 20.6236C19.8333 20.6236 19.2196 20.5156 18.6969 20.2997C18.177 20.0838 17.7708 19.7642 17.4782 19.3409C17.1884 18.9148 17.0364 18.3878 17.0222 17.7599H18.8077C18.8276 18.0526 18.9114 18.2969 19.0591 18.4929C19.2097 18.6861 19.41 18.8324 19.66 18.9318C19.9128 19.0284 20.1983 19.0767 20.5165 19.0767C20.829 19.0767 21.1003 19.0312 21.3304 18.9403C21.5634 18.8494 21.7438 18.723 21.8716 18.5611C21.9995 18.3991 22.0634 18.2131 22.0634 18.0028C22.0634 17.8068 22.0051 17.642 21.8887 17.5085C21.775 17.375 21.6074 17.2614 21.3858 17.1676C21.1671 17.0739 20.8986 16.9886 20.5804 16.9119L19.6301 16.6733C18.8944 16.4943 18.3134 16.2145 17.8873 15.8338C17.4611 15.4531 17.2495 14.9403 17.2523 14.2955C17.2495 13.767 17.3901 13.3054 17.6742 12.9105C17.9611 12.5156 18.3546 12.2074 18.8546 11.9858C19.3546 11.7642 19.9228 11.6534 20.5591 11.6534C21.2069 11.6534 21.7722 11.7642 22.2551 11.9858C22.7409 12.2074 23.1188 12.5156 23.3887 12.9105C23.6586 13.3054 23.7978 13.7628 23.8063 14.2827H22.0378Z" fill="#F2F2F2"/>
<path d="M8.35032 20.5H6.85032V22H8.35032V20.5ZM8.35032 11.7727V10.2727H6.85032V11.7727H8.35032ZM10.1955 11.7727H11.6955V10.2727H10.1955V11.7727ZM10.1955 15.3736H8.69549V16.8736H10.1955V15.3736ZM13.9412 15.3736V16.8736H15.4412V15.3736H13.9412ZM13.9412 11.7727V10.2727H12.4412V11.7727H13.9412ZM15.7821 11.7727H17.2821V10.2727H15.7821V11.7727ZM15.7821 20.5V22H17.2821V20.5H15.7821ZM13.9412 20.5H12.4412V22H13.9412V20.5ZM13.9412 16.8949H15.4412V15.3949H13.9412V16.8949ZM10.1955 16.8949V15.3949H8.69549V16.8949H10.1955ZM10.1955 20.5V22H11.6955V20.5H10.1955ZM9.85032 20.5V11.7727H6.85032V20.5H9.85032ZM8.35032 13.2727H10.1955V10.2727H8.35032V13.2727ZM8.69549 11.7727V15.3736H11.6955V11.7727H8.69549ZM10.1955 16.8736H13.9412V13.8736H10.1955V16.8736ZM15.4412 15.3736V11.7727H12.4412V15.3736H15.4412ZM13.9412 13.2727H15.7821V10.2727H13.9412V13.2727ZM14.2821 11.7727V20.5H17.2821V11.7727H14.2821ZM15.7821 19H13.9412V22H15.7821V19ZM15.4412 20.5V16.8949H12.4412V20.5H15.4412ZM13.9412 15.3949H10.1955V18.3949H13.9412V15.3949ZM8.69549 16.8949V20.5H11.6955V16.8949H8.69549ZM10.1955 19H8.35032V22H10.1955V19ZM22.0378 14.2827L20.5451 14.4307L20.6792 15.7827H22.0378V14.2827ZM19.7836 13.3239L20.3374 14.7179L20.3456 14.7146L20.3537 14.7113L19.7836 13.3239ZM19.3063 13.669L18.1063 12.769L18.1007 12.7765L18.0952 12.784L19.3063 13.669ZM19.1444 14.1719L20.6434 14.2264L20.6444 14.1991V14.1719H19.1444ZM19.2424 14.581L17.9617 15.3619L17.9685 15.3731L17.9756 15.3843L19.2424 14.581ZM19.5449 14.8835L18.7129 16.1316L18.7226 16.1381L18.7324 16.1444L19.5449 14.8835ZM19.9881 15.1009L19.464 16.5063L19.4745 16.5102L19.4851 16.514L19.9881 15.1009ZM20.525 15.2543L20.8739 13.7954L20.8633 13.7929L20.8527 13.7905L20.525 15.2543ZM21.3091 15.4418L20.9603 16.9006L20.9708 16.9032L20.9814 16.9055L21.3091 15.4418ZM22.3574 15.7827L21.7459 17.1524L21.7459 17.1524L22.3574 15.7827ZM23.1841 16.3068L24.1815 15.1865L24.1815 15.1865L23.1841 16.3068ZM23.7253 17.0398L22.3597 17.6605L22.365 17.6718L23.7253 17.0398ZM23.9256 18.0071L25.4256 18.0151L25.4256 18.0052L25.4256 17.9954L23.9256 18.0071ZM23.5165 19.3963L22.281 18.5458L22.2797 18.5477L23.5165 19.3963ZM22.3574 20.304L22.9426 21.6851L22.9464 21.6835L22.3574 20.304ZM18.6969 20.2997L18.1216 21.685L18.1243 21.6861L18.6969 20.2997ZM17.4782 19.3409L16.2377 20.1844L16.2443 20.1939L17.4782 19.3409ZM17.0222 17.7599V16.2599H15.4879L15.5226 17.7939L17.0222 17.7599ZM18.8077 17.7599L20.3043 17.6582L20.2092 16.2599H18.8077V17.7599ZM19.0591 18.4929L17.8612 19.3957L17.8685 19.4054L17.876 19.415L19.0591 18.4929ZM19.66 18.9318L19.1056 20.3256L19.1151 20.3294L19.1247 20.3331L19.66 18.9318ZM21.3304 18.9403L20.7851 17.543L20.7793 17.5453L21.3304 18.9403ZM21.8716 18.5611L23.049 19.4905L23.049 19.4905L21.8716 18.5611ZM21.8887 17.5085L20.7464 18.4807L20.7523 18.4877L20.7583 18.4946L21.8887 17.5085ZM21.3858 17.1676L20.7949 18.5463L20.8014 18.5491L21.3858 17.1676ZM20.5804 16.9119L20.2151 18.3668L20.222 18.3685L20.2289 18.3702L20.5804 16.9119ZM19.6301 16.6733L19.9955 15.2184L19.9847 15.2158L19.6301 16.6733ZM17.8873 15.8338L16.8879 16.9524L16.8879 16.9524L17.8873 15.8338ZM17.2523 14.2955L18.7523 14.3021L18.7523 14.2947L18.7523 14.2874L17.2523 14.2955ZM17.6742 12.9105L16.4607 12.0288L16.4565 12.0345L17.6742 12.9105ZM22.2551 11.9858L21.6296 13.3491L21.6326 13.3505L22.2551 11.9858ZM23.3887 12.9105L22.1503 13.7569L22.1503 13.7569L23.3887 12.9105ZM23.8063 14.2827V15.7827H25.3311L25.3061 14.2581L23.8063 14.2827ZM23.5305 14.1346C23.4581 13.4042 23.1171 12.7366 22.4882 12.2736L20.7096 14.6895C20.6728 14.6624 20.6244 14.6136 20.587 14.5453C20.5698 14.5139 20.559 14.4858 20.5526 14.4641C20.5495 14.4536 20.5476 14.4452 20.5465 14.4394C20.5454 14.4337 20.5451 14.4307 20.5451 14.4307L23.5305 14.1346ZM22.4882 12.2736C21.8903 11.8333 21.1904 11.696 20.5463 11.696V14.696C20.6631 14.696 20.7261 14.7088 20.7492 14.7151C20.7692 14.7205 20.748 14.7178 20.7096 14.6895L22.4882 12.2736ZM20.5463 11.696C20.1129 11.696 19.6522 11.7561 19.2134 11.9365L20.3537 14.7113C20.3297 14.7211 20.3776 14.696 20.5463 14.696V11.696ZM19.2298 11.9298C18.8193 12.0929 18.4144 12.3582 18.1063 12.769L20.5063 14.569C20.4197 14.6845 20.333 14.7196 20.3374 14.7179L19.2298 11.9298ZM18.0952 12.784C17.7946 13.1954 17.6444 13.6746 17.6444 14.1719H20.6444C20.6444 14.2241 20.6365 14.2912 20.6126 14.3653C20.5886 14.4398 20.5541 14.5037 20.5174 14.5541L18.0952 12.784ZM17.6453 14.1174C17.6306 14.5233 17.7161 14.9591 17.9617 15.3619L20.5231 13.8001C20.6266 13.9699 20.6468 14.1329 20.6434 14.2264L17.6453 14.1174ZM17.9756 15.3843C18.1739 15.6969 18.4306 15.9434 18.7129 16.1316L20.377 13.6354C20.4036 13.6532 20.4586 13.6979 20.5091 13.7777L17.9756 15.3843ZM18.7324 16.1444C18.9651 16.2944 19.2125 16.4125 19.464 16.5063L20.5122 13.6954C20.4285 13.6642 20.3804 13.6375 20.3575 13.6227L18.7324 16.1444ZM19.4851 16.514C19.7152 16.5959 19.9532 16.6634 20.1973 16.718L20.8527 13.7905C20.7162 13.7599 20.5962 13.7251 20.4911 13.6877L19.4851 16.514ZM20.1762 16.7131L20.9603 16.9006L21.658 13.9829L20.8739 13.7954L20.1762 16.7131ZM20.9814 16.9055C21.276 16.9715 21.5291 17.0556 21.7459 17.1524L22.9689 14.413C22.5494 14.2257 22.1036 14.0825 21.6368 13.978L20.9814 16.9055ZM21.7459 17.1524C21.9397 17.2389 22.0815 17.3335 22.1867 17.4272L24.1815 15.1865C23.8209 14.8654 23.4115 14.6105 22.9689 14.413L21.7459 17.1524ZM22.1867 17.4272C22.265 17.4969 22.3193 17.5715 22.3598 17.6605L25.0909 16.4191C24.8756 15.9456 24.5691 15.5315 24.1815 15.1865L22.1867 17.4272ZM22.365 17.6718C22.3911 17.728 22.4242 17.8329 22.4256 18.0188L25.4256 17.9954C25.4213 17.454 25.3209 16.9141 25.0856 16.4077L22.365 17.6718ZM22.4256 17.9991C22.4242 18.2703 22.3597 18.4313 22.281 18.5458L24.7521 20.2469C25.2131 19.5772 25.4213 18.812 25.4256 18.0151L22.4256 17.9991ZM22.2797 18.5477C22.1989 18.6654 22.0561 18.8016 21.7684 18.9245L22.9464 21.6835C23.6701 21.3745 24.3001 20.9056 24.7534 20.245L22.2797 18.5477ZM21.7722 18.9228C21.5011 19.0377 21.1046 19.1236 20.5378 19.1236V22.1236C21.3915 22.1236 22.2081 21.9964 22.9426 21.6851L21.7722 18.9228ZM20.5378 19.1236C19.9831 19.1236 19.572 19.0383 19.2696 18.9133L18.1243 21.6861C18.8673 21.993 19.6835 22.1236 20.5378 22.1236V19.1236ZM19.2722 18.9144C18.9924 18.7982 18.8255 18.6521 18.712 18.488L16.2443 20.1939C16.716 20.8763 17.3616 21.3694 18.1216 21.685L19.2722 18.9144ZM18.7186 18.4974C18.6239 18.3582 18.5309 18.1283 18.5218 17.726L15.5226 17.7939C15.5419 18.6472 15.7529 19.4713 16.2378 20.1844L18.7186 18.4974ZM17.0222 19.2599H18.8077V16.2599H17.0222V19.2599ZM17.3112 17.8617C17.3469 18.3872 17.5067 18.9252 17.8612 19.3957L20.257 17.5901C20.2832 17.6248 20.2977 17.6565 20.3043 17.6759C20.3104 17.6936 20.3065 17.6908 20.3043 17.6582L17.3112 17.8617ZM17.876 19.415C18.2064 19.8388 18.633 20.1376 19.1056 20.3256L20.2143 17.538C20.1969 17.5311 20.197 17.5289 20.2071 17.5363C20.2119 17.5398 20.2179 17.5447 20.2244 17.551C20.231 17.5574 20.237 17.5641 20.2422 17.5708L17.876 19.415ZM19.1247 20.3331C19.5756 20.5053 20.0469 20.5767 20.5165 20.5767V17.5767C20.3498 17.5767 20.2501 17.5515 20.1953 17.5306L19.1247 20.3331ZM20.5165 20.5767C20.97 20.5767 21.4365 20.5112 21.8816 20.3354L20.7793 17.5453C20.7641 17.5513 20.688 17.5767 20.5165 17.5767V20.5767ZM21.8757 20.3377C22.3046 20.1704 22.724 19.9022 23.049 19.4905L20.6943 17.6316C20.7267 17.5906 20.7584 17.5638 20.7796 17.549C20.7996 17.5349 20.8048 17.5353 20.7851 17.543L21.8757 20.3377ZM23.049 19.4905C23.39 19.0585 23.5634 18.5434 23.5634 18.0028H20.5634C20.5634 17.9535 20.5713 17.887 20.5968 17.8128C20.6224 17.7382 20.6586 17.6769 20.6943 17.6316L23.049 19.4905ZM23.5634 18.0028C23.5634 17.4857 23.3997 16.9589 23.019 16.5225L20.7583 18.4946C20.6939 18.4207 20.6403 18.3308 20.6054 18.2321C20.5714 18.1357 20.5634 18.0546 20.5634 18.0028H23.5634ZM23.031 16.5363C22.7202 16.1712 22.3313 15.9389 21.9703 15.7862L20.8014 18.5491C20.8383 18.5647 20.8466 18.5719 20.836 18.5647C20.8248 18.5571 20.7895 18.5313 20.7464 18.4807L23.031 16.5363ZM21.9767 15.7889C21.6579 15.6523 21.304 15.5434 20.932 15.4537L20.2289 18.3702C20.4933 18.4339 20.6763 18.4955 20.795 18.5463L21.9767 15.7889ZM20.9458 15.4571L19.9955 15.2185L19.2648 18.1281L20.2151 18.3668L20.9458 15.4571ZM19.9847 15.2158C19.4134 15.0768 19.0789 14.8869 18.8866 14.7152L16.8879 16.9524C17.5479 17.542 18.3753 17.9118 19.2756 18.1308L19.9847 15.2158ZM18.8866 14.7152C18.8238 14.6591 18.7511 14.5789 18.7523 14.3021L15.7523 14.2888C15.7479 15.3018 16.0984 16.2471 16.8879 16.9524L18.8866 14.7152ZM18.7523 14.2874C18.751 14.0472 18.8091 13.9015 18.8918 13.7865L16.4565 12.0345C15.9711 12.7093 15.7479 13.4869 15.7523 14.3035L18.7523 14.2874ZM18.8877 13.7922C19.0013 13.6359 19.1741 13.4849 19.4623 13.3572L18.2468 10.6144C17.535 10.9299 16.921 11.3953 16.4607 12.0288L18.8877 13.7922ZM19.4623 13.3572C19.7422 13.2331 20.0982 13.1534 20.5591 13.1534V10.1534C19.7474 10.1534 18.967 10.2953 18.2468 10.6144L19.4623 13.3572ZM20.5591 13.1534C21.0372 13.1534 21.381 13.2351 21.6296 13.3491L22.8807 10.6225C22.1634 10.2933 21.3765 10.1534 20.5591 10.1534V13.1534ZM21.6326 13.3505C21.8995 13.4722 22.0521 13.6132 22.1503 13.7569L24.6271 12.0641C24.1855 11.418 23.5824 10.9425 22.8777 10.6211L21.6326 13.3505ZM22.1503 13.7569C22.24 13.8882 22.3023 14.0543 22.3065 14.3073L25.3061 14.2581C25.2932 13.4713 25.0771 12.7226 24.6271 12.0641L22.1503 13.7569ZM23.8063 12.7827H22.0378V15.7827H23.8063V12.7827Z" fill="#0E0E10"/>
<rect x="4.5" y="4.5" width="23" height="23" rx="11.5" stroke="#0E0E10"/>
<defs>
<radialGradient id="paint0_radial_347_33" cx="0" cy="0" r="1" gradientUnits="userSpaceOnUse" gradientTransform="translate(16 16) rotate(90) scale(12)">
<stop offset="0.679935" stop-opacity="0"/>
<stop offset="1"/>
</radialGradient>
</defs>
</svg>
