<svg width="32" height="32" viewBox="0 0 32 32" fill="none" xmlns="http://www.w3.org/2000/svg">
<rect width="32" height="32" fill="#222222"/>
<circle cx="16" cy="16" r="6.5" fill="#BDBDBD"/>
<circle cx="16" cy="16" r="6.5" fill="url(#paint0_radial_347_47)" fill-opacity="0.25"/>
<circle cx="16" cy="16" r="6.5" stroke="#0E0E10"/>
<mask id="path-2-outside-1_347_47" maskUnits="userSpaceOnUse" x="15" y="9.10254" width="16" height="13" fill="black">
<rect fill="white" x="15" y="9.10254" width="16" height="13"/>
<path fill-rule="evenodd" clip-rule="evenodd" d="M24.5 19.8968L29 15.9997L24.5 12.1025V14.4H17.5C16.6716 14.4 16 15.0716 16 15.9C16 16.7284 16.6716 17.4 17.5 17.4H24.5V19.8968Z"/>
</mask>
<path fill-rule="evenodd" clip-rule="evenodd" d="M24.5 19.8968L29 15.9997L24.5 12.1025V14.4H17.5C16.6716 14.4 16 15.0716 16 15.9C16 16.7284 16.6716 17.4 17.5 17.4H24.5V19.8968Z" fill="#F2C94C"/>
<path fill-rule="evenodd" clip-rule="evenodd" d="M24.5 19.8968L29 15.9997L24.5 12.1025V14.4H17.5C16.6716 14.4 16 15.0716 16 15.9C16 16.7284 16.6716 17.4 17.5 17.4H24.5V19.8968Z" fill="url(#paint1_radial_347_47)" fill-opacity="0.45"/>
<path d="M29 15.9997L29.6547 16.7556L30.5275 15.9997L29.6547 15.2437L29 15.9997ZM24.5 19.8968H23.5V22.0857L25.1547 20.6527L24.5 19.8968ZM24.5 12.1025L25.1547 11.3466L23.5 9.91364V12.1025H24.5ZM24.5 14.4V15.4H25.5V14.4H24.5ZM24.5 17.4H25.5V16.4H24.5V17.4ZM28.3453 15.2437L23.8453 19.1408L25.1547 20.6527L29.6547 16.7556L28.3453 15.2437ZM23.8453 12.8585L28.3453 16.7556L29.6547 15.2437L25.1547 11.3466L23.8453 12.8585ZM25.5 14.4V12.1025H23.5V14.4H25.5ZM17.5 15.4H24.5V13.4H17.5V15.4ZM17 15.9C17 15.6239 17.2239 15.4 17.5 15.4V13.4C16.1193 13.4 15 14.5193 15 15.9H17ZM17.5 16.4C17.2239 16.4 17 16.1761 17 15.9H15C15 17.2807 16.1193 18.4 17.5 18.4V16.4ZM24.5 16.4H17.5V18.4H24.5V16.4ZM25.5 19.8968V17.4H23.5V19.8968H25.5Z" fill="#0E0E10" mask="url(#path-2-outside-1_347_47)"/>
<defs>
<radialGradient id="paint0_radial_347_47" cx="0" cy="0" r="1" gradientUnits="userSpaceOnUse" gradientTransform="translate(16 16) rotate(90) scale(6)">
<stop stop-opacity="0"/>
<stop offset="1"/>
</radialGradient>
<radialGradient id="paint1_radial_347_47" cx="0" cy="0" r="1" gradientUnits="userSpaceOnUse" gradientTransform="translate(16 18) rotate(-17.1027) scale(13.6015 13.6437)">
<stop stop-color="#DE0000"/>
<stop offset="1" stop-color="#DE0000" stop-opacity="0"/>
</radialGradient>
</defs>
</svg>
