<svg width="32" height="32" viewBox="0 0 32 32" fill="none" xmlns="http://www.w3.org/2000/svg">
<rect width="32" height="32" fill="#222222"/>
<circle cx="16" cy="16" r="6.5" fill="#BDBDBD"/>
<circle cx="16" cy="16" r="6.5" fill="url(#paint0_radial_347_70)" fill-opacity="0.25"/>
<circle cx="16" cy="16" r="6.5" stroke="#0E0E10"/>
<mask id="path-2-outside-1_347_70" maskUnits="userSpaceOnUse" x="13.1714" y="13.25" width="19" height="16" fill="black">
<rect fill="white" x="13.1714" y="13.25" width="19" height="16"/>
<path fill-rule="evenodd" clip-rule="evenodd" d="M17.5001 14.25C16.8097 14.25 16.2501 14.8096 16.2501 15.5C16.2501 16.1904 16.8097 16.75 17.5001 16.75H22.5995L15.7814 21.6201C14.6335 22.44 15.2135 24.25 16.6241 24.25H25.5001V26.8981L30.0001 23.001L25.5001 19.1039V21.75H19.9006L26.7188 16.8799C27.8666 16.06 27.2866 14.25 25.876 14.25H17.5001Z"/>
</mask>
<path fill-rule="evenodd" clip-rule="evenodd" d="M17.5001 14.25C16.8097 14.25 16.2501 14.8096 16.2501 15.5C16.2501 16.1904 16.8097 16.75 17.5001 16.75H22.5995L15.7814 21.6201C14.6335 22.44 15.2135 24.25 16.6241 24.25H25.5001V26.8981L30.0001 23.001L25.5001 19.1039V21.75H19.9006L26.7188 16.8799C27.8666 16.06 27.2866 14.25 25.876 14.25H17.5001Z" fill="#F2C94C"/>
<path fill-rule="evenodd" clip-rule="evenodd" d="M17.5001 14.25C16.8097 14.25 16.2501 14.8096 16.2501 15.5C16.2501 16.1904 16.8097 16.75 17.5001 16.75H22.5995L15.7814 21.6201C14.6335 22.44 15.2135 24.25 16.6241 24.25H25.5001V26.8981L30.0001 23.001L25.5001 19.1039V21.75H19.9006L26.7188 16.8799C27.8666 16.06 27.2866 14.25 25.876 14.25H17.5001Z" fill="url(#paint1_radial_347_70)" fill-opacity="0.45"/>
<path d="M22.5995 16.75L23.1807 17.5637L25.7199 15.75H22.5995V16.75ZM15.7814 21.6201L16.3626 22.4338L16.3626 22.4338L15.7814 21.6201ZM25.5001 24.25H26.5001V23.25H25.5001V24.25ZM25.5001 26.8981H24.5001V29.087L26.1547 27.654L25.5001 26.8981ZM30.0001 23.001L30.6547 23.7569L31.5276 23.001L30.6547 22.245L30.0001 23.001ZM25.5001 19.1039L26.1547 18.3479L24.5001 16.915V19.1039H25.5001ZM25.5001 21.75V22.75H26.5001V21.75H25.5001ZM19.9006 21.75L19.3194 20.9363L16.7802 22.75H19.9006V21.75ZM26.7188 16.8799L26.1375 16.0662L26.1375 16.0662L26.7188 16.8799ZM17.2501 15.5C17.2501 15.3619 17.362 15.25 17.5001 15.25V13.25C16.2574 13.25 15.2501 14.2574 15.2501 15.5H17.2501ZM17.5001 15.75C17.362 15.75 17.2501 15.6381 17.2501 15.5H15.2501C15.2501 16.7426 16.2574 17.75 17.5001 17.75V15.75ZM22.5995 15.75H17.5001V17.75H22.5995V15.75ZM16.3626 22.4338L23.1807 17.5637L22.0182 15.9363L15.2001 20.8064L16.3626 22.4338ZM16.6241 23.25C16.1864 23.25 16.0063 22.6883 16.3626 22.4338L15.2001 20.8064C13.2607 22.1917 14.2406 25.25 16.6241 25.25V23.25ZM25.5001 23.25H16.6241V25.25H25.5001V23.25ZM26.5001 26.8981V24.25H24.5001V26.8981H26.5001ZM29.3454 22.245L24.8454 26.1422L26.1547 27.654L30.6547 23.7569L29.3454 22.245ZM24.8454 19.8598L29.3454 23.7569L30.6547 22.245L26.1547 18.3479L24.8454 19.8598ZM26.5001 21.75V19.1039H24.5001V21.75H26.5001ZM19.9006 22.75H25.5001V20.75H19.9006V22.75ZM26.1375 16.0662L19.3194 20.9363L20.4819 22.5637L27.3 17.6936L26.1375 16.0662ZM25.876 15.25C26.3137 15.25 26.4937 15.8117 26.1375 16.0662L27.3 17.6936C29.2395 16.3083 28.2594 13.25 25.876 13.25V15.25ZM17.5001 15.25H25.876V13.25H17.5001V15.25Z" fill="#0E0E10" mask="url(#path-2-outside-1_347_70)"/>
<defs>
<radialGradient id="paint0_radial_347_70" cx="0" cy="0" r="1" gradientUnits="userSpaceOnUse" gradientTransform="translate(16 16) rotate(90) scale(6)">
<stop stop-opacity="0"/>
<stop offset="1"/>
</radialGradient>
<radialGradient id="paint1_radial_347_70" cx="0" cy="0" r="1" gradientUnits="userSpaceOnUse" gradientTransform="translate(16 14) rotate(32.7352) scale(16.6433 20.9414)">
<stop stop-color="#DE0000"/>
<stop offset="1" stop-color="#DE0000" stop-opacity="0"/>
</radialGradient>
</defs>
</svg>
