<svg width="32" height="32" viewBox="0 0 32 32" fill="none" xmlns="http://www.w3.org/2000/svg">
<rect width="32" height="32" fill="#222222"/>
<circle cx="16" cy="16" r="6.5" fill="#BDBDBD"/>
<circle cx="16" cy="16" r="6.5" fill="url(#paint0_radial_347_65)" fill-opacity="0.25"/>
<circle cx="16" cy="16" r="6.5" stroke="#0E0E10"/>
<mask id="path-2-outside-1_347_65" maskUnits="userSpaceOnUse" x="1.20288" y="5.7998" width="26" height="22" fill="black">
<rect fill="white" x="1.20288" y="5.7998" width="26" height="22"/>
<path fill-rule="evenodd" clip-rule="evenodd" d="M7.87361 21.5107C7.45022 20.8375 7.79202 19.981 8.52096 19.663C9.24989 19.3449 10.0874 19.6909 10.5531 20.3355C11.2536 21.3049 12.2058 22.0773 13.3184 22.5616C14.8748 23.2389 16.6299 23.3022 18.231 22.7387C19.8322 22.1752 21.1608 21.0266 21.9498 19.5237C22.7389 18.0209 22.93 16.2751 22.4848 14.6371C22.0395 12.9991 20.9909 11.5903 19.5496 10.6937C18.1083 9.79717 16.3811 9.47925 14.715 9.80386C13.0489 10.1285 11.5674 11.0716 10.5681 12.4436C10.1108 13.0715 9.77003 13.7678 9.55424 14.5L11.9971 14.5L8.09999 19L4.20288 14.5L6.58995 14.5C6.8612 13.1566 7.41929 11.8751 8.24005 10.7481C9.66762 8.78801 11.7841 7.44074 14.1642 6.97701C16.5444 6.51328 19.0118 6.96746 21.0708 8.24828C23.1298 9.52911 24.6279 11.5417 25.2639 13.8817C25.9 16.2216 25.627 18.7156 24.4997 20.8626C23.3725 23.0095 21.4745 24.6503 19.1872 25.4554C16.8998 26.2604 14.3925 26.17 12.1691 25.2023C10.3886 24.4274 8.89569 23.1359 7.87361 21.5107Z"/>
</mask>
<path fill-rule="evenodd" clip-rule="evenodd" d="M7.87361 21.5107C7.45022 20.8375 7.79202 19.981 8.52096 19.663C9.24989 19.3449 10.0874 19.6909 10.5531 20.3355C11.2536 21.3049 12.2058 22.0773 13.3184 22.5616C14.8748 23.2389 16.6299 23.3022 18.231 22.7387C19.8322 22.1752 21.1608 21.0266 21.9498 19.5237C22.7389 18.0209 22.93 16.2751 22.4848 14.6371C22.0395 12.9991 20.9909 11.5903 19.5496 10.6937C18.1083 9.79717 16.3811 9.47925 14.715 9.80386C13.0489 10.1285 11.5674 11.0716 10.5681 12.4436C10.1108 13.0715 9.77003 13.7678 9.55424 14.5L11.9971 14.5L8.09999 19L4.20288 14.5L6.58995 14.5C6.8612 13.1566 7.41929 11.8751 8.24005 10.7481C9.66762 8.78801 11.7841 7.44074 14.1642 6.97701C16.5444 6.51328 19.0118 6.96746 21.0708 8.24828C23.1298 9.52911 24.6279 11.5417 25.2639 13.8817C25.9 16.2216 25.627 18.7156 24.4997 20.8626C23.3725 23.0095 21.4745 24.6503 19.1872 25.4554C16.8998 26.2604 14.3925 26.17 12.1691 25.2023C10.3886 24.4274 8.89569 23.1359 7.87361 21.5107Z" fill="#F2C94C"/>
<path fill-rule="evenodd" clip-rule="evenodd" d="M7.87361 21.5107C7.45022 20.8375 7.79202 19.981 8.52096 19.663C9.24989 19.3449 10.0874 19.6909 10.5531 20.3355C11.2536 21.3049 12.2058 22.0773 13.3184 22.5616C14.8748 23.2389 16.6299 23.3022 18.231 22.7387C19.8322 22.1752 21.1608 21.0266 21.9498 19.5237C22.7389 18.0209 22.93 16.2751 22.4848 14.6371C22.0395 12.9991 20.9909 11.5903 19.5496 10.6937C18.1083 9.79717 16.3811 9.47925 14.715 9.80386C13.0489 10.1285 11.5674 11.0716 10.5681 12.4436C10.1108 13.0715 9.77003 13.7678 9.55424 14.5L11.9971 14.5L8.09999 19L4.20288 14.5L6.58995 14.5C6.8612 13.1566 7.41929 11.8751 8.24005 10.7481C9.66762 8.78801 11.7841 7.44074 14.1642 6.97701C16.5444 6.51328 19.0118 6.96746 21.0708 8.24828C23.1298 9.52911 24.6279 11.5417 25.2639 13.8817C25.9 16.2216 25.627 18.7156 24.4997 20.8626C23.3725 23.0095 21.4745 24.6503 19.1872 25.4554C16.8998 26.2604 14.3925 26.17 12.1691 25.2023C10.3886 24.4274 8.89569 23.1359 7.87361 21.5107Z" fill="url(#paint1_radial_347_65)" fill-opacity="0.45"/>
<path d="M8.52096 19.663L8.12106 18.7464L8.12106 18.7464L8.52096 19.663ZM7.87361 21.5107L8.72012 20.9783L8.72012 20.9783L7.87361 21.5107ZM10.5531 20.3355L11.3637 19.7498L11.3637 19.7498L10.5531 20.3355ZM13.3184 22.5616L13.7175 21.6446L13.7175 21.6446L13.3184 22.5616ZM18.231 22.7387L17.8991 21.7954L17.8991 21.7954L18.231 22.7387ZM21.9498 19.5237L21.0645 19.0589L21.0645 19.0589L21.9498 19.5237ZM22.4848 14.6371L23.4498 14.3748L23.4498 14.3748L22.4848 14.6371ZM14.715 9.80386L14.5237 8.82231L14.5237 8.82231L14.715 9.80386ZM10.5681 12.4436L11.3764 13.0324L11.3764 13.0324L10.5681 12.4436ZM9.55424 14.5L8.59503 14.2173L8.21698 15.5L9.55424 15.5L9.55424 14.5ZM11.9971 14.5L12.753 15.1547L14.186 13.5L11.9971 13.5L11.9971 14.5ZM8.09999 19L7.34407 19.6547L8.09999 20.5275L8.85592 19.6547L8.09999 19ZM4.20288 14.5L4.20288 13.5L2.01398 13.5L3.44695 15.1547L4.20288 14.5ZM6.58995 14.5L6.58995 15.5L7.40823 15.5L7.57017 14.6979L6.58995 14.5ZM8.24005 10.7481L9.04839 11.3369L9.04839 11.3369L8.24005 10.7481ZM14.1642 6.97701L14.3555 7.95856L14.3555 7.95856L14.1642 6.97701ZM21.0708 8.24828L21.599 7.39916L21.599 7.39916L21.0708 8.24828ZM12.1691 25.2023L11.77 26.1192L11.77 26.1192L12.1691 25.2023ZM8.12106 18.7464C6.93031 19.2659 6.22302 20.7645 7.0271 22.0431L8.72012 20.9783C8.68566 20.9235 8.6786 20.8674 8.70431 20.7972C8.7333 20.7179 8.80486 20.6301 8.92085 20.5795L8.12106 18.7464ZM11.3637 19.7498C10.7002 18.8316 9.39204 18.1919 8.12106 18.7464L8.92085 20.5795C9.10773 20.498 9.47452 20.5502 9.74259 20.9212L11.3637 19.7498ZM13.7175 21.6446C12.7704 21.2325 11.96 20.575 11.3637 19.7498L9.74259 20.9212C10.5473 22.0348 11.6411 22.9222 12.9193 23.4785L13.7175 21.6446ZM17.8991 21.7954C16.5362 22.2751 15.0423 22.2212 13.7175 21.6446L12.9193 23.4785C14.7074 24.2567 16.7236 24.3294 18.563 23.682L17.8991 21.7954ZM21.0645 19.0589C20.3928 20.3381 19.2619 21.3158 17.8991 21.7954L18.563 23.682C20.4024 23.0346 21.9287 21.7151 22.8352 19.9886L21.0645 19.0589ZM21.5198 14.8994C21.8988 16.2937 21.7361 17.7797 21.0645 19.0589L22.8352 19.9886C23.7417 18.2621 23.9613 16.2565 23.4498 14.3748L21.5198 14.8994ZM19.0214 11.5429C20.2482 12.306 21.1408 13.5052 21.5198 14.8994L23.4498 14.3748C22.9383 12.4931 21.7336 10.8746 20.0778 9.84463L19.0214 11.5429ZM14.9062 10.7854C16.3244 10.5091 17.7946 10.7797 19.0214 11.5429L20.0778 9.84463C18.422 8.81463 16.4378 8.4494 14.5237 8.82231L14.9062 10.7854ZM11.3764 13.0324C12.227 11.8645 13.4881 11.0617 14.9062 10.7854L14.5237 8.82231C12.6097 9.19523 10.9077 10.2787 9.75972 11.8549L11.3764 13.0324ZM10.5134 14.7827C10.6971 14.1595 10.9872 13.5668 11.3764 13.0324L9.75972 11.8549C9.23444 12.5762 8.84293 13.3762 8.59503 14.2173L10.5134 14.7827ZM9.55424 15.5L11.9971 15.5L11.9971 13.5L9.55424 13.5L9.55424 15.5ZM11.2412 13.8453L7.34407 18.3453L8.85592 19.6547L12.753 15.1547L11.2412 13.8453ZM8.85592 18.3453L4.95881 13.8453L3.44695 15.1547L7.34407 19.6547L8.85592 18.3453ZM4.20288 15.5L6.58995 15.5L6.58996 13.5L4.20288 13.5L4.20288 15.5ZM7.43171 10.1594C6.52544 11.4038 5.90922 12.8188 5.60974 14.3021L7.57017 14.6979C7.81318 13.4944 8.31313 12.3464 9.04839 11.3369L7.43171 10.1594ZM13.973 5.99547C11.3449 6.5075 9.00799 7.99511 7.43171 10.1594L9.04839 11.3369C10.3273 9.58091 12.2233 8.37398 14.3555 7.95856L13.973 5.99547ZM21.599 7.39916C19.3255 5.98492 16.601 5.48344 13.973 5.99547L14.3555 7.95856C16.4877 7.54313 18.6981 7.95 20.5426 9.0974L21.599 7.39916ZM26.2289 13.6193C25.5266 11.0356 23.8725 8.81341 21.599 7.39916L20.5426 9.0974C22.3872 10.2448 23.7291 12.0477 24.299 14.144L26.2289 13.6193ZM25.3851 21.3274C26.6298 18.9569 26.9312 16.2031 26.2289 13.6193L24.299 14.144C24.8688 16.2402 24.6242 18.4744 23.6144 20.3977L25.3851 21.3274ZM19.5192 26.3986C22.0448 25.5098 24.1404 23.698 25.3851 21.3274L23.6144 20.3977C22.6045 22.321 20.9043 23.7909 18.8552 24.5121L19.5192 26.3986ZM11.77 26.1192C14.2251 27.1877 16.9935 27.2875 19.5192 26.3986L18.8552 24.5121C16.8061 25.2332 14.56 25.1523 12.5682 24.2854L11.77 26.1192ZM7.0271 22.0431C8.15564 23.8375 9.80401 25.2636 11.77 26.1192L12.5682 24.2854C10.9731 23.5912 9.63575 22.4342 8.72012 20.9783L7.0271 22.0431Z" fill="#0E0E10" mask="url(#path-2-outside-1_347_65)"/>
<defs>
<radialGradient id="paint0_radial_347_65" cx="0" cy="0" r="1" gradientUnits="userSpaceOnUse" gradientTransform="translate(16 16) rotate(90) scale(6)">
<stop stop-opacity="0"/>
<stop offset="1"/>
</radialGradient>
<radialGradient id="paint1_radial_347_65" cx="0" cy="0" r="1" gradientUnits="userSpaceOnUse" gradientTransform="translate(6.5 20) rotate(-21.8014) scale(18.8481 17.7971)">
<stop stop-color="#DE0000"/>
<stop offset="1" stop-color="#DE0000" stop-opacity="0"/>
</radialGradient>
</defs>
</svg>
