<svg width="32" height="32" viewBox="0 0 32 32" fill="none" xmlns="http://www.w3.org/2000/svg">
<rect width="32" height="32" fill="#222222"/>
<circle cx="16" cy="16" r="6.5" fill="#BDBDBD"/>
<circle cx="16" cy="16" r="6.5" fill="url(#paint0_radial_347_3)" fill-opacity="0.25"/>
<circle cx="16" cy="16" r="6.5" stroke="#0E0E10"/>
<mask id="path-2-outside-1_347_3" maskUnits="userSpaceOnUse" x="15" y="11" width="16" height="16" fill="black">
<rect fill="white" x="15" y="11" width="16" height="16"/>
<path fill-rule="evenodd" clip-rule="evenodd" d="M27.8971 17.5L24 13L20.1029 17.5H22.6294C22.6026 17.6617 22.5698 17.8226 22.531 17.9825C22.2957 18.9539 21.8466 19.8605 21.2166 20.6364C20.5865 21.4123 19.7913 22.0379 18.8888 22.4675C18.4215 22.69 17.9316 22.8571 17.429 22.9664C16.6519 23.1356 16 23.7649 16 24.5601C16 25.3554 16.6483 26.0112 17.4346 25.8923C18.3651 25.7517 19.2725 25.4746 20.1269 25.0678C21.4161 24.454 22.5521 23.5604 23.4522 22.452C24.3523 21.3436 24.9939 20.0483 25.3301 18.6606C25.4229 18.2774 25.4918 17.8898 25.5368 17.5H27.8971Z"/>
</mask>
<path fill-rule="evenodd" clip-rule="evenodd" d="M27.8971 17.5L24 13L20.1029 17.5H22.6294C22.6026 17.6617 22.5698 17.8226 22.531 17.9825C22.2957 18.9539 21.8466 19.8605 21.2166 20.6364C20.5865 21.4123 19.7913 22.0379 18.8888 22.4675C18.4215 22.69 17.9316 22.8571 17.429 22.9664C16.6519 23.1356 16 23.7649 16 24.5601C16 25.3554 16.6483 26.0112 17.4346 25.8923C18.3651 25.7517 19.2725 25.4746 20.1269 25.0678C21.4161 24.454 22.5521 23.5604 23.4522 22.452C24.3523 21.3436 24.9939 20.0483 25.3301 18.6606C25.4229 18.2774 25.4918 17.8898 25.5368 17.5H27.8971Z" fill="#F2C94C"/>
<path fill-rule="evenodd" clip-rule="evenodd" d="M27.8971 17.5L24 13L20.1029 17.5H22.6294C22.6026 17.6617 22.5698 17.8226 22.531 17.9825C22.2957 18.9539 21.8466 19.8605 21.2166 20.6364C20.5865 21.4123 19.7913 22.0379 18.8888 22.4675C18.4215 22.69 17.9316 22.8571 17.429 22.9664C16.6519 23.1356 16 23.7649 16 24.5601C16 25.3554 16.6483 26.0112 17.4346 25.8923C18.3651 25.7517 19.2725 25.4746 20.1269 25.0678C21.4161 24.454 22.5521 23.5604 23.4522 22.452C24.3523 21.3436 24.9939 20.0483 25.3301 18.6606C25.4229 18.2774 25.4918 17.8898 25.5368 17.5H27.8971Z" fill="url(#paint1_radial_347_3)" fill-opacity="0.45"/>
<path d="M24 13L24.7559 12.3453L24 11.4725L23.2441 12.3453L24 13ZM27.8971 17.5V18.5H30.086L28.653 16.8453L27.8971 17.5ZM20.1029 17.5L19.347 16.8453L17.914 18.5H20.1029V17.5ZM22.6294 17.5L23.6159 17.6637L23.809 16.5H22.6294V17.5ZM22.531 17.9825L21.5592 17.747L21.5592 17.747L22.531 17.9825ZM21.2166 20.6364L20.4403 20.006L20.4403 20.006L21.2166 20.6364ZM18.8888 22.4675L18.4589 21.5646L18.4589 21.5646L18.8888 22.4675ZM17.429 22.9664L17.2164 21.9893L17.2164 21.9893L17.429 22.9664ZM17.4346 25.8923L17.5841 26.8811L17.5841 26.8811L17.4346 25.8923ZM20.1269 25.0678L19.697 24.1649L19.697 24.1649L20.1269 25.0678ZM23.4522 22.452L24.2285 23.0824L24.2285 23.0824L23.4522 22.452ZM25.3301 18.6606L26.302 18.8961L26.302 18.8961L25.3301 18.6606ZM25.5368 17.5V16.5H24.6455L24.5434 17.3854L25.5368 17.5ZM23.2441 13.6547L27.1412 18.1547L28.653 16.8453L24.7559 12.3453L23.2441 13.6547ZM20.8588 18.1547L24.7559 13.6547L23.2441 12.3453L19.347 16.8453L20.8588 18.1547ZM22.6294 16.5H20.1029V18.5H22.6294V16.5ZM21.6429 17.3363C21.62 17.474 21.5921 17.611 21.5592 17.747L23.5029 18.218C23.5474 18.0343 23.5851 17.8494 23.6159 17.6637L21.6429 17.3363ZM21.5592 17.747C21.3588 18.5739 20.9766 19.3456 20.4403 20.006L21.9928 21.2668C22.7167 20.3755 23.2326 19.3339 23.5029 18.218L21.5592 17.747ZM20.4403 20.006C19.904 20.6664 19.2271 21.1989 18.4589 21.5646L19.3187 23.3704C20.3554 22.8768 21.269 22.1582 21.9928 21.2668L20.4403 20.006ZM18.4589 21.5646C18.0612 21.754 17.6442 21.8962 17.2164 21.9893L17.6417 23.9436C18.2191 23.8179 18.7819 23.626 19.3187 23.3704L18.4589 21.5646ZM17.2164 21.9893C16.1093 22.2302 15 23.1735 15 24.5601H17C17 24.3562 17.1945 24.0409 17.6417 23.9436L17.2164 21.9893ZM15 24.5601C15 25.8593 16.0906 27.1068 17.5841 26.8811L17.2852 24.9036C17.2212 24.9132 17.167 24.8973 17.1129 24.8456C17.0518 24.7874 17 24.6867 17 24.5601H15ZM17.5841 26.8811C18.6115 26.7258 19.6134 26.4199 20.5568 25.9707L19.697 24.1649C18.9316 24.5294 18.1188 24.7776 17.2852 24.9036L17.5841 26.8811ZM20.5568 25.9707C21.9803 25.293 23.2346 24.3062 24.2285 23.0824L22.6759 21.8216C21.8696 22.8145 20.8519 23.6151 19.697 24.1649L20.5568 25.9707ZM24.2285 23.0824C25.2224 21.8585 25.9307 20.4284 26.302 18.8961L24.3582 18.4252C24.057 19.6683 23.4823 20.8286 22.6759 21.8216L24.2285 23.0824ZM26.302 18.8961C26.4045 18.473 26.4806 18.045 26.5302 17.6146L24.5434 17.3854C24.5031 17.7346 24.4414 18.0819 24.3582 18.4252L26.302 18.8961ZM27.8971 16.5H25.5368V18.5H27.8971V16.5Z" fill="#0E0E10" mask="url(#path-2-outside-1_347_3)"/>
<defs>
<radialGradient id="paint0_radial_347_3" cx="0" cy="0" r="1" gradientUnits="userSpaceOnUse" gradientTransform="translate(16 16) rotate(90) scale(6)">
<stop stop-opacity="0"/>
<stop offset="1"/>
</radialGradient>
<radialGradient id="paint1_radial_347_3" cx="0" cy="0" r="1" gradientUnits="userSpaceOnUse" gradientTransform="translate(16 25.8401) rotate(-55.9818) scale(14.2996 13.5022)">
<stop stop-color="#DE0000"/>
<stop offset="1" stop-color="#DE0000" stop-opacity="0"/>
</radialGradient>
</defs>
</svg>
