<svg width="32" height="32" viewBox="0 0 32 32" fill="none" xmlns="http://www.w3.org/2000/svg">
<rect width="32" height="32" fill="#222222"/>
<rect x="4.5" y="4.5" width="23" height="23" rx="11.5" fill="#C587FF"/>
<rect x="4.5" y="4.5" width="23" height="23" rx="11.5" fill="url(#paint0_radial_347_39)" fill-opacity="0.65" style="mix-blend-mode:overlay"/>
<path d="M12.821 20.5V11.7727H16.2642C16.9233 11.7727 17.4858 11.8906 17.9517 12.1264C18.4205 12.3594 18.777 12.6903 19.0213 13.1193C19.2685 13.5455 19.392 14.0469 19.392 14.6236C19.392 15.2031 19.267 15.7017 19.017 16.1193C18.767 16.5341 18.4048 16.8523 17.9304 17.0739C17.4588 17.2955 16.8878 17.4062 16.2173 17.4062H13.9119V15.9233H15.919C16.2713 15.9233 16.5639 15.875 16.7969 15.7784C17.0298 15.6818 17.2031 15.5369 17.3168 15.3438C17.4332 15.1506 17.4915 14.9105 17.4915 14.6236C17.4915 14.3338 17.4332 14.0895 17.3168 13.8906C17.2031 13.6918 17.0284 13.5412 16.7926 13.4389C16.5597 13.3338 16.2656 13.2812 15.9105 13.2812H14.6662V20.5H12.821ZM17.5341 16.5284L19.7031 20.5H17.6662L15.544 16.5284H17.5341Z" fill="#F2F2F2"/>
<path d="M12.821 20.5H11.321V22H12.821V20.5ZM12.821 11.7727V10.2727H11.321V11.7727H12.821ZM17.9517 12.1264L17.2743 13.4648L17.2841 13.4697L17.9517 12.1264ZM19.0213 13.1193L17.7178 13.8617L17.7238 13.8719L19.0213 13.1193ZM19.017 16.1193L20.3017 16.8937L20.3041 16.8898L19.017 16.1193ZM17.9304 17.0739L17.2956 15.7148L17.2925 15.7163L17.9304 17.0739ZM13.9119 17.4062H12.4119V18.9062H13.9119V17.4062ZM13.9119 15.9233V14.4233H12.4119V15.9233H13.9119ZM16.7969 15.7784L17.3714 17.164L17.3714 17.164L16.7969 15.7784ZM17.3168 15.3438L16.0322 14.5692L16.028 14.5762L16.0239 14.5832L17.3168 15.3438ZM17.3168 13.8906L16.0144 14.6348L16.0184 14.6418L16.0224 14.6487L17.3168 13.8906ZM16.7926 13.4389L16.1757 14.8062L16.1857 14.8107L16.1957 14.8151L16.7926 13.4389ZM14.6662 13.2812V11.7812H13.1662V13.2812H14.6662ZM14.6662 20.5V22H16.1662V20.5H14.6662ZM17.5341 16.5284L18.8506 15.8094L18.424 15.0284H17.5341V16.5284ZM19.7031 20.5V22H22.2315L21.0196 19.781L19.7031 20.5ZM17.6662 20.5L16.3432 21.2069L16.767 22H17.6662V20.5ZM15.544 16.5284V15.0284H13.0418L14.2211 17.2353L15.544 16.5284ZM14.321 20.5V11.7727H11.321V20.5H14.321ZM12.821 13.2727H16.2642V10.2727H12.821V13.2727ZM16.2642 13.2727C16.7481 13.2727 17.0662 13.3594 17.2744 13.4648L18.629 10.7881C17.9054 10.4218 17.0985 10.2727 16.2642 10.2727V13.2727ZM17.2841 13.4697C17.5029 13.5784 17.6302 13.7077 17.7179 13.8617L20.3247 12.377C19.9238 11.673 19.338 11.1404 18.6193 10.7832L17.2841 13.4697ZM17.7238 13.8719C17.8172 14.033 17.892 14.2657 17.892 14.6236H20.892C20.892 13.8281 20.7197 13.0579 20.3189 12.3667L17.7238 13.8719ZM17.892 14.6236C17.892 14.9839 17.8161 15.205 17.73 15.3489L20.3041 16.8898C20.718 16.1984 20.892 15.4224 20.892 14.6236H17.892ZM17.7324 15.345C17.6487 15.4838 17.5231 15.6085 17.2956 15.7148L18.5652 18.4329C19.2865 18.096 19.8854 17.5844 20.3017 16.8936L17.7324 15.345ZM17.2925 15.7163C17.0691 15.8212 16.7282 15.9062 16.2173 15.9062V18.9062C17.0474 18.9062 17.8485 18.7697 18.5683 18.4315L17.2925 15.7163ZM16.2173 15.9062H13.9119V18.9062H16.2173V15.9062ZM15.4119 17.4062V15.9233H12.4119V17.4062H15.4119ZM13.9119 17.4233H15.919V14.4233H13.9119V17.4233ZM15.919 17.4233C16.3957 17.4233 16.8994 17.3597 17.3714 17.164L16.2224 14.3928C16.2285 14.3903 16.1469 14.4233 15.919 14.4233V17.4233ZM17.3714 17.164C17.8658 16.959 18.3104 16.6131 18.6097 16.1043L16.0239 14.5832C16.0548 14.5306 16.0953 14.4834 16.1394 14.4465C16.182 14.4109 16.2146 14.396 16.2224 14.3928L17.3714 17.164ZM18.6013 16.1183C18.8923 15.6357 18.9915 15.1103 18.9915 14.6236H15.9915C15.9915 14.6666 15.987 14.6778 15.9901 14.6652C15.9935 14.6509 16.0045 14.6151 16.0322 14.5692L18.6013 16.1183ZM18.9915 14.6236C18.9915 14.135 18.8928 13.6135 18.6111 13.1325L16.0224 14.6487C16.0113 14.6296 16.0033 14.6125 15.9977 14.5984C15.9922 14.5845 15.9896 14.5749 15.9887 14.5708C15.9869 14.5632 15.9915 14.5783 15.9915 14.6236H18.9915ZM18.6191 13.1464C18.3253 12.6322 17.8844 12.2775 17.3895 12.0628L16.1957 14.8151C16.1905 14.8128 16.1608 14.7989 16.1213 14.7648C16.0803 14.7295 16.0428 14.6846 16.0144 14.6348L18.6191 13.1464ZM17.4095 12.0717C16.9227 11.852 16.4008 11.7812 15.9105 11.7812V14.7812C16.0156 14.7812 16.088 14.7891 16.1334 14.7973C16.1786 14.8053 16.189 14.8122 16.1757 14.8062L17.4095 12.0717ZM15.9105 11.7812H14.6662V14.7812H15.9105V11.7812ZM13.1662 13.2812V20.5H16.1662V13.2812H13.1662ZM14.6662 19H12.821V22H14.6662V19ZM16.2176 17.2474L18.3867 21.219L21.0196 19.781L18.8506 15.8094L16.2176 17.2474ZM19.7031 19H17.6662V22H19.7031V19ZM18.9892 19.7931L16.867 15.8215L14.2211 17.2353L16.3432 21.2069L18.9892 19.7931ZM15.544 18.0284H17.5341V15.0284H15.544V18.0284Z" fill="#0E0E10"/>
<rect x="4.5" y="4.5" width="23" height="23" rx="11.5" stroke="#0E0E10"/>
<defs>
<radialGradient id="paint0_radial_347_39" cx="0" cy="0" r="1" gradientUnits="userSpaceOnUse" gradientTransform="translate(16 16) rotate(90) scale(12)">
<stop offset="0.679935" stop-opacity="0"/>
<stop offset="1"/>
</radialGradient>
</defs>
</svg>
