<svg width="32" height="32" viewBox="0 0 32 32" fill="none" xmlns="http://www.w3.org/2000/svg">
<rect width="32" height="32" fill="#222222"/>
<rect x="4.5" y="4.5" width="23" height="23" rx="11.5" fill="#FC93ED"/>
<rect x="4.5" y="4.5" width="23" height="23" rx="11.5" fill="url(#paint0_radial_347_12)" fill-opacity="0.65" style="mix-blend-mode:overlay"/>
<path d="M12.8738 20.5V11.7727H16.3169C16.9789 11.7727 17.5428 11.8991 18.0087 12.152C18.4746 12.402 18.8297 12.75 19.074 13.196C19.3212 13.6392 19.4448 14.1506 19.4448 14.7301C19.4448 15.3097 19.3198 15.821 19.0698 16.2642C18.8198 16.7074 18.4576 17.0526 17.9831 17.2997C17.5115 17.5469 16.9405 17.6705 16.2701 17.6705H14.0755V16.1918H15.9718C16.3269 16.1918 16.6195 16.1307 16.8496 16.0085C17.0826 15.8835 17.2559 15.7116 17.3695 15.4929C17.486 15.2713 17.5442 15.017 17.5442 14.7301C17.5442 14.4403 17.486 14.1875 17.3695 13.9716C17.2559 13.7528 17.0826 13.5838 16.8496 13.4645C16.6167 13.3423 16.3212 13.2812 15.9632 13.2812H14.7189V20.5H12.8738Z" fill="#F2F2F2"/>
<path d="M12.8738 20.5H11.3738V22H12.8738V20.5ZM12.8738 11.7727V10.2727H11.3738V11.7727H12.8738ZM18.0087 12.152L17.2932 13.4704L17.2995 13.4737L18.0087 12.152ZM19.074 13.196L17.7584 13.9167L17.764 13.9266L19.074 13.196ZM17.9831 17.2997L17.2901 15.9694L17.2868 15.9711L17.9831 17.2997ZM14.0755 17.6705H12.5755V19.1705H14.0755V17.6705ZM14.0755 16.1918V14.6918H12.5755V16.1918H14.0755ZM16.8496 16.0085L17.553 17.3334L17.5588 17.3303L16.8496 16.0085ZM17.3695 15.4929L16.0417 14.795L16.0384 14.8014L17.3695 15.4929ZM17.3695 13.9716L16.0384 14.6631L16.0438 14.6735L16.0493 14.6838L17.3695 13.9716ZM16.8496 13.4645L16.153 14.7929L16.1594 14.7963L16.1658 14.7996L16.8496 13.4645ZM14.7189 13.2812V11.7812H13.2189V13.2812H14.7189ZM14.7189 20.5V22H16.2189V20.5H14.7189ZM14.3738 20.5V11.7727H11.3738V20.5H14.3738ZM12.8738 13.2727H16.3169V10.2727H12.8738V13.2727ZM16.3169 13.2727C16.7901 13.2727 17.0951 13.3628 17.2932 13.4704L18.7242 10.8336C17.9905 10.4355 17.1677 10.2727 16.3169 10.2727V13.2727ZM17.2995 13.4737C17.52 13.5921 17.6595 13.736 17.7585 13.9166L20.3896 12.4754C19.9999 11.764 19.4292 11.2119 18.7179 10.8302L17.2995 13.4737ZM17.764 13.9266C17.8698 14.1164 17.9448 14.3695 17.9448 14.7301H20.9448C20.9448 13.9316 20.7726 13.162 20.3841 12.4654L17.764 13.9266ZM17.9448 14.7301C17.9448 15.0879 17.8697 15.3387 17.7633 15.5272L20.3762 17.0012C20.7699 16.3034 20.9448 15.5315 20.9448 14.7301H17.9448ZM17.7633 15.5272C17.6635 15.7041 17.5208 15.8492 17.2901 15.9694L18.6762 18.63C19.3943 18.2559 19.976 17.7107 20.3762 17.0012L17.7633 15.5272ZM17.2868 15.9711C17.0786 16.0802 16.7595 16.1705 16.2701 16.1705V19.1705C17.1216 19.1705 17.9445 19.0135 18.6794 18.6283L17.2868 15.9711ZM16.2701 16.1705H14.0755V19.1705H16.2701V16.1705ZM15.5755 17.6705V16.1918H12.5755V17.6705H15.5755ZM14.0755 17.6918H15.9718V14.6918H14.0755V17.6918ZM15.9718 17.6918C16.4873 17.6918 17.042 17.6047 17.5529 17.3334L16.1463 14.6836C16.1729 14.6695 16.1789 14.6718 16.1511 14.6776C16.1223 14.6836 16.0649 14.6918 15.9718 14.6918V17.6918ZM17.5588 17.3303C18.0375 17.0734 18.4376 16.6907 18.7006 16.1844L16.0384 14.8014C16.0525 14.7742 16.0731 14.7455 16.098 14.7209C16.1096 14.7093 16.1201 14.7008 16.1281 14.6949C16.1361 14.6891 16.1406 14.6867 16.1404 14.6868L17.5588 17.3303ZM18.6972 16.1908C18.9424 15.7244 19.0442 15.2244 19.0442 14.7301H16.0442C16.0442 14.772 16.04 14.7941 16.0384 14.8011C16.037 14.8072 16.0372 14.8036 16.0417 14.795L18.6972 16.1908ZM19.0442 14.7301C19.0442 14.2368 18.9439 13.7306 18.6896 13.2594L16.0493 14.6838C16.0402 14.6669 16.0381 14.6568 16.0388 14.6598C16.0397 14.6639 16.0442 14.6856 16.0442 14.7301H19.0442ZM18.7006 13.2801C18.4342 12.7672 18.0256 12.3815 17.5334 12.1294L16.1658 14.7996C16.1595 14.7963 16.1361 14.783 16.1069 14.7545C16.0771 14.7255 16.0538 14.6928 16.0384 14.6631L18.7006 13.2801ZM17.5462 12.1361C17.035 11.868 16.4805 11.7812 15.9632 11.7812V14.7812C16.0585 14.7812 16.1182 14.7895 16.1496 14.796C16.1801 14.8023 16.1769 14.8055 16.153 14.7929L17.5462 12.1361ZM15.9632 11.7812H14.7189V14.7812H15.9632V11.7812ZM13.2189 13.2812V20.5H16.2189V13.2812H13.2189ZM14.7189 19H12.8738V22H14.7189V19Z" fill="#0E0E10"/>
<rect x="4.5" y="4.5" width="23" height="23" rx="11.5" stroke="#0E0E10"/>
<defs>
<radialGradient id="paint0_radial_347_12" cx="0" cy="0" r="1" gradientUnits="userSpaceOnUse" gradientTransform="translate(16 16) rotate(90) scale(12)">
<stop offset="0.679935" stop-opacity="0"/>
<stop offset="1"/>
</radialGradient>
</defs>
</svg>
