<svg width="306" height="88" viewBox="0 0 306 88" fill="none" xmlns="http://www.w3.org/2000/svg">
<g clip-path="url(#clip0_358_58)">
<rect y="-16" width="153" height="120" fill="#333333"/>
<path d="M32.3819 56.9997V53.0111L41.7015 44.3818C42.4941 43.6148 43.1589 42.9244 43.6958 42.3108C44.2413 41.6972 44.6546 41.0963 44.9359 40.5083C45.2171 39.9117 45.3578 39.2682 45.3578 38.5779C45.3578 37.8108 45.183 37.1503 44.8336 36.5963C44.4842 36.0338 44.0069 35.6034 43.4018 35.3051C42.7967 34.9983 42.1106 34.8449 41.3436 34.8449C40.5424 34.8449 39.8436 35.0068 39.247 35.3307C38.6504 35.6546 38.1901 36.1191 37.8663 36.7242C37.5424 37.3293 37.3805 38.0494 37.3805 38.8847H32.1262C32.1262 37.1716 32.514 35.6844 33.2896 34.423C34.0651 33.1617 35.1518 32.1858 36.5495 31.4955C37.9472 30.8051 39.558 30.46 41.3819 30.46C43.2569 30.46 44.889 30.7923 46.2782 31.4571C47.6759 32.1134 48.7626 33.0253 49.5382 34.1929C50.3137 35.3605 50.7015 36.6986 50.7015 38.2071C50.7015 39.1958 50.5055 40.1716 50.1134 41.1347C49.7299 42.0977 49.0438 43.1673 48.0552 44.3435C47.0666 45.5111 45.6731 46.9131 43.8748 48.5494L40.0524 52.2952V52.4742H51.0467V56.9997H32.3819Z" fill="#4F4F4F"/>
<path d="M64.7352 57.3577C62.8261 57.3577 61.1259 57.0296 59.6344 56.3733C58.1514 55.7085 56.9796 54.7966 56.1188 53.6375C55.2665 52.4699 54.8276 51.1233 54.802 49.5977H60.3759C60.41 50.237 60.6188 50.7995 61.0023 51.2852C61.3943 51.7625 61.9142 52.1333 62.5619 52.3975C63.2097 52.6617 63.9384 52.7938 64.748 52.7938C65.5918 52.7938 66.3375 52.6446 66.9852 52.3463C67.633 52.048 68.1401 51.6347 68.5065 51.1063C68.873 50.5779 69.0563 49.9685 69.0563 49.2781C69.0563 48.5793 68.8602 47.9614 68.4682 47.4244C68.0847 46.879 67.5307 46.4529 66.8063 46.146C66.0904 45.8392 65.2381 45.6858 64.2494 45.6858H61.8077V41.6205H64.2494C65.0847 41.6205 65.8219 41.4756 66.4611 41.1858C67.1088 40.896 67.6117 40.4955 67.9696 39.9841C68.3276 39.4642 68.5065 38.8591 68.5065 38.1688C68.5065 37.5125 68.3489 36.9372 68.0335 36.4429C67.7267 35.9401 67.2921 35.548 66.7296 35.2668C66.1756 34.9855 65.5279 34.8449 64.7864 34.8449C64.0364 34.8449 63.3503 34.9813 62.7281 35.254C62.106 35.5182 61.6074 35.8975 61.2324 36.3918C60.8574 36.8861 60.6571 37.4656 60.6315 38.1304H55.3261C55.3517 36.6219 55.7821 35.2923 56.6173 34.1418C57.4526 32.9912 58.5776 32.0921 59.9923 31.4443C61.4156 30.7881 63.0222 30.46 64.8119 30.46C66.6188 30.46 68.1997 30.7881 69.5548 31.4443C70.91 32.1006 71.9625 32.9869 72.7125 34.1034C73.471 35.2114 73.846 36.4557 73.8375 37.8364C73.846 39.3023 73.3901 40.5253 72.4696 41.5054C71.5577 42.4855 70.3688 43.1077 68.9029 43.3719V43.5764C70.829 43.8236 72.2949 44.4926 73.3006 45.5835C74.3148 46.6659 74.8176 48.021 74.8091 49.6489C74.8176 51.1404 74.3872 52.4656 73.5179 53.6247C72.6571 54.7838 71.4682 55.6958 69.9511 56.3605C68.4341 57.0253 66.6955 57.3577 64.7352 57.3577Z" fill="#4F4F4F"/>
<path d="M88.8364 57.3577C87.4899 57.3492 86.1901 57.1233 84.9373 56.6801C83.693 56.237 82.5765 55.5168 81.5879 54.5196C80.5992 53.5225 79.8151 52.2014 79.2356 50.5566C78.6646 48.9117 78.3791 46.8918 78.3791 44.4969C78.3876 42.298 78.639 40.3335 79.1333 38.6034C79.6362 36.8648 80.3521 35.3904 81.2811 34.1801C82.2186 32.9699 83.3393 32.0494 84.6433 31.4188C85.9472 30.7796 87.4089 30.46 89.0282 30.46C90.7754 30.46 92.318 30.8009 93.6561 31.4827C94.9941 32.156 96.068 33.0722 96.8776 34.2313C97.6958 35.3904 98.1901 36.6901 98.3606 38.1304H92.9018C92.6887 37.2185 92.2413 36.5026 91.5595 35.9827C90.8776 35.4628 90.0339 35.2029 89.0282 35.2029C87.3237 35.2029 86.0282 35.9443 85.1418 37.4273C84.264 38.9102 83.8166 40.9259 83.7995 43.4742H83.9785C84.3705 42.6986 84.8989 42.0381 85.5637 41.4926C86.237 40.9387 86.9998 40.5168 87.8521 40.227C88.7129 39.9287 89.6205 39.7796 90.5751 39.7796C92.1262 39.7796 93.5069 40.146 94.7171 40.879C95.9274 41.6034 96.8819 42.6006 97.5808 43.8705C98.2796 45.1404 98.6291 46.5935 98.6291 48.2298C98.6291 50.0026 98.2157 51.5793 97.389 52.96C96.5708 54.3406 95.4245 55.423 93.9501 56.2071C92.4842 56.9827 90.7796 57.3662 88.8364 57.3577ZM88.8109 53.0111C89.6632 53.0111 90.4259 52.8066 91.0992 52.3975C91.7725 51.9884 92.3009 51.4344 92.6845 50.7355C93.068 50.0367 93.2597 49.2526 93.2597 48.3833C93.2597 47.5139 93.068 46.7341 92.6845 46.0438C92.3095 45.3534 91.7896 44.8037 91.1248 44.3946C90.46 43.9855 89.7015 43.781 88.8492 43.781C88.21 43.781 87.6177 43.9003 87.0722 44.1389C86.5353 44.3776 86.0623 44.71 85.6532 45.1361C85.2526 45.5622 84.9373 46.0566 84.7072 46.6191C84.4771 47.173 84.362 47.7654 84.362 48.396C84.362 49.2398 84.5538 50.0111 84.9373 50.71C85.3293 51.4088 85.8578 51.9671 86.5225 52.3847C87.1958 52.8023 87.9586 53.0111 88.8109 53.0111Z" fill="#4F4F4F"/>
<path d="M102.707 56.9997V30.8179H113.037C115.023 30.8179 116.714 31.1972 118.112 31.9557C119.51 32.7057 120.575 33.7497 121.308 35.0878C122.05 36.4173 122.42 37.9514 122.42 39.6901C122.42 41.4287 122.045 42.9628 121.295 44.2923C120.545 45.6219 119.459 46.6574 118.035 47.3989C116.621 48.1404 114.907 48.5111 112.896 48.5111H106.312V44.075H112.001C113.067 44.075 113.944 43.8918 114.635 43.5253C115.334 43.1503 115.853 42.6347 116.194 41.9784C116.544 41.3137 116.719 40.5509 116.719 39.6901C116.719 38.8208 116.544 38.0622 116.194 37.4145C115.853 36.7583 115.334 36.2512 114.635 35.8932C113.936 35.5267 113.05 35.3435 111.976 35.3435H108.243V56.9997H102.707Z" fill="#4F4F4F"/>
<path d="M218.111 29.7075L216.977 28.3982L215.843 29.7075L204.821 42.4354L202.671 44.9174H205.955H211.239C210.598 47.2636 209.476 49.4525 207.94 51.3433C206.299 53.3646 204.227 54.9944 201.876 56.1137C200.638 56.703 199.339 57.1431 198.007 57.4277C195.346 57.9962 192.85 60.2184 192.85 63.314V63.4598C192.85 66.4263 195.314 69.1305 198.556 68.6495C201.359 68.2334 204.094 67.4024 206.667 66.1772C210.515 64.3451 213.906 61.6779 216.592 58.3696C219.279 55.0614 221.194 51.1956 222.197 47.0538C222.369 46.3461 222.513 45.6335 222.629 44.9174H228H231.283L229.134 42.4354L218.111 29.7075Z" stroke="#4F4F4F" stroke-width="3"/>
<path d="M214.545 33.4977C211.578 26.1694 204.393 21 196 21C184.954 21 176 29.9543 176 41C176 51.7424 184.469 60.5068 195.095 60.9799C195.821 59.9325 197.006 59.1754 198.32 58.8946C199.767 58.5856 201.177 58.1079 202.521 57.4681C205.073 56.2528 207.322 54.4834 209.104 52.2889C210.887 50.0944 212.157 47.53 212.822 44.7825C212.932 44.3302 213.025 43.8749 213.101 43.4174H212.829C211.656 51.6613 204.568 58 196 58C186.611 58 179 50.3888 179 41C179 31.6112 186.611 24 196 24C203.688 24 210.184 29.1034 212.285 36.1073L214.545 33.4977Z" fill="#4F4F4F"/>
<path d="M214.545 33.4977C211.578 26.1694 204.393 21 196 21C184.954 21 176 29.9543 176 41C176 51.7424 184.469 60.5068 195.095 60.9799C195.821 59.9325 197.006 59.1754 198.32 58.8946C199.767 58.5856 201.177 58.1079 202.521 57.4681C205.073 56.2528 207.322 54.4834 209.104 52.2889C210.887 50.0944 212.157 47.53 212.822 44.7825C212.932 44.3302 213.025 43.8749 213.101 43.4174H212.829C211.656 51.6613 204.568 58 196 58C186.611 58 179 50.3888 179 41C179 31.6112 186.611 24 196 24C203.688 24 210.184 29.1034 212.285 36.1073L214.545 33.4977Z" stroke="#4F4F4F"/>
<g clip-path="url(#clip1_358_58)">
<circle cx="260" cy="44" r="21.5" stroke="#4F4F4F" stroke-width="3"/>
<path d="M247.727 42.4389C246.626 40.293 247.54 37.6647 250.063 36.8258C249.583 34.0139 251.846 31.7503 254.681 32.2379C254.956 31.3167 255.494 30.583 256.303 30.0445C257.755 29.0889 259.783 29.2702 261.016 30.4877C261.925 31.3821 262.827 32.2841 263.714 33.1861C263.88 33.3514 264 33.3661 264.227 33.2899C265.79 32.7487 267.185 33.0227 268.365 34.2028C270.214 36.0518 272.055 37.9084 273.904 39.7423C274.588 40.4263 274.978 41.2396 275.072 42.1972C275.298 44.3312 275.525 46.45 275.766 48.5839C275.788 48.7724 275.893 48.9833 276.028 49.1186C277.336 50.4415 278.644 51.7493 279.959 53.0647C280.402 53.5081 280.468 54.2245 280.112 54.701C279.725 55.238 279.008 55.4141 278.436 55.0993C278.3 55.0244 278.187 54.9116 278.075 54.7989C276.646 53.3708 275.233 51.9426 273.79 50.5297C273.459 50.199 273.28 49.8375 273.244 49.3775C273.01 47.1304 272.762 44.8834 272.529 42.6364C272.478 42.1462 272.298 41.7546 271.952 41.4089C270.171 39.6426 268.405 37.8612 266.638 36.0948C265.939 35.3958 265.215 35.3984 264.519 36.0949C262.543 38.0708 260.567 40.0468 258.598 42.0151C258.523 42.0908 258.447 42.1665 258.371 42.2422C259.4 43.634 260.642 44.3914 262.206 43.6089C262.538 43.4417 262.834 43.1615 263.114 42.8965C263.628 42.4119 264.113 41.8972 264.62 41.4051C265.059 40.966 265.588 40.8585 266.115 41.113C266.619 41.3451 266.874 41.8118 266.827 42.4155C266.755 43.4341 266.631 44.4604 266.62 45.4788C266.614 46.9422 266.843 48.3671 267.653 49.6315C267.826 49.9099 268.051 50.1656 268.269 50.4138C268.757 50.9627 268.739 51.7171 268.202 52.2395C267.702 52.7241 266.925 52.7042 266.414 52.1931C265.114 50.9079 264.494 49.3034 264.221 47.5317C264.125 46.8908 264.082 46.2423 264.009 45.5636C262.898 46.3144 261.675 46.6055 260.317 46.4444C260.148 47.3351 259.783 48.1209 259.11 48.7344C258.429 49.3554 257.628 49.66 256.722 49.7538C256.581 51.2177 255.876 52.314 254.546 53.0128C255.666 54.1327 256.74 55.2226 257.845 56.2973C258.018 56.4702 258.305 56.5597 258.553 56.6267C260.581 57.1399 262.623 57.6379 264.666 58.136C265.065 58.2326 265.396 58.4125 265.689 58.7056C267.125 60.1563 268.576 61.5919 270.011 63.0426C270.47 63.5011 270.52 64.2326 270.149 64.7091C269.747 65.2311 269.067 65.3844 268.503 65.0771C268.367 65.0022 268.247 64.897 268.134 64.7843C266.834 63.484 265.526 62.1761 264.218 60.8834C264.06 60.7255 263.842 60.5981 263.616 60.5386C261.747 60.0625 259.885 59.594 258.009 59.1557C257.149 58.9475 256.427 58.5428 255.795 57.9114C252.774 54.8899 249.79 51.8305 246.708 48.8695C244.754 46.9907 245.128 43.6703 247.666 42.4844C247.697 42.4843 247.704 42.4616 247.727 42.4389ZM254.742 42.3533C253.863 41.4739 252.984 40.5945 252.097 39.7076C251.526 39.1364 250.726 39.1091 250.204 39.6314C249.689 40.1462 249.709 40.9533 250.28 41.5245C252.024 43.2683 253.76 45.0197 255.519 46.7483C255.699 46.9287 255.948 47.0711 256.189 47.1457C256.716 47.3097 257.298 47.0587 257.571 46.6051C257.89 46.0609 257.839 45.4651 257.388 44.9991C256.509 44.1197 255.622 43.2327 254.742 42.3533ZM250.141 48.6384C250.712 49.2096 251.284 49.7809 251.855 50.3521C252.449 50.9459 253.248 50.9883 253.778 50.4583C254.3 49.936 254.266 49.129 253.672 48.5352C252.544 47.4077 251.424 46.2878 250.297 45.1604C249.703 44.5666 248.904 44.5242 248.374 45.0541C247.851 45.5765 247.894 46.3759 248.48 46.9773C249.036 47.5335 249.592 48.0897 250.141 48.6384ZM258.331 38.6895C257.114 37.4718 255.934 36.2767 254.738 35.0967C254.348 34.7058 253.767 34.64 253.298 34.868C252.475 35.2708 252.328 36.2896 252.997 36.9737C254.109 38.1012 255.244 39.221 256.364 40.341C256.417 40.3936 256.484 40.4311 256.545 40.4761C257.135 39.8856 257.718 39.3027 258.331 38.6895ZM261.958 35.0632C261.033 34.1387 260.139 33.214 259.214 32.3348C258.71 31.8614 257.895 31.9247 257.449 32.4015C256.987 32.8935 256.984 33.6629 257.465 34.1741C257.758 34.4974 258.081 34.7904 258.389 35.0986C258.976 35.6849 259.562 36.2712 260.163 36.8725C260.754 36.2669 261.337 35.6839 261.958 35.0632Z" fill="#4F4F4F"/>
</g>
</g>
<rect x="2" y="2" width="302" height="84" rx="14" stroke="#333333" stroke-width="4"/>
<defs>
<clipPath id="clip0_358_58">
<rect width="306" height="88" rx="16" fill="white"/>
</clipPath>
<clipPath id="clip1_358_58">
<rect x="237" y="21" width="46" height="46" rx="23" fill="white"/>
</clipPath>
</defs>
</svg>
