<svg width="100%" height="100%" viewBox="0 0 48 48" fill="none" xmlns="http://www.w3.org/2000/svg">
<g clip-path="url(#clip0_444_22)">
<g clip-path="url(#clip1_444_22)">
<g clip-path="url(#clip2_444_22)">
<path d="M33.6791 41.9214C34.5677 42.0543 35.1481 41.67 35.5359 40.9028C35.8046 40.3657 36.131 39.8482 36.4602 39.278C36.2637 39.1646 36.1085 39.075 35.9534 38.9854C34.1745 37.9584 32.4177 36.9169 30.6153 35.9306C28.7094 34.8846 26.6481 34.2511 24.4991 33.9606C24.3559 33.9458 24.1481 34.043 24.051 34.1635C23.5067 34.8674 23.4244 35.6072 24.0133 36.3545C27.2357 38.2013 30.4522 40.0584 33.6791 41.9214Z" fill="#BDBDBD"/>
<path d="M37.6122 36.6849C37.9527 35.9041 38.2801 35.17 38.5912 34.44C40.1892 30.6928 41.8125 26.9736 43.9763 23.5123C46.5945 19.3358 49.2023 15.1534 51.8204 10.9769C52.8347 9.36337 53.8387 7.74383 54.8662 6.08356C49.0641 2.7337 43.293 -0.59825 37.4909 -3.94811C37.4218 -3.85227 37.3423 -3.76239 37.2835 -3.66058C35.0756 0.52194 32.8735 4.69428 30.6656 8.8768C29.4492 11.1747 28.2801 13.4862 27.0224 15.7602C25.3151 18.8607 21.6168 19.8206 18.4402 18.0138C16.6761 17.0089 14.9252 15.9572 13.1493 14.9727C10.8298 13.6878 8.05113 14.2013 6.38111 16.2101C5.98236 16.6858 5.69596 17.2535 5.37407 17.7871C4.83468 18.6975 4.29976 19.624 3.77518 20.5565C3.25647 21.4788 3.43526 22.2201 4.35574 22.7515C7.17924 24.3816 9.97923 26.0525 12.8556 27.591C16.2195 29.3839 19.8341 30.4798 23.6096 30.9626C25.8973 31.2517 28.15 31.697 30.2695 32.6357C31.1233 33.02 31.9594 33.4348 32.7823 33.8964C34.242 34.712 35.6841 35.5581 37.1217 36.3881C37.2709 36.4879 37.4157 36.5715 37.6122 36.6849Z" fill="#BDBDBD"/>
<path d="M38.739 -6.53919C44.6859 -3.10573 50.5294 0.268012 56.435 3.67759C56.8465 2.96488 57.2772 2.29046 57.6297 1.58441C57.8999 1.02091 57.6489 0.333003 57.1095 -0.046322C56.9809 -0.13413 56.8464 -0.211755 56.7016 -0.295353C51.82 -3.11377 46.9383 -5.9322 42.0567 -8.75062C40.9294 -9.40148 40.2363 -9.20429 39.6163 -8.08256C39.3386 -7.5777 39.0506 -7.07881 38.739 -6.53919Z" fill="#BDBDBD"/>
</g>
</g>
<rect x="0.5" y="0.5" width="47" height="47" rx="23.5" stroke="#BDBDBD"/>
</g>
<defs>
<clipPath id="clip0_444_22">
<rect width="48" height="48" fill="white"/>
</clipPath>
<clipPath id="clip1_444_22">
<rect width="48" height="48" rx="24" fill="white"/>
</clipPath>
<clipPath id="clip2_444_22">
<rect width="37.6785" height="48.0725" fill="white" transform="matrix(-0.866025 -0.5 -0.5 0.866025 58.6667 0.838867)"/>
</clipPath>
</defs>
</svg>
