<svg width="100%" height="100%" viewBox="0 0 48 48" fill="none" xmlns="http://www.w3.org/2000/svg">
<g clip-path="url(#clip0_444_44)">
<g clip-path="url(#clip1_444_44)">
<path fill-rule="evenodd" clip-rule="evenodd" d="M38.739 -6.53924L56.435 3.67754C56.559 3.46274 56.6848 3.25142 56.8096 3.04167L56.8101 3.04087L56.8104 3.04035L56.8107 3.03992C57.0997 2.5543 57.3838 2.07703 57.6297 1.58436C57.8999 1.02086 57.6489 0.332955 57.1095 -0.0463696C56.9809 -0.134177 56.8465 -0.211803 56.7017 -0.295401L42.0567 -8.75066C40.9294 -9.40153 40.2364 -9.20434 39.6163 -8.08261C39.3386 -7.57775 39.0506 -7.07886 38.739 -6.53924ZM37.953 35.908C37.841 36.1629 37.7274 36.4216 37.6123 36.6856L37.6122 36.6855L37.612 36.6854C37.4156 36.572 37.2709 36.4885 37.1217 36.3888C36.7631 36.1817 36.4042 35.9737 36.0449 35.7654L36.0447 35.7652L36.0445 35.7651L36.0443 35.765L36.044 35.7649C34.963 35.1382 33.8776 34.509 32.7823 33.897C31.9594 33.4355 31.1233 33.0206 30.2696 32.6363C28.15 31.6977 25.8973 31.2523 23.6096 30.9632C19.8342 30.4804 16.2196 29.3845 12.8557 27.5917C10.6561 26.4152 8.50113 25.1612 6.34621 23.9073C5.68317 23.5215 5.02013 23.1357 4.35578 22.7521C3.4353 22.2207 3.25651 21.4794 3.77521 20.5571C4.29979 19.6246 4.83471 18.6981 5.3741 17.7878C5.45457 17.6544 5.53282 17.5188 5.61117 17.3831C5.84621 16.976 6.08208 16.5675 6.38115 16.2107C8.05116 14.2019 10.8298 13.6884 13.1494 14.9733C14.215 15.5641 15.2716 16.1791 16.3276 16.7936L16.3276 16.7936L16.3279 16.7938L16.3283 16.794L16.3286 16.7942L16.3289 16.7944C17.0322 17.2037 17.7352 17.6128 18.4402 18.0144C21.6168 19.8213 25.3151 18.8613 27.0224 15.7609C27.8594 14.2476 28.6571 12.7177 29.4556 11.1863L29.4557 11.1862L29.4557 11.1862L29.4557 11.1861L29.4558 11.186L29.4561 11.1854C29.8574 10.4158 30.2589 9.64587 30.6656 8.87743L33.6954 3.13758C30.7492 1.76606 27.464 1.00027 24 1.00027C11.2975 1.00027 1 11.2977 1 24.0003C1 27.0436 1.59107 29.9488 2.66469 32.6075C2.40188 32.868 2.15505 33.1446 1.9258 33.4356C0.68624 30.5394 0 27.35 0 24.0003C0 10.7454 10.7452 0.000266075 24 0.000266075C27.6327 0.000266075 31.0768 0.807338 34.1629 2.25195L37.2835 -3.65995C37.3227 -3.72783 37.3711 -3.7904 37.4195 -3.85297C37.4437 -3.88425 37.4679 -3.91553 37.4909 -3.94748L54.8663 6.08419C53.8388 7.74446 52.8348 9.364 51.8204 10.9776C50.5114 13.0658 49.2049 15.1555 47.8984 17.2453L47.2964 18.2081C47.7561 20.0631 48 22.0032 48 24.0003C48 37.2551 37.2548 48.0003 24 48.0003C20.6502 48.0003 17.4606 47.314 14.5643 46.0743C14.8553 45.845 15.1319 45.5982 15.3924 45.3354C18.0511 46.4091 20.9565 47.0003 24 47.0003C36.7025 47.0003 47 36.7028 47 24.0003C47 22.4296 46.8426 20.8958 46.5426 19.4136C45.6878 20.7804 44.8327 22.147 43.9764 23.5129C41.8125 26.9743 40.1893 30.6934 38.5912 34.4407C38.3853 34.9238 38.1722 35.4088 37.953 35.908ZM35.5357 40.9032C35.148 41.6703 34.5675 42.0547 33.679 41.9218C30.4521 40.0588 27.2356 38.2017 24.0132 36.3549C23.4242 35.6075 23.5066 34.8677 24.0509 34.1638C24.148 34.0434 24.3558 33.9462 24.499 33.961C26.648 34.2514 28.7093 34.8849 30.6151 35.931C31.9665 36.6705 33.2923 37.441 34.6209 38.2132L34.6227 38.2142C35.0655 38.4716 35.5087 38.7291 35.9533 38.9858L36.46 39.2784C36.3644 39.444 36.269 39.6052 36.1752 39.7637L36.1752 39.7638C35.9461 40.1509 35.7264 40.5221 35.5357 40.9032Z" fill="#56CCF2"/>
</g>
<g clip-path="url(#clip2_444_44)">
<path fill-rule="evenodd" clip-rule="evenodd" d="M9 30C4.02944 30 0 34.0294 0 39C0 43.9706 4.02944 48 9 48C13.9706 48 18 43.9706 18 39C18 34.0294 13.9706 30 9 30ZM5.88494 33.8182V44H12.4027V42.2251H8.03764V33.8182H5.88494Z" fill="#56CCF2"/>
</g>
</g>
<defs>
<clipPath id="clip0_444_44">
<rect width="48" height="48" fill="white"/>
</clipPath>
<clipPath id="clip1_444_44">
<rect width="48" height="48" rx="24" fill="white"/>
</clipPath>
<clipPath id="clip2_444_44">
<rect y="30" width="18" height="18" rx="9" fill="white"/>
</clipPath>
</defs>
</svg>
