<svg viewBox="0 0 30 20" fill="none" xmlns="http://www.w3.org/2000/svg">
<g clip-path="url(#clip0_372_195)">
<path d="M18.475 14.8906L10.1094 6.525C9.40937 7.50313 9 8.70312 9 10C9 13.3125 11.6875 16 15 16C16.2969 16 17.4969 15.5906 18.475 14.8906ZM19.8906 13.475C20.5906 12.4969 21 11.2969 21 10C21 6.6875 18.3125 4 15 4C13.7031 4 12.5031 4.40937 11.525 5.10938L19.8906 13.475ZM23 10C23 14.4187 19.4187 18 15 18C10.5813 18 7 14.4187 7 10C7 5.58125 10.5813 2 15 2C19.4187 2 23 5.58125 23 10Z" fill="#333333"/>
</g>
<path fill-rule="evenodd" clip-rule="evenodd" d="M24.9506 11C24.9833 10.6711 25 10.3375 25 10C25 9.6625 24.9833 9.32891 24.9506 9H30V11H24.9506ZM5.04938 11H0V9H5.04938C5.01672 9.32891 5 9.6625 5 10C5 10.3375 5.01672 10.6711 5.04938 11Z" fill="#333333"/>
<defs>
<clipPath id="clip0_372_195">
<rect width="16" height="16" fill="white" transform="translate(7 2)"/>
</clipPath>
</defs>
</svg>
