<svg viewBox="0 0 32 32" fill="none" xmlns="http://www.w3.org/2000/svg">
<g clip-path="url(#clip0_444_374)">
<g clip-path="url(#clip1_444_374)">
<path fill-rule="evenodd" clip-rule="evenodd" d="M32 0H0V32H32V0ZM23.7002 16.2574L23.726 16.0439L23.675 16.0437L23.4578 14.2027C23.3529 13.3131 23.1059 12.4657 22.6861 11.6915C22.2845 10.9442 21.7529 10.2949 21.0934 9.76306C20.4467 9.23774 19.7153 8.84834 18.9185 8.58773C18.1204 8.32541 17.2827 8.2041 16.4205 8.2041C15.0798 8.2041 13.812 8.51547 12.6663 9.17244C11.4985 9.83821 10.5944 10.802 9.95328 11.9977C9.28523 13.2436 9 14.6655 9 16.1814C9 17.69 9.28011 19.1052 9.93569 20.3477L9.9388 20.3536C10.5751 21.5498 11.4743 22.5159 12.6371 23.1866L12.6406 23.1886C13.7915 23.8493 15.0691 24.1586 16.4205 24.1586C17.3655 24.1586 18.2798 24.017 19.1336 23.6941L19.1401 23.6916C19.9414 23.3854 20.6709 22.9557 21.3003 22.3876C21.9009 21.8449 22.3956 21.214 22.7651 20.4979C23.128 19.7981 23.3631 19.0536 23.4572 18.273L23.6786 16.4371H23.7214L23.7002 16.2574Z" fill="#6FCF97"/>
<path d="M21.4716 14.4371H18.983C18.9375 14.1151 18.8447 13.8291 18.7045 13.5791C18.5644 13.3253 18.3845 13.1094 18.1648 12.9314C17.9451 12.7533 17.6913 12.617 17.4034 12.5223C17.1193 12.4276 16.8106 12.3802 16.4773 12.3802C15.875 12.3802 15.3504 12.5299 14.9034 12.8291C14.4564 13.1246 14.1098 13.5564 13.8636 14.1246C13.6174 14.689 13.4943 15.3746 13.4943 16.1814C13.4943 17.0109 13.6174 17.7079 13.8636 18.2723C14.1136 18.8367 14.4621 19.2628 14.9091 19.5507C15.3561 19.8386 15.8731 19.9825 16.4602 19.9825C16.7898 19.9825 17.0947 19.939 17.375 19.8518C17.6591 19.7647 17.911 19.6378 18.1307 19.4711C18.3504 19.3007 18.5322 19.0943 18.6761 18.8518C18.8239 18.6094 18.9261 18.3329 18.983 18.0223L21.4716 18.0336C21.4072 18.5677 21.2462 19.0829 20.9886 19.5791C20.7348 20.0715 20.392 20.5128 19.9602 20.903C19.5322 21.2893 19.0208 21.5961 18.4261 21.8234C17.8352 22.0469 17.1667 22.1586 16.4205 22.1586C15.3826 22.1586 14.4545 21.9238 13.6364 21.4541C12.822 20.9844 12.178 20.3045 11.7045 19.4143C11.2348 18.5242 11 17.4465 11 16.1814C11 14.9124 11.2386 13.8329 11.7159 12.9427C12.1932 12.0526 12.8409 11.3746 13.6591 10.9086C14.4773 10.439 15.3977 10.2041 16.4205 10.2041C17.0947 10.2041 17.7197 10.2988 18.2955 10.4882C18.875 10.6776 19.3883 10.9541 19.8352 11.3177C20.2822 11.6776 20.6458 12.1189 20.9261 12.6416C21.2102 13.1643 21.392 13.7628 21.4716 14.4371Z" fill="#F2F2F2"/>
</g>
</g>
<defs>
<clipPath id="clip0_444_374">
<rect width="32" height="32" fill="white"/>
</clipPath>
<clipPath id="clip1_444_374">
<rect width="32" height="32" rx="16" fill="white"/>
</clipPath>
</defs>
</svg>
