<svg viewBox="0 0 48 48" fill="none" xmlns="http://www.w3.org/2000/svg">
<g clip-path="url(#clip0_385_20)">
<path d="M24 0C19.2533 0 14.6131 1.40757 10.6663 4.04473C6.71954 6.68188 3.6434 10.4302 1.8269 14.8156C0.0103989 19.201 -0.464881 24.0266 0.461164 28.6822C1.38721 33.3377 3.67299 37.6141 7.02945 40.9706C10.3859 44.327 14.6623 46.6128 19.3178 47.5388C23.9734 48.4649 28.799 47.9896 33.1844 46.1731C37.5698 44.3566 41.3181 41.2805 43.9553 37.3337C46.5924 33.3869 48 28.7467 48 24C48 17.6348 45.4714 11.5303 40.9706 7.02944C36.4697 2.52856 30.3652 0 24 0V0ZM41.8723 29.2391C41.4562 30.0459 40.8954 30.7694 40.2179 31.3736C39.5084 32.0137 38.6835 32.5128 37.7872 32.8442C35.7178 33.5826 33.4515 33.55 31.4043 32.7523L31.6392 33.1915H23.8162L22.3864 30.5259V33.1915H15.4213V27.5745H12.5821V33.1915H5.60682V15.4621H22.846C24.0744 15.4348 25.2919 15.6972 26.4 16.2281C27.2376 16.6364 27.9659 17.2386 28.5243 17.9847C29.078 17.3314 29.7373 16.7756 30.4749 16.3404C31.7768 15.6328 33.2421 15.2805 34.7234 15.3191C35.687 15.3148 36.6453 15.463 37.5626 15.7583C38.4532 16.0441 39.2839 16.4906 40.0136 17.0757C40.7513 17.6742 41.3624 18.4137 41.8111 19.2511C42.276 20.1346 42.5705 21.0977 42.6792 22.0902L42.9447 24.3677H35.9592L35.7447 22.56C35.731 22.4568 35.7 22.3566 35.6528 22.2638C35.6196 22.2012 35.5745 22.1457 35.52 22.1004C35.4442 22.046 35.3619 22.0014 35.2749 21.9677C35.1291 21.9244 34.9776 21.9038 34.8255 21.9064C34.5735 21.8877 34.3224 21.9523 34.1106 22.0902C33.8924 22.25 33.7256 22.4701 33.6306 22.7234C33.4356 23.2347 33.3453 23.7799 33.3651 24.3268C33.3426 24.8805 33.4329 25.433 33.6306 25.9506C33.7199 26.1931 33.88 26.403 34.0902 26.5532C34.3034 26.6877 34.5535 26.752 34.8051 26.737C34.9672 26.7394 35.1288 26.7187 35.2851 26.6757C35.3703 26.6497 35.4499 26.6081 35.52 26.5532C35.577 26.5148 35.6229 26.4619 35.6528 26.4C35.7081 26.3137 35.743 26.2159 35.7549 26.114L36.0613 24.4289H42.9855L42.7098 26.7064C42.5874 27.5946 42.3036 28.453 41.8723 29.2391V29.2391Z" fill="url(#paint0_radial_385_20)"/>
<path d="M28.5242 17.9849C29.0779 17.3316 29.7373 16.7758 30.4748 16.3406C31.7767 15.633 33.2421 15.2807 34.7234 15.3193C34.8765 15.3193 35.0093 15.3193 35.1523 15.3193L41.9336 8.53807L39.7685 6.35254L28.3506 17.7704C28.4134 17.8378 28.4714 17.9094 28.5242 17.9849V17.9849Z" fill="#1B85D2"/>
<path d="M15.4213 33.1911V30.6992L6.06641 40.0541L8.23151 42.2192L17.2596 33.1911H15.4213Z" fill="#1B85D2"/>
<path d="M7.64941 31.1482V17.5039H16.6877V19.8835H10.5601V23.1311H16.1158V25.5311H10.5294V31.1482H7.64941Z" fill="#F2F2F2"/>
<path d="M17.4639 31.1493V17.5051H22.846C23.7542 17.4807 24.6558 17.6659 25.4809 18.0463C26.183 18.383 26.7668 18.9242 27.1558 19.5987C27.5556 20.3195 27.7565 21.1337 27.7379 21.9578C27.7621 22.7774 27.557 23.5874 27.1456 24.2966C26.7482 24.9569 26.1559 25.4778 25.4502 25.7876C24.6075 26.156 23.6939 26.3338 22.7745 26.3085H19.1694V23.9902H22.3047C22.7713 24.0069 23.2365 23.9306 23.6732 23.7655C24.0156 23.6372 24.3039 23.3958 24.4902 23.0812C24.6853 22.7399 24.7809 22.3507 24.766 21.9578C24.7856 21.5605 24.6974 21.1653 24.5107 20.814C24.3259 20.4911 24.0382 20.2394 23.6937 20.0991C23.2552 19.9264 22.7858 19.8464 22.3149 19.8642H20.3439V31.1493H17.4639ZM24.8273 24.94L28.2179 31.1493H25.0315L21.7226 24.94H24.8273Z" fill="#F2F2F2"/>
<path d="M40.6468 22.2737H37.7872C37.7414 21.9163 37.6306 21.5702 37.4604 21.2524C37.3011 20.9613 37.086 20.7045 36.8272 20.4967C36.5642 20.2818 36.2627 20.1189 35.9387 20.0167C35.5862 19.9005 35.2172 19.8418 34.846 19.8431C34.1917 19.8289 33.5481 20.0103 32.9975 20.3639C32.4543 20.7436 32.0323 21.272 31.7821 21.8856C31.4737 22.6545 31.3243 23.4779 31.343 24.3061C31.3218 25.1444 31.4712 25.9783 31.7821 26.7571C32.0338 27.3674 32.4602 27.8897 33.0077 28.2584C33.5518 28.5991 34.1837 28.773 34.8255 28.7588C35.1721 28.754 35.5161 28.699 35.8468 28.5954C36.4881 28.4127 37.0358 27.9928 37.3787 27.421C37.552 27.1201 37.6729 26.7921 37.7362 26.4507H40.6468C40.5751 27.0865 40.3846 27.7032 40.0851 28.2686C39.7809 28.8549 39.3726 29.3809 38.88 29.821C38.3519 30.2859 37.7426 30.6495 37.0826 30.8933C36.3272 31.1694 35.5276 31.3044 34.7234 31.2916C33.5832 31.3104 32.4586 31.0248 31.4655 30.4644C30.4955 29.9027 29.7082 29.0728 29.1983 28.0746C28.6166 26.8983 28.3326 25.5973 28.3711 24.2856C28.3298 22.9693 28.6176 21.6635 29.2085 20.4865C29.7254 19.4898 30.5153 18.6609 31.486 18.0967C32.4815 17.5708 33.5983 17.3171 34.7234 17.3614C35.4721 17.3539 36.2171 17.4677 36.9294 17.6984C37.5833 17.9079 38.1928 18.2369 38.7268 18.6686C39.2593 19.0907 39.6976 19.6194 40.0136 20.221C40.3529 20.8589 40.5678 21.5555 40.6468 22.2737Z" fill="#F2F2F2"/>
</g>
<defs>
<radialGradient id="paint0_radial_385_20" cx="0" cy="0" r="1" gradientUnits="userSpaceOnUse" gradientTransform="translate(24 24) scale(24)">
<stop offset="0.570554" stop-color="#1B85D2" stop-opacity="0"/>
<stop offset="1" stop-color="#1B85D2"/>
</radialGradient>
<clipPath id="clip0_385_20">
<rect width="48" height="48" fill="white"/>
</clipPath>
</defs>
</svg>
