<svg viewBox="0 0 45 39" fill="none" xmlns="http://www.w3.org/2000/svg">
<g clip-path="url(#clip0_372_302)">
<path fill-rule="evenodd" clip-rule="evenodd" d="M35.9998 16.3773L41.0548 11.9995L35.9998 7.62166V4.20508L44.9998 11.9993L35.9998 19.7935V16.3773ZM34.7659 14.8001L37.9998 11.9995L34.5364 9.00009H28.9998V9.00024H21.8694C20.2817 9.01654 18.9998 10.3086 18.9998 11.9001C18.9998 13.5017 20.2981 14.8001 21.8998 14.8001H34.7659Z" fill="#EB5757"/>
<path fill-rule="evenodd" clip-rule="evenodd" d="M22.9119 6.99996C21.0159 2.86892 16.843 0 12 0C5.37258 0 0 5.37258 0 12C0 18.6274 5.37258 24 12 24C16.9208 24 21.1498 21.0382 23.0015 16.8H14.8998C12.1936 16.8 9.99976 14.6062 9.99976 11.9C9.99976 9.19377 12.1936 6.99996 14.8998 6.99996H22.9119ZM23.6219 8.99996H14.8998C13.2981 8.99996 11.9998 10.2983 11.9998 11.9C11.9998 13.5016 13.2981 14.8 14.8998 14.8H23.6716C23.8863 13.9016 24 12.9641 24 12C24 10.9641 23.8687 9.95883 23.6219 8.99996Z" fill="#828282"/>
<path fill-rule="evenodd" clip-rule="evenodd" d="M28.9998 19.7935L37.9998 11.9993L28.9998 4.20508V9.00009H14.8998C13.2981 9.00009 11.9998 10.2985 11.9998 11.9001C11.9998 13.5017 13.2981 14.8001 14.8998 14.8001H28.9998V19.7935Z" fill="#EB5757"/>
<path d="M15.9719 29.2727L14.5231 38H12.6779L14.1268 29.2727H15.9719ZM17.5455 38H15.5682L20.0298 29.2727H22.4077L23.9673 38H21.9901L20.929 31.267H20.8608L17.5455 38ZM17.9972 34.5696H22.6676L22.4205 36.0099H17.75L17.9972 34.5696ZM28.1541 38H25.0178L26.4666 29.2727H29.5433C30.4212 29.2727 31.1499 29.4517 31.7294 29.8097C32.3118 30.1676 32.7223 30.6804 32.9609 31.348C33.1996 32.0128 33.2422 32.8068 33.0888 33.7301C32.9411 34.6222 32.647 35.3878 32.2067 36.027C31.7663 36.6634 31.2024 37.152 30.5149 37.4929C29.8274 37.831 29.0405 38 28.1541 38ZM27.1271 36.419H28.2607C28.8089 36.419 29.2891 36.3168 29.701 36.1122C30.1158 35.9077 30.4553 35.5923 30.7195 35.1662C30.9865 34.7401 31.1754 34.1946 31.2862 33.5298C31.3913 32.8991 31.3842 32.3878 31.2649 31.9957C31.1484 31.6009 30.9226 31.3125 30.5874 31.1307C30.2521 30.946 29.8118 30.8537 29.2663 30.8537H28.0518L27.1271 36.419Z" fill="#EB5757"/>
</g>
<defs>
<clipPath id="clip0_372_302">
<rect width="45" height="39" fill="white"/>
</clipPath>
</defs>
</svg>
