<?xml version="1.0" encoding="UTF-8" standalone="no"?>
<!-- Created with Inkscape (http://www.inkscape.org/) -->

<svg
   width="40.108334"
   height="40.637497"
   viewBox="0 0 20.108334 20.637497"
   version="1.1"
   id="svg5"
   xml:space="preserve"><defs
     id="defs2" /><g
     id="layer1"
     transform="translate(63.988439,-113.45535)"><g
       id="g13771"><path
         style="display:inline;fill:#f3f100;stroke-width:0.264583"
         d="m -55.521774,133.56368 c 0,-0.29104 -0.174127,-0.52916 -0.38695,-0.52916 -2.754085,0 -6.838265,-3.82678 -7.425615,-6.95762 -0.101105,-0.53894 -0.289639,-0.97988 -0.418964,-0.97988 -0.129326,0 -0.235138,-0.71438 -0.235138,-1.5875 0,-0.87313 0.105812,-1.5875 0.235138,-1.5875 0.129325,0 0.317859,-0.44095 0.418964,-0.97988 0.58735,-3.13085 4.67153,-6.95762 7.425615,-6.95762 0.212823,0 0.38695,-0.11907 0.38695,-0.26459 0,-0.14699 0.705556,-0.26458 1.5875,-0.26458 0.881944,0 1.5875,0.11759 1.5875,0.26458 0,0.14552 0.174127,0.26459 0.38695,0.26459 2.754085,0 6.838266,3.82677 7.425615,6.95762 0.101105,0.53893 0.289639,0.97988 0.418964,0.97988 0.129326,0 0.235138,0.71437 0.235138,1.5875 0,0.87312 -0.105812,1.5875 -0.235138,1.5875 -0.129325,0 -0.317859,0.44094 -0.418964,0.97988 -0.587349,3.13084 -4.67153,6.95762 -7.425615,6.95762 -0.212823,0 -0.38695,0.23812 -0.38695,0.52916 0,0.47037 -0.176389,0.52917 -1.5875,0.52917 -1.411111,0 -1.5875,-0.0588 -1.5875,-0.52917 z"
         id="path13775" /><path
         style="display:inline;fill:#181814;stroke-width:0.264583"
         d="m -55.521774,133.56368 c 0,-0.29104 -0.174127,-0.52916 -0.38695,-0.52916 -2.754085,0 -6.838265,-3.82678 -7.425615,-6.95762 -0.101105,-0.53894 -0.289639,-0.97988 -0.418964,-0.97988 -0.129326,0 -0.235138,-0.71438 -0.235138,-1.5875 0,-0.87313 0.105812,-1.5875 0.235138,-1.5875 0.129325,0 0.317859,-0.44095 0.418964,-0.97988 0.58735,-3.13085 4.67153,-6.95762 7.425615,-6.95762 0.212823,0 0.38695,-0.11907 0.38695,-0.26459 0,-0.14699 0.705556,-0.26458 1.5875,-0.26458 0.881944,0 1.5875,0.11759 1.5875,0.26458 0,0.14552 0.174127,0.26459 0.38695,0.26459 2.754085,0 6.838266,3.82677 7.425615,6.95762 0.101105,0.53893 0.289639,0.97988 0.418964,0.97988 0.129326,0 0.235138,0.71437 0.235138,1.5875 0,0.87312 -0.105812,1.5875 -0.235138,1.5875 -0.129325,0 -0.317859,0.44094 -0.418964,0.97988 -0.587349,3.13084 -4.67153,6.95762 -7.425615,6.95762 -0.212823,0 -0.38695,0.23812 -0.38695,0.52916 0,0.47037 -0.176389,0.52917 -1.5875,0.52917 -1.411111,0 -1.5875,-0.0588 -1.5875,-0.52917 z m 5.159375,-2.4023 c 5.265303,-2.4986 6.494234,-9.50463 2.387563,-13.6113 -5.066222,-5.06622 -13.781047,-1.82014 -14.363173,5.34996 -0.514944,6.34261 6.223362,10.99101 11.97561,8.26134 z m -5.592046,-0.78043 c -4.240132,-1.3098 -6.282515,-6.05518 -4.307333,-10.00787 2.635039,-5.27318 9.901661,-5.32021 12.60574,-0.0816 2.835199,5.49264 -2.43526,11.90063 -8.298407,10.08946 z m 0.432671,-3.03497 c 0.217389,-0.57178 0.41469,-0.66146 1.455208,-0.66146 1.040519,0 1.23782,0.0897 1.455209,0.66146 0.283777,0.74639 3.641187,1.07489 3.380212,0.33072 -0.06379,-0.1819 -0.76114,-2.20594 -1.549661,-4.49787 l -1.433676,-4.16715 -1.881968,-4e-5 -1.881968,-4e-5 -1.492136,4.29948 c -0.820674,2.36471 -1.491836,4.38878 -1.491469,4.49792 0.0021,0.61478 3.193792,0.18521 3.440249,-0.46302 z m 1.062385,-3.24115 c 0.01237,-0.60597 0.460383,-0.87143 0.595929,-0.3531 0.09569,0.36592 0.019,0.55154 -0.227876,0.55154 -0.204658,0 -0.370281,-0.0893 -0.368053,-0.19844 z"
         id="path13773" /></g></g></svg>
